<svg height="557" viewBox="0 0 519 557" width="519" xmlns="http://www.w3.org/2000/svg" xmlns:xlink="http://www.w3.org/1999/xlink"><linearGradient id="a" x1="59.119187%" x2="44.869849%" y1="0%" y2="60.905612%"><stop offset="0" stop-color="#6f7fae"/><stop offset="1" stop-color="#52659c"/></linearGradient><linearGradient id="b" x1="52.985418%" x2="52.985489%" y1="-9.935337%" y2="61.798421%"><stop offset="0" stop-color="#fff"/><stop offset=".488187946" stop-color="#fff"/><stop offset=".498351888" stop-color="#fff"/><stop offset="1" stop-color="#52659c"/></linearGradient><g fill="none" fill-rule="evenodd"><path d="m77.6609169 268.161084h120.8689391c16.955582 3.537869 23.270026 15.919507 18.943331 37.144914 8.897723-4.928938 22.767202-27.145382 41.608438-66.649335 3.907711-7.361502 8.683305-15.490917 14.326782-24.388246 5.011346-14.281285 4.084627-44.739927 5.011346-59.493008.92672-14.753081 14.127911-32.255498 45.896229-21.69146 21.178879 7.042692 34.125873 27.534628 38.840982 61.475809.405761 2.136373 1.423003 2.40239 3.051726.798049 2.443083-2.406511 5.422259-3.907101 6.196098-12.630619s20.218343-80.636059 49.551246-132.5313575c-3.792373-23.1171238 6.204114-39.7905964 29.98946-50.02041781 4.552601-.82807148 14.166196 1.27566761 28.840785 6.31121725 2.462887 1.14574784 22.994818 2.95388741 27.834858 10.12974876 4.840039 7.1758613 19.926681 31.3726666 1.37162 55.7877932-3.454543 51.7426851-16.442431 128.8457141-26.091823 143.3093851-1.854991 3.740333-.874093 9.538101.866316 12.960958 1.74041 3.422857 11.132998 19.965426 3.877347 55.839014 18.181132 19.372445 19.479423 40.507574 3.894873 63.405386-.762624 1.1285-.762624 1.975505 0 2.541016 1.143936.848267 22.040486 30.897114-13.787788 63.180296-1.783458 1.431227-2.75011 3.001637-2.189522 5.980447.560588 2.978809 4.200471 32.284225-23.769785 49.172997-1.692489 1.300501-1.861219 3.029961-1.692489 4.972349.16873 1.942389.570832 32.237463-31.768724 45.797088-7.078222 23.546616-9.122134 39.007218-42.344693 37.309835-50.815816-6.848992-84.384492-20.436959-93.794085-32.99081-24.110759-.119005-42.412014 1.240941-51.617918-8.079243-6.13727-6.213455-14.522989-13.759499-25.157157-22.63813h-39.38102c-4.479292 20.478249-13.986991 30.717373-28.523095 30.717373-14.536105 0-52.9279295 0-115.1754738 0-19.58905703-4.058057-26.84621685-16.184948-21.77147948-36.380674 7.61210605-30.293588 24.96749438-96.065402 51.67763038-193.003336 3.7444652-10.83496 9.150019-26.337039 24.4170458-26.337039z" fill="#283779"/><path d="m71.0439166 303.757816c-18.272689 66.536974-35.9400517 132.772753-53.0020881 198.707337-.4071153 5.023231 2.1576002 7.534847 7.6941462 7.534847h110.4052583c5.515253-.833299 9.132252-5.145081 10.850995-12.935346 1.718744-7.790265 18.941284-73.27844 51.667618-196.464525 1.320128-6.400086-1.202281-9.600129-7.567227-9.600129-6.364947 0-42.587327 0-108.6671409 0-5.3120166.455224-9.1058705 4.707829-11.3815615 12.757816z" fill="url(#a)"/><path d="m175 474.395984 38.108589-142.714732c15.509447-4.736082 27.170293-13.970888 34.982538-27.704419 11.718367-20.600297 45.626602-82.642616 46.406547-84.845434.779945-2.202819 4.831327-10.758889 4.20063-32.128916-.420464-14.246685.145258-24.715311 1.697167-31.405877 3.184152-5.352201 9.106508-6.030401 17.767068-2.034601 12.99084 5.993701 33.636007 42.751942 31.00526 79.952986-1.753831 24.800695-4.267546 45.003727-7.541144 60.609095h121.088319c13.523351 5.146169 20.285026 13.306248 20.285026 24.480237 0 11.17399-3.106209 18.941564-9.318627 23.302723-1.621446 1.887267-2.349358 4.799431-2.183737 8.736491.248431 5.90559 8.399516 9.483431 8.399516 23.998606 0 9.676783-4.287931 17.740255-12.863792 24.190416-8.830436 7.302373-12.561948 13.983056-11.194537 20.042049 2.051116 9.08849 3.345092 16.960317-4.091598 25.56841-4.957793 5.738729-10.955022 11.474208-17.991688 17.206438-2.846449 2.638696-3.558062 7.934918-2.134837 15.888666 2.134837 11.930623-19.348772 27.461878-27.876756 27.461878-5.685323 0-54.022852 0-145.012587 0-7.675724-.579013-14.539539-3.922659-20.591443-10.030937-9.077856-9.162418-21.76879-20.573079-33.060284-20.573079-7.527662 0-17.554206 0-30.07963 0z" fill="#fff"/><path d="m464.769157 295c13.487229 5.39048 20.230843 13.68389 20.230843 24.88023s-3.143263 18.979451-9.429788 23.349333c-1.640788 1.891043-2.377384 4.809031-2.209787 8.753966.251395 5.917403 8.499713 9.502401 8.499713 24.046609 0 9.696139-4.339081 17.77574-13.017243 24.238803-8.935773 7.316979-12.711799 14.011025-11.328076 20.082138 2.075584 9.106669 3.384996 16.994242-4.140406 25.619553-5.016934 5.750207-11.085704 11.497159-18.206309 17.240854-2.880404 2.643974-3.600505 7.95079-2.160303 15.920448 2.160303 11.954487-20.068831 26.868066-28.698545 26.868066-.49164 0-31.403642-.024524-37.309256 0 41.82659-8.713047 35.886496-27.618179 35.886496-42.788514 0-8.736017 30.121305-14.566112 22.038143-50.420975 3.113361-14.616557 30.611158-17.273723 14.84256-60.806982-.418417-3.204966-.944262-4.703137.421747-9.372698 12.404136-15.134373-.552323-46.974627-9.401005-47.610831z" fill="#e7e7e7"/><path d="m369.927046 217.416492c-.482023 31.506341-2.124372 49.314206-4.927046 53.423597 13.939753 0 102.642015-1.324137 106.049393 2.159911 2.315405-3.168399 2.785585-13.174754 1.410539-30.019063-5.266187-9.187564-7.817996-16.650199-7.655427-22.387905.243854-8.606559 6.38752-21.384049 9.18625-32.084346 2.79873-10.700296 9.58069-44.517633 12.682044-68.473757 2.06757-15.97075 3.867472-35.2276345 5.399706-57.7706542 10.800949-10.1352606 11.801235-21.3869154 3.000856-33.7549645-7.370513-1.6663837-20.143565-5.1694872-38.319157-10.5093103-14.127401 7.978368-18.525527 18.2338362-13.194378 30.7664048-10.559826 22.4394715-44.468191 95.4678472-49.81915 135.0747702-1.158818 9.710836-4.189024 16.440897-9.090618 20.190182z" fill="url(#b)"/><path d="m304 521h61.256608c16.751243 3.181457 28.665707 4.241942 35.743392 3.181457-3.933851 14.229963-5.835303 16.059087-31.102855 14.229963-16.845035-1.219416-38.81075-7.023222-65.897145-17.41142z" fill="#52659c"/><path d="m343.828713 293.998676c-7.195092.001765-14.178745.001765-20.950957 0-1.01413-.063691-1.299954-.348902-1.225858-1.392778 2.638955-37.177562 2.60571-63.126046-.099733-77.845454-4.108652-22.353795 5.239164-38.052553-11.552165-63.504001 1.083019-.435502 5.064632-.452207 8.839067 1.045801 5.398559 1.509449 20.644257 12.151259 28.841934 47.352343 5.465118 23.467389 4.181022 54.915419-3.852288 94.344089z" fill="#e7e7e7"/></g></svg>