<?xml version="1.0" encoding="UTF-8"?>
<svg width="1361px" height="406px" viewBox="0 0 1361 406" version="1.1" xmlns="http://www.w3.org/2000/svg" xmlns:xlink="http://www.w3.org/1999/xlink">
    <!-- Generator: Sketch 53.2 (72643) - https://sketchapp.com -->
    <title>ASKBanner</title>
    <desc>Created with Sketch.</desc>
    <defs>
        <path d="M250.707683,347.348679 C247.854627,347.348679 214.953914,340.875943 157.468889,349.638403 C130.732928,353.713775 78.2447508,365.577181 0.00435896895,385.228624 C43.8358907,418.380853 74.8770577,440.896368 93.1278601,452.775167 C98.8018252,456.468149 104.520294,459.966647 110.283268,463.270659 L110.283265,463.270664 C134.860836,477.361412 143.362085,508.708277 129.271337,533.285848 C128.809127,534.092052 128.325093,534.885546 127.819773,535.665453 C127.819773,535.665453 127.819773,535.665453 127.819773,535.665453 C117.111531,552.192461 92.1748543,583.947057 53.0097422,630.929241 C123.87492,608.438581 177.89531,593.792104 215.070913,586.989811 C252.246516,580.187517 307.742105,574.795049 381.557682,570.812407 C299.167816,421.836588 255.551149,347.348679 250.707683,347.348679 Z" id="path-1"></path>
        <filter x="-10.5%" y="-14.0%" width="121.0%" height="128.0%" filterUnits="objectBoundingBox" id="filter-2">
            <feMorphology radius="9" operator="erode" in="SourceAlpha" result="shadowSpreadInner1"></feMorphology>
            <feGaussianBlur stdDeviation="22.5" in="shadowSpreadInner1" result="shadowBlurInner1"></feGaussianBlur>
            <feOffset dx="-26" dy="3" in="shadowBlurInner1" result="shadowOffsetInner1"></feOffset>
            <feComposite in="shadowOffsetInner1" in2="SourceAlpha" operator="arithmetic" k2="-1" k3="1" result="shadowInnerInner1"></feComposite>
            <feColorMatrix values="0 0 0 0 0   0 0 0 0 0   0 0 0 0 0  0 0 0 0.5 0" type="matrix" in="shadowInnerInner1"></feColorMatrix>
        </filter>
        <path d="M1227.45421,-1.87583282e-12 C1224.65653,-1.89718967e-12 1190.85932,9.45695888 1135.52996,17.8825534 C1108.55705,21.9900078 1055.63069,28.6558051 976.750881,37.8799452 C1009.36628,70.25088 1035.25871,92.6747107 1054.42818,105.151438 C1056.27524,106.35362 1058.16584,107.532421 1060.09999,108.68784 L1060.09998,108.687849 C1095.10706,129.600318 1106.53299,174.932064 1085.62052,209.939138 C1085.16076,210.708764 1084.68703,211.469952 1084.19955,212.222324 C1084.19955,212.222324 1084.19955,212.222324 1084.19955,212.222324 C1073.20083,229.197656 1055.05306,252.983735 1029.75626,283.580563 C1057.14947,277.134635 1075.96701,272.201012 1086.20888,268.779696 C1163.99455,242.795226 1213.30938,224.716945 1250.0825,217.988297 C1294.11837,209.93073 1330.19227,211.755874 1358.3042,223.463729 C1275.91434,74.4879095 1232.29767,-1.87583282e-12 1227.45421,-1.87583282e-12 Z" id="path-3"></path>
        <filter x="-13.4%" y="-18.0%" width="126.7%" height="136.0%" filterUnits="objectBoundingBox" id="filter-4">
            <feGaussianBlur stdDeviation="38.5" in="SourceAlpha" result="shadowBlurInner1"></feGaussianBlur>
            <feOffset dx="-25" dy="2" in="shadowBlurInner1" result="shadowOffsetInner1"></feOffset>
            <feComposite in="shadowOffsetInner1" in2="SourceAlpha" operator="arithmetic" k2="-1" k3="1" result="shadowInnerInner1"></feComposite>
            <feColorMatrix values="0 0 0 0 0   0 0 0 0 0   0 0 0 0 0  0 0 0 0.5 0" type="matrix" in="shadowInnerInner1"></feColorMatrix>
        </filter>
        <path d="M1082.49542,111.698333 C1077.00418,104.168624 1068.13999,97.3827255 1055.90285,91.3406378 C1043.66571,85.29855 1017.29876,74.8906155 976.801985,60.1168341 C974.160669,74.4851536 974.403304,94.7133391 977.52989,120.801391 C980.656476,146.889442 986.972623,185.644761 996.478331,237.067349 L1116.49468,344.563396 C1118.25662,344.171211 1119.46358,343.706629 1120.11556,343.16965 C1120.64802,342.731103 1121.48124,341.691692 1122.6152,340.051415 L1122.6152,340.051411 C1123.12996,339.306806 1123.28099,338.369578 1123.02618,337.500963 C1118.11916,320.773405 1114.80296,308.693355 1113.07757,301.260813 C1105.98838,270.722284 1102.01493,245.515353 1098.56861,226.618693 C1093.78811,200.406502 1088.43038,162.099716 1082.49542,111.698333 Z" id="path-5"></path>
        <filter x="-14.8%" y="-7.7%" width="129.7%" height="115.5%" filterUnits="objectBoundingBox" id="filter-6">
            <feGaussianBlur stdDeviation="21.5" in="SourceAlpha" result="shadowBlurInner1"></feGaussianBlur>
            <feOffset dx="0" dy="1" in="shadowBlurInner1" result="shadowOffsetInner1"></feOffset>
            <feComposite in="shadowOffsetInner1" in2="SourceAlpha" operator="arithmetic" k2="-1" k3="1" result="shadowInnerInner1"></feComposite>
            <feColorMatrix values="0 0 0 0 0   0 0 0 0 0   0 0 0 0 0  0 0 0 0.5 0" type="matrix" in="shadowInnerInner1"></feColorMatrix>
        </filter>
        <path d="M331.81645,329.293828 C313.63039,315.158744 298.194374,304.94785 285.508402,298.661147 C272.822431,292.374444 253.088728,285.384928 226.307296,277.692601 C234.822331,286.812045 240.749233,305.529869 244.088,333.846071 C247.426768,362.162274 248.458542,402.461217 247.183321,454.7429 L381.544131,570.734989 L381.544131,570.734989 C381.677763,570.92416 381.939446,570.969183 382.128617,570.835551 C382.265171,570.739088 382.331382,570.57073 382.297122,570.40709 L331.81645,329.293828 Z" id="path-7"></path>
        <filter x="-14.1%" y="-7.5%" width="128.2%" height="115.0%" filterUnits="objectBoundingBox" id="filter-8">
            <feGaussianBlur stdDeviation="17" in="SourceAlpha" result="shadowBlurInner1"></feGaussianBlur>
            <feOffset dx="10" dy="1" in="shadowBlurInner1" result="shadowOffsetInner1"></feOffset>
            <feComposite in="shadowOffsetInner1" in2="SourceAlpha" operator="arithmetic" k2="-1" k3="1" result="shadowInnerInner1"></feComposite>
            <feColorMatrix values="0 0 0 0 0   0 0 0 0 0   0 0 0 0 0  0 0 0 0.5 0" type="matrix" in="shadowInnerInner1"></feColorMatrix>
        </filter>
        <path d="M245.193945,192.458467 C279.66217,199.0318 305.019615,203.098672 321.266279,204.659083 C468.103718,218.762086 583.29564,221.213445 667.599324,221.204572 C765.894538,221.194227 914.613857,211.612192 1113.75728,192.458467 C1109.57774,264.530248 1107.48604,318.941406 1107.48217,355.69194 C1107.47885,387.245787 1108.51365,409.222389 1110.58656,421.621747 L1110.58657,421.621746 C1111.0419,424.345376 1109.20309,426.922435 1106.47946,427.377769 C1106.34101,427.400915 1106.20165,427.41822 1106.06175,427.429638 C917.242468,442.84101 775.065106,450.551724 679.529661,450.561778 C594.70673,450.570706 470.621399,453.263485 312.733542,447.149506 C298.264031,446.589196 276.77939,443.775776 248.279619,438.709246 L245.193945,192.458467 Z" id="path-9"></path>
        <filter x="-2.4%" y="-8.1%" width="104.8%" height="116.2%" filterUnits="objectBoundingBox" id="filter-10">
            <feMorphology radius="2" operator="erode" in="SourceAlpha" result="shadowSpreadInner1"></feMorphology>
            <feGaussianBlur stdDeviation="16.5" in="shadowSpreadInner1" result="shadowBlurInner1"></feGaussianBlur>
            <feOffset dx="7" dy="0" in="shadowBlurInner1" result="shadowOffsetInner1"></feOffset>
            <feComposite in="shadowOffsetInner1" in2="SourceAlpha" operator="arithmetic" k2="-1" k3="1" result="shadowInnerInner1"></feComposite>
            <feColorMatrix values="0 0 0 0 0   0 0 0 0 0   0 0 0 0 0  0 0 0 0.5 0" type="matrix" in="shadowInnerInner1"></feColorMatrix>
        </filter>
        <ellipse id="path-11" cx="81.4317356" cy="83.4220621" rx="81.4317356" ry="83.4220621"></ellipse>
        <filter x="-15.0%" y="-12.3%" width="130.1%" height="129.4%" filterUnits="objectBoundingBox" id="filter-12">
            <feOffset dx="0" dy="4" in="SourceAlpha" result="shadowOffsetOuter1"></feOffset>
            <feGaussianBlur stdDeviation="7.5" in="shadowOffsetOuter1" result="shadowBlurOuter1"></feGaussianBlur>
            <feColorMatrix values="0 0 0 0 0   0 0 0 0 0   0 0 0 0 0  0 0 0 0.73552229 0" type="matrix" in="shadowBlurOuter1"></feColorMatrix>
        </filter>
        <ellipse id="path-13" cx="82.4726912" cy="82.2466667" rx="82.4726912" ry="82.2466667"></ellipse>
        <filter x="-33.3%" y="-32.2%" width="166.7%" height="166.9%" filterUnits="objectBoundingBox" id="filter-14">
            <feMorphology radius="1" operator="dilate" in="SourceAlpha" result="shadowSpreadOuter1"></feMorphology>
            <feOffset dx="0" dy="2" in="shadowSpreadOuter1" result="shadowOffsetOuter1"></feOffset>
            <feGaussianBlur stdDeviation="17" in="shadowOffsetOuter1" result="shadowBlurOuter1"></feGaussianBlur>
            <feColorMatrix values="0 0 0 0 0   0 0 0 0 0   0 0 0 0 0  0 0 0 0.5 0" type="matrix" in="shadowBlurOuter1"></feColorMatrix>
        </filter>
        <circle id="path-15" cx="81.5" cy="81.9933333" r="81.5"></circle>
        <filter x="-14.7%" y="-12.9%" width="129.4%" height="129.4%" filterUnits="objectBoundingBox" id="filter-16">
            <feOffset dx="0" dy="3" in="SourceAlpha" result="shadowOffsetOuter1"></feOffset>
            <feGaussianBlur stdDeviation="7.5" in="shadowOffsetOuter1" result="shadowBlurOuter1"></feGaussianBlur>
            <feColorMatrix values="0 0 0 0 0   0 0 0 0 0   0 0 0 0 0  0 0 0 0.742324082 0" type="matrix" in="shadowBlurOuter1"></feColorMatrix>
        </filter>
        <path d="M82.2775458,48.8393876 C95.6324342,54.6791116 104.367951,64.3622742 104.367951,75.3221164 C104.367951,46.7798266 81.2298992,23.6417753 52.6876094,23.6417753 C65.2618497,23.6417753 76.2613943,33.7482645 82.2775458,48.8393876 Z" id="path-17"></path>
        <filter x="-13.5%" y="-9.7%" width="127.1%" height="127.1%" filterUnits="objectBoundingBox" id="filter-18">
            <feOffset dx="0" dy="2" in="SourceAlpha" result="shadowOffsetOuter1"></feOffset>
            <feGaussianBlur stdDeviation="2" in="shadowOffsetOuter1" result="shadowBlurOuter1"></feGaussianBlur>
            <feColorMatrix values="0 0 0 0 0   0 0 0 0 0   0 0 0 0 0  0 0 0 0.5 0" type="matrix" in="shadowBlurOuter1"></feColorMatrix>
        </filter>
        <path d="M82.2775458,101.805093 C76.2616425,116.896217 65.262346,127.002706 52.6876094,127.002706 C81.2298992,127.002706 104.367951,103.864654 104.367951,75.3223646 C104.367951,86.2822068 95.632186,95.9656176 82.2775458,101.805093 Z" id="path-19"></path>
        <filter x="-15.5%" y="-17.4%" width="131.0%" height="131.0%" filterUnits="objectBoundingBox" id="filter-20">
            <feOffset dx="0" dy="-1" in="SourceAlpha" result="shadowOffsetOuter1"></feOffset>
            <feGaussianBlur stdDeviation="2.5" in="shadowOffsetOuter1" result="shadowBlurOuter1"></feGaussianBlur>
            <feColorMatrix values="0 0 0 0 0   0 0 0 0 0   0 0 0 0 0  0 0 0 0.5 0" type="matrix" in="shadowBlurOuter1"></feColorMatrix>
        </filter>
        <path d="M7.87255432,91.4152284 C3.50653311,86.6772455 1.00702009,81.182436 1.00702009,75.3221164 C1.00702009,103.864406 24.1450714,127.002458 52.6873612,127.002458 C49.7320153,127.002458 46.8650071,126.437443 44.127776,125.387563 C27.0140647,121.002435 13.3266689,108.072859 7.87255432,91.4152284 Z" id="path-21"></path>
        <filter x="-16.4%" y="-12.6%" width="132.9%" height="132.9%" filterUnits="objectBoundingBox" id="filter-22">
            <feOffset dx="0" dy="2" in="SourceAlpha" result="shadowOffsetOuter1"></feOffset>
            <feGaussianBlur stdDeviation="2.5" in="shadowOffsetOuter1" result="shadowBlurOuter1"></feGaussianBlur>
            <feColorMatrix values="0 0 0 0 0   0 0 0 0 0   0 0 0 0 0  0 0 0 0.5 0" type="matrix" in="shadowBlurOuter1"></feColorMatrix>
        </filter>
        <path d="M126.21368,109.048837 C125.794529,109.047523 125.378878,108.972634 124.985103,108.828112 C107.215809,102.164746 88.0079246,100.296463 69.2896335,103.411581 L56.7868545,105.49621 C54.8731103,105.769489 53.1002499,104.438129 52.8272329,102.522549 C52.5634039,100.671784 53.7976683,98.9397032 55.6317826,98.5871557 L68.1380617,96.4850095 C88.0691784,93.1701876 108.520515,95.1580297 127.442256,102.248394 C129.261495,102.902687 130.206116,104.909361 129.55245,106.730345 C129.047544,108.137031 127.70696,109.068107 126.21368,109.048837 Z" id="path-23"></path>
        <filter x="-1.9%" y="-10.6%" width="103.9%" height="121.2%" filterUnits="objectBoundingBox" id="filter-24">
            <feOffset dx="0" dy="0" in="SourceAlpha" result="shadowOffsetOuter1"></feOffset>
            <feGaussianBlur stdDeviation="0.5" in="shadowOffsetOuter1" result="shadowBlurOuter1"></feGaussianBlur>
            <feColorMatrix values="0 0 0 0 0   0 0 0 0 0   0 0 0 0 0  0 0 0 0.5 0" type="matrix" in="shadowBlurOuter1"></feColorMatrix>
        </filter>
        <path d="M63.2097547,88.0273744 C61.2767593,88.0159878 59.7187247,86.4380642 59.7301004,84.5032138 C59.7379759,83.167475 60.5036486,81.9526097 61.7046609,81.3705779 L135.20924,46.334807 C136.954974,45.5027075 139.043729,46.2445899 139.875031,47.991999 C140.706333,49.7394081 139.965161,51.8301677 138.219428,52.6622672 L138.219428,52.6622672 L64.7148484,87.6980381 C64.2440691,87.9183255 63.7299746,88.030878 63.2097547,88.0273744 Z" id="path-25"></path>
        <filter x="-1.9%" y="-3.6%" width="103.7%" height="107.1%" filterUnits="objectBoundingBox" id="filter-26">
            <feOffset dx="0" dy="0" in="SourceAlpha" result="shadowOffsetOuter1"></feOffset>
            <feGaussianBlur stdDeviation="0.5" in="shadowOffsetOuter1" result="shadowBlurOuter1"></feGaussianBlur>
            <feColorMatrix values="0 0 0 0 0   0 0 0 0 0   0 0 0 0 0  0 0 0 0.5 0" type="matrix" in="shadowBlurOuter1"></feColorMatrix>
        </filter>
        <path d="M14.949194,82.3223408 C14.487399,82.3225455 14.0298475,82.2303905 13.6041231,82.0507312 C11.8180171,81.3035194 10.9715617,79.2518565 11.7135441,77.4677791 C11.7135441,77.4677791 11.7135435,77.4673413 11.7135435,77.4673413 L16.7874485,65.2561604 C24.5942752,46.5470096 26.3909586,25.8579281 21.9299448,6.04795633 C21.4728702,4.16714479 22.6261565,2.27685323 24.5050761,1.82519542 C26.3844333,1.37353825 28.2779386,2.53239357 28.7350125,4.41276735 C28.7451403,4.45436856 28.7543926,4.4959685 28.7632078,4.53800556 C33.5422968,25.7588784 31.6164282,47.9212476 23.2521206,67.9621076 L18.1747138,80.1732834 C17.6329484,81.475686 16.3612822,82.3230788 14.949194,82.3223408 L14.949194,82.3223408 Z" id="path-27"></path>
        <filter x="-7.5%" y="-1.9%" width="115.0%" height="103.7%" filterUnits="objectBoundingBox" id="filter-28">
            <feOffset dx="0" dy="0" in="SourceAlpha" result="shadowOffsetOuter1"></feOffset>
            <feGaussianBlur stdDeviation="0.5" in="shadowOffsetOuter1" result="shadowBlurOuter1"></feGaussianBlur>
            <feColorMatrix values="0 0 0 0 0   0 0 0 0 0   0 0 0 0 0  0 0 0 0.5 0" type="matrix" in="shadowBlurOuter1"></feColorMatrix>
        </filter>
        <circle id="path-29" cx="128.056063" cy="195.506313" r="2"></circle>
        <filter x="-175.0%" y="-125.0%" width="450.0%" height="450.0%" filterUnits="objectBoundingBox" id="filter-30">
            <feOffset dx="0" dy="2" in="SourceAlpha" result="shadowOffsetOuter1"></feOffset>
            <feGaussianBlur stdDeviation="2" in="shadowOffsetOuter1" result="shadowBlurOuter1"></feGaussianBlur>
            <feColorMatrix values="0 0 0 0 0   0 0 0 0 0   0 0 0 0 0  0 0 0 0.5 0" type="matrix" in="shadowBlurOuter1"></feColorMatrix>
        </filter>
        <circle id="path-31" cx="115.370302" cy="77.4136199" r="2"></circle>
        <filter x="-175.0%" y="-125.0%" width="450.0%" height="450.0%" filterUnits="objectBoundingBox" id="filter-32">
            <feOffset dx="0" dy="2" in="SourceAlpha" result="shadowOffsetOuter1"></feOffset>
            <feGaussianBlur stdDeviation="2" in="shadowOffsetOuter1" result="shadowBlurOuter1"></feGaussianBlur>
            <feColorMatrix values="0 0 0 0 0   0 0 0 0 0   0 0 0 0 0  0 0 0 0.5 0" type="matrix" in="shadowBlurOuter1"></feColorMatrix>
        </filter>
        <circle id="path-33" cx="86.6286971" cy="35.2956885" r="2"></circle>
        <filter x="-175.0%" y="-125.0%" width="450.0%" height="450.0%" filterUnits="objectBoundingBox" id="filter-34">
            <feOffset dx="0" dy="2" in="SourceAlpha" result="shadowOffsetOuter1"></feOffset>
            <feGaussianBlur stdDeviation="2" in="shadowOffsetOuter1" result="shadowBlurOuter1"></feGaussianBlur>
            <feColorMatrix values="0 0 0 0 0   0 0 0 0 0   0 0 0 0 0  0 0 0 0.5 0" type="matrix" in="shadowBlurOuter1"></feColorMatrix>
        </filter>
        <path d="M197.951772,120.405092 C199.056342,120.405092 199.951772,119.509661 199.951772,118.405092 C199.951772,117.300522 199.056342,116.405092 197.951772,116.405092 C196.847203,116.405092 195.951772,117.300522 195.951772,118.405092 C195.951772,119.509661 196.847203,120.405092 197.951772,120.405092 Z M116.029647,186.970376 C119.89564,186.970376 123.029647,183.83637 123.029647,179.970376 C123.029647,176.104383 119.89564,172.970376 116.029647,172.970376 C112.163654,172.970376 109.029647,176.104383 109.029647,179.970376 C109.029647,183.83637 112.163654,186.970376 116.029647,186.970376 Z" id="path-35"></path>
        <filter x="-7.7%" y="-7.1%" width="115.4%" height="119.8%" filterUnits="objectBoundingBox" id="filter-36">
            <feOffset dx="0" dy="2" in="SourceAlpha" result="shadowOffsetOuter1"></feOffset>
            <feGaussianBlur stdDeviation="2" in="shadowOffsetOuter1" result="shadowBlurOuter1"></feGaussianBlur>
            <feColorMatrix values="0 0 0 0 0   0 0 0 0 0   0 0 0 0 0  0 0 0 0.5 0" type="matrix" in="shadowBlurOuter1"></feColorMatrix>
        </filter>
        <circle id="path-37" cx="91.4593201" cy="70.90022" r="7"></circle>
        <filter x="-50.0%" y="-35.7%" width="200.0%" height="200.0%" filterUnits="objectBoundingBox" id="filter-38">
            <feOffset dx="0" dy="2" in="SourceAlpha" result="shadowOffsetOuter1"></feOffset>
            <feGaussianBlur stdDeviation="2" in="shadowOffsetOuter1" result="shadowBlurOuter1"></feGaussianBlur>
            <feColorMatrix values="0 0 0 0 0   0 0 0 0 0   0 0 0 0 0  0 0 0 0.5 0" type="matrix" in="shadowBlurOuter1"></feColorMatrix>
        </filter>
        <path d="M40.4408221,98.4699272 C36.5746346,98.4699272 33.4408221,95.3361147 33.4408221,91.4699272 C33.4408221,87.6037397 36.5746346,84.4699272 40.4408221,84.4699272 C44.3070096,84.4699272 47.4408221,87.6037397 47.4408221,91.4699272 C47.4408221,95.3361147 44.3070096,98.4699272 40.4408221,98.4699272 Z" id="path-39"></path>
        <filter x="-50.0%" y="-35.7%" width="200.0%" height="200.0%" filterUnits="objectBoundingBox" id="filter-40">
            <feOffset dx="0" dy="2" in="SourceAlpha" result="shadowOffsetOuter1"></feOffset>
            <feGaussianBlur stdDeviation="2" in="shadowOffsetOuter1" result="shadowBlurOuter1"></feGaussianBlur>
            <feColorMatrix values="0 0 0 0 0   0 0 0 0 0   0 0 0 0 0  0 0 0 0.5 0" type="matrix" in="shadowBlurOuter1"></feColorMatrix>
        </filter>
        <path d="M45.4798115,41.3584258 C44.3751865,41.3584258 43.4798115,40.4630508 43.4798115,39.3584258 C43.4798115,38.2538008 44.3751865,37.3584258 45.4798115,37.3584258 C46.5844365,37.3584258 47.4798115,38.2538008 47.4798115,39.3584258 C47.4798115,40.4630508 46.5844365,41.3584258 45.4798115,41.3584258 Z" id="path-41"></path>
        <filter x="-162.5%" y="-137.5%" width="425.0%" height="425.0%" filterUnits="objectBoundingBox" id="filter-42">
            <feOffset dx="0" dy="1" in="SourceAlpha" result="shadowOffsetOuter1"></feOffset>
            <feGaussianBlur stdDeviation="2" in="shadowOffsetOuter1" result="shadowBlurOuter1"></feGaussianBlur>
            <feColorMatrix values="0 0 0 0 0   0 0 0 0 0   0 0 0 0 0  0 0 0 0.5 0" type="matrix" in="shadowBlurOuter1"></feColorMatrix>
        </filter>
        <path d="M70.1223974,137.157509 C68.1871186,137.157076 66.6184828,135.608013 66.6189208,133.697949 C66.6193589,132.718273 67.0403192,131.784858 67.7779855,131.129003 L102.821512,100.000746 C104.285017,98.7508598 106.498016,98.9086628 107.764401,100.3531 C108.995743,101.757331 108.883604,103.870593 107.510336,105.140367 L72.4668093,136.268624 C71.8237606,136.840606 70.9884105,137.157076 70.1223974,137.157509 L70.1223974,137.157509 Z" id="path-43"></path>
        <filter x="-3.6%" y="-3.9%" width="107.1%" height="107.9%" filterUnits="objectBoundingBox" id="filter-44">
            <feOffset dx="0" dy="0" in="SourceAlpha" result="shadowOffsetOuter1"></feOffset>
            <feGaussianBlur stdDeviation="0.5" in="shadowOffsetOuter1" result="shadowBlurOuter1"></feGaussianBlur>
            <feColorMatrix values="0 0 0 0 0   0 0 0 0 0   0 0 0 0 0  0 0 0 0.5 0" type="matrix" in="shadowBlurOuter1"></feColorMatrix>
        </filter>
        <path d="M14.1607552,38.5073022 C12.2172152,38.5073022 10.6414433,36.9431061 10.6414433,35.0138436 L10.6414433,31.520385 C10.6414433,29.5911225 12.2172152,28.0269265 14.1607552,28.0269265 C16.1042953,28.0269265 17.6800672,29.5911225 17.6800672,31.520385 L17.6800672,35.0138436 C17.6800672,36.9431061 16.1047352,38.5073022 14.1607552,38.5073022 Z" id="path-45"></path>
        <filter x="-92.3%" y="-52.5%" width="284.7%" height="224.0%" filterUnits="objectBoundingBox" id="filter-46">
            <feOffset dx="0" dy="1" in="SourceAlpha" result="shadowOffsetOuter1"></feOffset>
            <feGaussianBlur stdDeviation="2" in="shadowOffsetOuter1" result="shadowBlurOuter1"></feGaussianBlur>
            <feColorMatrix values="0 0 0 0 0   0 0 0 0 0   0 0 0 0 0  0 0 0 0.5 0" type="matrix" in="shadowBlurOuter1"></feColorMatrix>
        </filter>
        <path d="M27.8001867,16.438845 L24.284195,16.4301953 C22.3424887,16.4254186 20.7643305,14.855863 20.7595538,12.9247668 C20.754777,10.9936707 22.3251894,9.43186085 24.2668958,9.43663761 L27.7828874,9.44528725 C29.7245938,9.45006402 31.302752,11.0196196 31.3075287,12.9507158 C31.3123055,14.8818119 29.7423326,16.4436228 27.8001867,16.438845 Z" id="path-47"></path>
        <filter x="-61.6%" y="-78.5%" width="223.2%" height="285.7%" filterUnits="objectBoundingBox" id="filter-48">
            <feOffset dx="0" dy="1" in="SourceAlpha" result="shadowOffsetOuter1"></feOffset>
            <feGaussianBlur stdDeviation="2" in="shadowOffsetOuter1" result="shadowBlurOuter1"></feGaussianBlur>
            <feColorMatrix values="0 0 0 0 0   0 0 0 0 0   0 0 0 0 0  0 0 0 0.5 0" type="matrix" in="shadowBlurOuter1"></feColorMatrix>
        </filter>
        <path d="M7.40890739,11.0598376 C6.47637223,11.0622195 5.58345694,10.6955599 4.92594988,10.0415398 L2.44670994,7.57544823 C1.10157284,6.1896754 1.14549113,3.9754848 2.54554139,2.6303478 C3.91122954,1.31808355 6.07117786,1.31256669 7.43058422,2.61787061 L9.90982416,5.08396223 C11.2791911,6.44650513 11.2730664,8.66059919 9.8962458,10.0297192 C9.23581197,10.6866683 8.3410031,11.0574569 7.40890739,11.0598376 L7.40890739,11.0598376 Z" id="path-49"></path>
        <filter x="-68.7%" y="-58.4%" width="237.3%" height="238.0%" filterUnits="objectBoundingBox" id="filter-50">
            <feOffset dx="0" dy="1" in="SourceAlpha" result="shadowOffsetOuter1"></feOffset>
            <feGaussianBlur stdDeviation="2" in="shadowOffsetOuter1" result="shadowBlurOuter1"></feGaussianBlur>
            <feColorMatrix values="0 0 0 0 0   0 0 0 0 0   0 0 0 0 0  0 0 0 0.5 0" type="matrix" in="shadowBlurOuter1"></feColorMatrix>
        </filter>
        <polygon id="path-51" points="32.1773598 0.177571456 34.3522946 4.77772656 39.2159837 5.51527938 35.6966718 9.09578975 36.5272294 14.1514058 32.1773598 11.7639091 27.8274903 14.1514058 28.6580479 9.09578975 25.138736 5.51527938 30.0024251 4.77772656"></polygon>
        <filter x="-49.7%" y="-35.8%" width="199.5%" height="200.2%" filterUnits="objectBoundingBox" id="filter-52">
            <feOffset dx="0" dy="2" in="SourceAlpha" result="shadowOffsetOuter1"></feOffset>
            <feGaussianBlur stdDeviation="2" in="shadowOffsetOuter1" result="shadowBlurOuter1"></feGaussianBlur>
            <feColorMatrix values="0 0 0 0 0   0 0 0 0 0   0 0 0 0 0  0 0 0 0.5 0" type="matrix" in="shadowBlurOuter1"></feColorMatrix>
        </filter>
        <path d="M191.532506,221.140978 C189.875978,215.198525 186.061826,210.110092 180.854102,206.894954 L179.419169,204.716274 C171.37336,192.537439 158.721488,184.256343 144.447917,181.82604 C142.543671,181.551061 140.779609,182.890702 140.507947,184.818199 C140.245428,186.680476 141.473566,188.423331 143.298577,188.778072 C153.593869,190.546927 162.97622,195.841153 169.876172,203.775 C164.075058,204.83129 159.001422,208.357983 155.94479,213.459195 C152.193765,220.259195 154.599105,228.849202 161.317079,232.646027 C168.035053,236.442851 176.521442,234.008142 180.272466,227.208142 C181.705222,224.408556 182.478849,221.311077 182.532833,218.158514 C186.238581,223.606535 186.535058,230.721174 183.295576,236.465766 C182.314285,238.140317 182.859785,240.303133 184.514137,241.296406 C186.168489,242.289679 188.305214,241.737518 189.286506,240.062967 C189.317852,240.009205 189.347891,239.955002 189.376625,239.899478 C192.54079,234.188817 193.317029,227.434206 191.532506,221.140978 L191.532506,221.140978 Z M174.198384,223.76738 C172.339415,227.176854 168.102098,228.415141 164.734186,226.533474 C161.365839,224.651807 160.142489,220.362752 162.001458,216.953719 C162.011907,216.93477 162.022355,216.91538 162.032804,216.896431 C164.088118,213.490042 167.554856,211.206482 171.46435,210.684728 C172.06993,210.667982 172.669414,210.808997 173.205773,211.093671 C176.145294,212.75412 176.302022,219.952928 174.198384,223.76738 Z" id="path-53"></path>
        <filter x="-2.9%" y="-2.5%" width="105.8%" height="105.0%" filterUnits="objectBoundingBox" id="filter-54">
            <feOffset dx="0" dy="0" in="SourceAlpha" result="shadowOffsetOuter1"></feOffset>
            <feGaussianBlur stdDeviation="0.5" in="shadowOffsetOuter1" result="shadowBlurOuter1"></feGaussianBlur>
            <feColorMatrix values="0 0 0 0 0   0 0 0 0 0   0 0 0 0 0  0 0 0 0.5 0" type="matrix" in="shadowBlurOuter1"></feColorMatrix>
        </filter>
        <path d="M30.2520866,54.7279154 L29.3872314,53.4470628 C24.5379023,46.2870864 16.9124302,41.418603 8.30953523,39.9898202 C7.16181783,39.8281592 6.09859175,40.6157384 5.93485703,41.7489199 C5.77663261,42.8437587 6.51684998,43.868389 7.61681142,44.0769421 C13.8219374,45.1168576 19.4768202,48.2293501 23.6355246,52.8936847 C20.1391062,53.5146806 17.0811504,55.5880348 15.2388724,58.5870538 C12.9780738,62.5847958 14.4278083,67.6348888 18.4768314,69.8670542 C22.5258546,72.0992197 27.6407277,70.6678462 29.9015263,66.6701042 C30.7650695,65.024219 31.2313461,63.203201 31.2638831,61.349799 C33.4973926,64.5527077 33.6760839,68.7354272 31.7235998,72.1126914 C31.1321607,73.0971655 31.4609421,74.3686915 32.4580445,74.9526401 C33.455147,75.5365887 34.7429835,75.2119713 35.3344227,74.2274972 C35.3533152,74.1958904 35.3714204,74.1640246 35.3887385,74.1313815 C37.2958282,70.7740658 37.7636791,66.8030082 36.6881205,63.1031991 C35.689706,59.6096115 33.3908601,56.6181056 30.2520866,54.7279154 Z M26.8506319,65.9432325 C25.6774744,68.07331 23.0033897,68.8469326 20.877969,67.6713567 C18.7522736,66.4957807 17.9802426,63.8161834 19.1534,61.6863812 C19.1599939,61.6745428 19.1665878,61.6624292 19.1731816,61.6505908 C20.4702487,59.5224404 22.6580363,58.0957813 25.1252387,57.7698136 C25.5074078,57.7593518 25.8857305,57.8474512 26.2242153,58.0253018 C28.0792877,59.0626719 28.1781956,63.5601446 26.8506319,65.9432325 Z" id="path-55"></path>
        <filter x="-20.7%" y="-15.6%" width="141.5%" height="136.8%" filterUnits="objectBoundingBox" id="filter-56">
            <feOffset dx="0" dy="1" in="SourceAlpha" result="shadowOffsetOuter1"></feOffset>
            <feGaussianBlur stdDeviation="2" in="shadowOffsetOuter1" result="shadowBlurOuter1"></feGaussianBlur>
            <feColorMatrix values="0 0 0 0 0   0 0 0 0 0   0 0 0 0 0  0 0 0 0.5 0" type="matrix" in="shadowBlurOuter1"></feColorMatrix>
        </filter>
    </defs>
    <g id="ASKComp" stroke="none" stroke-width="1" fill="none" fill-rule="evenodd">
        <g id="Artboard" transform="translate(-3.000000, -428.000000)">
            <g id="Group-4" transform="translate(-43.000000, -275.500000)">
                <g id="ASKBanner" transform="translate(0.000000, 475.500000)">
                    <g id="Group-5">
                        <g id="Group-3" transform="translate(727.215909, 439.358089) rotate(-349.000000) translate(-727.215909, -439.358089) translate(47.715909, 123.858089)">
                            <g id="Path-3">
                                <use fill="#1C1C1C" fill-rule="evenodd" xlink:href="#path-1"></use>
                                <use fill="black" fill-opacity="1" filter="url(#filter-2)" xlink:href="#path-1"></use>
                            </g>
                            <path d="M191.210421,477.219237 C200.133917,419.48062 225.63255,375.047487 267.70632,343.919837 C276.887889,455.92742 286.994772,519.470661 298.026967,534.549561 C309.059163,549.628461 329.199987,568.457531 358.449438,591.036771 C327.002667,585.767199 302.103825,582.096167 283.752912,580.023674 C265.401999,577.951182 256.998489,576.753454 258.542383,576.430492 C210.041492,538.210115 187.597505,505.139697 191.210421,477.219237 Z" id="Rectangle" fill-opacity="0.177474869" fill="#000000" transform="translate(274.642074, 467.478304) rotate(-12.000000) translate(-274.642074, -467.478304) "></path>
                            <g id="Path-3" transform="translate(1167.527543, 141.790281) rotate(-180.000000) translate(-1167.527543, -141.790281) ">
                                <use fill="#1C1C1C" fill-rule="evenodd" xlink:href="#path-3"></use>
                                <use fill="black" fill-opacity="1" filter="url(#filter-4)" xlink:href="#path-3"></use>
                            </g>
                            <g id="Path-2">
                                <use fill="#4E4E4E" fill-rule="evenodd" xlink:href="#path-5"></use>
                                <use fill="black" fill-opacity="1" filter="url(#filter-6)" xlink:href="#path-5"></use>
                            </g>
                            <g id="Path-2" transform="translate(304.307296, 424.302396) scale(-1, -1) translate(-304.307296, -424.302396) ">
                                <use fill="#494949" fill-rule="evenodd" xlink:href="#path-7"></use>
                                <use fill="black" fill-opacity="1" filter="url(#filter-8)" xlink:href="#path-7"></use>
                            </g>
                            <g id="Rectangle" transform="translate(679.475613, 321.809222) rotate(-11.000000) translate(-679.475613, -321.809222) ">
                                <use fill="#1C1C1C" fill-rule="evenodd" xlink:href="#path-9"></use>
                                <use fill="black" fill-opacity="1" filter="url(#filter-10)" xlink:href="#path-9"></use>
                            </g>
                        </g>
                        <g id="ASKS" transform="translate(332.284091, 356.141911)">
                            <g id="Message" transform="translate(625.292949, 0.500000)">
                                <g transform="translate(0.707051, 0.500000)">
                                    <g id="messages" transform="translate(54.875239, 50.102376)" fill="#FFFFFF">
                                        <path d="M20.8341815,66.0303653 C20.730786,66.5297546 20.6790883,66.9736562 20.6790883,67.4730455 L20.6790883,79.3474137 C20.6790883,83.3425282 23.3156721,83.6199668 26.0039536,80.790094 L41.3581767,66.5852423 L50.7671618,66.5852423 C68.3960846,66.5852423 82.7163533,51.4925874 82.7163533,32.8487195 C82.7163533,14.2048517 68.3960846,0 50.7671618,0 L31.9491915,0 C14.3202687,3.15411068e-13 0,15.0926549 0,33.7365228 C0,48.9401531 7.7029604,61.8687876 20.8341815,66.0303653 Z M20.6790883,22.1950808 L62.037265,22.1950808 L62.037265,27.7438509 L20.6790883,27.7438509 L20.6790883,22.1950808 L20.6790883,22.1950808 Z M20.6790883,33.2926211 L62.037265,33.2926211 L62.037265,38.8413913 L20.6790883,38.8413913 L20.6790883,33.2926211 L20.6790883,33.2926211 Z M20.6790883,44.3901615 L46.5279487,44.3901615 L46.5279487,49.9389317 L20.6790883,49.9389317 L20.6790883,44.3901615 L20.6790883,44.3901615 Z" id="Shape"></path>
                                    </g>
                                    <g id="Dart-ASK-Copy" fill-rule="nonzero">
                                        <g id="Board">
                                            <g id="Oval-6">
                                                <use fill="black" fill-opacity="1" filter="url(#filter-12)" xlink:href="#path-11"></use>
                                                <use fill="#FF5858" xlink:href="#path-11"></use>
                                            </g>
                                            <ellipse id="Oval-6-Copy" fill="#FFFFFF" cx="81.6103139" cy="83.6050052" rx="65.8954176" ry="67.5060108"></ellipse>
                                            <ellipse id="Oval-6-Copy-2" fill="#FF5858" cx="81.9674707" cy="83.9708915" rx="46.6089539" ry="47.748154"></ellipse>
                                            <ellipse id="Oval-6-Copy-3" fill="#FFFFFF" cx="81.9674707" cy="83.9708915" rx="31.608371" ry="32.380932"></ellipse>
                                            <ellipse id="Oval-6-Copy-4" fill="#FF5858" cx="81.7888923" cy="83.7879483" rx="13.9291127" ry="14.2695633"></ellipse>
                                        </g>
                                        <g id="Dart" transform="translate(17.492669, 20.363885)">
                                            <path d="M13.071746,9.10104885 L31.3179367,27.0055482 L31.8138481,20.2120469 C31.8138481,17.8976558 30.931612,15.6751236 29.3557369,14.0183973 L16.9192876,0.943888323 C16.4970451,0.499982472 15.9185489,0.25 15.3148633,0.25 C14.077393,0.25 13.071746,1.28022666 13.071746,2.55405319 L13.071746,9.10104885 Z" id="Rectangle-10" stroke="#FFFFFF" stroke-width="0.5" fill="#F46360"></path>
                                            <path d="M9.13453065,13.3851307 L2.49311728,13.3851307 C1.25564699,13.3851307 0.25,14.4153574 0.25,15.6891839 C0.25,16.3118692 0.495367865,16.9077826 0.929801057,17.3414616 L13.6923716,30.0818784 C15.3083682,31.6950698 17.4746874,32.5975417 19.7298174,32.5975417 L26.7593063,32.5975417 L9.13453065,13.3851307 Z" id="Rectangle-10-Copy" stroke="#FFFFFF" stroke-width="0.5" fill="#F46360"></path>
                                            <path d="M95.3179239,90.7754598 L101.449213,90.7015112 L100.669915,108.624214 C100.613631,109.918671 99.534723,110.931724 98.2392883,110.906478 L98.2392883,110.906478 C96.9347504,110.881054 95.8796736,109.836451 95.8412368,108.532232 L95.3179239,90.7754598 Z" id="Rectangle-9" fill="#B1B9D2" transform="translate(98.383569, 100.804225) rotate(-46.000000) translate(-98.383569, -100.804225) "></path>
                                            <path d="M4.47673039,4.58554803 C5.66954469,3.36357937 7.59409864,3.33309196 8.82322361,4.51669397 L92.7669482,85.3514057 C95.5983748,88.0779651 95.8108494,92.6128921 93.2473463,95.604727 C90.942802,98.2943339 86.9462626,98.5608269 84.3208257,96.1999558 C84.1677823,96.0623346 84.0213155,95.9172224 83.881937,95.7651262 L4.40810487,9.03963771 C3.25332111,7.77948474 3.28370042,5.80773762 4.47673039,4.58554803 Z" id="Rectangle-9-Copy" fill="#FFCC60"></path>
                                            <path d="M81.6085408,82.8238884 L94.9564969,82.7121686 L95.0899469,90.3882188 C95.1603947,94.4403818 91.9495982,97.7910068 87.8981128,97.8932533 L87.8981128,97.8932533 C84.2139553,97.9862297 81.1519833,95.0750022 81.0590069,91.3908447 C81.0538084,91.1848566 81.0581539,90.9787383 81.0720293,90.7731524 L81.6085408,82.8238884 Z" id="Rectangle-9-Copy-3" fill="#C6CEE2" transform="translate(88.073984, 90.303794) rotate(-46.000000) translate(-88.073984, -90.303794) "></path>
                                            <path d="M3.47475966,3.54665294 C4.74317933,2.24723099 6.78971925,2.21481117 8.09675109,3.47343464 C27.0146919,21.6099452 36.8866309,31.0745322 37.7125682,31.8671956 C39.7078343,33.7820802 32.6810316,40.230258 31.8816889,39.3129009 C31.1999065,38.5304606 21.706605,28.1871806 3.40178438,8.28306073 C2.17380579,6.9430342 2.20611066,4.84630982 3.47475966,3.54665294 Z" id="Rectangle-9-Copy-2" fill="#CF5558"></path>
                                        </g>
                                    </g>
                                </g>
                            </g>
                            <g id="drinkIcon" transform="translate(316.401192, 23.506667)">
                                <g id="Oval-2-Copy">
                                    <use fill="black" fill-opacity="1" filter="url(#filter-14)" xlink:href="#path-13"></use>
                                    <use fill="#F87000" fill-rule="evenodd" xlink:href="#path-13"></use>
                                </g>
                                <g id="cheers" transform="translate(19.793446, 23.029067)" fill-rule="nonzero">
                                    <path d="M64.5651371,121.13569 L66.5028278,110.10511 C66.5028278,110.10511 48.906351,58.9650223 48.7908814,58.2806833 C48.5621415,56.9668399 48.5280504,55.6255791 48.689708,54.3018655 L27.3795066,51.2519506 L26.7801641,54.6703558 L18.2222124,53.1766543 C15.4949289,52.699591 12.6895662,53.322515 10.4241614,54.9083393 C8.15765662,56.4952599 6.61806112,58.9156708 6.14298593,61.6354798 L0.436585227,94.1086844 C-0.550955179,99.7687386 3.24524746,105.156812 8.91975661,106.14713 L17.478808,107.643025 L16.5781445,112.768987 C15.3409697,112.526617 14.0697034,112.969683 13.2537179,113.928196 C12.4377324,114.885613 12.2045934,116.209327 12.6455777,117.387179 C13.0865618,118.565032 14.1312872,119.412779 15.37726,119.603604 L63.3488565,127.972501 C65.2425591,128.302607 67.0449856,127.039212 67.3759986,125.151795 C67.7070115,123.263283 66.4401444,121.465796 64.5475417,121.13569 L64.5651371,121.13569 Z M18.685191,100.806214 L11.8317915,99.6119108 C8.99343704,99.1173003 7.09423622,96.4205221 7.59130563,93.5899464 L12.686267,64.539534 C13.1811368,61.7089586 15.8853264,59.8149625 18.7236806,60.3106696 L25.5770801,61.5049728 L18.685191,100.806214 Z" id="Shape" fill="#E2E2E2"></path>
                                    <path d="M53.2139192,57.5228654 C52.0570231,57.9231598 50.9221213,58.3607421 49.7663252,58.6886544 C49.2505605,58.8345153 48.8964536,58.9650223 48.7820837,58.2806833 C48.5390473,56.9185852 48.5071558,55.5279731 48.6875084,54.1560049 C48.6875084,54.0847196 48.7259984,54.0167245 48.7369956,53.9476325 L29.6174187,51.645665 L19.2581404,112.02762 C19.0634916,113.252631 19.9014713,114.403066 21.1298488,114.597182 L60.1673924,120.77378 C61.3858723,120.966799 62.5339706,120.145373 62.7407163,118.932426 L64.9511357,105.606458 L53.5471317,58.9365081 C53.3997706,58.4747986 53.2886995,58.002122 53.2139192,57.5228654 Z" id="Shape" fill="#F4C734"></path>
                                    <path d="M49.0427151,58.9365081 L69.2048179,118.056165 C67.4166878,118.695539 66.4720359,120.646563 67.0834753,122.44076 C67.6960146,124.234957 69.6381042,125.207727 71.4460292,124.625381 L117.558014,108.982092 C119.346144,108.343814 120.290796,106.391693 119.678257,104.597496 C119.066818,102.8033 117.124728,101.831626 115.316803,102.412876 L113.290035,96.4940006 L120.219315,94.1426818 C125.68158,92.2958439 128.605712,86.3813557 126.751599,80.9362541 L116.109695,49.7341217 C114.252283,44.2923103 108.323741,41.3805791 102.866974,43.231804 L95.936595,45.59409 L95.1525008,43.3030893 L49.0427151,58.9365081 Z M116.346133,88.1349746 L111.062021,89.9313645 L98.177806,52.1534359 L103.460818,50.3559491 C106.189201,49.4303367 109.152923,50.8856539 110.079979,53.6065596 L119.604577,81.5306641 C120.533832,84.2515698 119.074516,87.2071689 116.346133,88.1316844 L116.346133,88.1349746 Z" id="Shape" fill="#E2E2E2"></path>
                                    <path d="M93.1411293,43.9731713 L50.8627371,58.3179708 L70.6036504,114.929481 C71.008344,116.093076 72.2774108,116.713807 73.448603,116.322286 L110.924557,103.793617 C112.104547,103.398806 112.73908,102.126637 112.344284,100.949881 L93.1411293,43.9731713 Z" id="Shape" fill="#F4C734"></path>
                                    <path d="M48.6941068,54.1560049 C49.3528338,48.8611507 53.9793181,44.9591022 59.3250136,45.1905054 C59.5284603,44.88014 59.7484025,44.5796448 59.9826409,44.2923103 C59.7066134,44.202381 59.4261873,44.1278056 59.1424617,44.0674874 C56.6131262,43.7538319 54.0486,43.9062729 51.5742499,44.5160365 C48.0529752,40.4790942 42.5170298,38.8219846 37.3483874,40.2575612 C32.1786457,41.6931378 28.2988651,45.9647735 27.3773073,51.236597 L48.6270242,55.3854026 C48.6424203,54.9829147 48.6380215,54.5650728 48.6941068,54.1560049 Z" id="Shape" fill="#F9F2CC"></path>
                                    <path d="M91.277119,4.49207177 C91.277119,6.972801 89.260249,8.98414354 86.7727024,8.98414354 C84.2840562,8.98414354 82.2682858,6.972801 82.2682858,4.49207177 C82.2682858,2.01134254 84.2840562,0 86.7727024,0 C89.260249,0 91.277119,2.01134254 91.277119,4.49207177 Z" id="Shape" fill="#F9F2CC"></path>
                                    <path d="M75.511661,20.214323 C75.511661,25.1757812 71.4779207,29.1984665 66.5028278,29.1984665 C61.5266353,29.1984665 57.4939947,25.1757812 57.4939947,20.214323 C57.4939947,15.2528648 61.5266353,11.2301794 66.5028278,11.2301794 C71.4779207,11.2301794 75.511661,15.2528648 75.511661,20.214323 Z" id="Shape" fill="#F9F2CC"></path>
                                    <path d="M41.7285367,22.4603589 C41.7285367,26.1814524 38.7032315,29.1984665 34.9719119,29.1984665 C31.2394926,29.1984665 28.215287,26.1814524 28.215287,22.4603589 C28.215287,18.7392653 31.2394926,15.7222512 34.9719119,15.7222512 C38.7032315,15.7222512 41.7285367,18.7392653 41.7285367,22.4603589 Z" id="Shape" fill="#F9F2CC"></path>
                                    <path d="M25.9630787,4.49207177 C25.9630787,6.972801 23.9462088,8.98414354 21.4586622,8.98414354 C18.9700159,8.98414354 16.9542456,6.972801 16.9542456,4.49207177 C16.9542456,2.01134254 18.9700159,0 21.4586622,0 C23.9462088,0 25.9630787,2.01134254 25.9630787,4.49207177 Z" id="Shape" fill="#F9F2CC"></path>
                                    <g id="Group" transform="translate(27.026499, 61.204478)" fill="#E0B730">
                                        <path d="M51.4873729,5.4758091 C51.2872254,4.89565635 50.8561386,4.42188315 50.2952861,4.16854603 C49.7663252,4.64999617 49.1438886,5.01738981 48.4664665,5.24879271 C48.0738698,5.37600986 47.6680762,5.45826194 47.2567844,5.491163 C47.0863291,5.95177583 47.0742325,6.45515992 47.2237932,6.92235279 L60.340047,45.3703634 C60.7414414,46.542733 62.0193058,47.1700438 63.1959966,46.7719426 C64.3726875,46.3716482 65.0006226,45.0972859 64.6014275,43.92382 L51.4873729,5.4758091 Z" id="Shape"></path>
                                        <path d="M37.1031521,7.98505232 C38.2798428,7.58585453 39.5588068,8.21316534 39.9602013,9.38772812 L53.0753557,47.8346421 C53.4767502,49.0092049 52.8466158,50.2846638 51.6699248,50.6838616 C50.4932341,51.0830594 49.2142701,50.454652 48.8128756,49.2800892 L35.6977212,10.8342718 C35.2963267,9.65970903 35.9264611,8.3842501 37.1031521,7.98505232 L37.1031521,7.98505232 Z" id="Shape"></path>
                                        <path d="M60.1574951,0.16121456 C61.3341858,-0.237983224 62.6131498,0.38932758 63.0134447,1.56389008 L76.1285988,40.0108044 C76.5288939,41.1853669 75.8998589,42.4608258 74.7220686,42.8600236 C73.5453776,43.2603183 72.2664135,42.6319106 71.866119,41.4573478 L58.7509645,3.01043377 C58.3506697,1.83587099 58.9808041,0.560412345 60.1574951,0.16121456 L60.1574951,0.16121456 Z" id="Shape"></path>
                                        <path d="M12.3035675,50.5358074 L19.3197242,10.53268 C19.5341679,9.31095917 20.7020609,8.49282319 21.9271392,8.70667922 L21.9293385,8.70777585 C23.1544168,8.92163187 23.9737015,10.0852275 23.7592577,11.3069484 L16.7431011,51.3100755 C16.5286576,52.5317964 15.361864,53.3488357 14.1356863,53.1349797 L14.1334867,53.1349797 C12.9084085,52.9211239 12.0891238,51.757528 12.3035675,50.5358074 Z" id="Shape"></path>
                                        <path d="M24.2728229,52.6436593 L27.9084675,30.655977 C28.1108144,29.432063 29.2688104,28.6029599 30.494988,28.8047522 C31.7222658,29.0065444 32.5525475,30.1624634 32.3502007,31.3863775 L28.7156556,53.3740598 C28.5133088,54.5979739 27.3542132,55.427077 26.1280355,55.2252847 C24.9018576,55.0234924 24.070476,53.8675737 24.2728229,52.6436593 Z" id="Shape"></path>
                                        <path d="M0.309018742,48.4411156 L7.32297613,8.44018173 C7.53741986,7.21846118 8.70421324,6.40032492 9.92929124,6.61418094 L9.9314908,6.61418094 C11.1576684,6.82803669 11.9769534,7.99163264 11.7625097,9.21444982 L4.74855257,49.215384 C4.53410884,50.4371048 3.36731546,51.2541442 2.14223718,51.0413848 L2.14003761,51.0402882 C0.913859975,50.8264321 0.0945752933,49.6628365 0.309018742,48.4411156 Z" id="Shape"></path>
                                    </g>
                                    <path d="M62.984852,124.935746 C62.9210689,124.935746 62.8572858,124.930263 62.795702,124.920392 L16.7672948,117.200741 C16.4714724,117.15139 16.2086416,116.986885 16.0359871,116.743418 C15.8622326,116.499951 15.7929507,116.198359 15.8435375,115.904445 C15.9590071,115.300165 16.5308569,114.894387 17.1411966,114.983219 L63.1718031,122.705064 C63.7480517,122.80267 64.1549446,123.324698 64.1054577,123.905947 C64.0570704,124.488294 63.5698986,124.935746 62.984852,124.935746 L62.984852,124.935746 Z" id="Shape" fill="#CCCCCC"></path>
                                    <path d="M70.5838557,121.427412 C70.030701,121.430702 69.5567254,121.032601 69.4665493,120.488639 C69.3752732,119.944677 69.6941895,119.414973 70.2187516,119.239501 L114.560202,104.078759 C115.148547,103.878063 115.789679,104.191718 115.990926,104.778451 C116.193273,105.366281 115.878756,106.004559 115.28931,106.206351 L70.9500594,121.367093 C70.8323903,121.406575 70.708123,121.427412 70.5838557,121.427412 L70.5838557,121.427412 Z" id="Shape" fill="#CCCCCC"></path>
                                    <path d="M48.6941068,54.1560049 C48.5148538,55.5279731 48.5467454,56.9196818 48.7886818,58.2828765 C48.9041517,58.9562488 49.2571589,58.8345153 49.7729233,58.6886544 C51.0210954,58.3344214 52.2505723,57.8485844 53.4976448,57.4241625 C54.6754354,57.0249648 55.9554988,57.6522756 56.3557939,58.8257417 L57.7755207,62.9877074 C58.6058027,65.6066206 61.2715023,67.1880579 63.9756919,66.6671266 C65.4152136,66.3381175 66.6490896,65.4168918 67.3694002,64.1293694 C68.0886113,62.8429437 68.2282744,61.3119541 67.7520996,59.9169552 L68.7770303,62.920809 C69.6073123,65.5375286 72.2719123,67.1189659 74.975002,66.5991315 C76.4156236,66.271219 77.6483997,65.3488967 78.3687105,64.062471 C79.0890213,62.7760449 79.2297843,61.2450556 78.7547091,59.8500568 L76.1165022,52.1216317 C75.717307,50.947069 76.3474414,49.6727067 77.5241324,49.2735089 L95.1525008,43.2921224 C93.4270542,38.2253813 88.9325349,34.6007971 83.6033352,33.9767762 C78.2741352,33.3527556 73.0604051,35.8422581 70.2044555,40.3727143 C65.9243799,39.5469014 61.5805211,41.4694115 59.3250136,45.1905054 C53.9958138,45.0051633 49.3957223,48.8852782 48.6941068,54.1560049 L48.6941068,54.1560049 Z" id="Shape" fill="#F9F2CC"></path>
                                </g>
                            </g>
                            <g id="dance2.0" transform="translate(0.000000, 5.506667)">
                                <g id="Oval-5-Copy">
                                    <use fill="black" fill-opacity="1" filter="url(#filter-16)" xlink:href="#path-15"></use>
                                    <use fill="#D400FF" fill-rule="evenodd" xlink:href="#path-15"></use>
                                </g>
                                <g id="disco-ball" transform="translate(29.000000, 13.493333)" fill-rule="nonzero">
                                    <path d="M52.6873612,18.1688021 C51.4982749,18.1688021 50.5340033,17.2045305 50.5340033,16.0154442 L50.5340033,2.19827121 C50.5340033,1.0091849 51.4982749,0.0449133185 52.6873612,0.0449133185 C53.8764475,0.0449133185 54.8407191,1.0091849 54.8407191,2.19827121 L54.8407191,16.0154442 C54.8407191,17.2045305 53.8766957,18.1688021 52.6873612,18.1688021 Z" id="Path" fill="#4E5058"></path>
                                    <g id="Group" transform="translate(0.855655, 12.655134)">
                                        <path d="M60.445138,11.7052545 L60.445138,2.37320982 C60.445138,1.18412351 59.4808664,0.219851935 58.2917801,0.219851935 L49.6783486,0.219851935 L45.3716328,0.219851935 C44.1981793,0.219851935 43.2182749,1.19950818 43.2182749,2.37320982 L43.2182749,11.7052545 C18.7767448,15.8062623 0.151365327,37.0599394 0.151365327,62.6669825 C0.151365327,91.2092723 23.2894167,114.347324 51.8317065,114.347324 C80.3739963,114.347324 103.512048,91.2092723 103.512048,62.6669825 C103.512296,37.0599394 84.8866682,15.8065104 60.445138,11.7052545 Z" id="Path" fill="#FD5E95"></path>
                                        <path d="M60.445138,13.1399993 L43.2182749,13.1399993 L43.2182749,2.37320982 C43.2182749,1.18412351 44.1825465,0.219851935 45.3716328,0.219851935 L58.2917801,0.219851935 C59.4808664,0.219851935 60.445138,1.18412351 60.445138,2.37320982 L60.445138,13.1399993 Z" id="Path" fill="#408283"></path>
                                    </g>
                                    <path d="M50.5340033,12.8749859 L46.2272876,12.8749859 C45.0382013,12.8749859 44.0739297,13.8392574 44.0739297,15.0283437 L44.0739297,25.7951332 L48.3806455,25.7951332 L48.3806455,15.0283437 C48.3806455,13.8392574 49.344917,12.8749859 50.5340033,12.8749859 Z" id="Path" fill="#22C6C8"></path>
                                    <g id="Path">
                                        <use fill="black" fill-opacity="1" filter="url(#filter-18)" xlink:href="#path-17"></use>
                                        <use fill="#05BE95" xlink:href="#path-17"></use>
                                    </g>
                                    <g id="Path">
                                        <use fill="black" fill-opacity="1" filter="url(#filter-20)" xlink:href="#path-19"></use>
                                        <use fill="#05BE95" xlink:href="#path-19"></use>
                                    </g>
                                    <g id="Group" transform="translate(0.855655, 23.573289)" fill="#22C6C8">
                                        <path d="M22.2417701,78.2318047 C8.88712984,72.3923289 0.151365327,62.7089182 0.151365327,51.7488278 C0.151365327,80.2911176 23.2894167,103.429169 51.8317065,103.429169 C39.257218,103.429169 28.2576734,93.3229278 22.2417701,78.2318047 Z" id="Path"></path>
                                        <path d="M22.2417701,25.266099 C28.2576734,10.1749758 39.2569699,0.0684866071 51.8317065,0.0684866071 C23.2894167,0.0684866071 0.151365327,23.2065379 0.151365327,51.7488278 C0.151365327,40.7892336 8.88712984,31.1058229 22.2417701,25.266099 Z" id="Path"></path>
                                    </g>
                                    <g id="Group" transform="translate(0.855655, 48.635417)" fill="#9640E4">
                                        <path d="M81.421891,0.203970982 C83.6300878,5.74344568 85.1668181,11.9538906 85.8628504,18.5844364 C96.6797641,20.5578929 103.512296,23.4559185 103.512296,26.6869479 C103.512296,15.7271057 94.7765313,6.04369494 81.421891,0.203970982 Z" id="Path"></path>
                                        <path d="M17.8008106,18.5844364 C18.496843,11.9543869 20.0335733,5.74344568 22.2417701,0.203970982 C8.88712984,6.04369494 0.151365327,15.7271057 0.151365327,26.6866998 C0.151365327,23.4559185 6.98389695,20.5576447 17.8008106,18.5844364 Z" id="Path"></path>
                                    </g>
                                    <path d="M86.7185052,83.424628 C86.0224728,90.0546775 84.4857426,96.2656187 82.2775458,101.805093 C95.6324342,95.9653694 104.367951,86.2822068 104.367951,75.3223646 C104.367951,78.5528977 97.5351708,81.4514196 86.7185052,83.424628 Z" id="Path" fill="#22C6C8"></path>
                                    <path d="M23.0974249,101.805093 C20.8892281,96.2656187 19.3524978,90.0551737 18.6564654,83.424628 C7.83955171,81.4511715 1.00702009,78.5528977 1.00702009,75.3221164 C1.00702009,86.2822068 9.7427846,95.9656176 23.0974249,101.805093 Z" id="Path" fill="#05BE95"></path>
                                    <path d="M86.7185052,67.2198531 C86.9956775,69.8598132 87.1410874,72.5655305 87.1410874,75.3223646 C87.1410874,78.0791987 86.9956775,80.7849159 86.7185052,83.4248761 C97.5354189,81.4514196 104.367951,78.5531458 104.367951,75.3223646 C104.367951,72.0913352 97.5351708,69.1930614 86.7185052,67.2198531 Z" id="Path" fill="#05BE95"></path>
                                    <path d="M18.6564654,83.424628 C18.3792932,80.7846678 18.2338832,78.0791987 18.2338832,75.3221164 C18.2338832,72.5652824 18.3792932,69.8595651 18.6564654,67.2196049 C7.83955171,69.1930614 1.00702009,72.0910871 1.00702009,75.3221164 C1.00702009,78.5528977 7.83955171,81.4514196 18.6564654,83.424628 Z" id="Path" fill="#30D593"></path>
                                    <g id="Group" transform="translate(52.468750, 23.573289)">
                                        <path d="M29.8087958,78.2318047 C23.6253981,80.9355368 16.4521704,82.8142039 8.69581399,83.614455 C6.72483891,95.6780234 3.66055952,103.429665 0.218859375,103.429665 C12.7930997,103.429169 23.7926443,93.3229278 29.8087958,78.2318047 Z" id="Path" fill="#9640E4"></path>
                                        <path d="M8.69556585,19.8836968 C16.4519222,20.6836998 23.6253981,22.5623668 29.8085476,25.2663471 C23.7926443,10.175224 12.7933478,0.068734747 0.218611235,0.068734747 C3.66031138,0.0684866071 6.72483891,7.81988021 8.69556585,19.8836968 Z" id="Path" fill="#22C6C8"></path>
                                    </g>
                                    <path d="M23.0974249,48.8393876 C29.2808225,46.1356555 36.4540502,44.2569885 44.2104066,43.4567374 C46.1813817,31.3931689 49.2456611,23.6415272 52.6873612,23.6415272 C40.1128728,23.6417753 29.1133281,33.7482645 23.0974249,48.8393876 Z" id="Path" fill="#7D3F8E"></path>
                                    <path d="M44.2104066,107.187496 C36.4540502,106.387493 29.2805744,104.508826 23.0974249,101.804845 C29.1133281,116.895968 40.1126246,127.002458 52.6873612,127.002458 C49.2459092,127.002458 46.1813817,119.251312 44.2104066,107.187496 Z" id="Path" fill="#7D3F8E"></path>
                                    <g id="Group" transform="translate(18.473586, 43.424479)">
                                        <path d="M68.2449189,23.7953739 C67.5488865,17.1653244 66.0121563,10.9543832 63.8039594,5.41490848 C57.6205618,2.71117634 50.4473341,0.832509301 42.6909777,0.0322581845 C43.6944554,6.17372024 44.4143092,13.4325562 44.7562459,21.3551663 C53.6319613,21.7387906 61.6734304,22.5966101 68.2449189,23.7953739 Z" id="Path" fill="#7D3F8E"></path>
                                        <path d="M25.7368203,0.0325063244 C17.9804639,0.832509301 10.8069881,2.71117634 4.62383854,5.41515662 C2.41564174,10.9546313 0.878911458,17.1650763 0.182879092,23.795622 C6.75436756,22.5968583 14.7955885,21.7387906 23.6715521,21.3559107 C24.013737,13.4328043 24.7335908,6.17372024 25.7368203,0.0325063244 Z" id="Path" fill="#30D593"></path>
                                        <path d="M0.182879092,40.0001488 C0.878911458,46.6301983 2.41564174,52.8411395 4.62383854,58.3806142 C10.8072362,61.0843464 17.9804639,62.9630134 25.7368203,63.7632645 C24.7333426,57.6222987 24.0134888,50.3632147 23.6715521,42.4403564 C14.7958367,42.0569803 6.75436756,41.1991607 0.182879092,40.0001488 Z" id="Path" fill="#22C6C8"></path>
                                    </g>
                                    <path d="M63.2295841,85.8645874 C62.8873992,93.7874457 62.1677935,101.046282 61.1643158,107.187496 C68.9206722,106.387493 76.0941481,104.508826 82.2772976,101.804845 C84.4854944,96.2653705 86.0222247,90.0549256 86.7182571,83.4243798 C80.1470167,84.6236399 72.1055476,85.4814594 63.2295841,85.8645874 Z" id="Path" fill="#7D3F8E"></path>
                                    <path d="M41.9208199,75.3221164 C41.9208199,71.7094479 41.9982396,68.1833802 42.1453865,64.7798936 C33.2691749,65.1632697 25.228202,66.0208411 18.6567135,67.2196049 C18.3795413,69.8595651 18.2341313,72.5652824 18.2341313,75.3221164 C18.2341313,78.0789505 18.3795413,80.7846678 18.6567135,83.424628 C25.228202,84.6233917 33.269423,85.4814594 42.1453865,85.8643393 C41.9982396,82.4608527 41.9208199,78.9352813 41.9208199,75.3221164 Z" id="Path" fill="#7D3F8E"></path>
                                    <path d="M63.4541507,75.3221164 C63.4541507,78.934785 63.376731,82.4608527 63.2295841,85.8643393 C72.1057958,85.4809632 80.1467686,84.6233917 86.7182571,83.424628 C86.9954293,80.7846678 87.1408393,78.0791987 87.1408393,75.3221164 C87.1408393,72.5652824 86.9954293,69.8595651 86.7182571,67.2196049 C80.1467686,66.0208411 72.1055476,65.1627734 63.2295841,64.7798936 C63.376731,68.1838765 63.4541507,71.7094479 63.4541507,75.3221164 Z" id="Path" fill="#9640E4"></path>
                                    <g id="Group" transform="translate(44.031994, 23.573289)">
                                        <path d="M0.178412574,19.8836968 C2.93673549,19.5990804 5.76801153,19.4487076 8.65536719,19.4487076 C11.5427228,19.4487076 14.3737507,19.5990804 17.1323218,19.8836968 C15.1613467,7.82012835 12.0970673,0.0684866071 8.65536719,0.0684866071 C5.21391518,0.0684866071 2.14938765,7.81988021 0.178412574,19.8836968 Z" id="Path" fill="#30D593"></path>
                                        <path d="M17.1323218,83.6142068 C14.3739989,83.8988233 11.5427228,84.0491961 8.65536719,84.0491961 C5.76801153,84.0491961 2.93698363,83.8988233 0.178412574,83.6142068 C2.14938765,95.6777753 5.21366704,103.429417 8.65536719,103.429417 C12.0970673,103.429169 15.1615949,95.6780234 17.1323218,83.6142068 Z" id="Path" fill="#22C6C8"></path>
                                    </g>
                                    <path d="M52.6873612,86.0889059 C49.0746927,86.0889059 45.548625,86.0114862 42.1451384,85.8643393 C42.4873233,93.7871975 43.2069289,101.046033 44.2104066,107.187247 C46.9687295,107.471864 49.8000056,107.622237 52.6873612,107.622237 C55.5747169,107.622237 58.4057448,107.471864 61.1643158,107.187247 C62.1677935,101.046282 62.8876473,93.7871975 63.2295841,85.8643393 C59.8260975,86.0114862 56.3002779,86.0889059 52.6873612,86.0889059 Z" id="Path" fill="#05BE95"></path>
                                    <path d="M52.6873612,64.555327 C56.3000298,64.555327 59.8260975,64.6327467 63.2295841,64.7798936 C62.8873992,56.8572835 62.1677935,49.5981994 61.1643158,43.4569855 C58.4059929,43.172369 55.5747169,43.0219963 52.6873612,43.0219963 C49.8000056,43.0219963 46.9689777,43.172369 44.2104066,43.4569855 C43.2069289,49.5984475 42.4870751,56.8572835 42.1451384,64.7798936 C45.5488731,64.6332429 49.0746927,64.555327 52.6873612,64.555327 Z" id="Path" fill="#9640E4"></path>
                                    <path d="M63.2295841,64.7798936 C59.8258493,64.6329948 56.3000298,64.555327 52.6873612,64.555327 C49.0746927,64.555327 45.548625,64.6327467 42.1451384,64.7798936 C41.9982396,68.1836283 41.9205718,71.7094479 41.9205718,75.3221164 C41.9205718,78.934785 41.9979914,82.4608527 42.1451384,85.8643393 C45.5488731,86.0112381 49.0746927,86.0889059 52.6873612,86.0889059 C56.3000298,86.0889059 59.8260975,86.0114862 63.2295841,85.8643393 C63.3764829,82.4603564 63.4541507,78.934785 63.4541507,75.3221164 C63.4541507,71.7094479 63.376731,68.1838765 63.2295841,64.7798936 Z" id="Path" fill="#30D593"></path>
                                    <g id="Path">
                                        <use fill="black" fill-opacity="1" filter="url(#filter-22)" xlink:href="#path-21"></use>
                                        <use fill="#05BE95" xlink:href="#path-21"></use>
                                    </g>
                                    <path d="M5.50157775,79.7176663 C2.61620722,78.3752295 1.00702009,76.8881272 1.00702009,75.3221164 C1.00702009,81.182436 3.50653311,86.6769974 7.87255432,91.4149803 C6.65096168,87.6846935 5.84301823,83.7678054 5.50157775,79.7176663 Z" id="Path" fill="#8722C8"></path>
                                    <path d="M5.31373586,75.3221164 C5.31373586,73.8414658 5.37974107,72.3759516 5.50157775,70.9268147 C2.61571094,72.2692515 1.00702009,73.7563538 1.00702009,75.3221164 C1.00702009,76.8878791 2.61620722,78.3752295 5.50157775,79.7174182 C5.37974107,78.2682812 5.31373586,76.8030153 5.31373586,75.3221164 Z" id="Path" fill="#05BE95"></path>
                                    <path d="M7.87255432,59.2297489 C3.50653311,63.9677318 1.00702009,69.4622932 1.00702009,75.3223646 C1.00702009,73.7566019 2.61595908,72.2692515 5.50157775,70.9270629 C5.84301823,66.8766756 6.65096168,62.9600357 7.87255432,59.2297489 Z" id="Path" fill="#408283"></path>
                                    <path d="M44.127776,25.2566696 C46.8650071,24.2062935 49.7317671,23.6417753 52.6873612,23.6417753 C24.1450714,23.6417753 1.00702009,46.7798266 1.00702009,75.3221164 C1.00702009,69.4617969 3.50653311,63.9672355 7.87255432,59.2292526 C13.3264208,42.5716224 27.0140647,29.6420458 44.127776,25.2566696 Z" id="Path" fill="#22C6C8"></path>
                                    <g id="Group" transform="translate(68.619048, 18.952381)" fill="#FFD528" stroke="#FFFFFF">
                                        <path d="M27.4573912,43.012322 L22.4343082,41.2986552 L21.0135597,35.6207413 C20.9084524,35.2004473 20.5305307,34.9057078 20.0968616,34.9057078 C19.6631924,34.9057078 19.2853869,35.2004473 19.1801635,35.6207413 L17.7594149,41.2985391 L12.736332,43.012206 C12.3538808,43.1427501 12.0968616,43.5018914 12.0968616,43.9057078 C12.0968616,44.3095242 12.353997,44.6686655 12.736332,44.7992096 L17.7594149,46.5128764 L19.1801635,52.1906743 C19.2852707,52.6109682 19.6631924,52.9057078 20.0968616,52.9057078 C20.5305307,52.9057078 20.9083363,52.6109682 21.0135597,52.1906743 L22.4343082,46.5128764 L27.4573912,44.7992096 C27.8398423,44.6686655 28.0968616,44.3095242 28.0968616,43.9057078 C28.0968616,43.5018914 27.8397262,43.1427501 27.4573912,43.012322 Z" id="Path"></path>
                                        <path d="M40.1259991,23.7573335 L33.2491593,21.4633626 L31.3040869,13.8628752 C31.16178,13.3069352 30.6358012,12.9057078 30.0490835,12.9057078 C29.4623659,12.9057078 28.936387,13.3069352 28.7940801,13.8628752 L26.8491668,21.4635179 L19.972327,23.7574889 C19.4547752,23.9300648 19.0968616,24.4189006 19.0968616,24.9532492 C19.0968616,25.4877531 19.4547752,25.9764335 19.972327,26.1493201 L26.8491668,28.4432911 L28.7942391,36.0437784 C28.936546,36.5997184 29.4625249,37.0009459 30.0492425,37.0009459 C30.6359602,37.0009459 31.1619391,36.5997184 31.3042459,36.0437784 L33.2493183,28.4432911 L40.1261581,26.1493201 C40.6497519,25.9745695 41.0016235,25.4938111 41.0016235,24.9532492 C41.0016235,24.4126872 40.6494339,23.9320842 40.1259991,23.7573335 Z" id="Path"></path>
                                        <path d="M21.1261581,11.7572636 L14.2493183,9.46330743 L12.3042459,1.86286906 C12.160349,1.30025333 11.6429563,0.905707784 11.0492425,0.905707784 C10.4555288,0.905707784 9.93829503,1.30025333 9.79423915,1.86286906 L7.84916676,9.46330743 L0.972327002,11.7572636 C0.448733168,11.9320131 0.0968615749,12.4127684 0.0968615749,12.9533268 C0.0968615749,13.4938853 0.44889217,13.9746406 0.972327002,14.1493901 L7.84916676,16.4433462 L9.79423915,24.0437846 C9.93813602,24.6064003 10.4555288,25.0009459 11.0492425,25.0009459 C11.6429563,25.0009459 12.16019,24.6064003 12.3042459,24.0437846 L14.2493183,16.4433462 L21.1261581,14.1493901 C21.6497519,13.9746406 22.0016235,13.4938853 22.0016235,12.9533268 C22.0016235,12.412613 21.6495929,11.9320131 21.1261581,11.7572636 Z" id="Path"></path>
                                    </g>
                                </g>
                            </g>
                        </g>
                    </g>
                    <g id="confetti" transform="translate(683.556877, 314.994253) rotate(-67.000000) translate(-683.556877, -314.994253) translate(573.056877, 193.994253)" fill-rule="nonzero">
                        <g id="Group" transform="translate(30.784074, 53.223791)">
                            <g id="Path">
                                <use fill="black" fill-opacity="1" filter="url(#filter-24)" xlink:href="#path-23"></use>
                                <use fill="#FFBF41" xlink:href="#path-23"></use>
                            </g>
                            <g id="Path">
                                <use fill="black" fill-opacity="1" filter="url(#filter-26)" xlink:href="#path-25"></use>
                                <use fill="#FFBF41" xlink:href="#path-25"></use>
                            </g>
                            <g id="Path" transform="translate(21.387437, 42.024967) rotate(17.000000) translate(-21.387437, -42.024967) ">
                                <use fill="black" fill-opacity="1" filter="url(#filter-28)" xlink:href="#path-27"></use>
                                <use fill="#FFBF41" xlink:href="#path-27"></use>
                            </g>
                        </g>
                        <circle id="Oval" fill="#D5557E" cx="175.028207" cy="167.963298" r="7"></circle>
                        <g id="Oval">
                            <use fill="black" fill-opacity="1" filter="url(#filter-30)" xlink:href="#path-29"></use>
                            <use fill="#D5557E" xlink:href="#path-29"></use>
                        </g>
                        <g id="Oval">
                            <use fill="black" fill-opacity="1" filter="url(#filter-32)" xlink:href="#path-31"></use>
                            <use fill="#D5557E" xlink:href="#path-31"></use>
                        </g>
                        <g id="Oval">
                            <use fill="black" fill-opacity="1" filter="url(#filter-34)" xlink:href="#path-33"></use>
                            <use fill="#D5557E" xlink:href="#path-33"></use>
                        </g>
                        <g id="Oval-2">
                            <use fill="black" fill-opacity="1" filter="url(#filter-36)" xlink:href="#path-35"></use>
                            <use fill="#D5557E" xlink:href="#path-35"></use>
                        </g>
                        <g id="Oval">
                            <use fill="black" fill-opacity="1" filter="url(#filter-38)" xlink:href="#path-37"></use>
                            <use fill="#DD95C1" xlink:href="#path-37"></use>
                        </g>
                        <g id="Path">
                            <use fill="black" fill-opacity="1" filter="url(#filter-40)" xlink:href="#path-39"></use>
                            <use fill="#7FCCCB" xlink:href="#path-39"></use>
                        </g>
                        <path d="M180.51778,139.387743 C179.413155,139.387743 178.51778,138.492368 178.51778,137.387743 C178.51778,136.283118 179.413155,135.387743 180.51778,135.387743 C181.622405,135.387743 182.51778,136.283118 182.51778,137.387743 C182.51778,138.492368 181.622405,139.387743 180.51778,139.387743 Z" id="Path" fill="#7FCCCB"></path>
                        <path d="M137.731033,171.672325 C136.626408,171.672325 135.731033,170.77695 135.731033,169.672325 C135.731033,168.5677 136.626408,167.672325 137.731033,167.672325 C138.835658,167.672325 139.731033,168.5677 139.731033,169.672325 C139.731033,170.77695 138.835658,171.672325 137.731033,171.672325 Z" id="Path" fill="#7FCCCB"></path>
                        <path d="M105.789607,29.8811211 C104.684982,29.8811211 103.789607,28.9857461 103.789607,27.8811211 C103.789607,26.7764961 104.684982,25.8811211 105.789607,25.8811211 C106.894232,25.8811211 107.789607,26.7764961 107.789607,27.8811211 C107.789607,28.9857461 106.894232,29.8811211 105.789607,29.8811211 Z" id="Path" fill="#7FCCCB"></path>
                        <path d="M113.114971,113.680519 C112.010346,113.680519 111.114971,112.785144 111.114971,111.680519 C111.114971,110.575894 112.010346,109.680519 113.114971,109.680519 C114.219596,109.680519 115.114971,110.575894 115.114971,111.680519 C115.114971,112.785144 114.219596,113.680519 113.114971,113.680519 Z" id="Path" fill="#7FCCCB"></path>
                        <path d="M22.5270428,71.7421452 C21.4224178,71.7421452 20.5270428,70.8467702 20.5270428,69.7421452 C20.5270428,68.6375202 21.4224178,67.7421452 22.5270428,67.7421452 C23.6316678,67.7421452 24.5270428,68.6375202 24.5270428,69.7421452 C24.5270428,70.8467702 23.6316678,71.7421452 22.5270428,71.7421452 Z" id="Path" fill="#7FCCCB"></path>
                        <path d="M136.266635,101.6805 C135.16201,101.6805 134.266635,100.785125 134.266635,99.6804997 C134.266635,98.5758747 135.16201,97.6804997 136.266635,97.6804997 C137.37126,97.6804997 138.266635,98.5758747 138.266635,99.6804997 C138.266635,100.785125 137.37126,101.6805 136.266635,101.6805 Z" id="Path" fill="#7FCCCB"></path>
                        <g id="Path">
                            <use fill="black" fill-opacity="1" filter="url(#filter-42)" xlink:href="#path-41"></use>
                            <use fill="#7FCCCB" xlink:href="#path-41"></use>
                        </g>
                        <path d="M142.676713,70.7142132 C141.572088,70.7142132 140.676713,69.8188382 140.676713,68.7142132 C140.676713,67.6095882 141.572088,66.7142132 142.676713,66.7142132 C143.781338,66.7142132 144.676713,67.6095882 144.676713,68.7142132 C144.676713,69.8188382 143.781338,70.7142132 142.676713,70.7142132 Z" id="Path" fill="#7FCCCB"></path>
                        <g id="Group" transform="translate(148.527106, 37.615190)" fill="#2276BB">
                            <path d="M8.48478448,16.4646397 C7.28721651,16.4646397 6.31625941,15.5475793 6.31625941,14.416487 L6.31625941,12.3683343 C6.31625941,11.2372419 7.28721651,10.3201816 8.48478448,10.3201816 C9.68235244,10.3201816 10.6533095,11.2372419 10.6533095,12.3683343 L10.6533095,14.416487 C10.6533095,15.5475793 9.68262351,16.4646397 8.48478448,16.4646397 Z" id="Path"></path>
                            <path d="M8.79146023,6.22335367 C7.59389227,6.22335367 6.62293517,5.30629329 6.62293517,4.17520096 L6.62293517,2.12704824 C6.62293517,0.995955909 7.59389227,0.0788955318 8.79146023,0.0788955318 C9.9890282,0.0788955318 10.9599853,0.995955909 10.9599853,2.12704824 L10.9599853,4.17520096 C10.9599853,5.30629329 9.98929926,6.22335367 8.79146023,6.22335367 Z" id="Path"></path>
                            <path d="M14.9358727,10.466217 L12.7673477,10.466217 C11.5697797,10.466217 10.5988226,9.48365226 10.5988226,8.27176762 C10.5988226,7.05988297 11.5697797,6.07731828 12.7673477,6.07731828 L14.9358727,6.07731828 C16.1334407,6.07731828 17.1043978,7.05988297 17.1043978,8.27176762 C17.1043978,9.48365226 16.1337118,10.466217 14.9358727,10.466217 Z" id="Path"></path>
                            <path d="M4.50889705,10.466217 L2.34037199,10.466217 C1.14280402,10.466217 0.171846925,9.48365226 0.171846925,8.27176762 C0.171846925,7.05988297 1.14280402,6.07731828 2.34037199,6.07731828 L4.50889705,6.07731828 C5.70646501,6.07731828 6.67742211,7.05988297 6.67742211,8.27176762 C6.67742211,9.48365226 5.70673608,10.466217 4.50889705,10.466217 Z" id="Path"></path>
                        </g>
                        <g id="Group" transform="translate(202.726087, 160.181378)" fill="#2276BB">
                            <path d="M8.48478448,16.4646397 C7.28721651,16.4646397 6.31625941,15.5475793 6.31625941,14.416487 L6.31625941,12.3683343 C6.31625941,11.2372419 7.28721651,10.3201816 8.48478448,10.3201816 C9.68235244,10.3201816 10.6533095,11.2372419 10.6533095,12.3683343 L10.6533095,14.416487 C10.6533095,15.5475793 9.68262351,16.4646397 8.48478448,16.4646397 Z" id="Path"></path>
                            <path d="M8.79146023,6.22335367 C7.59389227,6.22335367 6.62293517,5.30629329 6.62293517,4.17520096 L6.62293517,2.12704824 C6.62293517,0.995955909 7.59389227,0.0788955318 8.79146023,0.0788955318 C9.9890282,0.0788955318 10.9599853,0.995955909 10.9599853,2.12704824 L10.9599853,4.17520096 C10.9599853,5.30629329 9.98929926,6.22335367 8.79146023,6.22335367 Z" id="Path"></path>
                            <path d="M14.9358727,10.466217 L12.7673477,10.466217 C11.5697797,10.466217 10.5988226,9.48365226 10.5988226,8.27176762 C10.5988226,7.05988297 11.5697797,6.07731828 12.7673477,6.07731828 L14.9358727,6.07731828 C16.1334407,6.07731828 17.1043978,7.05988297 17.1043978,8.27176762 C17.1043978,9.48365226 16.1337118,10.466217 14.9358727,10.466217 Z" id="Path"></path>
                            <path d="M4.50889705,10.466217 L2.34037199,10.466217 C1.14280402,10.466217 0.171846925,9.48365226 0.171846925,8.27176762 C0.171846925,7.05988297 1.14280402,6.07731828 2.34037199,6.07731828 L4.50889705,6.07731828 C5.70646501,6.07731828 6.67742211,7.05988297 6.67742211,8.27176762 C6.67742211,9.48365226 5.70673608,10.466217 4.50889705,10.466217 Z" id="Path"></path>
                        </g>
                        <g id="Group" transform="translate(3.758307, 2.872654)" fill="#2276BB">
                            <path d="M10.3215825,17.9939067 C8.87192624,17.9939067 7.69658249,17.0344424 7.69658249,15.8510495 L7.69658249,13.7081924 C7.69658249,12.5247995 8.87192624,11.5653352 10.3215825,11.5653352 C11.7712387,11.5653352 12.9465825,12.5247995 12.9465825,13.7081924 L12.9465825,15.8510495 C12.9465825,17.0344424 11.7715669,17.9939067 10.3215825,17.9939067 Z" id="Path"></path>
                            <path d="M9.8433935,7.01875096 C8.39373725,7.01875096 7.2183935,6.05928667 7.2183935,4.87589381 L7.2183935,2.73303667 C7.2183935,1.54964381 8.39373725,0.590179528 9.8433935,0.590179528 C11.2930498,0.590179528 12.4683935,1.54964381 12.4683935,2.73303667 L12.4683935,4.87589381 C12.4683935,6.05928667 11.2933779,7.01875096 9.8433935,7.01875096 Z" id="Path"></path>
                            <path d="M17.2533077,12.2210098 L14.6283077,12.2210098 C13.1786514,12.2210098 12.0033077,11.0696526 12.0033077,9.6495812 C12.0033077,8.22950977 13.1786514,7.07815263 14.6283077,7.07815263 L17.2533077,7.07815263 C18.7029639,7.07815263 19.8783077,8.22950977 19.8783077,9.6495812 C19.8783077,11.0696526 18.7032921,12.2210098 17.2533077,12.2210098 Z" id="Path"></path>
                            <path d="M5.53666831,11.5059336 L2.91166831,11.5059336 C1.46201206,11.5059336 0.286668305,10.3545764 0.286668305,8.93450499 C0.286668305,7.51443356 1.46201206,6.36307642 2.91166831,6.36307642 L5.53666831,6.36307642 C6.98632456,6.36307642 8.16166831,7.51443356 8.16166831,8.93450499 C8.16166831,10.3545764 6.98665268,11.5059336 5.53666831,11.5059336 Z" id="Path"></path>
                        </g>
                        <polygon id="Path" fill="#C9DA53" points="124.196933 48.9499176 124.196933 59.9499176 113.196933 59.9499176 113.196933 48.9499176"></polygon>
                        <g id="Path">
                            <use fill="black" fill-opacity="1" filter="url(#filter-44)" xlink:href="#path-43"></use>
                            <use fill="#FFBF41" xlink:href="#path-43"></use>
                        </g>
                        <g id="Group" transform="translate(41.322925, 0.357081)">
                            <path d="M126.74139,122.332464 C124.79785,122.332464 123.222079,120.768268 123.222079,118.839006 L123.222079,115.345547 C123.222079,113.416285 124.79785,111.852088 126.74139,111.852088 C128.68493,111.852088 130.260702,113.416285 130.260702,115.345547 L130.260702,118.839006 C130.260702,120.768268 128.68537,122.332464 126.74139,122.332464 Z" id="Path" fill="#FFDB43"></path>
                            <g id="Group-2" transform="translate(22.436378, 50.510479) rotate(-80.000000) translate(-22.436378, -50.510479) translate(5.936378, 31.010479)">
                                <g id="Path">
                                    <use fill="black" fill-opacity="1" filter="url(#filter-46)" xlink:href="#path-45"></use>
                                    <use fill="#FFDB43" xlink:href="#path-45"></use>
                                </g>
                                <g id="Path" transform="translate(26.033541, 12.937741) rotate(-21.000000) translate(-26.033541, -12.937741) ">
                                    <use fill="black" fill-opacity="1" filter="url(#filter-48)" xlink:href="#path-47"></use>
                                    <use fill="#FFDB43" xlink:href="#path-47"></use>
                                </g>
                                <g id="Path" transform="translate(6.199427, 6.351179) rotate(22.000000) translate(-6.199427, -6.351179) ">
                                    <use fill="black" fill-opacity="1" filter="url(#filter-50)" xlink:href="#path-49"></use>
                                    <use fill="#FFDB43" xlink:href="#path-49"></use>
                                </g>
                            </g>
                            <path d="M139.185677,117.214547 C138.25174,117.217167 137.355635,116.848608 136.697524,116.190964 L134.20937,113.721089 C132.859274,112.333312 132.897547,110.121516 134.295594,108.781338 C135.659327,107.473912 137.821504,107.473912 139.185677,108.781338 L141.673831,111.251214 C143.048122,112.615846 143.047682,114.827642 141.672951,116.191837 C141.01352,116.846424 140.118735,117.214547 139.185677,117.214547 L139.185677,117.214547 Z" id="Path" fill="#FFDB43"></path>
                            <path d="M144.33795,104.865171 L140.818638,104.865171 C138.875098,104.865171 137.299326,103.300975 137.299326,101.371713 C137.299326,99.4424503 138.875098,97.8782542 140.818638,97.8782542 L144.33795,97.8782542 C146.28149,97.8782542 147.857262,99.4424503 147.857262,101.371713 C147.857262,103.300975 146.28193,104.865171 144.33795,104.865171 Z" id="Path" fill="#FFDB43"></path>
                            <path d="M136.697524,94.9856705 C134.753984,94.9852338 133.178652,93.4210377 133.179092,91.4913385 C133.179092,90.5651353 133.549939,89.6769235 134.20937,89.0223367 L136.697524,86.5524615 C138.095571,85.2118468 140.323295,85.2502748 141.673831,86.6380512 C142.990934,87.9917664 142.990934,90.13806 141.673831,91.4922119 L139.185677,93.9620871 C138.525806,94.6171106 137.631021,94.9856705 136.697524,94.9856705 L136.697524,94.9856705 Z" id="Path" fill="#FFDB43"></path>
                            <path d="M126.74139,90.891337 C124.79785,90.891337 123.222079,89.327141 123.222079,87.3978785 L123.222079,83.9044199 C123.222079,81.9751574 124.79785,80.4109613 126.74139,80.4109613 C128.68493,80.4109613 130.260702,81.9751574 130.260702,83.9044199 L130.260702,87.3978785 C130.260702,89.327141 128.68537,90.891337 126.74139,90.891337 Z" id="Path" fill="#FFDB43"></path>
                            <path d="M116.785257,94.9856705 C115.851759,94.9856705 114.956974,94.6171106 114.297103,93.9620871 L111.80895,91.4922119 C110.458854,90.1044355 110.497126,87.8926395 111.895173,86.5524615 C113.258906,85.2450346 115.421084,85.2450346 116.785257,86.5524615 L119.273411,89.0223367 C120.647702,90.386969 120.647262,92.5987649 119.272531,93.9629605 C118.6131,94.6175473 117.718315,94.9856705 116.785257,94.9856705 L116.785257,94.9856705 Z" id="Path" fill="#FFDB43"></path>
                            <g id="Path">
                                <use fill="black" fill-opacity="1" filter="url(#filter-52)" xlink:href="#path-51"></use>
                                <use fill="#FFDB43" xlink:href="#path-51"></use>
                            </g>
                        </g>
                        <g id="Shape">
                            <use fill="black" fill-opacity="1" filter="url(#filter-54)" xlink:href="#path-53"></use>
                            <use fill="#2BB3CE" xlink:href="#path-53"></use>
                        </g>
                        <g id="Shape" transform="translate(21.584163, 57.605879) scale(-1, 1) rotate(-105.000000) translate(-21.584163, -57.605879) ">
                            <use fill="black" fill-opacity="1" filter="url(#filter-56)" xlink:href="#path-55"></use>
                            <use fill="#2BB3CE" xlink:href="#path-55"></use>
                        </g>
                    </g>
                </g>
            </g>
        </g>
    </g>
</svg>