<?xml version="1.0" encoding="UTF-8"?>
<svg width="199px" height="62px" viewBox="0 0 199 62" version="1.1" xmlns="http://www.w3.org/2000/svg" xmlns:xlink="http://www.w3.org/1999/xlink">
    <!-- Generator: Sketch 52.6 (67491) - http://www.bohemiancoding.com/sketch -->
    <title>google-download-selected copy</title>
    <desc>Created with Sketch.</desc>
    <g id="Page-1" stroke="none" stroke-width="1" fill="none" fill-rule="evenodd">
        <g id="Desktop-Nav" transform="translate(-378.000000, -294.000000)" fill-rule="nonzero">
            <g id="google-download-selected-copy" transform="translate(378.000000, 294.000000)">
                <path d="M193.269532,62 L5.73794145,62 C2.57078908,62 0,59.2186977 0,55.7850712 L0,6.22304229 C0,2.79103853 2.57078908,0 5.73794145,0 L193.268037,0 C196.438179,0 198.998505,2.79103853 198.998505,6.22304229 L199,55.7850712 C199,59.2186977 196.438179,62 193.269532,62 Z" id="Shape-Copy-2" fill="#030303"></path>
                <g id="Group-Copy-2" transform="translate(63.063380, 28.181818)" fill="#FFFFFF">
                    <path d="M16.9075616,20.8916697 L13.5293879,20.8916697 L11.6789043,14.8441625 L5.24683779,14.8441625 L3.48411834,20.8916697 L0.195196247,20.8916697 L6.56776172,0.303226249 L10.503758,0.303226249 L16.9075616,20.8916697 Z M11.1210817,12.3069633 L9.44761391,6.93088569 C9.2705982,6.38167488 8.93887969,5.0883221 8.44948332,3.05237443 L8.38998224,3.05237443 C8.19511621,3.92801758 7.88124802,5.22137036 7.44986521,6.93088569 L5.80614792,12.3069633 L11.1210817,12.3069633 Z" id="Shape"></path>
                    <path d="M33.295646,13.2862603 C33.295646,15.811083 32.6396467,17.8068068 31.3276479,19.2718846 C30.1525016,20.5760669 28.6932376,21.2273845 26.9513436,21.2273845 C25.0711095,21.2273845 23.720435,20.5250135 22.8978326,19.1202715 L22.8383316,19.1202715 L22.8383316,26.940724 L19.6669241,26.940724 L19.6669241,10.9331628 C19.6669241,9.34586617 19.6267609,7.71679862 19.5494095,6.0459601 L22.3385225,6.0459601 L22.5155382,8.39905768 L22.5750393,8.39905768 C23.6326709,6.62611237 25.2377125,5.74118678 27.3916516,5.74118678 C29.0755321,5.74118678 30.481245,6.43272828 31.6058154,7.81735834 C32.7333609,9.20353548 33.295646,11.0259871 33.295646,13.2862603 Z M30.0647375,13.406932 C30.0647375,11.9619661 29.7523568,10.7707201 29.1246205,9.83319407 C28.4388705,8.85544412 27.5180914,8.36656915 26.3637704,8.36656915 C25.5813313,8.36656915 24.8702934,8.63885395 24.2351194,9.17568817 C23.5984578,9.71716362 23.1819503,10.4241758 22.9870842,11.299819 C22.8889075,11.7082462 22.8398191,12.0424139 22.8398191,12.3054162 L22.8398191,14.7807326 C22.8398191,15.8605893 23.1581498,16.7718151 23.7948114,17.5159571 C24.4314729,18.2600991 25.2585379,18.6313965 26.2760063,18.6313965 C27.4704905,18.6313965 28.4001948,18.151804 29.0651194,17.195713 C29.7315315,16.238075 30.0647375,14.9756637 30.0647375,13.406932 Z" id="Shape"></path>
                    <path d="M49.713481,13.2862603 C49.713481,15.811083 49.0574817,17.8068068 47.7439954,19.2718846 C46.5703366,20.5760669 45.1110726,21.2273845 43.3691786,21.2273845 C41.4889445,21.2273845 40.13827,20.5250135 39.3171552,19.1202715 L39.2576541,19.1202715 L39.2576541,26.940724 L36.0862466,26.940724 L36.0862466,10.9331628 C36.0862466,9.34586617 36.0460834,7.71679862 35.968732,6.0459601 L38.757845,6.0459601 L38.9348607,8.39905768 L38.9943618,8.39905768 C40.0505059,6.62611237 41.6555475,5.74118678 43.8109741,5.74118678 C45.4933671,5.74118678 46.89908,6.43272828 48.0266255,7.81735834 C49.1497083,9.20353548 49.713481,11.0259871 49.713481,13.2862603 Z M46.4825725,13.406932 C46.4825725,11.9619661 46.1687043,10.7707201 45.5409679,9.83319407 C44.855218,8.85544412 43.9374139,8.36656915 42.7816054,8.36656915 C41.9976787,8.36656915 41.2881284,8.63885395 40.6514668,9.17568817 C40.0148053,9.71716362 39.5997853,10.4241758 39.4049193,11.299819 C39.30823,11.7082462 39.2576541,12.0424139 39.2576541,12.3054162 L39.2576541,14.7807326 C39.2576541,15.8605893 39.5759849,16.7718151 40.2096713,17.5159571 C40.8463329,18.258552 41.6733979,18.6313965 42.6938413,18.6313965 C43.8883255,18.6313965 44.8180298,18.151804 45.4829544,17.195713 C46.1493665,16.238075 46.4825725,14.9756637 46.4825725,13.406932 Z" id="Shape"></path>
                    <path d="M68.0695637,15.1179944 C68.0695637,16.8692807 67.4849656,18.2941347 66.3113068,19.3941033 C65.0216209,20.5961788 63.2261759,21.196443 60.9190216,21.196443 C58.788883,21.196443 57.0812021,20.769451 55.7885411,19.9139198 L56.5233794,17.1647716 C57.9157047,18.0404147 59.4433949,18.4797834 61.1079375,18.4797834 C62.3024217,18.4797834 63.232126,18.1982161 63.9000256,17.6381758 C64.5649502,17.0781355 64.8966687,16.3262582 64.8966687,15.3887321 C64.8966687,14.5533129 64.6229637,13.8493948 64.0740663,13.278525 C63.5281439,12.7076551 62.6162899,12.1770092 61.3429668,11.6865872 C57.877029,10.342181 56.1455476,8.37275744 56.1455476,5.78295774 C56.1455476,4.09046021 56.7524586,2.702736 57.9677681,1.62287926 C59.1786151,0.541475444 60.7940693,0.0015470727 62.8141309,0.0015470727 C64.6155261,0.0015470727 66.1119782,0.327979412 67.3064623,0.979297018 L66.5136105,3.66810937 C65.3979653,3.03690371 64.1365424,2.72130088 62.7248793,2.72130088 C61.6092341,2.72130088 60.7375433,3.00750932 60.112782,3.57683208 C59.5847099,4.085819 59.3199301,4.70619515 59.3199301,5.44105468 C59.3199301,6.25481492 59.6218981,6.92779154 60.2288091,7.4568904 C60.7568812,7.94576538 61.716336,8.47486424 63.1086613,9.04573406 C64.8118796,9.75893458 66.0628898,10.5928068 66.8676419,11.5488977 C67.6694189,12.5018945 68.0695637,13.6946875 68.0695637,15.1179944 Z" id="Shape"></path>
                    <path d="M78.5551412,8.52127642 L75.0594528,8.52127642 L75.0594528,15.7290881 C75.0594528,17.5623693 75.675289,18.4782363 76.9099364,18.4782363 C77.4766841,18.4782363 77.9467427,18.4271829 78.3186244,18.3250761 L78.4063885,20.8297868 C77.7816272,21.0726772 76.9590248,21.194896 75.9400688,21.194896 C74.6875711,21.194896 73.7087784,20.7972983 73.0022031,20.00365 C72.2986028,19.2084546 71.9445714,17.874878 71.9445714,16.0013729 L71.9445714,8.51818227 L69.8620337,8.51818227 L69.8620337,6.04286596 L71.9445714,6.04286596 L71.9445714,3.32465923 L75.0594528,2.34690928 L75.0594528,6.04286596 L78.5551412,6.04286596 L78.5551412,8.52127642 Z" id="Shape"></path>
                    <path d="M94.3273895,13.3465962 C94.3273895,15.6285284 93.6996531,17.5020334 92.4471554,18.9671113 C91.1336691,20.4755072 89.3902875,21.2273845 87.2170106,21.2273845 C85.1225727,21.2273845 83.455055,20.5049015 82.2114824,19.0599356 C80.9679099,17.6149697 80.3461236,15.790971 80.3461236,13.5925807 C80.3461236,11.2920836 80.9857602,9.40774908 82.269496,7.94267123 C83.5502567,6.47604631 85.278763,5.74273385 87.4520399,5.74273385 C89.5464778,5.74273385 91.2318459,6.4652168 92.5036814,7.91172978 C93.7204785,9.31492471 94.3273895,11.1265468 94.3273895,13.3465962 Z M91.0369799,13.4533442 C91.0369799,12.0841848 90.7558373,10.9099567 90.1861144,9.93065965 C89.5211899,8.74560196 88.5706602,8.15462019 87.3389878,8.15462019 C86.0641772,8.15462019 85.0957972,8.74714903 84.4308726,9.93065965 C83.8611498,10.9115037 83.5800072,12.1042968 83.5800072,13.5152271 C83.5800072,14.8843864 83.8611498,16.0586146 84.4308726,17.0363645 C85.1166226,18.2214222 86.0745899,18.812404 87.3107248,18.812404 C88.5215718,18.812404 89.4721015,18.2090457 90.1578514,17.0054231 C90.7424495,16.0075612 91.0369799,14.8209564 91.0369799,13.4533442 Z" id="Shape"></path>
                    <path d="M104.635951,8.94672141 C104.322083,8.88638558 103.98739,8.85544412 103.636333,8.85544412 C102.520688,8.85544412 101.657922,9.2932657 101.051011,10.1704559 C100.522939,10.9439923 100.258159,11.9217422 100.258159,13.1021587 L100.258159,20.8916697 L97.0882395,20.8916697 L97.11799,10.7212138 C97.11799,9.01015139 97.0778268,7.45224919 96.9989879,6.04750718 L99.7613254,6.04750718 L99.8773525,8.88793265 L99.9651166,8.88793265 C100.29981,7.91172978 100.827882,7.12581685 101.55082,6.53638215 C102.257396,6.00573621 103.020497,5.74118678 103.843099,5.74118678 C104.136142,5.74118678 104.400922,5.7628458 104.635951,5.80152262 L104.635951,8.94672141 Z" id="Shape"></path>
                    <path d="M118.819521,12.7664439 C118.819521,13.3574257 118.782333,13.8555831 118.703494,14.2624632 L109.189271,14.2624632 C109.226459,15.7290881 109.686105,16.8507158 110.569696,17.6242522 C111.371473,18.3157937 112.40828,18.662338 113.681603,18.662338 C115.090291,18.662338 116.375514,18.42873 117.531322,17.959967 L118.028156,20.2496345 C116.677482,20.8622753 115.082853,21.1670487 113.242782,21.1670487 C111.029342,21.1670487 109.291911,20.4894308 108.027513,19.1357422 C106.76609,17.7820536 106.133891,15.9642432 106.133891,13.683858 C106.133891,11.4452438 106.721464,9.58102122 107.898098,8.09428436 C109.12977,6.50698777 110.794313,5.71333947 112.888751,5.71333947 C114.946001,5.71333947 116.503441,6.50698777 117.561073,8.09428436 C118.398551,9.3551486 118.819521,10.9145979 118.819521,12.7664439 Z M115.795378,11.9109127 C115.816204,10.9331628 115.609438,10.0884611 115.179542,9.37526055 C114.630645,8.45784644 113.787217,7.99991292 112.652234,7.99991292 C111.615428,7.99991292 110.772,8.44701693 110.127901,9.3443191 C109.599829,10.0575196 109.285961,10.9130508 109.189271,11.9093656 L115.795378,11.9093656 L115.795378,11.9109127 Z" id="Shape"></path>
                </g>
                <g id="Group-Copy-3" transform="translate(64.815141, 10.215909)" fill="#FFFFFF">
                    <path d="M8.02842218,5.49130548 C8.02842218,7.30450953 7.50198106,8.66941928 6.45059015,9.58603475 C5.47674864,10.4317858 4.0927901,10.8554316 2.30020588,10.8554316 C1.41137045,10.8554316 0.650789786,10.8153778 0.0139899007,10.7352703 L0.0139899007,0.828120567 C0.844663287,0.689472849 1.73946406,0.61860846 2.7058489,0.61860846 C4.41342705,0.61860846 5.70044883,1.00220048 6.56840558,1.76938452 C7.54075576,2.63670302 8.02842218,3.87682983 8.02842218,5.49130548 Z M6.38049742,5.53598086 C6.38049742,4.36055631 6.07924782,3.45934615 5.47674864,2.83080983 C4.87424945,2.20381404 3.99436202,1.88954587 2.83559501,1.88954587 C2.34345459,1.88954587 1.92438956,1.92343754 1.57690859,1.99430193 L1.57690859,9.52595407 C1.76929076,9.55676468 2.12124573,9.57062945 2.6327735,9.57062945 C3.82882387,9.57062945 4.75196001,9.22709121 5.4021819,8.54001475 C6.0524038,7.85293828 6.38049742,6.85159365 6.38049742,5.53598086 Z" id="Shape"></path>
                    <path d="M16.7661518,7.07497053 C16.7661518,8.19185492 16.4574455,9.10692986 15.8400329,9.82481693 C15.1927937,10.5627309 14.3352763,10.9309176 13.2644981,10.9309176 C12.2324945,10.9309176 11.4107691,10.5781362 10.7978306,9.86949231 C10.1863834,9.16238895 9.88065979,8.27042196 9.88065979,7.19513188 C9.88065979,6.07054484 10.1953314,5.14776725 10.8276573,4.4314207 C11.4599832,3.71507416 12.3100439,3.35613062 13.3808222,3.35613062 C14.4128257,3.35613062 15.2420078,3.70891204 15.8698596,4.4160154 C16.4663935,5.10309187 16.7661518,5.99043727 16.7661518,7.07497053 Z M15.145071,7.12734855 C15.145071,6.45721792 15.0048856,5.88260015 14.726006,5.40349526 C14.3979124,4.8242559 13.9311246,4.53463623 13.3241514,4.53463623 C12.6962996,4.53463623 12.2190725,4.8242559 11.8909789,5.40349526 C11.610608,5.88260015 11.4719138,6.4664611 11.4719138,7.15661863 C11.4719138,7.82674926 11.6120993,8.40136703 11.8909789,8.88047192 C12.2295118,9.45971127 12.7007736,9.74933095 13.3092381,9.74933095 C13.9057719,9.74933095 14.374051,9.45508968 14.7110926,8.86506662 C15.0004116,8.37671854 15.145071,7.79747919 15.145071,7.12734855 Z" id="Shape"></path>
                    <path d="M28.4820766,3.50402152 L26.282358,10.7660809 L24.8506768,10.7660809 L23.9394713,7.61261557 C23.7083144,6.82540463 23.5204063,6.04281529 23.3742555,5.26638807 L23.3459201,5.26638807 C23.2102087,6.06438271 23.0223005,6.84543153 22.7807043,7.61261557 L21.8128281,10.7660809 L20.3647422,10.7660809 L18.2962611,3.50402152 L19.9024285,3.50402152 L20.6973098,6.9563497 C20.889692,7.77283071 21.0477735,8.55079846 21.1745369,9.28717189 L21.2028723,9.28717189 C21.3191964,8.68020299 21.5115785,7.90685683 21.7830014,6.971755 L22.7807043,3.50556205 L24.0543041,3.50556205 L25.0102496,6.89780955 C25.2414064,7.72507427 25.4293146,8.52152838 25.5739741,9.28871242 L25.6172228,9.28871242 C25.7231075,8.54155528 25.8826803,7.74510116 26.0944498,6.89780955 L26.9474932,3.50556205 L28.4820766,3.50556205 L28.4820766,3.50402152 Z" id="Shape"></path>
                    <path d="M36.5844976,10.7660809 L35.0215789,10.7660809 L35.0215789,6.60664934 C35.0215789,5.32492822 34.5503172,4.68406766 33.604811,4.68406766 C33.1410059,4.68406766 32.766681,4.8596881 32.4758707,5.21246951 C32.1880431,5.56525093 32.0418923,5.98119408 32.0418923,6.45721792 L32.0418923,10.7645404 L30.4789736,10.7645404 L30.4789736,5.5791157 C30.4789736,4.9413362 30.4595863,4.24963814 30.4223029,3.50094046 L31.7958221,3.50094046 L31.8688975,4.63631122 L31.9121462,4.63631122 C32.094089,4.2835298 32.3655119,3.9923696 32.7219409,3.75974954 C33.1454799,3.48861622 33.6197244,3.35150903 34.1387088,3.35150903 C34.794896,3.35150903 35.3407245,3.57026432 35.7747029,4.00931543 C36.314566,4.54696047 36.5844976,5.3495767 36.5844976,6.4156236 L36.5844976,10.7660809 Z" id="Shape"></path>
                    <polygon id="Shape" points="40.8944547 10.7660809 39.3330273 10.7660809 39.3330273 0.171854702 40.8944547 0.171854702"></polygon>
                    <path d="M50.0959893,7.07497053 C50.0959893,8.19185492 49.787283,9.10692986 49.1698705,9.82481693 C48.5226313,10.5627309 47.6636225,10.9309176 46.5943356,10.9309176 C45.5608407,10.9309176 44.7391153,10.5781362 44.1276681,9.86949231 C43.5162209,9.16238895 43.2104973,8.27042196 43.2104973,7.19513188 C43.2104973,6.07054484 43.5251689,5.14776725 44.1574948,4.4314207 C44.7898207,3.71507416 45.6398814,3.35613062 46.7091684,3.35613062 C47.7426633,3.35613062 48.570354,3.70891204 49.1996972,4.4160154 C49.796231,5.10309187 50.0959893,5.99043727 50.0959893,7.07497053 Z M48.4734172,7.12734855 C48.4734172,6.45721792 48.3332318,5.88260015 48.0543522,5.40349526 C47.7277499,4.8242559 47.2594708,4.53463623 46.653989,4.53463623 C46.0246458,4.53463623 45.5474187,4.8242559 45.2208164,5.40349526 C44.9404455,5.88260015 44.8017514,6.4664611 44.8017514,7.15661863 C44.8017514,7.82674926 44.9419368,8.40136703 45.2208164,8.88047192 C45.5593494,9.45971127 46.0306111,9.74933095 46.6390756,9.74933095 C47.2356095,9.74933095 47.7023972,9.45508968 48.0394389,8.86506662 C48.3302491,8.37671854 48.4734172,7.79747919 48.4734172,7.12734855 Z" id="Shape"></path>
                    <path d="M57.6600385,10.7660809 L56.2566926,10.7660809 L56.1403685,9.92957298 L56.0971198,9.92957298 C55.6169101,10.5966226 54.9323875,10.9309176 54.0435521,10.9309176 C53.3799082,10.9309176 52.8430277,10.7106218 52.438876,10.2731112 C52.0720077,9.87565443 51.8885735,9.38114423 51.8885735,8.79420223 C51.8885735,7.90685683 52.2464938,7.23056408 52.9668085,6.7622429 C53.6856317,6.29392171 54.6967566,6.06438271 55.9986918,6.07516643 L55.9986918,5.93959977 C55.9986918,4.98293051 55.5125167,4.50536615 54.5386752,4.50536615 C53.8452046,4.50536615 53.2337574,4.68560819 52.7058249,5.04301119 L52.3881706,3.98312642 C53.0413752,3.56564273 53.8481872,3.35613062 54.7996587,3.35613062 C56.636983,3.35613062 57.5586278,4.35747525 57.5586278,6.36016451 L57.5586278,9.03452494 C57.5586278,9.76011466 57.5929285,10.3378135 57.6600385,10.7660809 Z M56.0374665,8.27042196 L56.0374665,7.15045651 C54.3134836,7.1196459 53.4514922,7.60799397 53.4514922,8.61396019 C53.4514922,8.99293062 53.5499203,9.27638818 53.7512505,9.46587339 C53.9525806,9.65535861 54.2090902,9.74933095 54.5148138,9.74933095 C54.8578208,9.74933095 55.1784577,9.63687225 55.4707593,9.41349537 C55.7645522,9.18857796 55.9450037,8.90357987 56.0121138,8.55387952 C56.0285184,8.47531248 56.0374665,8.3797996 56.0374665,8.27042196 Z" id="Shape"></path>
                    <path d="M66.5409362,10.7660809 L65.153995,10.7660809 L65.0809196,9.59989952 L65.0376709,9.59989952 C64.5947445,10.4872449 63.8401292,10.9309176 62.7797903,10.9309176 C61.9327122,10.9309176 61.227311,10.5873794 60.6680605,9.90030291 C60.10881,9.21322644 59.8299304,8.32125946 59.8299304,7.22594249 C59.8299304,6.05051794 60.1326713,5.09847028 60.7411359,4.37134003 C61.330213,3.69350674 62.052019,3.35459009 62.9110277,3.35459009 C63.8550426,3.35459009 64.5157038,3.68272303 64.8915201,4.34052942 L64.9213468,4.34052942 L64.9213468,0.171854702 L66.4857568,0.171854702 L66.4857568,8.80960753 C66.4857568,9.51671089 66.5036529,10.1683552 66.5409362,10.7660809 Z M64.9213468,7.70350685 L64.9213468,6.49265011 C64.9213468,6.283138 64.9064335,6.11367968 64.8780981,5.98427514 C64.7901094,5.59606153 64.6007099,5.26946913 64.3128823,5.00603847 C64.022072,4.7426078 63.6716084,4.61012221 63.2674567,4.61012221 C62.6843449,4.61012221 62.2279965,4.84890439 61.8924462,5.32800928 C61.5598786,5.80711417 61.3913578,6.41870466 61.3913578,7.16586181 C61.3913578,7.88374888 61.5509306,8.4660693 61.8715675,8.91436358 C62.2101005,9.39192795 62.6664489,9.63071013 63.23763,9.63071013 C63.7506491,9.63071013 64.1607662,9.43198173 64.4724551,9.03298441 C64.7737047,8.66479769 64.9213468,8.22112499 64.9213468,7.70350685 Z" id="Shape"></path>
                    <path d="M79.9077685,7.07497053 C79.9077685,8.19185492 79.5990622,9.10692986 78.9816497,9.82481693 C78.3344104,10.5627309 77.4783844,10.9309176 76.4061148,10.9309176 C75.3756025,10.9309176 74.5538772,10.5781362 73.9394473,9.86949231 C73.3280001,9.16238895 73.0222765,8.27042196 73.0222765,7.19513188 C73.0222765,6.07054484 73.3369481,5.14776725 73.969274,4.4314207 C74.6015999,3.71507416 75.4516606,3.35613062 76.5239302,3.35613062 C77.5544424,3.35613062 78.3851158,3.70891204 79.0114764,4.4160154 C79.6080102,5.10309187 79.9077685,5.99043727 79.9077685,7.07497053 Z M78.2881791,7.12734855 C78.2881791,6.45721792 78.1479936,5.88260015 77.869114,5.40349526 C77.5395291,4.8242559 77.0742327,4.53463623 76.4657682,4.53463623 C75.8394076,4.53463623 75.3621805,4.8242559 75.0325956,5.40349526 C74.7522247,5.88260015 74.6135306,6.4664611 74.6135306,7.15661863 C74.6135306,7.82674926 74.753716,8.40136703 75.0325956,8.88047192 C75.3711285,9.45971127 75.8423903,9.74933095 76.4508548,9.74933095 C77.0473887,9.74933095 77.5171591,9.45508968 77.8542007,8.86506662 C78.1420283,8.37671854 78.2881791,7.79747919 78.2881791,7.12734855 Z" id="Shape"></path>
                    <path d="M88.3114391,10.7660809 L86.7500117,10.7660809 L86.7500117,6.60664934 C86.7500117,5.32492822 86.27875,4.68406766 85.3317525,4.68406766 C84.8679474,4.68406766 84.4936224,4.8596881 84.2043035,5.21246951 C83.9149846,5.56525093 83.7703252,5.98119408 83.7703252,6.45721792 L83.7703252,10.7645404 L82.2059151,10.7645404 L82.2059151,5.5791157 C82.2059151,4.9413362 82.1880191,4.24963814 82.1507358,3.50094046 L83.5227636,3.50094046 L83.595839,4.63631122 L83.6390877,4.63631122 C83.8225219,4.2835298 84.0939448,3.9923696 84.4488824,3.75974954 C84.8739128,3.48861622 85.3466659,3.35150903 85.8671416,3.35150903 C86.5218375,3.35150903 87.067666,3.57026432 87.5016444,4.00931543 C88.0429989,4.54696047 88.3114391,5.3495767 88.3114391,6.4156236 L88.3114391,10.7660809 Z" id="Shape"></path>
                    <path d="M98.8298222,4.71333773 L97.108822,4.71333773 L97.108822,8.24115189 C97.108822,9.13774046 97.4145456,9.58603475 98.0200275,9.58603475 C98.3003984,9.58603475 98.5330466,9.56138627 98.7164808,9.51054877 L98.7567468,10.7352703 C98.4480405,10.8554316 98.0423975,10.9155123 97.5428004,10.9155123 C96.9253879,10.9155123 96.4451781,10.7214055 96.0976972,10.3331919 C95.7487249,9.94497829 95.5757301,9.29179348 95.5757301,8.37517801 L95.5757301,4.71333773 L94.5482005,4.71333773 L94.5482005,3.50402152 L95.5757301,3.50402152 L95.5757301,2.17300343 L97.1073307,1.69543907 L97.1073307,3.50248099 L98.8283309,3.50248099 L98.8283309,4.71333773 L98.8298222,4.71333773 Z" id="Shape"></path>
                    <path d="M107.103747,10.7660809 L105.539337,10.7660809 L105.539337,6.63745995 C105.539337,5.33571193 105.068075,4.68406766 104.12406,4.68406766 C103.399272,4.68406766 102.904148,5.06149755 102.632726,5.81635735 C102.586494,5.97503196 102.55965,6.16913877 102.55965,6.39713724 L102.55965,10.7645404 L100.998223,10.7645404 L100.998223,0.171854702 L102.55965,0.171854702 L102.55965,4.548501 L102.589477,4.548501 C103.081617,3.75204689 103.787019,3.35459009 104.701207,3.35459009 C105.348446,3.35459009 105.883835,3.57334538 106.308865,4.01239649 C106.838289,4.55928471 107.103747,5.37268466 107.103747,6.44797473 L107.103747,10.7660809 Z" id="Shape"></path>
                    <path d="M115.638655,6.79151297 C115.638655,7.08113265 115.617776,7.32453642 115.580493,7.52326481 L110.893228,7.52326481 C110.914107,8.24115189 111.137807,8.78804011 111.571785,9.16701054 C111.96848,9.50592718 112.480008,9.6753855 113.106369,9.6753855 C113.799839,9.6753855 114.432165,9.56138627 115.001855,9.33184727 L115.246434,10.4533533 C114.579807,10.7522161 113.795365,10.9016475 112.887142,10.9016475 C111.798468,10.9016475 110.940951,10.5704335 110.320555,9.90800556 C109.697178,9.24557758 109.388471,8.35669165 109.388471,7.24134779 C109.388471,6.14603082 109.676299,5.23403694 110.256428,4.50690668 C110.86191,3.73047946 111.680653,3.34226585 112.714148,3.34226585 C113.725272,3.34226585 114.49331,3.73047946 115.012294,4.50690668 C115.431359,5.12311876 115.638655,5.88568121 115.638655,6.79151297 Z M114.14732,6.37402928 C114.159251,5.89492439 114.056349,5.4820623 113.844579,5.13390247 C113.573156,4.68560819 113.160057,4.46069078 112.600806,4.46069078 C112.09077,4.46069078 111.674687,4.67944607 111.357033,5.11849717 C111.097541,5.46819753 110.943933,5.88568121 110.893228,6.37402928 L114.14732,6.37402928 Z" id="Shape"></path>
                </g>
                <g id="Group-Copy" transform="translate(12.612676, 8.102273)" fill="#FFFFFF">
                    <path d="M25.8487568,21.2321381 C25.8055167,16.1804377 29.7836029,13.7227691 29.9655094,13.6083496 C27.7125528,10.1553878 24.2205446,9.68360319 22.9934213,9.64598581 C20.0605519,9.32153593 17.2156536,11.4908047 15.7216347,11.4908047 C14.1977951,11.4908047 11.8971253,9.67733362 9.41753111,9.73062491 C6.22671233,9.7823488 3.24165664,11.7243459 1.60449822,14.7400057 C-1.77419119,20.8888795 0.745661016,29.924887 3.98270193,34.895083 C5.60196791,37.3292408 7.49409362,40.0470963 9.97070576,39.9514855 C12.3936406,39.8464703 13.2986999,38.3276687 16.2226231,38.3276687 C19.1197076,38.3276687 19.9695986,39.9514855 22.495415,39.8903573 C25.0957832,39.8464703 26.7329416,37.4452277 28.2955482,34.9891265 C30.1667994,32.199171 30.9182819,29.451535 30.9481027,29.3104699 C30.8869701,29.2885264 25.897961,27.2869684 25.8487568,21.2321381 Z" id="Shape"></path>
                    <path d="M21.2782088,6.40906068 C22.581375,4.69590261 23.473015,2.36519261 23.2255029,0 C21.3393414,0.0877738806 18.9805211,1.37146689 17.6221866,3.04700757 C16.4204109,4.52348963 15.3468644,6.94354092 15.6241973,9.21939225 C17.7429606,9.38553567 19.9183833,8.0955731 21.2782088,6.40906068 Z" id="Shape"></path>
                </g>
            </g>
        </g>
    </g>
</svg>