<?xml version="1.0" encoding="UTF-8"?>
<svg width="200px" height="62px" viewBox="0 0 200 62" version="1.1" xmlns="http://www.w3.org/2000/svg" xmlns:xlink="http://www.w3.org/1999/xlink">
    <!-- Generator: Sketch 52.6 (67491) - http://www.bohemiancoding.com/sketch -->
    <title>google-download-selected</title>
    <desc>Created with Sketch.</desc>
    <g id="Page-1" stroke="none" stroke-width="1" fill="none" fill-rule="evenodd">
        <g id="Desktop-Nav" transform="translate(-378.000000, -218.000000)">
            <g id="google-download-selected" transform="translate(378.000000, 218.000000)">
                <path d="M193.410292,61.7068809 L5.74212045,61.7068809 C2.57266141,61.7068809 0,58.9387278 0,55.5213346 L0,6.19362145 C0,2.77784326 2.57266141,0 5.74212045,0 L193.408796,0 C196.581247,0 199.143438,2.77784326 199.143438,6.19362145 L199.144934,55.5213346 C199.144934,58.9387278 196.581247,61.7068809 193.410292,61.7068809 Z" id="Shape-Copy-2" fill="#030303" fill-rule="nonzero"></path>
                <path d="M66.8854974,11.721952 C67.594248,11.721952 68.2071199,11.8589066 68.7241312,12.1328199 C69.4739689,12.5265703 69.9327668,13.2164791 70.1005387,14.202567 L69.0887765,14.202567 C68.9655155,13.6513165 68.7104376,13.2498683 68.323535,12.9982105 C67.9366325,12.7465526 67.4487317,12.6207256 66.8598181,12.6207256 C66.1613392,12.6207256 65.5732904,12.8826512 65.0956541,13.4065104 C64.6180177,13.9303696 64.3792031,14.7110108 64.3792031,15.7484575 C64.3792031,16.6455236 64.5760754,17.3756628 64.9698258,17.938897 C65.3635761,18.5021312 66.0055508,18.7837441 66.8957691,18.7837441 C67.5771284,18.7837441 68.1412102,18.5860159 68.5880312,18.1905536 C69.0348523,17.7950913 69.2633953,17.1556845 69.2736671,16.2723141 L66.9111766,16.2723141 L66.9111766,15.424899 L70.2237991,15.424899 L70.2237991,19.4616762 L69.5664104,19.4616762 L69.3198897,18.4910007 C68.9740741,18.8710555 68.6676382,19.1346931 68.4005728,19.2819215 C67.9520397,19.5352913 67.3819662,19.6619743 66.6903351,19.6619743 C65.7966929,19.6619743 65.0280353,19.3726577 64.384339,18.7940158 C63.6824362,18.0681456 63.33149,17.0718009 63.33149,15.8049518 C63.33149,14.5415267 63.6738765,13.5366223 64.3586598,12.7902086 C65.0092039,12.078034 65.8514746,11.721952 66.8854974,11.721952 Z M71.7467105,11.9171143 L77.2472046,11.9171143 L77.2472046,12.8415671 L72.7430652,12.8415671 L72.7430652,15.1321556 L76.9082386,15.1321556 L76.9082386,16.0052499 L72.7430652,16.0052499 L72.7430652,18.5629026 L77.3242423,18.5629026 L77.3242423,19.4616762 L71.7467105,19.4616762 L71.7467105,11.9171143 Z M83.9984101,11.9171143 L83.9984101,12.8158878 L81.456165,12.8158878 L81.456165,19.4616762 L80.4187235,19.4616762 L80.4187235,12.8158878 L77.8764784,12.8158878 L77.8764784,11.9171143 L83.9984101,11.9171143 Z M87.5886331,11.9171143 L88.6209387,11.9171143 L88.6209387,19.4616762 L87.5886331,19.4616762 L87.5886331,11.9171143 Z M95.6135291,11.9171143 L95.6135291,12.8158878 L93.0712839,12.8158878 L93.0712839,19.4616762 L92.0338425,19.4616762 L92.0338425,12.8158878 L89.4915973,12.8158878 L89.4915973,11.9171143 L95.6135291,11.9171143 Z M102.228767,11.7116803 C103.56067,11.7116803 104.546743,12.1396635 105.187016,12.9956425 C105.686908,13.6633062 105.93685,14.5175605 105.93685,15.5584311 C105.93685,16.6848995 105.650957,17.6213266 105.079163,18.3677404 C104.408075,19.2442629 103.451105,19.6825177 102.208224,19.6825177 C101.047516,19.6825177 100.135056,19.2990448 99.4708161,18.5320875 C98.8784786,17.7925216 98.5823143,16.8578065 98.5823143,15.7279141 C98.5823143,14.707587 98.8356803,13.8345015 99.3424199,13.1086312 C99.992964,12.177326 100.95507,11.7116803 102.228767,11.7116803 Z M102.331484,18.7683366 C103.231974,18.7683366 103.883364,18.4456373 104.285674,17.8002291 C104.687985,17.1548209 104.889137,16.4126981 104.889137,15.5738386 C104.889137,14.6870443 104.65717,13.9731685 104.193229,13.4321897 C103.729288,12.8912109 103.095017,12.6207256 102.290397,12.6207256 C101.509744,12.6207256 100.872905,12.888643 100.379861,13.4244859 C99.8868174,13.9603288 99.6402991,14.7503856 99.6402991,15.7946801 C99.6402991,16.6301157 99.8517228,17.3345759 100.274576,17.9080819 C100.69743,18.4815879 101.383059,18.7683366 102.331484,18.7683366 Z M106.997535,11.9171143 L108.204459,11.9171143 L112.015259,18.0287744 L112.015259,11.9171143 L112.985935,11.9171143 L112.985935,19.4616762 L111.84064,19.4616762 L107.973346,13.3551519 L107.973346,19.4616762 L106.997535,19.4616762 L106.997535,11.9171143 Z" id="GET-IT-ON" fill="#FFFFFF"></path>
                <path d="M70.2708777,29.2530176 C71.5702539,29.2530176 72.6938523,29.504101 73.6417065,30.0062754 C75.0164089,30.7281511 75.8575383,31.9929839 76.1651202,33.8008117 L74.3102228,33.8008117 C74.0842443,32.7901857 73.6166014,32.0541974 72.9072801,31.5928247 C72.1979587,31.131452 71.303474,30.9007691 70.2237991,30.9007691 C68.9432544,30.9007691 67.8651649,31.3809661 66.9894983,32.3413747 C66.1138317,33.3017832 65.676005,34.7329587 65.676005,36.6349443 C65.676005,38.2795654 66.0369374,39.6181539 66.7588131,40.65075 C67.4806888,41.6833461 68.6576424,42.1996364 70.2897091,42.1996364 C71.5388679,42.1996364 72.5730178,41.8371347 73.3921898,41.1121204 C74.2113618,40.3871062 74.6303572,39.2148604 74.6491888,37.595348 L70.3179563,37.595348 L70.3179563,36.0417537 L76.3910975,36.0417537 L76.3910975,43.4425118 L75.185885,43.4425118 L74.7339303,41.6629402 C74.0999351,42.3597072 73.5381359,42.8430428 73.0485159,43.1129615 C72.2262053,43.5774729 71.1810706,43.809725 69.9130802,43.809725 C68.2747363,43.809725 66.8655305,43.2793113 65.6854207,42.2184679 C64.3985988,40.8877057 63.7551975,39.0610738 63.7551975,36.7385172 C63.7551975,34.4222378 64.3829061,32.5799131 65.6383421,31.2114879 C66.8310063,29.9058345 68.3751694,29.2530176 70.2708777,29.2530176 Z M82.779908,42.350288 C83.9035232,42.350288 84.6740354,41.9250154 85.0914679,41.0744576 C85.5089004,40.2238997 85.7176135,39.277629 85.7176135,38.2356171 C85.7176135,37.2940401 85.5669634,36.5282357 85.2656588,35.9381808 C84.7885931,35.0091581 83.9662949,34.5446538 82.7987394,34.5446538 C81.7630047,34.5446538 81.0097544,34.9401102 80.5389659,35.7310349 C80.0681775,36.5219595 79.8327867,37.4760766 79.8327867,38.5934146 C79.8327867,39.6668124 80.0681775,40.5612971 80.5389659,41.2768956 C81.0097544,41.9924941 81.7567276,42.350288 82.779908,42.350288 Z M82.845818,33.0663853 C84.1451943,33.0663853 85.2436843,33.4995042 86.141321,34.3657551 C87.0389577,35.2320059 87.4877694,36.5062543 87.4877694,38.1885385 C87.4877694,39.8143281 87.092313,41.1576245 86.3013883,42.2184679 C85.5104636,43.2793113 84.2832934,43.809725 82.6198407,43.809725 C81.2325839,43.809725 80.1309554,43.3405129 79.314922,42.4020745 C78.4988886,41.4636361 78.090878,40.2035111 78.090878,38.6216618 C78.090878,36.9268232 78.5208584,35.5772498 79.380832,34.572901 C80.2408057,33.5685522 81.3957895,33.0663853 82.845818,33.0663853 Z M93.2174792,42.350288 C94.3410944,42.350288 95.1116067,41.9250154 95.5290392,41.0744576 C95.9464716,40.2238997 96.1551847,39.277629 96.1551847,38.2356171 C96.1551847,37.2940401 96.0045347,36.5282357 95.70323,35.9381808 C95.2261644,35.0091581 94.4038661,34.5446538 93.2363107,34.5446538 C92.200576,34.5446538 91.4473257,34.9401102 90.9765372,35.7310349 C90.5057487,36.5219595 90.270358,37.4760766 90.270358,38.5934146 C90.270358,39.6668124 90.5057487,40.5612971 90.9765372,41.2768956 C91.4473257,41.9924941 92.1942989,42.350288 93.2174792,42.350288 Z M93.2833893,33.0663853 C94.5827655,33.0663853 95.6812555,33.4995042 96.5788923,34.3657551 C97.476529,35.2320059 97.9253406,36.5062543 97.9253406,38.1885385 C97.9253406,39.8143281 97.5298842,41.1576245 96.7389596,42.2184679 C95.9480349,43.2793113 94.7208646,43.809725 93.0574119,43.809725 C91.6701552,43.809725 90.5685266,43.3405129 89.7524932,42.4020745 C88.9364599,41.4636361 88.5284493,40.2035111 88.5284493,38.6216618 C88.5284493,36.9268232 88.9584297,35.5772498 89.8184033,34.572901 C90.678377,33.5685522 91.8333607,33.0663853 93.2833893,33.0663853 Z M103.212512,33.179374 C104.003436,33.179374 104.693916,33.3739637 105.283971,33.7631488 C105.604107,33.9828501 105.930515,34.3029815 106.263206,34.7235525 L106.263206,33.45243 L107.826216,33.45243 L107.826216,42.623344 C107.826216,43.9038887 107.637903,44.9144995 107.261272,45.6552067 C106.558228,47.0236319 105.230625,47.7078343 103.278422,47.7078343 C102.192469,47.7078343 101.279153,47.4645972 100.538446,46.9781157 C99.797739,46.4916343 99.3834514,45.7305377 99.2955708,44.694803 L101.018648,44.694803 C101.100251,45.1467599 101.263456,45.4951382 101.508266,45.7399482 C101.891174,46.116579 102.493774,46.3048916 103.316084,46.3048916 C104.615461,46.3048916 105.466006,45.8466643 105.867745,44.930196 C106.106278,44.3903586 106.216127,43.4268259 106.197296,42.0395691 C105.858328,42.5542979 105.450317,42.9372001 104.973252,43.1882873 C104.496186,43.4393745 103.865339,43.5649162 103.080691,43.5649162 C101.988462,43.5649162 101.032776,43.1773062 100.213604,42.4020745 C99.3944318,41.6268427 98.984852,40.344748 98.984852,38.5557517 C98.984852,36.8671903 99.3975704,35.5490023 100.22302,34.6011481 C101.048469,33.653294 102.044956,33.179374 103.212512,33.179374 Z M106.263206,38.3580215 C106.263206,37.1088627 106.005845,36.1829926 105.491116,35.5803833 C104.976388,34.977774 104.320432,34.6764739 103.52323,34.6764739 C102.330566,34.6764739 101.514545,35.2351345 101.075142,36.3524726 C100.842887,36.9488047 100.726761,37.7303018 100.726761,38.6969875 C100.726761,39.8331571 100.957444,40.6978257 101.418816,41.2910192 C101.880189,41.8842127 102.500051,42.180805 103.278422,42.180805 C104.496194,42.180805 105.353017,41.63156 105.848914,40.5330535 C106.12511,39.9116127 106.263206,39.1866093 106.263206,38.3580215 Z M110.138018,29.6108151 L111.832848,29.6108151 L111.832848,43.4425118 L110.138018,43.4425118 L110.138018,29.6108151 Z M118.287569,33.1322954 C119.003167,33.1322954 119.696785,33.3002074 120.368444,33.6360365 C121.040102,33.9718657 121.551684,34.4065539 121.903206,34.9401142 C122.242174,35.4485657 122.468149,36.0417503 122.581138,36.7196858 C122.681573,37.1841971 122.73179,37.9248932 122.73179,38.9417963 L115.340448,38.9417963 C115.371833,39.9649767 115.613501,40.7857056 116.065458,41.4040079 C116.517415,42.0223101 117.21731,42.3314565 118.165164,42.3314565 C119.050247,42.3314565 119.756419,42.0395721 120.283702,41.4557943 C120.585007,41.1168266 120.798428,40.7245088 120.923971,40.278829 L122.590554,40.278829 C122.546614,40.6491826 122.400672,41.061901 122.152723,41.5169965 C121.904774,41.9720921 121.627013,42.3440094 121.319432,42.6327597 C120.804703,43.1349341 120.167579,43.4738967 119.40804,43.6496577 C119.000023,43.7500926 118.538657,43.8003093 118.023929,43.8003093 C116.768493,43.8003093 115.704527,43.3436513 114.831999,42.4303216 C113.959471,41.516992 113.523213,40.2380357 113.523213,38.5934146 C113.523213,36.9739022 113.962609,35.6588527 114.841414,34.6482267 C115.720219,33.6376008 116.868926,33.1322954 118.287569,33.1322954 Z M120.989881,37.595348 C120.920832,36.8609179 120.760767,36.2740104 120.509679,35.8346078 C120.045168,35.0185744 119.269948,34.6105639 118.183996,34.6105639 C117.405626,34.6105639 116.752809,34.8914634 116.225526,35.453271 C115.698242,36.0150786 115.418912,36.7290972 115.387526,37.595348 L120.989881,37.595348 Z M130.001213,29.6108151 L136.225006,29.6108151 C137.455333,29.6108151 138.447113,29.957624 139.200374,30.6512524 C139.953636,31.3448808 140.330261,32.3193984 140.330261,33.5748343 C140.330261,34.6545093 139.994437,35.5945029 139.322779,36.3948433 C138.65112,37.1951838 137.61854,37.595348 136.225006,37.595348 L131.874942,37.595348 L131.874942,43.4425118 L130.001213,43.4425118 L130.001213,29.6108151 Z M138.437701,33.5842501 C138.437701,32.5673469 138.061076,31.8768675 137.307814,31.5127911 C136.89352,31.3181985 136.325444,31.2209037 135.603568,31.2209037 L131.874942,31.2209037 L131.874942,36.0135066 L135.603568,36.0135066 C136.44471,36.0135066 137.127343,35.8346096 137.651488,35.4768104 C138.175632,35.1190111 138.437701,34.488164 138.437701,33.5842501 Z M142.218356,29.6108151 L143.913186,29.6108151 L143.913186,43.4425118 L142.218356,43.4425118 L142.218356,29.6108151 Z M147.467864,40.7590308 C147.467864,41.2486509 147.646761,41.6346916 148.00456,41.9171647 C148.362359,42.1996378 148.786063,42.3408723 149.275683,42.3408723 C149.872015,42.3408723 150.449507,42.2027764 151.008176,41.9265805 C151.949753,41.4683463 152.420534,40.7182346 152.420534,39.6762227 L152.420534,38.3109429 C152.213387,38.4427637 151.946611,38.5526127 151.620198,38.6404932 C151.293784,38.7283737 150.973653,38.7911446 150.659794,38.8288077 L149.63348,38.9606278 C149.018317,39.0422311 148.556951,39.1709114 148.249369,39.3466724 C147.728363,39.6416999 147.467864,40.1124813 147.467864,40.7590308 Z M151.573119,37.3317077 C151.962304,37.2814903 152.222803,37.1182861 152.354624,36.8420902 C152.42995,36.6914378 152.467613,36.4748784 152.467613,36.1924053 C152.467613,35.6149047 152.262038,35.1959093 151.850883,34.9354063 C151.439728,34.6749033 150.851251,34.5446538 150.085435,34.5446538 C149.200353,34.5446538 148.572644,34.7831831 148.20229,35.2602487 C147.995143,35.5238903 147.860186,35.9162081 147.797414,36.4372141 L146.215573,36.4372141 C146.246959,35.1943325 146.650261,34.3296639 147.425493,33.8431824 C148.200725,33.356701 149.099917,33.1134639 150.123098,33.1134639 C151.309485,33.1134639 152.273017,33.339439 153.013725,33.791396 C153.748155,34.2433529 154.115364,34.9463865 154.115364,35.9005179 L154.115364,41.7100188 C154.115364,41.8857799 154.151457,42.0270143 154.223645,42.1337264 C154.295833,42.2404384 154.448052,42.2937937 154.680308,42.2937937 C154.755634,42.2937937 154.840374,42.2890858 154.934532,42.2796701 C155.02869,42.2702543 155.129123,42.2561309 155.235835,42.2372993 L155.235835,43.4895904 C154.972194,43.5649166 154.771327,43.6119948 154.633229,43.6308263 C154.495131,43.6496578 154.306818,43.6590735 154.068286,43.6590735 C153.484508,43.6590735 153.060805,43.4519296 152.797163,43.0376358 C152.659065,42.8179345 152.56177,42.5072187 152.505276,42.1054792 C152.160031,42.5574362 151.664141,42.949754 151.017591,43.2824445 C150.371042,43.6151351 149.658593,43.7814779 148.880222,43.7814779 C147.944923,43.7814779 147.180687,43.4974397 146.587494,42.9293549 C145.9943,42.3612702 145.697708,41.6503902 145.697708,40.7966937 C145.697708,39.8613939 145.989593,39.1363905 146.57337,38.6216618 C147.157148,38.106933 147.922952,37.7899402 148.870807,37.6706738 L151.573119,37.3317077 Z M162.905184,33.3582727 L164.778913,33.3582727 C164.54038,34.0048223 164.009966,35.4799374 163.187656,37.7836624 C162.572492,39.5161641 162.057771,40.9285084 161.643477,42.0207377 C160.664237,44.5943815 159.973758,46.1636529 159.572018,46.7285991 C159.170279,47.2935453 158.479799,47.5760141 157.500559,47.5760141 C157.262026,47.5760141 157.078422,47.5665985 156.949739,47.547767 C156.821057,47.5289354 156.662561,47.4944115 156.474245,47.444194 L156.474245,45.9000155 C156.769273,45.9816188 156.982694,46.0318355 157.114514,46.050667 C157.246335,46.0694986 157.362461,46.0789142 157.462896,46.0789142 C157.776755,46.0789142 158.007438,46.0271283 158.154952,45.9235548 C158.302466,45.8199813 158.426438,45.6928703 158.526873,45.542218 C158.558259,45.4920006 158.671246,45.2346401 158.865839,44.7701287 C159.060432,44.3056174 159.201666,43.9603777 159.289546,43.7343992 L155.56092,33.3582727 L157.481728,33.3582727 L160.18404,41.568783 L162.905184,33.3582727 Z" id="Google-Play" fill="#FFFFFF"></path>
                <g id="google-play-(1)" transform="translate(15.603108, 11.098360)" fill-rule="nonzero">
                    <path d="M0.161767397,1.40579225 C0.0656789519,1.76401604 0,2.15038492 0,2.5917178 L0,38.8938892 C0,39.3285911 0.0656789519,39.710834 0.158018282,40.0650791 L19.3572395,20.7624019 C19.3572395,20.7622546 0.161767397,1.40579225 0.161767397,1.40579225 Z" id="Shape" fill="#00D2FF"></path>
                    <path d="M26.454894,13.4513373 L4.41070436,0.590185221 C3.53186442,0.0296223129 2.66667954,-0.112451884 1.93572395,0.0830433565 L20.8957808,18.9781954 C20.8957808,18.9781954 26.454894,13.4513373 26.454894,13.4513373 Z" id="Shape" fill="#00F076"></path>
                    <path d="M34.528764,17.4460619 L28.9465471,14.0579225 L23.2286874,19.9668829 L29.0526517,26.0071566 L34.4839383,22.7528749 C37.1352581,21.1044609 36.1681385,18.4510545 34.528764,17.4460619 Z" id="Shape" fill="#FFD500"></path>
                    <path d="M1.29048263,42.0743277 C2.04839643,42.2922229 2.95357001,42.1617725 3.87394371,41.5862138 L26.454894,28.8412081 L20.6748077,23.1955721 C20.6748077,23.1957155 1.29048263,42.0743277 1.29048263,42.0743277 Z" id="Shape" fill="#F3324A"></path>
                </g>
            </g>
        </g>
    </g>
</svg>