<svg height="327" viewBox="0 0 577 327" width="577" xmlns="http://www.w3.org/2000/svg" xmlns:xlink="http://www.w3.org/1999/xlink"><linearGradient id="a" x1="6.583486%" x2="83.671721%" y1="0%" y2="97.941301%"><stop offset="0" stop-color="#002ee2"/><stop offset="1" stop-color="#7a2ea4"/></linearGradient><linearGradient id="b" x1="6.583486%" x2="83.671721%" y1="0%" y2="97.941301%"><stop offset="0" stop-color="#cb00e2"/><stop offset="1" stop-color="#cd70ff"/></linearGradient><linearGradient id="c" x1="36.471306%" x2="62.451997%" y1="-6.55327%" y2="100%"><stop offset="0" stop-color="#ff0017"/><stop offset="1" stop-color="#ff2142"/></linearGradient><linearGradient id="d" x1="6.583486%" x2="85.292095%" y1="0%" y2="100%"><stop offset="0" stop-color="#4696a8"/><stop offset="1" stop-color="#8eed67"/></linearGradient><linearGradient id="e" x1="6.583486%" x2="85.292095%" y1="0%" y2="100%"><stop offset="0" stop-color="#a1a846"/><stop offset="1" stop-color="#fff515"/></linearGradient><linearGradient id="f" x1=".135246%" x2="99.864754%" y1="0%" y2="100%"><stop offset="0" stop-color="#fff607"/><stop offset="1" stop-color="#ff7200"/></linearGradient><radialGradient id="g" cx="50%" cy="50%" gradientTransform="matrix(0 .958701 -1 0 1 .020649)" r="104.307834%"><stop offset="0" stop-color="#f00" stop-opacity="0"/><stop offset="1" stop-color="#f00"/></radialGradient><linearGradient id="h" x1="50%" x2="50%" y1="-17.467506%" y2="127.014411%"><stop offset="0" stop-color="#f95608"/><stop offset="1" stop-color="#ff9644"/></linearGradient><linearGradient id="i" x1="50%" x2="50%" y1="-17.467506%" y2="127.014411%"><stop offset="0" stop-color="#08f9c8"/><stop offset="1" stop-color="#5000be"/></linearGradient><linearGradient id="j" x1="50%" x2="50%" y1="118.705512%" y2="22.339879%"><stop offset="0" stop-color="#490a37"/><stop offset="1" stop-color="#ff168d"/></linearGradient><linearGradient id="k" x1="50%" x2="50%" y1="0%" y2="111.909715%"><stop offset="0" stop-color="#b4ec51"/><stop offset="1" stop-color="#3ccc02"/></linearGradient><linearGradient id="l" x1="50%" x2="50%" y1="0%" y2="111.909715%"><stop offset="0" stop-color="#fff"/><stop offset="1" stop-color="#338014"/></linearGradient><linearGradient id="m" x1="50%" x2="50%" y1="0%" y2="139.674164%"><stop offset="0" stop-color="#ecd051"/><stop offset="1" stop-color="#e49500"/></linearGradient><linearGradient id="n" x1="50%" x2="50%" y1="0%" y2="139.674164%"><stop offset="0" stop-color="#01ce90"/><stop offset=".313635638" stop-color="#48bc63"/><stop offset="1" stop-color="#e49500"/></linearGradient><linearGradient id="o" x1="-10.063532%" x2="98.923235%" y1="-29.137568%" y2="111.223743%"><stop offset="0" stop-color="#3692d6"/><stop offset="1" stop-color="#00b8ff"/></linearGradient><linearGradient id="p"><stop offset="0" stop-color="#3023ae"/><stop offset="1" stop-color="#c86dd7"/></linearGradient><linearGradient id="q" x1=".135246%" x2="101.859342%" xlink:href="#p" y1="0%" y2="100.999999%"/><linearGradient id="r" x1=".135246%" x2="101.859342%" y1="0%" y2="100.999999%"><stop offset="0" stop-color="#fec664"/><stop offset="1" stop-color="#c86dd7"/></linearGradient><linearGradient id="s" x1=".135246%" x2="85.788795%" y1="-17.095489%" y2="114.275166%"><stop offset="0" stop-color="#b3b1ff"/><stop offset="1" stop-color="#0b06f4"/></linearGradient><linearGradient id="t" x1=".135246%" x2="105.983708%" y1="-17.94837%" y2="135.346024%"><stop offset="0" stop-color="#f8ff32"/><stop offset="1" stop-color="#f40606"/></linearGradient><linearGradient id="u" x1="50%" x2="101.859342%" xlink:href="#p" y1="50%" y2="100.999999%"/><g fill="none" fill-rule="evenodd"><g transform="translate(220.978723 236.030076)"><ellipse cx="19.028723" cy="19.054511" fill="url(#a)" rx="18.414894" ry="18.43985"/><text fill="#c4c4c4" font-family="AppleColorEmoji, Apple Color Emoji" font-size="13" letter-spacing=".2462778"><tspan x="10.405585" y="24.554511">😇</tspan></text></g><g transform="translate(195.197872 108.180452)"><ellipse cx="19.028723" cy="19.054511" fill="url(#b)" rx="18.414894" ry="18.43985"/><text fill="#c4c4c4" font-family="AppleColorEmoji, Apple Color Emoji" font-size="13" letter-spacing=".2462778"><tspan x="10.405585" y="24.554511">👻</tspan></text></g><g transform="translate(443.185106 73.759399)"><ellipse cx="19.028723" cy="19.054511" fill="url(#c)" rx="18.414894" ry="18.43985"/><text fill="#c4c4c4" font-family="AppleColorEmoji, Apple Color Emoji" font-size="13" letter-spacing=".2462778"><tspan x="11.633244" y="24.554511">🤟</tspan></text></g><g transform="translate(77.342553 130.308271)"><ellipse cx="19.028723" cy="19.054511" fill="url(#d)" rx="18.414894" ry="18.43985"/><text fill="#c4c4c4" font-family="AppleColorEmoji, Apple Color Emoji" font-size="13" letter-spacing=".2462778"><tspan x="10.405585" y="24.554511">🤡</tspan></text></g><g transform="translate(538.942553 36.8797)"><ellipse cx="15.345745" cy="15.981203" fill="url(#e)" rx="15.345745" ry="15.366541"/><text fill="#c4c4c4" font-family="AppleColorEmoji, Apple Color Emoji" font-size="13" letter-spacing=".2462778"><tspan x="6.722606" y="20.866541">😇</tspan></text></g><g transform="translate(321.646808 18.43985)"><ellipse cx="20.256383" cy="20.283835" fill="url(#f)" rx="19.642553" ry="19.669173"/><text fill="#c4c4c4" font-family="AppleColorEmoji, Apple Color Emoji" font-size="13" letter-spacing=".2462778"><tspan x="11.633244" y="21.595865">🍑</tspan></text></g><g transform="translate(282.361702 82.979324)"><ellipse cx="14.731915" cy="15.981203" fill="url(#g)" rx="14.731915" ry="15.366541"/><text fill="#c4c4c4" font-family="AppleColorEmoji, Apple Color Emoji" font-size="9" letter-spacing=".170500025"><tspan x="8.646665" y="14.137218">🌹</tspan></text></g><g transform="translate(289.727659 258.157895)"><ellipse cx="32.532979" cy="19.054511" fill="url(#h)" rx="19.028723" ry="19.054511"/><text fill="#c4c4c4" font-family="AppleColorEmoji, Apple Color Emoji" font-size="21" letter-spacing=".3978333"><tspan x="19.606403" y="28.554511">🍕</tspan></text></g><g transform="translate(130.131915 277.827068)"><ellipse cx="24.553192" cy="24.586466" fill="url(#i)" rx="24.553192" ry="24.586466"/><text fill="#c4c4c4" font-family="AppleColorEmoji, Apple Color Emoji" font-size="25" letter-spacing=".4736111"><tspan x="11.316386" y="35.471805">🥳</tspan></text></g><g transform="translate(402.67234 282.744361)"><ellipse cx="20.256383" cy="20.283835" fill="url(#j)" rx="20.256383" ry="20.283835"/><text fill="#c4c4c4" font-family="AppleColorEmoji, Apple Color Emoji" font-size="15" letter-spacing=".2841667"><tspan x="10.1143" y="26.783835">😝</tspan></text></g><g transform="translate(377.505319 189.930452)"><ellipse cx="16.573404" cy="16.595865" fill="url(#k)" rx="15.959575" ry="15.981203"/><text fill="#c4c4c4" font-family="AppleColorEmoji, Apple Color Emoji" font-size="11" letter-spacing=".208388925"><tspan x="8.96921" y="21.595865">🙃</tspan></text></g><g transform="translate(505.795744 120.473685)"><ellipse cx="16.573404" cy="16.595865" fill="url(#l)" rx="15.959575" ry="15.981203"/><text fill="#c4c4c4" font-family="AppleColorEmoji, Apple Color Emoji" font-size="11" letter-spacing=".208388925"><tspan x="8.96921" y="21.595865">😬</tspan></text></g><g transform="translate(205.019149 23.357143)"><ellipse cx="15.345745" cy="15.366541" fill="url(#m)" rx="15.345745" ry="15.366541"/><text fill="#c4c4c4" font-family="AppleColorEmoji, Apple Color Emoji" font-size="12" letter-spacing=".3788889"><tspan x="6.8938" y="14.293233">😂</tspan></text></g><g transform="translate(30.691489 57.778196)"><ellipse cx="15.345745" cy="15.366541" fill="url(#n)" rx="15.345745" ry="15.366541"/><text fill="#c4c4c4" font-family="AppleColorEmoji, Apple Color Emoji" font-size="12" letter-spacing=".3788889"><tspan x="6.8938" y="14.293233">😘</tspan></text></g><g transform="translate(47.878723 226.195489)"><ellipse cx="29.46383" cy="29.503759" fill="url(#o)" rx="29.46383" ry="29.503759"/><text fill="#c4c4c4" font-family="AppleColorEmoji, Apple Color Emoji" font-size="25" letter-spacing=".4736111"><tspan x="16.840854" y="41.077068">🤪</tspan></text></g><g transform="translate(109.261702 54.090226)"><ellipse cx="27.008511" cy="27.045113" fill="url(#q)" rx="27.008511" ry="27.045113"/><text fill="#c4c4c4" font-family="AppleColorEmoji, Apple Color Emoji" font-size="25" letter-spacing=".4736111"><tspan x="14.385535" y="39.847744">🕺</tspan></text></g><g transform="translate(0 151.206767)"><ellipse cx="20.870213" cy="20.898496" fill="url(#r)" rx="20.870213" ry="20.898496"/><text fill="#c4c4c4" font-family="AppleColorEmoji, Apple Color Emoji" font-size="21" letter-spacing=".397833318"><tspan x="7.329807" y="30.12782">🤬</tspan></text></g><g transform="translate(493.519149 237.259398)"><ellipse cx="25.780851" cy="25.81579" fill="url(#s)" rx="25.780851" ry="25.81579"/><text fill="#c4c4c4" font-family="AppleColorEmoji, Apple Color Emoji" font-size="18" letter-spacing=".341"><tspan x="13.996521" y="34.045113">💑</tspan></text></g><g transform="translate(537.714894 175.793233)"><ellipse cx="19.642553" cy="19.669173" fill="url(#t)" rx="19.642553" ry="19.669173"/><text fill="#c4c4c4" font-family="AppleColorEmoji, Apple Color Emoji" font-size="15" letter-spacing=".2841667"><tspan x="8.88664" y="26.783835">🤯</tspan></text></g><g transform="translate(406.355319)"><ellipse cx="25.780851" cy="25.81579" fill="url(#u)" rx="25.780851" ry="25.81579"/><text fill="#c4c4c4" font-family="AppleColorEmoji, Apple Color Emoji" font-size="15" letter-spacing=".2841667"><tspan x="16.252598" y="32.930451">👿</tspan></text></g></g></svg>