<svg height="439" viewBox="0 0 685 439" width="685" xmlns="http://www.w3.org/2000/svg"><g fill="none" fill-rule="evenodd"><g transform="translate(280)"><rect fill="#0493ff" height="90" rx="27" width="345"/><text fill="#fff" font-family="HelveticaNeue, Helvetica Neue" font-size="29" letter-spacing=".549388707"><tspan x="22" y="40">Hey! Are you here with </tspan><tspan x="22" y="74">anyone?</tspan></text></g><g transform="translate(0 103)"><rect fill="#fff" height="59" rx="22" width="358"/><text fill="#080808" font-family="HelveticaNeue, Helvetica Neue" font-size="29" letter-spacing=".549388707"><tspan x="12" y="41">I’m here with my friends!</tspan></text></g><g transform="translate(225 175)"><rect fill="#0493ff" height="59" rx="22" width="397"/><text fill="#fff" font-family="HelveticaNeue, Helvetica Neue" font-size="29" letter-spacing=".549388707"><tspan x="22" y="40">Do you all want to join us?</tspan></text></g><g transform="translate(0 249)"><rect fill="#fff" height="59" rx="22" width="460"/><g fill="#080808"><path d="m17.4392762 36.511682h4.7654067c.3217168 0 .7238568-.0251338 1.206432-.075402.4825753-.0502683.9953038-.1709103 1.5382009-.3619296.5428972-.1910194 1.0807594-.4674907 1.6136029-.8294221s1.0103848-.8545529 1.4326381-1.4778793c.4222534-.6233263.7690991-1.4024726 1.0405477-2.3374621s.4071708-2.0660083.4071708-3.3930902c0-1.2868673-.1256687-2.4379931-.37701-3.4534118-.2513413-1.0154188-.6635348-1.8800198-1.2365929-2.593829s-1.3119903-1.2566982-2.2168189-1.6286833-2.0207671-.5579748-3.347849-.5579748h-4.8257283zm-2.8652762-19.1219484h7.3893964c3.3177048 0 5.8712939.844494 7.6608437 2.5335074 1.7895499 1.6890133 2.6843114 4.2627094 2.6843114 7.7211653 0 1.8096571-.20107 3.4131904-.6032161 4.8106478-.402146 1.3974575-1.025463 2.573717-1.8699697 3.5288139-.8445066.9550968-1.9202312 1.6839756-3.2272058 2.1866581s-2.8552136.75402-4.6447635.75402h-7.3893964zm23.2523025 13.7533257c0 .9450432.1256687 1.7845104.37701 2.5184269s.598187 1.34718 1.0405476 1.8398089c.4423607.4926289.9601159.8696352 1.5532813 1.1310301s1.2215092.3920904 1.8850502.3920904c.6635409 0 1.2918847-.1306955 1.8850501-.3920904s1.1109206-.6384012 1.5532813-1.1310301c.4423606-.4926289.7892064-1.1058924 1.0405476-1.8398089.2513413-.7339165.3770101-1.5733837.3770101-2.5184269s-.1256688-1.7845105-.3770101-2.518427c-.2513412-.7339165-.598187-1.3522068-1.0405476-1.8548893-.4423607-.5026825-.9601159-.8847155-1.5532813-1.1461105-.5931654-.2613949-1.2215092-.3920904-1.8850501-.3920904-.663541 0-1.2918848.1306955-1.8850502.3920904-.5931654.261395-1.1109206.643428-1.5532813 1.1461105-.4423606.5026825-.7892063 1.1209728-1.0405476 1.8548893s-.37701 1.5733838-.37701 2.518427zm-2.7144722 0c0-1.1461162.160856-2.216814.4825728-3.2121254.3217169-.9953115.8042849-1.8599125 1.4477185-2.593829.6434337-.7339165 1.4376602-1.3119928 2.3827034-1.7342461.9450431-.4222533 2.0308211-.6333768 3.2573666-.6333768 1.2466527 0 2.3374574.2111235 3.272447.6333768.9349895.4222533 1.7241892 1.0003296 2.3676229 1.7342461s1.1260017 1.5985175 1.4477185 2.593829c.3217168.9953114.4825728 2.0660092.4825728 3.2121254s-.160856 2.2117872-.4825728 3.197045c-.3217168.9852577-.8042848 1.844832-1.4477185 2.5787485s-1.4326334 1.306966-2.3676229 1.7191657c-.9349896.4121997-2.0257943.6182965-3.272447.6182965-1.2265455 0-2.3123235-.2060968-3.2573666-.6182965-.9450432-.4121997-1.7392697-.9852492-2.3827034-1.7191657-.6434336-.7339165-1.1260016-1.5934908-1.4477185-2.5787485-.3217168-.9852578-.4825728-2.0509288-.4825728-3.197045zm34.1705127 7.7814868h-2.7144721l-3.1668842-12.3960895h-.0603216l-3.1367234 12.3960895h-2.7747938l-5.0066931-15.5931345h2.8351154l3.5288138 12.7580192h.0603216l3.1367234-12.7580192h2.8049545l3.2573666 12.7580192h.0603217l3.498653-12.7580192h2.6541505zm7.9909368-15.5931345h2.4128641v2.4731857h.0603216c1.065687-1.8900863 2.754675-2.8351153 5.0670147-2.8351153 1.0254724 0 1.8800199.140749 2.5636682.4222512.6836482.2815022 1.2365907.6735887 1.6588441 1.1762713.4222533.5026825.7188316 1.1008658.8897436 1.7945677.1709121.6937019.2563668 1.4627946.2563668 2.3073013v10.2546726h-2.5636681v-10.5562806c0-.9651505-.281498-1.7292165-.8445025-2.2922209-.5630044-.5630045-1.3371239-.8445025-2.3223817-.8445025-.7841848 0-1.462796.120642-2.0358541.3619296-.5730581.2412877-1.0505994.5831067-1.4326381 1.0254673-.3820388.4423606-.6685635.9601159-.8595829 1.5532813-.1910193.5931654-.2865276 1.2416161-.2865276 1.9453717v8.8069541h-2.5636681zm56.3304762 12.2452855h3.347849v3.347849h-3.347849zm3.106563-11.5515871-.75402 9.3800094h-1.357236l-.75402-9.3800094v-6.6353764h2.865276zm14.206804 12.486572h4.765406c.321717 0 .723857-.0251338 1.206432-.075402.482576-.0502683.995304-.1709103 1.538201-.3619296.542897-.1910194 1.08076-.4674907 1.613603-.8294221.532844-.3619314 1.010385-.8545529 1.432638-1.4778793.422254-.6233263.769099-1.4024726 1.040548-2.3374621.271448-.9349895.407171-2.0660083.407171-3.3930902 0-1.2868673-.125669-2.4379931-.37701-3.4534118-.251342-1.0154188-.663535-1.8800198-1.236593-2.593829s-1.311991-1.2566982-2.216819-1.6286833c-.904829-.3719851-2.020767-.5579748-3.347849-.5579748h-4.825728zm-2.865277-19.1219484h7.389397c3.317705 0 5.871294.844494 7.660843 2.5335074 1.78955 1.6890133 2.684312 4.2627094 2.684312 7.7211653 0 1.8096571-.20107 3.4131904-.603216 4.8106478-.402146 1.3974575-1.025463 2.573717-1.86997 3.5288139-.844507.9550968-1.920231 1.6839756-3.227206 2.1866581-1.306974.5026825-2.855213.75402-4.644763.75402h-7.389397zm23.252303 13.7533257c0 .9450432.125669 1.7845104.37701 2.5184269s.598187 1.34718 1.040548 1.8398089c.44236.4926289.960115.8696352 1.553281 1.1310301.593165.2613949 1.221509.3920904 1.88505.3920904s1.291885-.1306955 1.88505-.3920904 1.110921-.6384012 1.553281-1.1310301c.442361-.4926289.789207-1.1058924 1.040548-1.8398089s.37701-1.5733837.37701-2.5184269-.125669-1.7845105-.37701-2.518427-.598187-1.3522068-1.040548-1.8548893c-.44236-.5026825-.960116-.8847155-1.553281-1.1461105-.593165-.2613949-1.221509-.3920904-1.88505-.3920904s-1.291885.1306955-1.88505.3920904c-.593166.261395-1.110921.643428-1.553281 1.1461105-.442361.5026825-.789207 1.1209728-1.040548 1.8548893s-.37701 1.5733838-.37701 2.518427zm-2.714472 0c0-1.1461162.160856-2.216814.482572-3.2121254.321717-.9953115.804285-1.8599125 1.447719-2.593829s1.43766-1.3119928 2.382703-1.7342461c.945044-.4222533 2.030822-.6333768 3.257367-.6333768 1.246653 0 2.337457.2111235 3.272447.6333768.934989.4222533 1.724189 1.0003296 2.367623 1.7342461s1.126002 1.5985175 1.447718 2.593829c.321717.9953114.482573 2.0660092.482573 3.2121254s-.160856 2.2117872-.482573 3.197045c-.321716.9852577-.804284 1.844832-1.447718 2.5787485s-1.432634 1.306966-2.367623 1.7191657c-.93499.4121997-2.025794.6182965-3.272447.6182965-1.226545 0-2.312323-.2060968-3.257367-.6182965-.945043-.4121997-1.739269-.9852492-2.382703-1.7191657s-1.126002-1.5934908-1.447719-2.5787485c-.321716-.9852578-.482572-2.0509288-.482572-3.197045zm33.806907 9.8625822c-.30161.7640774-.598188 1.4075014-.889744 1.9302913-.291556.5227898-.613268.9500636-.965145 1.2818341-.351878.3317704-.743965.5730544-1.176272.7238592s-.929955.226206-1.492959.226206c-.30161 0-.603215-.020107-.904824-.0603216-.30161-.0402146-.593161-.1105891-.874664-.2111256v-2.3525425c.221181.1005365.477545.1859912.769101.2563668.291556.0703755.537867.1055628.73894.1055628.522789 0 .960117-.1256688 1.311994-.37701.351878-.2513413.618296-.6082406.799262-1.0707085l1.055628-2.6239898-6.182965-15.5026521h2.895437l4.554281 12.7580192h.060322l4.373316-12.7580192h2.714472zm11.399107-9.8625822c0 .9450432.125669 1.7845104.37701 2.5184269.251342.7339165.598187 1.34718 1.040548 1.8398089s.960116.8696352 1.553281 1.1310301c.593166.2613949 1.221509.3920904 1.88505.3920904s1.291885-.1306955 1.885051-.3920904c.593165-.2613949 1.11092-.6384012 1.553281-1.1310301s.789206-1.1058924 1.040548-1.8398089c.251341-.7339165.37701-1.5733837.37701-2.5184269s-.125669-1.7845105-.37701-2.518427c-.251342-.7339165-.598187-1.3522068-1.040548-1.8548893s-.960116-.8847155-1.553281-1.1461105c-.593166-.2613949-1.22151-.3920904-1.885051-.3920904s-1.291884.1306955-1.88505.3920904c-.593165.261395-1.11092.643428-1.553281 1.1461105s-.789206 1.1209728-1.040548 1.8548893c-.251341.7339165-.37701 1.5733838-.37701 2.518427zm-2.714472 0c0-1.1461162.160856-2.216814.482573-3.2121254.321717-.9953115.804285-1.8599125 1.447719-2.593829.643433-.7339165 1.43766-1.3119928 2.382703-1.7342461s2.030821-.6333768 3.257366-.6333768c1.246653 0 2.337458.2111235 3.272447.6333768.93499.4222533 1.72419 1.0003296 2.367623 1.7342461.643434.7339165 1.126002 1.5985175 1.447719 2.593829.321717.9953114.482573 2.0660092.482573 3.2121254s-.160856 2.2117872-.482573 3.197045c-.321717.9852577-.804285 1.844832-1.447719 2.5787485-.643433.7339165-1.432633 1.306966-2.367623 1.7191657-.934989.4121997-2.025794.6182965-3.272447.6182965-1.226545 0-2.312323-.2060968-3.257366-.6182965s-1.73927-.9852492-2.382703-1.7191657c-.643434-.7339165-1.126002-1.5934908-1.447719-2.5787485-.321717-.9852578-.482573-2.0509288-.482573-3.197045zm31.637006 7.7814868h-2.412865v-2.4731857h-.060321c-.542897.9651505-1.236589 1.6739222-2.081096 2.1263365-.844506.4524143-1.839803.6786181-2.985919.6786181-1.025472 0-1.88002-.1357223-2.563668-.4071709-.683648-.2714485-1.236591-.6585083-1.658844-1.1611908-.422253-.5026826-.718832-1.1008658-.889744-1.7945677-.170912-.693702-.256367-1.4627947-.256367-2.3073014v-10.2546726h2.563669v10.5562806c0 .9651505.281498 1.7292165.844502 2.292221.563004.5630044 1.337124.8445024 2.322382.8445024.784184 0 1.462796-.120642 2.035854-.3619296s1.050599-.5831066 1.432638-1.0254673c.382039-.4423606.668563-.9601159.859583-1.5532813.191019-.5931654.286527-1.2416161.286527-1.9453717v-8.8069541h2.563669zm13.388044-21.5348125h2.563668v8.2338989h.060322c.201073-.4825752.482571-.889742.844502-1.2215124.361932-.3317705.769098-.603215 1.221513-.8143417.452414-.2111267.924929-.3669559 1.417557-.4674924.492629-.1005365.970171-.150804 1.432639-.150804 1.025472 0 1.880019.140749 2.563668.4222512.683648.2815022 1.23659.6735887 1.658844 1.1762713.422253.5026825.718831 1.1008658.889743 1.7945677.170913.6937019.256367 1.4627946.256367 2.3073013v10.2546726h-2.563668v-10.5562806c0-.9651505-.281498-1.7292165-.844502-2.2922209-.563005-.5630045-1.337124-.8445025-2.322382-.8445025-.784185 0-1.462796.120642-2.035854.3619296-.573058.2412877-1.0506.5831067-1.432638 1.0254673-.382039.4423606-.668564.9601159-.859583 1.5532813-.19102.5931654-.286528 1.2416161-.286528 1.9453717v8.8069541h-2.563668zm31.154433 21.4744909c-.442361.261395-1.055625.3920905-1.839809.3920905-.663541 0-1.19135-.1859898-1.583442-.5579749-.392093-.3719851-.588136-.9802218-.588136-1.8247285-.703756.8445067-1.523116 1.4527434-2.458105 1.8247285-.93499.3719851-1.945367.5579749-3.031161.5579749-.703756 0-1.372313-.080428-2.005693-.2412865-.63338-.1608584-1.181296-.4121959-1.643764-.75402s-.829421-.7892049-1.100869-1.3421557c-.271449-.5529508-.407171-1.2215085-.407171-2.0056933 0-.8847213.150802-1.6085733.452412-2.1715777.301609-.5630045.698723-1.0204387 1.191352-1.3723165s1.055625-.6182956 1.689005-.7992613 1.28183-.3317682 1.945371-.452412c.703756-.1407511 1.372314-.2463129 2.005694-.3166884.63338-.0703756 1.191349-.1709106 1.673924-.301608.482575-.1306975.864608-.321714 1.146111-.5730553.281502-.2513412.422251-.618294.422251-1.1008692 0-.5630045-.105562-1.015412-.316689-1.3572361-.211126-.3418241-.482571-.6032151-.814341-.7841809-.331771-.1809657-.70375-.3016077-1.11595-.3619296s-.819366-.0904824-1.221512-.0904824c-1.085795 0-1.99061.2060968-2.714473.6182964-.723862.4121997-1.115949 1.191346-1.176271 2.3374622h-2.563668c.040215-.9651505.241285-1.779484.603216-2.443025.361931-.6635409.844499-1.2014032 1.447718-1.6136029.60322-.4121996 1.291884-.7087779 2.066015-.8897436.774132-.1809657 1.603545-.2714472 2.488267-.2714472.703755 0 1.402473.0502675 2.096175.150804s1.322046.3066332 1.88505.6182964c.563005.3116632 1.015412.7489904 1.357236 1.3119949.341825.5630044.512734 1.29691.512734 2.2017385v8.0227733c0 .6032191.035187 1.0455731.105563 1.3270753.070375.2815022.306633.4222512.708779.4222512.22118 0 .482571-.0502675.784181-.150804zm-4.162191-7.9926124c-.321717.2412876-.743964.4172238-1.266754.527814-.52279.1105901-1.070705.2010716-1.643763.2714472-.573059.0703756-1.151135.1508036-1.734247.2412864-.583111.0904829-1.105893.2362586-1.568361.4373316-.462468.2010731-.839474.4875978-1.13103.8595829s-.437332.8796868-.437332 1.5231205c0 .4222533.085455.7791526.256367 1.0707085.170912.2915558.392089.5278131.663538.7087788.271448.1809657.588133.3116612.950065.3920904.361931.0804292.743964.1206432 1.14611.1206432.844507 0 1.568359-.1156152 2.171578-.3468492s1.095841-.5227855 1.477879-.8746632c.382039-.3518778.663537-.7339108.844503-1.1461105.180965-.4121997.271447-.7992595.271447-1.1611909zm14.14374 8.052934h-2.744633l-5.790874-15.5931345h2.865277l4.373316 12.9993056h.060321l4.252673-12.9993056h2.684312zm19.452042-9.2895269c-.040215-.6032191-.175937-1.1762686-.407171-1.7191657-.231234-.5428972-.542893-1.0103849-.934985-1.4024773s-.854553-.7037509-1.387397-.9349849c-.532843-.2312339-1.120973-.3468492-1.764407-.3468492-.663541 0-1.261724.1156153-1.794567.3468492-.532844.231234-.990278.5479193-1.372317.9500653s-.683644.8696338-.904824 1.4024773-.351876 1.1008662-.39209 1.7040853zm2.473185 4.3431554c-.341824 1.7493353-1.095836 3.0663438-2.26206 3.9510651-1.166223.8847213-2.634034 1.3270753-4.403477 1.3270753-1.246652 0-2.327404-.20107-3.242286-.6032161-.914882-.402146-1.683975-.965142-2.307301-1.6890049-.623327-.7238628-1.090814-1.5884638-1.402478-2.5938289-.311663-1.0053651-.487599-2.1011966-.527814-3.2875274 0-1.1863308.180963-2.2721088.542895-3.2573666.361931-.9852578.869633-1.8398053 1.52312-2.5636682.653488-.7238629 1.427607-1.2868589 2.322382-1.6890049s1.874991-.603216 2.940678-.603216c1.387404 0 2.53853.2865247 3.453412.8595828s1.648788 1.3019369 2.201739 2.1866582c.55295.8847212.934983 1.8498572 1.14611 2.8954369s.296581 2.0408762.256367 2.9859194h-11.67223c-.020108.6836483.06032 1.332099.241286 1.9453717s.472517 1.1561617.874663 1.6286833.914875.8495279 1.538201 1.1310301 1.357232.4222512 2.201739.4222512c1.085794 0 1.975529-.2513375 2.669231-.75402.693702-.5026826 1.151136-1.2667486 1.372316-2.292221zm26.236547 4.8860499c-.442361.261395-1.055625.3920905-1.839809.3920905-.663541 0-1.19135-.1859898-1.583442-.5579749-.392093-.3719851-.588136-.9802218-.588136-1.8247285-.703756.8445067-1.523116 1.4527434-2.458105 1.8247285-.93499.3719851-1.945367.5579749-3.031161.5579749-.703756 0-1.372313-.080428-2.005693-.2412865-.63338-.1608584-1.181296-.4121959-1.643764-.75402s-.829421-.7892049-1.100869-1.3421557c-.271449-.5529508-.407171-1.2215085-.407171-2.0056933 0-.8847213.150802-1.6085733.452412-2.1715777.301609-.5630045.698723-1.0204387 1.191352-1.3723165.492628-.3518778 1.055624-.6182956 1.689004-.7992613s1.281831-.3317682 1.945372-.452412c.703756-.1407511 1.372313-.2463129 2.005693-.3166884.633381-.0703756 1.19135-.1709106 1.673925-.301608.482575-.1306975.864608-.321714 1.14611-.5730553.281503-.2513412.422252-.618294.422252-1.1008692 0-.5630045-.105562-1.015412-.316689-1.3572361-.211126-.3418241-.482571-.6032151-.814341-.7841809-.331771-.1809657-.70375-.3016077-1.11595-.3619296s-.819366-.0904824-1.221513-.0904824c-1.085794 0-1.990609.2060968-2.714472.6182964-.723863.4121997-1.115949 1.191346-1.176271 2.3374622h-2.563668c.040214-.9651505.241284-1.779484.603216-2.443025.361931-.6635409.844499-1.2014032 1.447718-1.6136029.603219-.4121996 1.291884-.7087779 2.066015-.8897436s1.603545-.2714472 2.488266-.2714472c.703756 0 1.402474.0502675 2.096176.150804s1.322046.3066332 1.88505.6182964c.563005.3116632 1.015412.7489904 1.357236 1.3119949.341825.5630044.512734 1.29691.512734 2.2017385v8.0227733c0 .6032191.035187 1.0455731.105563 1.3270753.070375.2815022.306633.4222512.708779.4222512.22118 0 .482571-.0502675.784181-.150804zm-4.162191-7.9926124c-.321717.2412876-.743964.4172238-1.266754.527814-.52279.1105901-1.070705.2010716-1.643763.2714472-.573059.0703756-1.151135.1508036-1.734247.2412864-.583111.0904829-1.105893.2362586-1.568361.4373316-.462468.2010731-.839474.4875978-1.13103.8595829s-.437332.8796868-.437332 1.5231205c0 .4222533.085455.7791526.256367 1.0707085.170912.2915558.392089.5278131.663537.7087788.271449.1809657.588134.3116612.950066.3920904.361931.0804292.743964.1206432 1.14611.1206432.844507 0 1.568359-.1156152 2.171578-.3468492s1.09584-.5227855 1.477879-.8746632c.382039-.3518778.663537-.7339108.844503-1.1461105.180965-.4121997.271447-.7992595.271447-1.1611909zm19.63133-7.5402005h3.106563v2.2620601h-3.106563v9.6816174c0 .3016095.025134.5428935.075402.7238593.050269.1809657.145777.3217147.286528.4222512s.336794.1658842.588136.1960452c.251341.030161.57808.0452412.980226.0452412h1.176271v2.2620601h-1.960452c-.663541 0-1.231564-.0452407-1.704085-.1357236-.472522-.0904828-.854555-.2563656-1.146111-.4976532s-.507706-.5831066-.648457-1.0254673c-.140751-.4423606-.211126-1.0254636-.211126-1.7493265v-9.9229038h-2.65415v-2.2620601h2.65415v-4.6749243h2.563668zm20.326705 15.5328129c-.442361.261395-1.055624.3920905-1.839809.3920905-.663541 0-1.19135-.1859898-1.583442-.5579749s-.588136-.9802218-.588136-1.8247285c-.703755.8445067-1.523115 1.4527434-2.458105 1.8247285-.934989.3719851-1.945366.5579749-3.031161.5579749-.703755 0-1.372313-.080428-2.005693-.2412865-.63338-.1608584-1.181296-.4121959-1.643764-.75402-.462467-.3418241-.82942-.7892049-1.100869-1.3421557-.271448-.5529508-.407171-1.2215085-.407171-2.0056933 0-.8847213.150803-1.6085733.452412-2.1715777.30161-.5630045.698723-1.0204387 1.191352-1.3723165s1.055625-.6182956 1.689005-.7992613 1.281831-.3317682 1.945372-.452412c.703755-.1407511 1.372313-.2463129 2.005693-.3166884.63338-.0703756 1.191349-.1709106 1.673925-.301608.482575-.1306975.864608-.321714 1.14611-.5730553.281502-.2513412.422251-.618294.422251-1.1008692 0-.5630045-.105562-1.015412-.316688-1.3572361-.211127-.3418241-.482571-.6032151-.814342-.7841809-.33177-.1809657-.70375-.3016077-1.11595-.3619296-.412199-.0603219-.819366-.0904824-1.221512-.0904824-1.085794 0-1.990609.2060968-2.714472.6182964-.723863.4121997-1.11595 1.191346-1.176271 2.3374622h-2.563669c.040215-.9651505.241285-1.779484.603216-2.443025.361932-.6635409.8445-1.2014032 1.447719-1.6136029.603219-.4121996 1.291884-.7087779 2.066015-.8897436s1.603545-.2714472 2.488266-.2714472c.703756 0 1.402474.0502675 2.096176.150804s1.322045.3066332 1.88505.6182964c.563004.3116632 1.015412.7489904 1.357236 1.3119949.341824.5630044.512734 1.29691.512734 2.2017385v8.0227733c0 .6032191.035187 1.0455731.105562 1.3270753.070376.2815022.306633.4222512.708779.4222512.221181 0 .482572-.0502675.784181-.150804zm-4.162191-7.9926124c-.321716.2412876-.743963.4172238-1.266753.527814-.52279.1105901-1.070706.2010716-1.643764.2714472s-1.151134.1508036-1.734246.2412864c-.583112.0904829-1.105894.2362586-1.568362.4373316-.462468.2010731-.839474.4875978-1.13103.8595829s-.437331.8796868-.437331 1.5231205c0 .4222533.085454.7791526.256366 1.0707085.170912.2915558.392089.5278131.663538.7087788s.588134.3116612.950065.3920904c.361932.0804292.743965.1206432 1.146111.1206432.844506 0 1.568358-.1156152 2.171577-.3468492.60322-.231234 1.095841-.5227855 1.47788-.8746632.382038-.3518778.663536-.7339108.844502-1.1461105s.271447-.7992595.271447-1.1611909zm7.206756-13.4818785h2.563668v8.0529341h.060322c.422253-.864614 1.085784-1.4929577 1.990613-1.8850501s1.900125-.5881356 2.985919-.5881356c1.206438 0 2.257029.221177 3.151804.6635376s1.638734 1.0405439 2.231899 1.7945677c.593166.7540238 1.040547 1.6236516 1.342156 2.6089094.30161.9852578.452412 2.0308218.452412 3.1367234s-.145776 2.1514656-.437331 3.1367234c-.291556.9852577-.73391 1.844832-1.327076 2.5787485-.593165.7339165-1.337124 1.3119928-2.231899 1.7342461-.894775.4222534-1.935312.6333769-3.121643.6333769-.382039 0-.809313-.040214-1.281834-.1206432-.472522-.0804293-.940009-.2111248-1.402477-.3920905s-.899796-.4272764-1.311995-.7389396c-.4122-.3116632-.759046-.6987229-1.040548-1.1611909h-.060322v2.0810953h-2.563668zm12.064321 13.6025217c0-.7238629-.095508-1.4326347-.286528-2.1263366-.191019-.6937019-.48257-1.3119921-.874663-1.8548893-.392092-.5428971-.894767-.9751976-1.50804-1.2969145-.613273-.3217168-1.332098-.4825728-2.156497-.4825728-.864614 0-1.59852.1709095-2.201739.5127336-.603219.3418242-1.09584.7892049-1.477879 1.3421557s-.65851 1.1812946-.829422 1.8850501c-.170912.7037556-.256367 1.4175541-.256367 2.141417 0 .7640774.090482 1.5030097.271447 2.2168189.180966.7138092.467491 1.342153.859583 1.8850501.392093.5428972.899794.9802244 1.523121 1.3119949.623326.3317705 1.377338.4976532 2.26206.4976532.884721 0 1.623653-.1709095 2.216819-.5127336.593165-.3418241 1.070706-.7942316 1.432638-1.3572361.361931-.5630044.623322-1.2064284.784181-1.9302913.160858-.7238629.241286-1.4678219.241286-2.2318993zm6.452736-13.6025217h2.563668v21.5348125h-2.563668zm17.944001 12.2452856c-.040214-.6032191-.175937-1.1762686-.407171-1.7191657-.231234-.5428972-.542892-1.0103849-.934984-1.4024773-.392093-.3920924-.854554-.7037509-1.387397-.9349849-.532844-.2312339-1.120974-.3468492-1.764407-.3468492-.663541 0-1.261724.1156153-1.794568.3468492-.532843.231234-.990278.5479193-1.372316.9500653-.382039.402146-.683644.8696338-.904825 1.4024773-.22118.5328435-.351875 1.1008662-.39209 1.7040853zm2.473186 4.3431554c-.341824 1.7493353-1.095837 3.0663438-2.26206 3.9510651-1.166224.8847213-2.634035 1.3270753-4.403477 1.3270753-1.246653 0-2.327404-.20107-3.242286-.6032161-.914883-.402146-1.683975-.965142-2.307302-1.6890049-.623326-.7238628-1.090814-1.5884638-1.402477-2.5938289s-.487599-2.1011966-.527814-3.2875274c0-1.1863308.180963-2.2721088.542894-3.2573666.361932-.9852578.869634-1.8398053 1.523121-2.5636682s1.427607-1.2868589 2.322382-1.6890049c.894774-.402146 1.874991-.603216 2.940678-.603216 1.387404 0 2.538529.2865247 3.453412.8595828.914882.5730581 1.648787 1.3019369 2.201738 2.1866582.552951.8847212.934984 1.8498572 1.146111 2.8954369.211126 1.0455797.296581 2.0408762.256366 2.9859194h-11.67223c-.020107.6836483.060321 1.332099.241286 1.9453717.180966.6132727.472518 1.1561617.874664 1.6286833s.914874.8495279 1.538201 1.1310301c.623326.2815022 1.357231.4222512 2.201738.4222512 1.085794 0 1.975529-.2513375 2.669231-.75402.693702-.5026826 1.151136-1.2667486 1.372317-2.292221zm8.11158 1.5985225h3.347849v3.347849h-3.347849zm-4.916211-11.4611047c-.020107-1.0254723.125669-1.9805549.437332-2.8652761.311663-.8847213.759044-1.6538141 1.342156-2.3073014.583111-.6534873 1.29691-1.161189 2.141416-1.5231205.844507-.3619314 1.789536-.5428944 2.835116-.5428944.945043 0 1.804617.1357223 2.578748.4071708.774131.2714486 1.442689.6635351 2.005694 1.1762713.563004.5127362 1.000331 1.1410799 1.311995 1.8850501.311663.7439702.467492 1.5985177.467492 2.5636682 0 .6233263-.075401 1.1812956-.226206 1.6739245s-.346848.9400096-.588136 1.3421557c-.241287.402146-.517759.7741255-.829422 1.1159496s-.628348.6735897-.950065.9953065c-.321717.3016095-.638402.6082413-.950065.9199044-.311663.3116632-.593161.6434287-.844503.9953065-.251341.3518778-.452411.7339108-.603216 1.1461105-.150804.4121997-.226206.8796874-.226206 1.4024772v1.1762713h-2.563668v-1.4175577c.040215-.8445066.196044-1.5633319.467493-2.1564973.271448-.5931654.603214-1.1209742.995306-1.5834421s.804286-.8897417 1.236593-1.2818341.834447-.8042859 1.206432-1.2365928c.371985-.432307.668563-.9098483.889744-1.4326381.22118-.5227899.311661-1.1561604.271447-1.9001305-.080429-1.1059016-.437329-1.9705027-1.070709-2.593829-.63338-.6233264-1.492954-.9349849-2.578748-.9349849-.723863 0-1.34718.1306955-1.86997.3920905-.52279.2613949-.960117.6132674-1.311995 1.055628-.351878.4423607-.608242.9651427-.7691 1.5683617-.160859.6032191-.241287 1.2566966-.241287 1.9604521z" fill-rule="nonzero"/><text font-family="AppleColorEmoji, Apple Color Emoji" font-size="30" letter-spacing=".568333149"><tspan x="92" y="43">😃</tspan></text></g></g><g transform="translate(0 370)"><rect fill="#222" height="69" rx="34.5" width="675"/><g font-family="HelveticaNeue, Helvetica Neue"><text fill="#fff" font-size="27" letter-spacing=".511499882"><tspan x="30" y="42">Yea! We are on the 2nd floor on the left.</tspan></text><text fill="#ff7000" font-size="33" letter-spacing=".625166535"><tspan x="567.477334" y="42">Send</tspan></text></g></g><circle cx="661" cy="45" fill="#f87000" r="24"/><g fill-rule="nonzero" transform="translate(644 26)"><path d="m19.1509726 35.9373066.5747476-3.2724406s-5.2193747-15.1717219-5.2536247-15.3747447c-.0678476-.3897777-.0779595-.7876893-.0300095-1.1803952l-6.32092026-.9048178-.17777382 1.0141377-2.53841479-.4431361c-.80895253-.1415304-1.64106452.0432724-2.31301702.5137387-.67227876.4707915-1.12894551 1.1888544-1.26985982 1.9957397l-1.69260267 9.6338206c-.29291906 1.6791674.83309067 3.2776463 2.51623383 3.5714437l2.53874096.4437869-.26715007 1.5207186c-.36696433-.0719039-.74404067.0595403-.98607401.3439024-.24203333.2840366-.31118581.6767425-.18038334 1.0261759.13080238.3494334.44068335.6009344.81025729.6575464l14.22908352 2.4827993c.5617001.0979325 1.0963264-.2768788 1.1945098-.8368182.0981833-.5602647-.2775882-1.0935248-.8389621-1.1914573zm-13.60866919-6.0311425-2.03281942-.3543138c-.84189783-.1467361-1.40522882-.9467889-1.2577907-1.7865353l1.51124073-8.6183814c.1467857-.8397463.94888825-1.4016379 1.790786-1.2545765l2.03281941.3543137z" fill="#e2e2e2"/><path d="m15.7840338 17.0652996c-.3431524.1187553-.6797811.2485728-1.0226073.3458545-.1529834.0432725-.2580167.08199-.2919405-.1210328-.0720882-.4040934-.0815477-.8166461-.0280524-1.2236677 0-.0211482.0114167-.0413202.0146786-.0618178l-5.6711487-.6829243-3.07271484 17.9135053c-.05773571.3634238.19082144.7047232.55517633.7623114l11.57911161 1.8324106c.3614191.0572628.701962-.1864296.7632858-.5462743l.6556431-3.9534129-3.3825959-13.8455668c-.0437095-.1369753-.0766548-.2772042-.0988358-.4193852z" fill="#f4c734"/><path d="m14.5467931 17.4846848 5.9803773 17.5390194c-.5303858.1896831-.8105835.7684932-.6292216 1.3007772.1816882.532284.7577407.8208757 1.2939979.6481111l13.6774954-4.6408921c.5303858-.1893577.8105834-.7684932.6288953-1.3007772-.1813619-.5322841-.7574144-.8205504-1.2936717-.6481111l-.6011691-1.7559518 2.0553266-.6975654c1.6201884-.5479011 2.487529-2.3025514 1.9375718-3.9179489l-3.1565458-9.2567318c-.5509359-1.6144213-2.309429-2.4782442-3.9279865-1.9290416l-2.0556527.700819-.2325739-.6796708zm19.963187 8.6623045-1.5673455.5329348-3.8216483-11.2075723 1.5670193-.5332601c.8092787-.2746013 1.6883622.1571474 1.9633408.9643581l2.8251362 8.2842398c.275631.8072107-.1572237 1.6840478-.9665025 1.9583237z" fill="#e2e2e2"/><path d="m27.6270336 13.045514-12.5403951 4.2556694 5.8554462 16.794928c.1200381.3452037.4964621.5293558.843855.4132033l11.1159211-3.7168783c.3500024-.1171285.5382143-.4945426.421112-.8436506z" fill="#f4c734"/><g fill="#f9f2cc"><path d="m14.4433907 16.0664536c.1953882-1.5708235 1.5676717-2.7284437 3.1532839-2.6597933.0603453-.0920761.1255834-.1812239.195062-.2664674-.0818739-.0266793-.1650524-.0488036-.2492096-.0666982-.7502382-.0930521-1.5109146-.0478275-2.2448433.133071-1.0444621-1.1976391-2.6865052-1.6892535-4.2196008-1.2633612-1.53342166.4258923-2.68422187 1.6931578-2.9575695 3.2571489l6.3029797 1.2308255c.0045667-.1194061.0032619-.2433671.0198976-.3647253z"/><path d="m27.0741406 1.33266224c0 .73595756-.5982334 1.33266224-1.3360764 1.33266224-.7381692 0-1.3360764-.59670468-1.3360764-1.33266224s.5979072-1.33266224 1.3360764-1.33266224c.737843 0 1.3360764.59670468 1.3360764 1.33266224z"/><path d="m22.3978731 5.99698009c0 1.47191503-1.1964669 2.66532448-2.6721529 2.66532448-1.4760121 0-2.6721528-1.19340945-2.6721528-2.66532448 0-1.47191504 1.1961407-2.66532449 2.6721528-2.66532449 1.475686 0 2.6721529 1.19340945 2.6721529 2.66532449z"/><path d="m12.3772999 6.66331121c0 1.10393625-.8973502 1.99899336-2.0041147 1.99899336-1.10709064 0-2.00411465-.89505711-2.00411465-1.99899336 0-1.10393626.89702401-1.99899337 2.00411465-1.99899337 1.1067645 0 2.0041147.89505711 2.0041147 1.99899337z"/><path d="m7.70103233 1.33266224c0 .73595756-.5982334 1.33266224-1.33607643 1.33266224-.7381692 0-1.33607643-.59670468-1.33607643-1.33266224s.59790723-1.33266224 1.33607643-1.33266224c.73784303 0 1.33607643.59670468 1.33607643 1.33266224z"/></g><g fill="#e0b730" transform="translate(8.016459 18.157523)"><path d="m15.2719147 1.62450744c-.0593667-.17211383-.1872334-.31266805-.3535905-.38782553-.1568977.14283174-.3415215.25182635-.5424549.32047661-.11645.0377415-.2368144.06214321-.3588096.07190396-.0505596.13664994-.0541476.28598882-.0097857.42459086l3.8904745 11.40636536c.1190595.3478067.4980929.5339109.8471168.4158063.3490239-.1187553.5352787-.4968201.4168715-.8449521z"/><path d="m11.0053425 2.36892424c.3490238-.11842994.7283834.06767426.847443.41613162l3.8901483 11.40604004c.1190596.3484574-.0678476.7268476-.4168715.8452775-.3490238.11843-.7283835-.0679996-.847443-.4164569l-3.8901483-11.40571475c-.1190596-.34845736.0678476-.72684756.4168715-.84527751z"/><path d="m17.8436009.0478275c.3490238-.11842995.7283834.06767425.8471168.41613153l3.8901483 11.40604017c.1187334.3484573-.0678477.7268475-.4171977.8452774-.3490239.1187554-.7283835-.0676743-.8471168-.4161316l-3.8901483-11.40604008c-.1187334-.34845736.0681738-.72684748.4171977-.84527742z"/><path d="m3.64941971 14.9924502 2.08109562-11.86772164c.06360717-.36244774.41002148-.60516401.77339778-.54171938l.00065234.00032534c.3633763.06344463.60638823.40864838.54278105.77109611l-2.08109562 11.86772157c-.06360709.3624477-.40969531.6048387-.77339769.541394h-.00065243c-.3633763-.0634445-.60638822-.4086483-.54278105-.771096z"/><path d="m7.1996775 15.6177863 1.07838587-6.52308231c.06001906-.3630984.40349776-.60906829.76720014-.5492026.36402872.05986568.61030251.402792.55028345.7658904l-1.0780597 6.52308231c-.06001905.3630984-.40382392.6090683-.7675263.5492026-.36370247-.0598657-.61030252-.4027919-.55028346-.7658904z"/><path d="m.09165952 14.3710183 2.08044328-11.86707089c.06360717-.36244764.40969531-.605164.77307152-.54171937h.00065243c.36370238.06344455.60671439.40864839.54310722.77142137l-2.0804432 11.86707099c-.06360717.3624477-.40969531.6048387-.77307161.5417194l-.00065242-.0003254c-.36370238-.0634446-.60671431-.4086484-.54310722-.7710961z"/></g><path d="m18.6822367 37.0646686c-.018919 0-.037838-.0016268-.0561047-.0045551l-13.65270488-2.2901878c-.08774532-.014641-.1657048-.0634446-.21691669-.1356739-.05153814-.0722292-.07208817-.1617024-.05708336-.2488981.03424998-.1792716.20386906-.2996537.38490483-.2732998l13.6533572 2.2908386c.1709239.0289568.2916143.1838267.2769358.3562658-.0143524.1727646-.1588548.3055103-.3323882.3055103z" fill="#ccc"/><path d="m20.9362133 36.0238515c-.1640738.0009761-.304662-.1171285-.3314095-.2785055-.0270739-.1613771.0675214-.3185245.2231143-.3705816l13.1523285-4.4977351c.174512-.0595403.3646811.0335118.4243739.2075778.0600191.1743913-.0332714.363749-.2081095.4236147l-13.1516762 4.4977351c-.0349024.0117129-.071762.0178946-.1086215.0178946z" fill="#ccc"/><path d="m14.4433907 16.0664536c-.053169.4070216-.0437095.8198996.0280524 1.2243184.0342501.1997692.1389572.1636546.2919405.1203821.3702263-.1050903.7349073-.2492235 1.1048074-.3751366.3493501-.11843.7290358.0676742.8477692.4158062l.4211119 1.2347298c.2462739.7769525 1.0369598 1.2461173 1.8390623 1.0915727.4269834-.0976071.7929692-.370907 1.006624-.752876.2133286-.3816438.2547548-.8358422.1135143-1.2496963l.3040096.8911528c.2462738.7763018 1.0366335 1.2454666 1.8384098 1.0912474.4273097-.0972818.7929692-.370907 1.0066241-.7525507.2136548-.3816438.2554072-.8358422.1144929-1.2496963l-.7825312-2.2927906c-.1184071-.3484574.0685-.7265223.4175239-.8449522l5.2288343-1.774497c-.511793-1.5031493-1.8449337-2.5784541-3.425653-2.7635823-1.5807194-.18512814-3.1271887.5534322-3.9743055 1.8974819-1.2695335-.2449938-2.5579862.325357-3.227003 1.4292934-1.5807193-.0549854-2.9451743 1.0961277-3.1532839 2.6597933z" fill="#f9f2cc"/></g></g></svg>