<svg height="439" viewBox="0 0 675 439" width="675" xmlns="http://www.w3.org/2000/svg"><g fill="none" fill-rule="evenodd"><g transform="translate(230)"><rect fill="#0493ff" height="90" rx="27" width="395"/><text fill="#fff" font-family="HelveticaNeue, Helvetica Neue" font-size="33" letter-spacing=".6251665"><tspan x="15" y="40">Hey! Are you here with </tspan><tspan x="15" y="78">anyone?</tspan></text></g><g transform="translate(0 103)"><rect fill="#fff" height="59" rx="22" width="407"/><text fill="#080808" font-family="HelveticaNeue, Helvetica Neue" font-size="33" letter-spacing=".6251665"><tspan x="12" y="41">I’m here with my friends!</tspan></text></g><g transform="translate(165 175)"><rect fill="#0493ff" height="59" rx="22" width="457"/><text fill="#fff" font-family="HelveticaNeue, Helvetica Neue" font-size="33" letter-spacing=".6251665"><tspan x="13" y="40">Do you all want to join us?</tspan></text></g><g transform="translate(0 249)"><rect fill="#fff" height="58" rx="22" stroke="#979797" width="512" x=".5" y=".5"/><g fill="#080808"><path d="m17.709 38.36h5.214c.3520018 0 .7919974-.0274997 1.32-.0825s1.088997-.186999 1.683-.396 1.1824971-.511498 1.7655-.9075 1.1054977-.9349966 1.5675-1.617.8414985-1.5344949 1.1385-2.5575.4455-2.2604927.4455-3.7125c0-1.408007-.1374986-2.6674944-.4125-3.7785s-.7259969-2.0569961-1.353-2.838-1.435495-1.374998-2.4255-1.782c-.9900049-.407002-2.2109927-.6105-3.663-.6105h-5.28zm-3.135-20.922h8.085c3.6300181 0 6.4239902.9239908 8.382 2.772s2.937 4.6639811 2.937 8.448c0 1.9800099-.2199978 3.7344924-.66 5.2635s-1.1219954 2.8159948-2.046 3.861-2.1009928 1.8424972-3.531 2.3925-3.1239902.825-5.082.825h-8.085zm25.4411665 15.048c0 1.0340052.1374986 1.952496.4125 2.7555s.6544976 1.4739973 1.1385 2.013 1.0504968.9514986 1.6995 1.2375 1.3364964.429 2.0625.429 1.4134968-.1429986 2.0625-.429 1.2154976-.6984973 1.6995-1.2375.8634986-1.209996 1.1385-2.013.4125-1.7214948.4125-2.7555-.1374986-1.952496-.4125-2.7555-.6544976-1.4794972-1.1385-2.0295-1.0504968-.9679986-1.6995-1.254-1.3364964-.429-2.0625-.429-1.4134968.1429986-2.0625.429-1.2154976.7039972-1.6995 1.254-.8634986 1.226496-1.1385 2.0295-.4125 1.7214948-.4125 2.7555zm-2.97 0c0-1.2540063.1759982-2.4254946.528-3.5145s.8799965-2.034996 1.584-2.838 1.5729948-1.4354977 2.607-1.8975 2.2219933-.693 3.564-.693c1.3640068 0 2.5574949.2309977 3.5805.693s1.8864965 1.094496 2.5905 1.8975 1.2319982 1.7489946 1.584 2.838.528 2.2604937.528 3.5145-.1759982 2.4199946-.528 3.498-.8799965 2.018496-1.584 2.8215-1.5674949 1.4299977-2.5905 1.881-2.2164932.6765-3.5805.6765c-1.3420067 0-2.5299948-.2254977-3.564-.6765s-1.9029965-1.077996-2.607-1.881-1.2319982-1.7434946-1.584-2.8215-.528-2.2439937-.528-3.498zm37.3871665 8.514h-2.97l-3.465-13.563h-.066l-3.432 13.563h-3.036l-5.478-17.061h3.102l3.861 13.959h.066l3.432-13.959h3.069l3.564 13.959h.066l3.828-13.959h2.904zm8.7431665-17.061h2.64v2.706h.066c1.1660058-2.0680103 3.0139873-3.102 5.544-3.102 1.1220056 0 2.0569963.1539985 2.805.462s1.3529977.7369972 1.815 1.287c.4620023.5500027.7864991 1.2044962.9735 1.9635s.2805 1.6004954.2805 2.5245v11.22h-2.805v-11.55c0-1.0560053-.3079969-1.8919969-.924-2.508s-1.4629946-.924-2.541-.924c-.8580043 0-1.6004969.1319987-2.2275.396s-1.1494979.6379976-1.5675 1.122-.731499 1.0504968-.9405 1.6995-.3135 1.3584961-.3135 2.1285v9.636h-2.805zm61.6331665 13.398h3.663v3.663h-3.663zm3.399-12.639-.825 10.263h-1.485l-.825-10.263v-7.26h3.135zm15.544167 13.662h5.214c.352001 0 .791997-.0274997 1.32-.0825.528002-.0550003 1.088997-.186999 1.683-.396.594002-.209001 1.182497-.511498 1.7655-.9075.583002-.396002 1.105497-.9349966 1.5675-1.617.462002-.6820034.841498-1.5344949 1.1385-2.5575.297001-1.0230051.4455-2.2604927.4455-3.7125 0-1.408007-.137499-2.6674944-.4125-3.7785-.275002-1.1110056-.725997-2.0569961-1.353-2.838-.627004-.7810039-1.435496-1.374998-2.4255-1.782-.990005-.407002-2.210993-.6105-3.663-.6105h-5.28zm-3.135-20.922h8.085c3.630018 0 6.42399.9239908 8.382 2.772 1.958009 1.8480092 2.937 4.6639811 2.937 8.448 0 1.9800099-.219998 3.7344924-.66 5.2635-.440003 1.5290076-1.121996 2.8159948-2.046 3.861-.924005 1.0450052-2.100993 1.8424972-3.531 2.3925-1.430008.5500028-3.123991.825-5.082.825h-8.085zm25.441166 15.048c0 1.0340052.137499 1.952496.4125 2.7555s.654498 1.4739973 1.1385 2.013 1.050497.9514986 1.6995 1.2375 1.336496.429 2.0625.429 1.413497-.1429986 2.0625-.429 1.215498-.6984973 1.6995-1.2375.863499-1.209996 1.1385-2.013.4125-1.7214948.4125-2.7555-.137499-1.952496-.4125-2.7555-.654498-1.4794972-1.1385-2.0295-1.050497-.9679986-1.6995-1.254-1.336496-.429-2.0625-.429-1.413497.1429986-2.0625.429-1.215498.7039972-1.6995 1.254-.863499 1.226496-1.1385 2.0295-.4125 1.7214948-.4125 2.7555zm-2.97 0c0-1.2540063.175998-2.4254946.528-3.5145s.879996-2.034996 1.584-2.838 1.572995-1.4354977 2.607-1.8975 2.221993-.693 3.564-.693c1.364007 0 2.557495.2309977 3.5805.693s1.886496 1.094496 2.5905 1.8975 1.231998 1.7489946 1.584 2.838.528 2.2604937.528 3.5145-.175998 2.4199946-.528 3.498-.879996 2.018496-1.584 2.8215-1.567495 1.4299977-2.5905 1.881-2.216493.6765-3.5805.6765c-1.342007 0-2.529995-.2254977-3.564-.6765s-1.902996-1.077996-2.607-1.881-1.231998-1.7434946-1.584-2.8215-.528-2.2439937-.528-3.498zm36.989333 10.791c-.330002.8360042-.654498 1.5399971-.9735 2.112s-.670998 1.0394982-1.056 1.4025-.813998.6269992-1.287.792-1.017497.2475-1.6335.2475c-.330002 0-.659998-.0219998-.99-.066s-.648998-.1209994-.957-.231v-2.574c.242001.1100006.522498.2034996.8415.2805s.588499.1155.8085.1155c.572003 0 1.050498-.1374986 1.4355-.4125s.676499-.6654975.8745-1.1715l1.155-2.871-6.765-16.962h3.168l4.983 13.959h.066l4.785-13.959h2.97zm12.472167-10.791c0 1.0340052.137498 1.952496.4125 2.7555.275001.803004.654497 1.4739973 1.1385 2.013.484002.5390027 1.050496.9514986 1.6995 1.2375.649003.2860014 1.336496.429 2.0625.429.726003 0 1.413496-.1429986 2.0625-.429.649003-.2860014 1.215497-.6984973 1.6995-1.2375.484002-.5390027.863498-1.209996 1.1385-2.013.275001-.803004.4125-1.7214948.4125-2.7555s-.137499-1.952496-.4125-2.7555c-.275002-.803004-.654498-1.4794972-1.1385-2.0295-.484003-.5500028-1.050497-.9679986-1.6995-1.254-.649004-.2860014-1.336497-.429-2.0625-.429-.726004 0-1.413497.1429986-2.0625.429-.649004.2860014-1.215498.7039972-1.6995 1.254-.484003.5500028-.863499 1.226496-1.1385 2.0295-.275002.803004-.4125 1.7214948-.4125 2.7555zm-2.970001 0c.000001-1.2540063.175999-2.4254946.528001-3.5145.352001-1.0890054.879996-2.034996 1.584-2.838.704003-.803004 1.572994-1.4354977 2.607-1.8975 1.034005-.4620023 2.221993-.693 3.564-.693 1.364006 0 2.557494.2309977 3.5805.693 1.023005.4620023 1.886496 1.094496 2.5905 1.8975.704003.803004 1.231998 1.7489946 1.584 2.838.352001 1.0890054.528 2.2604937.528 3.5145s-.175999 2.4199946-.528 3.498c-.352002 1.0780054-.879997 2.018496-1.584 2.8215-.704004.803004-1.567495 1.4299977-2.5905 1.881-1.023006.4510023-2.216494.6765-3.5805.6765-1.342007 0-2.529995-.2254977-3.564-.6765-1.034006-.4510023-1.902997-1.077996-2.607-1.881-.704004-.803004-1.231999-1.7434946-1.584-2.8215-.352002-1.0780054-.528-2.2439937-.528001-3.498zm34.615167 8.514h-2.64v-2.706h-.066c-.594003 1.0560053-1.352995 1.8314975-2.277 2.3265s-2.012994.7425-3.267.7425c-1.122006 0-2.056996-.1484985-2.805-.4455s-1.352998-.7204973-1.815-1.2705-.786499-1.2044962-.9735-1.9635-.2805-1.6004954-.2805-2.5245v-11.22h2.805v11.55c0 1.0560053.307997 1.8919969.924 2.508s1.462995.924 2.541.924c.858004 0 1.600497-.1319987 2.2275-.396s1.149498-.6379976 1.5675-1.122.731499-1.0504968.9405-1.6995.3135-1.3584962.3135-2.1285v-9.636h2.805zm14.648333-23.562h2.805v9.009h.066c.220001-.5280026.527998-.9734982.924-1.3365s.841498-.6599988 1.3365-.891 1.011997-.4014994 1.551-.5115 1.061497-.165 1.5675-.165c1.122006 0 2.056996.1539985 2.805.462s1.352998.7369972 1.815 1.287c.462002.5500027.786499 1.2044962.9735 1.9635s.2805 1.6004954.2805 2.5245v11.22h-2.805v-11.55c0-1.0560053-.307997-1.8919969-.924-2.508s-1.462995-.924-2.541-.924c-.858004 0-1.600497.1319987-2.2275.396s-1.149498.6379976-1.5675 1.122-.731499 1.0504968-.9405 1.6995-.3135 1.3584962-.3135 2.1285v9.636h-2.805zm34.087167 23.496c-.484003.2860014-1.154996.429-2.013.429-.726004 0-1.303498-.203498-1.7325-.6105-.429003-.407002-.6435-1.0724954-.6435-1.9965-.770004.9240046-1.666495 1.589498-2.6895 1.9965-1.023006.407002-2.128495.6105-3.3165.6105-.770004 0-1.501497-.0879991-2.1945-.264-.693004-.1760009-1.292498-.4509981-1.7985-.825-.506003-.3740019-.907499-.863497-1.2045-1.4685-.297002-.605003-.4455-1.3364957-.4455-2.1945 0-.9680048.164998-1.7599969.495-2.376.330001-.6160031.764497-1.1164981 1.3035-1.5015.539002-.3850019 1.154996-.676499 1.848-.8745.693003-.198001 1.402496-.3629993 2.1285-.495.770003-.1540008 1.501496-.2694996 2.1945-.3465.693003-.0770004 1.303497-.1869993 1.8315-.33.528002-.1430007.945998-.3519986 1.254-.627.308001-.2750014.462-.6764974.462-1.2045 0-.6160031-.115499-1.1109981-.3465-1.485-.231002-.3740019-.527999-.659999-.891-.858-.363002-.198001-.769998-.3299997-1.221-.396-.451003-.0660003-.896498-.099-1.3365-.099-1.188006 0-2.177997.2254977-2.97.6765-.792004.4510023-1.221 1.3034937-1.287 2.5575h-2.805c.044-1.0560053.263998-1.9469964.66-2.673.396001-.7260036.923996-1.3144977 1.584-1.7655.660003-.4510023 1.413495-.775499 2.2605-.9735.847004-.198001 1.754495-.297 2.7225-.297.770003 0 1.534496.0549994 2.2935.165.759003.1100006 1.446496.3354983 2.0625.6765.616003.3410017 1.110998.8194969 1.485 1.4355.374001.6160031.561 1.418995.561 2.409v8.778c0 .6600033.038499 1.1439985.1155 1.452.077.3080015.335497.462.7755.462.242001 0 .527998-.0549995.858-.165zm-4.554-8.745c-.352002.2640013-.813998.4564994-1.386.5775-.572003.1210006-1.171497.2199996-1.7985.297-.627004.0770004-1.259497.1649995-1.8975.264-.638004.0990005-1.209998.2584989-1.716.4785-.506003.2200011-.918499.533498-1.2375.9405-.319002.407002-.4785.9624965-.4785 1.6665 0 .4620023.093499.8524984.2805 1.1715.187.3190016.428998.577499.726.7755.297001.198001.643498.3409996 1.0395.429.396001.0880004.813997.132 1.254.132.924004 0 1.715996-.1264987 2.376-.3795.660003-.2530013 1.198997-.5719981 1.617-.957.418002-.3850019.725999-.8029977.924-1.254.198-.4510023.297-.874498.297-1.2705zm15.475166 8.811h-3.003l-6.336-17.061h3.135l4.785 14.223h.066l4.653-14.223h2.937zm21.283167-10.164c-.044001-.6600033-.192499-1.286997-.4455-1.881-.253002-.594003-.593998-1.1054979-1.023-1.5345-.429003-.4290021-.934998-.7699987-1.518-1.023-.583003-.2530013-1.226497-.3795-1.9305-.3795-.726004 0-1.380498.1264987-1.9635.3795-.583003.2530013-1.083498.5994978-1.5015 1.0395-.418003.4400022-.747999.9514971-.99 1.5345-.242002.5830029-.385 1.2044967-.429 1.8645zm2.706 4.752c-.374002 1.9140096-1.198994 3.3549952-2.475 4.323-1.276007.9680048-2.881991 1.452-4.818 1.452-1.364007 0-2.546495-.2199978-3.5475-.66-1.001006-.4400022-1.842497-1.055996-2.5245-1.848-.682004-.792004-1.193499-1.7379945-1.534501-2.838-.341001-1.1000055-.533499-2.2989935-.5775-3.597 0-1.2980065.197999-2.4859946.594-3.564.396002-1.0780054.951497-2.012996 1.666501-2.805.715003-.792004 1.561995-1.4079978 2.541-1.848.979004-.4400022 2.051494-.66 3.217499-.66 1.518008 0 2.777495.3134969 3.778501.9405 1.001005.6270031 1.803996 1.4244952 2.408999 2.3925.605004.9680048 1.022999 2.0239943 1.254001 3.168.231001 1.1440057.3245 2.2329948.280499 3.267h-12.770999c-.022001.7480037.065999 1.4574966.264 2.1285.198.6710034.516997 1.2649974.957 1.782.440002.5170026 1.000996.9294985 1.683 1.2375.682003.3080015 1.484995.462 2.409.462 1.188005 0 2.161496-.2749972 2.9205-.825.759003-.5500028 1.259498-1.3859944 1.5015-2.508zm28.706332 5.346c-.484002.2860014-1.154995.429-2.012999.429-.726004 0-1.303498-.203498-1.7325-.6105-.429003-.407002-.643501-1.0724954-.643501-1.9965-.770003.9240046-1.666494 1.589498-2.6895 1.9965-1.023005.407002-2.128494.6105-3.316499.6105-.770004 0-1.501497-.0879991-2.1945-.264-.693004-.1760009-1.292498-.4509981-1.7985-.825-.506003-.3740019-.907499-.863497-1.2045-1.4685-.297002-.605003-.445501-1.3364957-.445501-2.1945 0-.9680048.164999-1.7599969.495-2.376.330002-.6160031.764498-1.1164981 1.3035-1.5015.539003-.3850019 1.154997-.676499 1.848-.8745.693004-.198001 1.402497-.3629993 2.128501-.495.770003-.1540008 1.501496-.2694996 2.1945-.3465.693003-.0770004 1.303497-.1869993 1.831499-.33.528003-.1430007.945999-.3519986 1.254-.627.308002-.2750014.462-.6764974.462-1.2045 0-.6160031-.115498-1.1109981-.3465-1.485-.231001-.3740019-.527998-.659999-.890999-.858-.363002-.198001-.769998-.3299997-1.221-.396-.451003-.0660003-.896498-.099-1.3365-.099-1.188006 0-2.177997.2254977-2.970001.6765-.792003.4510023-1.220999 1.3034937-1.286999 2.5575h-2.805c.044-1.0560053.263998-1.9469964.659999-2.673.396002-.7260036.923997-1.3144977 1.584-1.7655.660004-.4510023 1.413496-.775499 2.260501-.9735.847004-.198001 1.754495-.297 2.722499-.297.770004 0 1.534497.0549994 2.2935.165.759004.1100006 1.446497.3354983 2.0625.6765.616004.3410017 1.110999.8194969 1.485 1.4355.374002.6160031.561 1.418995.561 2.409v8.778c0 .6600033.0385 1.1439985.115501 1.452.077.3080015.335497.462.775499.462.242002 0 .527999-.0549995.858-.165zm-4.553999-8.745c-.352002.2640013-.813998.4564994-1.386.5775-.572003.1210006-1.171497.2199996-1.7985.297-.627004.0770004-1.259497.1649995-1.897501.264-.638003.0990005-1.209997.2584989-1.715999.4785-.506003.2200011-.918499.533498-1.2375.9405-.319002.407002-.4785.9624965-.4785 1.6665 0 .4620023.093499.8524984.280499 1.1715.187001.3190016.428999.577499.726.7755.297002.198001.643499.3409996 1.039501.429.396001.0880004.813997.132 1.254.132.924004 0 1.715996-.1264987 2.376-.3795.660003-.2530013 1.198997-.5719981 1.617-.957.418002-.3850019.725999-.8029977.923999-1.254.198001-.4510023.297001-.874498.297001-1.2705zm21.479332-8.25h3.399v2.475h-3.399v10.593c0 .3300016.0275.593999.082501.792.055.198001.159499.3519995.313499.462.154001.1100005.368499.1814998.6435.2145.275002.0330002.632498.0495 1.0725.0495h1.287v2.475h-2.145c-.726003 0-1.347497-.0494995-1.864499-.1485-.517003-.0990005-.934999-.2804987-1.254-.5445-.319002-.2640013-.5555-.6379976-.7095-1.122-.154001-.4840024-.231-1.121996-.231-1.914v-10.857h-2.904v-2.475h2.904v-5.115h2.804999zm22.240167 16.995c-.484002.2860014-1.154996.429-2.013.429-.726004 0-1.303498-.203498-1.7325-.6105s-.6435-1.0724954-.6435-1.9965c-.770004.9240046-1.666495 1.589498-2.6895 1.9965s-2.128494.6105-3.3165.6105c-.770004 0-1.501497-.0879991-2.1945-.264s-1.292497-.4509981-1.7985-.825-.907499-.863497-1.2045-1.4685-.4455-1.3364957-.4455-2.1945c0-.9680048.164998-1.7599969.495-2.376s.764497-1.1164981 1.3035-1.5015 1.154997-.676499 1.848-.8745 1.402496-.3629993 2.1285-.495c.770004-.1540008 1.501497-.2694996 2.1945-.3465s1.303497-.1869993 1.8315-.33.945998-.3519986 1.254-.627.462-.6764974.462-1.2045c0-.6160031-.115499-1.1109981-.3465-1.485s-.527998-.659999-.891-.858-.769998-.3299997-1.221-.396-.896498-.099-1.3365-.099c-1.188006 0-2.177996.2254977-2.97.6765s-1.221 1.3034937-1.287 2.5575h-2.805c.044-1.0560053.263998-1.9469964.66-2.673s.923997-1.3144977 1.584-1.7655 1.413496-.775499 2.2605-.9735 1.754495-.297 2.7225-.297c.770004 0 1.534496.0549994 2.2935.165s1.446497.3354983 2.0625.6765 1.110998.8194969 1.485 1.4355.561 1.418995.561 2.409v8.778c0 .6600033.0385 1.1439985.1155 1.452s.335498.462.7755.462c.242001 0 .527998-.0549995.858-.165zm-4.554-8.745c-.352002.2640013-.813997.4564994-1.386.5775s-1.171497.2199996-1.7985.297-1.259497.1649995-1.8975.264-1.209997.2584989-1.716.4785-.918498.533498-1.2375.9405-.4785.9624965-.4785 1.6665c0 .4620023.093499.8524984.2805 1.1715s.428999.577499.726.7755.643498.3409996 1.0395.429.813998.132 1.254.132c.924005 0 1.715997-.1264987 2.376-.3795s1.198998-.5719981 1.617-.957.725999-.8029977.924-1.254.297-.874498.297-1.2705zm7.885167-14.751h2.805v8.811h.065999c.462003-.9460047 1.187996-1.6334979 2.178-2.0625.990005-.4290021 2.078995-.6435 3.267-.6435 1.320007 0 2.469496.2419976 3.448501.726.979004.4840024 1.792996 1.1384959 2.442 1.9635.649003.8250041 1.138498 1.7764946 1.4685 2.8545.330001 1.0780054.495 2.221994.495 3.432s-.159499 2.3539946-.478501 3.432c-.319001 1.0780054-.802996 2.018496-1.452 2.8215-.649003.803004-1.462995 1.4354977-2.441999 1.8975-.979005.4620023-2.117494.693-3.4155.693-.418003 0-.885498-.0439996-1.402501-.132-.517002-.0880004-1.028497-.230999-1.5345-.429-.506002-.198001-.984497-.4674983-1.435499-.8085-.451003-.3410017-.830499-.7644975-1.138501-1.2705h-.065999v2.277h-2.805zm13.199999 14.883c0-.792004-.104498-1.5674962-.313499-2.3265-.209002-.7590038-.527998-1.435497-.957001-2.0295-.429002-.594003-.978996-1.0669982-1.65-1.419-.671003-.3520018-1.457495-.528-2.359499-.528-.946005 0-1.748997.1869981-2.409001.561-.660003.3740019-1.198997.863497-1.616999 1.4685-.418003.605003-.7205 1.2924961-.907501 2.0625-.187.7700039-.2805 1.550996-.2805 2.343 0 .8360042.099 1.6444961.297 2.4255.198001.7810039.511498 1.468497.9405 2.0625.429003.594003.984497 1.0724982 1.666501 1.4355.682003.3630018 1.506995.5445 2.474999.5445.968005 0 1.776497-.1869981 2.4255-.561.649004-.3740019 1.171499-.8689969 1.5675-1.485.396002-.6160031.682-1.319996.858-2.112.176001-.792004.264-1.6059958.264-2.442zm7.060167-14.883h2.805v23.562h-2.805zm19.633167 13.398c-.044001-.6600033-.192499-1.286997-.4455-1.881-.253002-.594003-.593998-1.1054979-1.023-1.5345-.429003-.4290021-.934998-.7699987-1.518-1.023-.583003-.2530013-1.226497-.3795-1.9305-.3795-.726004 0-1.380498.1264987-1.9635.3795-.583003.2530013-1.083498.5994978-1.5015 1.0395-.418003.4400022-.747999.9514971-.99 1.5345-.242002.5830029-.385 1.2044967-.429 1.8645zm2.706 4.752c-.374002 1.9140096-1.198994 3.3549952-2.475001 4.323-1.276006.9680048-2.88199 1.452-4.818 1.452-1.364006 0-2.546494-.2199978-3.5475-.66-1.001005-.4400022-1.842496-1.055996-2.5245-1.848-.682003-.792004-1.193498-1.7379945-1.5345-2.838-.341001-1.1000055-.533499-2.2989935-.5775-3.597 0-1.2980065.197999-2.4859946.594-3.564.396002-1.0780054.951497-2.012996 1.666501-2.805.715003-.792004 1.561995-1.4079978 2.541-1.848.979004-.4400022 2.051494-.66 3.217499-.66 1.518008 0 2.777495.3134969 3.7785.9405 1.001006.6270031 1.803997 1.4244952 2.409 2.3925.605004.9680048 1.022999 2.0239943 1.254 3.168.231002 1.1440057.324501 2.2329948.2805 3.267h-12.771c-.022.7480037.066 1.4574966.264001 2.1285.198.6710034.516997 1.2649974.957 1.782.440002.5170026 1.000996.9294985 1.682999 1.2375.682004.3080015 1.484996.462 2.409.462 1.188006 0 2.161497-.2749972 2.9205-.825.759004-.5500028 1.259499-1.3859944 1.501501-2.508zm8.875166 1.749h3.663v3.663h-3.663zm-5.379-12.54c-.022-1.1220056.137498-2.1669952.4785-3.135s.830497-1.8094964 1.4685-2.5245 1.418995-1.270498 2.343-1.6665 1.957994-.594 3.102-.594c1.034005 0 1.974496.1484985 2.8215.4455s1.578497.7259972 2.1945 1.287 1.094498 1.2484959 1.4355 2.0625.5115 1.7489947.5115 2.805c0 .6820034-.082499 1.2924973-.2475 1.8315s-.379499 1.0284978-.6435 1.4685-.566498.8469981-.9075 1.221-.687498.7369982-1.0395 1.089c-.352002.3300016-.698498.6654983-1.0395 1.0065s-.648999.7039981-.924 1.089-.494999.8029977-.66 1.254-.2475.9624971-.2475 1.5345v1.287h-2.805v-1.551c.044-.9240046.214499-1.7104968.5115-2.3595s.659998-1.2264975 1.089-1.7325.879998-.9734979 1.353-1.4025.912998-.8799976 1.32-1.353.731499-.9954971.9735-1.5675.341-1.2649959.297-2.079c-.088-1.2100061-.478497-2.1559966-1.1715-2.838s-1.633494-1.023-2.8215-1.023c-.792004 0-1.473997.1429986-2.046.429s-1.050498.6709976-1.4355 1.155-.665499 1.0559967-.8415 1.716-.264 1.3749961-.264 2.145z" fill-rule="nonzero"/><text font-family="AppleColorEmoji, Apple Color Emoji" font-size="33" letter-spacing=".6251665"><tspan x="102" y="44">😃</tspan></text></g></g><g transform="translate(0 370)"><rect fill="#222" height="69" rx="34.5" width="675"/><g font-family="HelveticaNeue, Helvetica Neue"><text fill="#fff" font-size="27" letter-spacing=".511499882"><tspan x="30" y="42">Yea! We are on the 2nd floor on the left.</tspan></text><text fill="#ff7000" font-size="33" letter-spacing=".625166535"><tspan x="567.477334" y="42">Send</tspan></text></g></g><circle cx="661" cy="45" fill="#f87000" r="14"/><g fill-rule="nonzero" transform="translate(650 35)"><path d="m11.0874052 20.8058091.3327486-1.8945709s-3.02174325-8.7836285-3.04157219-8.901168c-.03928021-.22566074-.04513448-.45603062-.01737394-.68338668l-3.65948013-.52384187-.10292169.58713237-1.46960856-.25655253c-.46834094-.0819386-.95008999.02505248-1.33911512.29742768-.38921402.2725635-.65360003.68828413-.735182 1.15542823l-.97992786 5.5774751c-.16958472.9721496.48231565 1.8975847 1.45676695 2.0676779l1.4697974.2569293-.15466583.880416c-.21245303-.0416285-.43076039.0344708-.57088495.1991014-.14012456.1644423-.18016021.3917983-.10443247.5941019.0757277.2023035.25513247.3479093.46909633.3806848l8.23789046 1.43741c.3251948.0566978.6347153-.1602982.6915583-.4844737.056843-.3243637-.160709-.6330933-.4857149-.689791zm-7.87870323-3.4917141-1.17689545-.2051291c-.48741453-.0849524-.81355353-.5481409-.72819462-1.0343099l.87492885-4.9895892c.08498119-.4861689.54935635-.8114745 1.03677084-.7263338l1.17689545.205129z" fill="#e2e2e2"/><path d="m9.13812483 9.87991031c-.1986672.06875306-.39355746.14391049-.59203578.20023149-.08856935.0250525-.14937811.0474679-.16901821-.0700716-.04173526-.23394878-.04721182-.47279506-.01624088-.70843915 0-.01224369.00660966-.02392227.00849815-.03578925l-3.28329661-.39537725-1.77894017 10.37097675c-.03342594.2104032.11047557.4079977.32141788.4413382l6.70369619 1.0608693c.2092426.0331521.4063991-.1079329.4419023-.3162641l.3795828-2.288818-1.95834497-8.0158545c-.02530549-.0793014-.04437909-.16048658-.0572207-.24280189z" fill="#f4c734"/><path d="m8.4218276 10.1227122 3.4623237 10.1541692c-.3070655.1098165-.4692852.4449171-.3642862.7530815.1051879.3081645.438692.4752439.7491567.3752223l7.9185499-2.6868323c.3070655-.1096282.4692852-.4449171.3640973-.7530816-.104999-.3081644-.4385031-.4750555-.7489678-.3752222l-.3480453-1.0166037 1.1899259-.4038536c.9380039-.3172059 1.4401484-1.3330561 1.1217521-2.2682862l-1.8274739-5.35916052c-.3189628-.93466499-1.3370378-1.43477295-2.2740974-1.11681355l-1.1901147.40573732-.1346481-.39349363zm11.5576345 5.0150185-.9074105.3085411-2.2125332-6.48859444.9072217-.30872955c.4685297-.1589797.9774728.0909801 1.136671.5583126l1.6356052 4.79613879c.1595758.4673325-.0910243.9749751-.5595542 1.1337664z" fill="#e2e2e2"/><path d="m15.9945984 7.55266598-7.26022875 2.46380862 3.38999515 9.7233794c.0694958.1998548.2874254.3064691.4885476.2392229l6.4355333-2.1518769c.202633-.0678112.3115978-.2863141.2438017-.4884293z" fill="#f4c734"/><g fill="#f9f2cc"><path d="m8.36196306 9.30163105c.11311946-.90942417.90759939-1.5796253 1.82558534-1.53988036.0349368-.05330719.0727062-.10491911.1129307-.1542706-.0474007-.01544592-.0955567-.02825471-.1442793-.03861473-.43434841-.05387229-.87473997-.0276896-1.29964608.0770411-.60468856-.69336999-1.5553451-.97798887-2.44292676-.73141966-.88777045.24656922-1.55402321.98024925-1.71227709 1.88571777l3.64909348.7125832c.00264388-.06912981.0018885-.14089675.01151971-.21115672z"/><path d="m15.6745025.7715413c0 .42608069-.3463457.7715413-.773518.7715413-.4273611 0-.7735179-.34546061-.7735179-.7715413s.3461568-.7715413.7735179-.7715413c.4271723 0 .773518.34546061.773518.7715413z"/><path d="m12.9671897 3.47193584c0 .85216133-.6926914 1.54308259-1.5470359 1.54308259-.8545333 0-1.54703585-.69092126-1.54703585-1.54308259 0-.85216134.69250255-1.5430826 1.54703585-1.5430826.8543445 0 1.5470359.69092126 1.5470359 1.5430826z"/><path d="m7.16580518 3.85770649c0 .63912099-.51951853 1.15731194-1.16027691 1.15731194-.64094721 0-1.1602769-.51819095-1.1602769-1.15731194s.51932969-1.15731195 1.1602769-1.15731195c.64075838 0 1.16027691.51819096 1.16027691 1.15731195z"/><path d="m4.4584924.7715413c0 .42608069-.34634565.7715413-.77351793.7715413-.42736112 0-.77351794-.34546061-.77351794-.7715413s.34615682-.7715413.77351794-.7715413c.42717228 0 .77351793.34546061.77351793.7715413z"/></g><g fill="#e0b730" transform="translate(4.641108 10.51225)"><path d="m8.84163483.94050431c-.03437021-.09964485-.10839829-.18101834-.20471031-.22453057-.09083547.08269206-.19772298.1457942-.31405283.18553909-.06741842.02185034-.13710306.03597765-.20773187.04162861-.02927132.07911312-.0313486.16557247-.00566539.24581575l2.25237997 6.60368524c.0689292.20136176.2883696.3091063.490436.24072995.2020665-.06875306.3098982-.28763272.2413467-.48918279z"/><path d="m6.37151408 1.37148246c.20206643-.06856471.42169568.03917983.49062488.2409183l2.25219116 6.60349688c.0689292.20173847-.03928021.42080648-.24134669.48937119-.20206643.0685647-.42169568-.03936819-.49062487-.24110666l-2.25219117-6.60330853c-.06892919-.20173847.03928021-.42080648.24134669-.48937118z"/><path d="m10.3305058.0276896c.2020664-.0685647.4216957.03917984.490436.24091826l2.2521911 6.60349693c.0687404.20173842-.0392802.42080643-.2415354.48937114-.2020665.0687531-.4216958-.03917983-.4904361-.2409183l-2.2521911-6.60349688c-.0687404-.20173848.039469-.42080644.2415355-.48937115z"/><path d="m2.11282194 8.6798396 1.20484483-6.87078623c.03682521-.20983816.23738086-.3503581.44775661-.313627l.00037767.00018835c.21037575.03673111.35106687.23658591.31424166.44642407l-1.20484483 6.87078617c-.03682516.20983816-.23719202.35016976-.44775656.31343866h-.00037772c-.21037575-.03673106-.35106687-.23658591-.31424166-.44642402z"/><path d="m4.16823434 9.04187629.62432866-3.77652135c.03474788-.21021486.23360397-.35261848.44416851-.3179594.21075347.03465908.35333303.23319537.31858515.44341023l-.62413982 3.77652135c-.03474788.21021486-.2337928.35261848-.44435734.3179594-.21056459-.03465908-.35333303-.23319532-.31858516-.44341023z"/><path d="m.05306604 8.32006324 1.20446716-6.87040947c.03682521-.20983812.23719202-.35035811.44756772-.31362701h.00037772c.21056454.03673106.35125571.23658591.3144305.44661237l-1.20446711 6.87040952c-.03682521.20983816-.23719203.35016976-.44756778.313627l-.00037772-.00018835c-.21056453-.0367311-.35125565-.2365859-.31443049-.44642406z"/></g><path d="m10.8160318 21.4584923c-.0109531 0-.0219063-.0009418-.0324817-.0026371l-7.90419756-1.3258982c-.05079992-.0084764-.09593435-.0367311-.12558334-.0785481-.02983788-.0418169-.04173526-.0936171-.03304827-.1440988.01982894-.1037889.11802946-.1734838.22283964-.1582263l7.90457523 1.326275c.0989559.0167645.1688293.106426.1603312.2062592-.0083092.1000216-.0919685.1768743-.1924352.1768743z" fill="#ccc"/><path d="m12.1209656 20.8559141c-.0949901.0005651-.1763832-.0678113-.1918687-.1612401-.0156743-.0934289.0390914-.1844089.1291715-.2145472l7.614506-2.6039519c.1010332-.0344707.2111311.0194015.2456901.1201766.0347479.1009634-.0192624.2105915-.1204845.2452506l-7.6141283 2.6039519c-.0202067.0067812-.0415464.0103601-.0628861.0103601z" fill="#ccc"/><path d="m8.36196306 9.30163105c-.03078209.23564409-.02530554.47467872.01624083.70881595.01982899.1156558.08044892.0947473.16901822.0696948.21434153-.0608417.42547262-.14428722.63962531-.21718432.20225532-.06856471.42207335.03917983.49081376.24072992l.24380164.7148436c.14257958.4498146.60034508.7214363 1.06472028.6319631.2472009-.0565094.4590874-.2147356.5827823-.4358756.123506-.2209516.1474896-.4839086.0657188-.7235084l.1760055.5159306c.1425796.4494379.6001563.7210596 1.0643426.6317748.2473898-.056321.4590874-.2147356.5827823-.4356872.1236949-.2209517.1478673-.4839086.0662854-.7235084l-.4530444-1.3274051c-.0685515-.20173847.0396579-.42061813.2417244-.48918284l3.0272198-1.02734037c-.2963011-.87024433-1.0681195-1.49278924-1.9832727-1.59996872-.9151534-.10717943-1.8104777.32040813-2.3009137 1.0985422-.7349932-.14183851-1.4809394.18836458-1.868265.82748562-.91515323-.03183365-1.70510088.63460024-1.82558534 1.53988036z" fill="#f9f2cc"/></g></g></svg>