<?xml version="1.0" encoding="UTF-8"?>
<svg width="899px" height="895px" viewBox="0 0 899 895" version="1.1" xmlns="http://www.w3.org/2000/svg" xmlns:xlink="http://www.w3.org/1999/xlink">
    <!-- Generator: Sketch 53.2 (72643) - https://sketchapp.com -->
    <title>qrcode</title>
    <desc>Created with Sketch.</desc>
    <g id="LateMar-2019-V2" stroke="none" stroke-width="1" fill="none" fill-rule="evenodd">
        <g id="qrcode" transform="translate(-29.000000, -32.000000)" fill-rule="nonzero">
            <polygon id="Path" points="0 0 957 0 957 955 0 955"></polygon>
            <polygon id="Path" fill="#000000" points="29 32 61 32 61 64 29 64"></polygon>
            <polygon id="Path" fill="#000000" points="61 32 93 32 93 64 61 64"></polygon>
            <polygon id="Path" fill="#000000" points="93 32 125 32 125 64 93 64"></polygon>
            <polygon id="Path" fill="#000000" points="122 32 154 32 154 64 122 64"></polygon>
            <polygon id="Path" fill="#000000" points="154 32 186 32 186 64 154 64"></polygon>
            <polygon id="Path" fill="#000000" points="185 32 217 32 217 64 185 64"></polygon>
            <polygon id="Path" fill="#000000" points="215 32 247 32 247 64 215 64"></polygon>
            <polygon id="Path" fill="#000000" points="339 32 371 32 371 64 339 64"></polygon>
            <polygon id="Path" fill="#000000" points="371 32 403 32 403 64 371 64"></polygon>
            <polygon id="Path" fill="#000000" points="464 32 496 32 496 64 464 64"></polygon>
            <polygon id="Path" fill="#000000" points="493 32 525 32 525 64 493 64"></polygon>
            <polygon id="Path" fill="#000000" points="554 32 586 32 586 64 554 64"></polygon>
            <polygon id="Path" fill="#000000" points="586 32 618 32 618 64 586 64"></polygon>
            <polygon id="Path" fill="#000000" points="618 32 650 32 650 64 618 64"></polygon>
            <polygon id="Path" fill="#000000" points="710 32 742 32 742 64 710 64"></polygon>
            <polygon id="Path" fill="#000000" points="740 32 772 32 772 64 740 64"></polygon>
            <polygon id="Path" fill="#000000" points="771 32 803 32 803 64 771 64"></polygon>
            <polygon id="Path" fill="#000000" points="803 32 835 32 835 64 803 64"></polygon>
            <polygon id="Path" fill="#000000" points="832 32 864 32 864 64 832 64"></polygon>
            <polygon id="Path" fill="#000000" points="864 32 896 32 896 64 864 64"></polygon>
            <polygon id="Path" fill="#000000" points="896 32 928 32 928 64 896 64"></polygon>
            <polygon id="Path" fill="#000000" points="29 64 61 64 61 96 29 96"></polygon>
            <polygon id="Path" fill="#000000" points="215 64 247 64 247 96 215 96"></polygon>
            <polygon id="Path" fill="#000000" points="307 64 339 64 339 96 307 96"></polygon>
            <polygon id="Path" fill="#000000" points="339 64 371 64 371 96 339 96"></polygon>
            <polygon id="Path" fill="#000000" points="371 64 403 64 403 96 371 96"></polygon>
            <polygon id="Path" fill="#000000" points="432 64 464 64 464 96 432 96"></polygon>
            <polygon id="Path" fill="#000000" points="464 64 496 64 496 96 464 96"></polygon>
            <polygon id="Path" fill="#000000" points="525 64 557 64 557 96 525 96"></polygon>
            <polygon id="Path" fill="#000000" points="647 64 679 64 679 96 647 96"></polygon>
            <polygon id="Path" fill="#000000" points="710 64 742 64 742 96 710 96"></polygon>
            <polygon id="Path" fill="#000000" points="896 64 928 64 928 96 896 96"></polygon>
            <polygon id="Path" fill="#000000" points="29 93 61 93 61 125 29 125"></polygon>
            <polygon id="Path" fill="#000000" points="93 93 125 93 125 125 93 125"></polygon>
            <polygon id="Path" fill="#000000" points="122 93 154 93 154 125 122 125"></polygon>
            <polygon id="Path" fill="#000000" points="154 93 186 93 186 125 154 125"></polygon>
            <polygon id="Path" fill="#000000" points="215 93 247 93 247 125 215 125"></polygon>
            <polygon id="Path" fill="#000000" points="278 93 310 93 310 125 278 125"></polygon>
            <polygon id="Path" fill="#000000" points="307 93 339 93 339 125 307 125"></polygon>
            <polygon id="Path" fill="#000000" points="371 93 403 93 403 125 371 125"></polygon>
            <polygon id="Path" fill="#000000" points="464 93 496 93 496 125 464 125"></polygon>
            <polygon id="Path" fill="#000000" points="493 93 525 93 525 125 493 125"></polygon>
            <polygon id="Path" fill="#000000" points="554 93 586 93 586 125 554 125"></polygon>
            <polygon id="Path" fill="#000000" points="618 93 650 93 650 125 618 125"></polygon>
            <polygon id="Path" fill="#000000" points="647 93 679 93 679 125 647 125"></polygon>
            <polygon id="Path" fill="#000000" points="710 93 742 93 742 125 710 125"></polygon>
            <polygon id="Path" fill="#000000" points="771 93 803 93 803 125 771 125"></polygon>
            <polygon id="Path" fill="#000000" points="803 93 835 93 835 125 803 125"></polygon>
            <polygon id="Path" fill="#000000" points="832 93 864 93 864 125 832 125"></polygon>
            <polygon id="Path" fill="#000000" points="896 93 928 93 928 125 896 125"></polygon>
            <polygon id="Path" fill="#000000" points="29 125 61 125 61 157 29 157"></polygon>
            <polygon id="Path" fill="#000000" points="93 125 125 125 125 157 93 157"></polygon>
            <polygon id="Path" fill="#000000" points="122 125 154 125 154 157 122 157"></polygon>
            <polygon id="Path" fill="#000000" points="154 125 186 125 186 157 154 157"></polygon>
            <polygon id="Path" fill="#000000" points="215 125 247 125 247 157 215 157"></polygon>
            <polygon id="Path" fill="#000000" points="307 125 339 125 339 157 307 157"></polygon>
            <polygon id="Path" fill="#000000" points="371 125 403 125 403 157 371 157"></polygon>
            <polygon id="Path" fill="#000000" points="432 125 464 125 464 157 432 157"></polygon>
            <polygon id="Path" fill="#000000" points="464 125 496 125 496 157 464 157"></polygon>
            <polygon id="Path" fill="#000000" points="493 125 525 125 525 157 493 157"></polygon>
            <polygon id="Path" fill="#000000" points="586 125 618 125 618 157 586 157"></polygon>
            <polygon id="Path" fill="#000000" points="618 125 650 125 650 157 618 157"></polygon>
            <polygon id="Path" fill="#000000" points="710 125 742 125 742 157 710 157"></polygon>
            <polygon id="Path" fill="#000000" points="771 125 803 125 803 157 771 157"></polygon>
            <polygon id="Path" fill="#000000" points="803 125 835 125 835 157 803 157"></polygon>
            <polygon id="Path" fill="#000000" points="832 125 864 125 864 157 832 157"></polygon>
            <polygon id="Path" fill="#000000" points="896 125 928 125 928 157 896 157"></polygon>
            <polygon id="Path" fill="#000000" points="29 154 61 154 61 186 29 186"></polygon>
            <polygon id="Path" fill="#000000" points="93 154 125 154 125 186 93 186"></polygon>
            <polygon id="Path" fill="#000000" points="122 154 154 154 154 186 122 186"></polygon>
            <polygon id="Path" fill="#000000" points="154 154 186 154 186 186 154 186"></polygon>
            <polygon id="Path" fill="#000000" points="215 154 247 154 247 186 215 186"></polygon>
            <polygon id="Path" fill="#000000" points="278 154 310 154 310 186 278 186"></polygon>
            <polygon id="Path" fill="#000000" points="339 154 371 154 371 186 339 186"></polygon>
            <polygon id="Path" fill="#000000" points="432 154 464 154 464 186 432 186"></polygon>
            <polygon id="Path" fill="#000000" points="464 154 496 154 496 186 464 186"></polygon>
            <polygon id="Path" fill="#000000" points="525 154 557 154 557 186 525 186"></polygon>
            <polygon id="Path" fill="#000000" points="586 154 618 154 618 186 586 186"></polygon>
            <polygon id="Path" fill="#000000" points="710 154 742 154 742 186 710 186"></polygon>
            <polygon id="Path" fill="#000000" points="771 154 803 154 803 186 771 186"></polygon>
            <polygon id="Path" fill="#000000" points="803 154 835 154 835 186 803 186"></polygon>
            <polygon id="Path" fill="#000000" points="832 154 864 154 864 186 832 186"></polygon>
            <polygon id="Path" fill="#000000" points="896 154 928 154 928 186 896 186"></polygon>
            <polygon id="Path" fill="#000000" points="29 186 61 186 61 218 29 218"></polygon>
            <polygon id="Path" fill="#000000" points="215 186 247 186 247 218 215 218"></polygon>
            <polygon id="Path" fill="#000000" points="278 186 310 186 310 218 278 218"></polygon>
            <polygon id="Path" fill="#000000" points="307 186 339 186 339 218 307 218"></polygon>
            <polygon id="Path" fill="#000000" points="339 186 371 186 371 218 339 218"></polygon>
            <polygon id="Path" fill="#000000" points="432 186 464 186 464 218 432 218"></polygon>
            <polygon id="Path" fill="#000000" points="464 186 496 186 496 218 464 218"></polygon>
            <polygon id="Path" fill="#000000" points="525 186 557 186 557 218 525 218"></polygon>
            <polygon id="Path" fill="#000000" points="586 186 618 186 618 218 586 218"></polygon>
            <polygon id="Path" fill="#000000" points="618 186 650 186 650 218 618 218"></polygon>
            <polygon id="Path" fill="#000000" points="710 186 742 186 742 218 710 218"></polygon>
            <polygon id="Path" fill="#000000" points="896 186 928 186 928 218 896 218"></polygon>
            <polygon id="Path" fill="#000000" points="29 218 61 218 61 250 29 250"></polygon>
            <polygon id="Path" fill="#000000" points="61 218 93 218 93 250 61 250"></polygon>
            <polygon id="Path" fill="#000000" points="93 218 125 218 125 250 93 250"></polygon>
            <polygon id="Path" fill="#000000" points="122 218 154 218 154 250 122 250"></polygon>
            <polygon id="Path" fill="#000000" points="154 218 186 218 186 250 154 250"></polygon>
            <polygon id="Path" fill="#000000" points="185 218 217 218 217 250 185 250"></polygon>
            <polygon id="Path" fill="#000000" points="215 218 247 218 247 250 215 250"></polygon>
            <polygon id="Path" fill="#000000" points="278 218 310 218 310 250 278 250"></polygon>
            <polygon id="Path" fill="#000000" points="339 218 371 218 371 250 339 250"></polygon>
            <polygon id="Path" fill="#000000" points="400 218 432 218 432 250 400 250"></polygon>
            <polygon id="Path" fill="#000000" points="464 218 496 218 496 250 464 250"></polygon>
            <polygon id="Path" fill="#000000" points="525 218 557 218 557 250 525 250"></polygon>
            <polygon id="Path" fill="#000000" points="586 218 618 218 618 250 586 250"></polygon>
            <polygon id="Path" fill="#000000" points="647 218 679 218 679 250 647 250"></polygon>
            <polygon id="Path" fill="#000000" points="710 218 742 218 742 250 710 250"></polygon>
            <polygon id="Path" fill="#000000" points="740 218 772 218 772 250 740 250"></polygon>
            <polygon id="Path" fill="#000000" points="771 218 803 218 803 250 771 250"></polygon>
            <polygon id="Path" fill="#000000" points="803 218 835 218 835 250 803 250"></polygon>
            <polygon id="Path" fill="#000000" points="832 218 864 218 864 250 832 250"></polygon>
            <polygon id="Path" fill="#000000" points="864 218 896 218 896 250 864 250"></polygon>
            <polygon id="Path" fill="#000000" points="896 218 928 218 928 250 896 250"></polygon>
            <polygon id="Path" fill="#000000" points="339 247 371 247 371 279 339 279"></polygon>
            <polygon id="Path" fill="#000000" points="432 247 464 247 464 279 432 279"></polygon>
            <polygon id="Path" fill="#000000" points="493 247 525 247 525 279 493 279"></polygon>
            <polygon id="Path" fill="#000000" points="525 247 557 247 557 279 525 279"></polygon>
            <polygon id="Path" fill="#000000" points="554 247 586 247 586 279 554 279"></polygon>
            <polygon id="Path" fill="#000000" points="586 247 618 247 618 279 586 279"></polygon>
            <polygon id="Path" fill="#000000" points="647 247 679 247 679 279 647 279"></polygon>
            <polygon id="Path" fill="#000000" points="61 279 93 279 93 311 61 311"></polygon>
            <polygon id="Path" fill="#000000" points="154 279 186 279 186 311 154 311"></polygon>
            <polygon id="Path" fill="#000000" points="215 279 247 279 247 311 215 311"></polygon>
            <polygon id="Path" fill="#000000" points="278 279 310 279 310 311 278 311"></polygon>
            <polygon id="Path" fill="#000000" points="400 279 432 279 432 311 400 311"></polygon>
            <polygon id="Path" fill="#000000" points="432 279 464 279 464 311 432 311"></polygon>
            <polygon id="Path" fill="#000000" points="464 279 496 279 496 311 464 311"></polygon>
            <polygon id="Path" fill="#000000" points="525 279 557 279 557 311 525 311"></polygon>
            <polygon id="Path" fill="#000000" points="586 279 618 279 618 311 586 311"></polygon>
            <polygon id="Path" fill="#000000" points="618 279 650 279 650 311 618 311"></polygon>
            <polygon id="Path" fill="#000000" points="679 279 711 279 711 311 679 311"></polygon>
            <polygon id="Path" fill="#000000" points="740 279 772 279 772 311 740 311"></polygon>
            <polygon id="Path" fill="#000000" points="771 279 803 279 803 311 771 311"></polygon>
            <polygon id="Path" fill="#000000" points="832 279 864 279 864 311 832 311"></polygon>
            <polygon id="Path" fill="#000000" points="29 308 61 308 61 340 29 340"></polygon>
            <polygon id="Path" fill="#000000" points="61 308 93 308 93 340 61 340"></polygon>
            <polygon id="Path" fill="#000000" points="93 308 125 308 125 340 93 340"></polygon>
            <polygon id="Path" fill="#000000" points="122 308 154 308 154 340 122 340"></polygon>
            <polygon id="Path" fill="#000000" points="185 308 217 308 217 340 185 340"></polygon>
            <polygon id="Path" fill="#000000" points="371 308 403 308 403 340 371 340"></polygon>
            <polygon id="Path" fill="#000000" points="525 308 557 308 557 340 525 340"></polygon>
            <polygon id="Path" fill="#000000" points="554 308 586 308 586 340 554 340"></polygon>
            <polygon id="Path" fill="#000000" points="618 308 650 308 650 340 618 340"></polygon>
            <polygon id="Path" fill="#000000" points="647 308 679 308 679 340 647 340"></polygon>
            <polygon id="Path" fill="#000000" points="679 308 711 308 711 340 679 340"></polygon>
            <polygon id="Path" fill="#000000" points="710 308 742 308 742 340 710 340"></polygon>
            <polygon id="Path" fill="#000000" points="740 308 772 308 772 340 740 340"></polygon>
            <polygon id="Path" fill="#000000" points="771 308 803 308 803 340 771 340"></polygon>
            <polygon id="Path" fill="#000000" points="864 308 896 308 896 340 864 340"></polygon>
            <polygon id="Path" fill="#000000" points="896 308 928 308 928 340 896 340"></polygon>
            <polygon id="Path" fill="#000000" points="61 340 93 340 93 372 61 372"></polygon>
            <polygon id="Path" fill="#000000" points="93 340 125 340 125 372 93 372"></polygon>
            <polygon id="Path" fill="#000000" points="122 340 154 340 154 372 122 372"></polygon>
            <polygon id="Path" fill="#000000" points="215 340 247 340 247 372 215 372"></polygon>
            <polygon id="Path" fill="#000000" points="278 340 310 340 310 372 278 372"></polygon>
            <polygon id="Path" fill="#000000" points="339 340 371 340 371 372 339 372"></polygon>
            <polygon id="Path" fill="#000000" points="432 340 464 340 464 372 432 372"></polygon>
            <polygon id="Path" fill="#000000" points="464 340 496 340 496 372 464 372"></polygon>
            <polygon id="Path" fill="#000000" points="493 340 525 340 525 372 493 372"></polygon>
            <polygon id="Path" fill="#000000" points="525 340 557 340 557 372 525 372"></polygon>
            <polygon id="Path" fill="#000000" points="554 340 586 340 586 372 554 372"></polygon>
            <polygon id="Path" fill="#000000" points="647 340 679 340 679 372 647 372"></polygon>
            <polygon id="Path" fill="#000000" points="771 340 803 340 803 372 771 372"></polygon>
            <polygon id="Path" fill="#000000" points="803 340 835 340 835 372 803 372"></polygon>
            <polygon id="Path" fill="#000000" points="832 340 864 340 864 372 832 372"></polygon>
            <polygon id="Path" fill="#000000" points="896 340 928 340 928 372 896 372"></polygon>
            <polygon id="Path" fill="#000000" points="61 372 93 372 93 404 61 404"></polygon>
            <polygon id="Path" fill="#000000" points="93 372 125 372 125 404 93 404"></polygon>
            <polygon id="Path" fill="#000000" points="122 372 154 372 154 404 122 404"></polygon>
            <polygon id="Path" fill="#000000" points="154 372 186 372 186 404 154 404"></polygon>
            <polygon id="Path" fill="#000000" points="246 372 278 372 278 404 246 404"></polygon>
            <polygon id="Path" fill="#000000" points="278 372 310 372 310 404 278 404"></polygon>
            <polygon id="Path" fill="#000000" points="371 372 403 372 403 404 371 404"></polygon>
            <polygon id="Path" fill="#000000" points="400 372 432 372 432 404 400 404"></polygon>
            <polygon id="Path" fill="#000000" points="464 372 496 372 496 404 464 404"></polygon>
            <polygon id="Path" fill="#000000" points="493 372 525 372 525 404 493 404"></polygon>
            <polygon id="Path" fill="#000000" points="554 372 586 372 586 404 554 404"></polygon>
            <polygon id="Path" fill="#000000" points="586 372 618 372 618 404 586 404"></polygon>
            <polygon id="Path" fill="#000000" points="803 372 835 372 835 404 803 404"></polygon>
            <polygon id="Path" fill="#000000" points="864 372 896 372 896 404 864 404"></polygon>
            <polygon id="Path" fill="#000000" points="896 372 928 372 928 404 896 404"></polygon>
            <polygon id="Path" fill="#000000" points="215 401 247 401 247 433 215 433"></polygon>
            <polygon id="Path" fill="#000000" points="246 401 278 401 278 433 246 433"></polygon>
            <polygon id="Path" fill="#000000" points="278 401 310 401 310 433 278 433"></polygon>
            <polygon id="Path" fill="#000000" points="307 401 339 401 339 433 307 433"></polygon>
            <polygon id="Path" fill="#000000" points="554 401 586 401 586 433 554 433"></polygon>
            <polygon id="Path" fill="#000000" points="618 401 650 401 650 433 618 433"></polygon>
            <polygon id="Path" fill="#000000" points="647 401 679 401 679 433 647 433"></polygon>
            <polygon id="Path" fill="#000000" points="896 401 928 401 928 433 896 433"></polygon>
            <polygon id="Path" fill="#000000" points="122 433 154 433 154 465 122 465"></polygon>
            <polygon id="Path" fill="#000000" points="278 433 310 433 310 465 278 465"></polygon>
            <polygon id="Path" fill="#000000" points="307 433 339 433 339 465 307 465"></polygon>
            <polygon id="Path" fill="#000000" points="371 433 403 433 403 465 371 465"></polygon>
            <polygon id="Path" fill="#000000" points="464 433 496 433 496 465 464 465"></polygon>
            <polygon id="Path" fill="#000000" points="525 433 557 433 557 465 525 465"></polygon>
            <polygon id="Path" fill="#000000" points="554 433 586 433 586 465 554 465"></polygon>
            <polygon id="Path" fill="#000000" points="586 433 618 433 618 465 586 465"></polygon>
            <polygon id="Path" fill="#000000" points="710 433 742 433 742 465 710 465"></polygon>
            <polygon id="Path" fill="#000000" points="771 433 803 433 803 465 771 465"></polygon>
            <polygon id="Path" fill="#000000" points="832 433 864 433 864 465 832 465"></polygon>
            <polygon id="Path" fill="#000000" points="896 433 928 433 928 465 896 465"></polygon>
            <polygon id="Path" fill="#000000" points="61 462 93 462 93 494 61 494"></polygon>
            <polygon id="Path" fill="#000000" points="93 462 125 462 125 494 93 494"></polygon>
            <polygon id="Path" fill="#000000" points="185 462 217 462 217 494 185 494"></polygon>
            <polygon id="Path" fill="#000000" points="215 462 247 462 247 494 215 494"></polygon>
            <polygon id="Path" fill="#000000" points="246 462 278 462 278 494 246 494"></polygon>
            <polygon id="Path" fill="#000000" points="307 462 339 462 339 494 307 494"></polygon>
            <polygon id="Path" fill="#000000" points="371 462 403 462 403 494 371 494"></polygon>
            <polygon id="Path" fill="#000000" points="432 462 464 462 464 494 432 494"></polygon>
            <polygon id="Path" fill="#000000" points="493 462 525 462 525 494 493 494"></polygon>
            <polygon id="Path" fill="#000000" points="586 462 618 462 618 494 586 494"></polygon>
            <polygon id="Path" fill="#000000" points="710 462 742 462 742 494 710 494"></polygon>
            <polygon id="Path" fill="#000000" points="740 462 772 462 772 494 740 494"></polygon>
            <polygon id="Path" fill="#000000" points="771 462 803 462 803 494 771 494"></polygon>
            <polygon id="Path" fill="#000000" points="864 462 896 462 896 494 864 494"></polygon>
            <polygon id="Path" fill="#000000" points="896 462 928 462 928 494 896 494"></polygon>
            <polygon id="Path" fill="#000000" points="61 494 93 494 93 526 61 526"></polygon>
            <polygon id="Path" fill="#000000" points="93 494 125 494 125 526 93 526"></polygon>
            <polygon id="Path" fill="#000000" points="122 494 154 494 154 526 122 526"></polygon>
            <polygon id="Path" fill="#000000" points="154 494 186 494 186 526 154 526"></polygon>
            <polygon id="Path" fill="#000000" points="246 494 278 494 278 526 246 526"></polygon>
            <polygon id="Path" fill="#000000" points="339 494 371 494 371 526 339 526"></polygon>
            <polygon id="Path" fill="#000000" points="371 494 403 494 403 526 371 526"></polygon>
            <polygon id="Path" fill="#000000" points="400 494 432 494 432 526 400 526"></polygon>
            <polygon id="Path" fill="#000000" points="432 494 464 494 464 526 432 526"></polygon>
            <polygon id="Path" fill="#000000" points="464 494 496 494 496 526 464 526"></polygon>
            <polygon id="Path" fill="#000000" points="525 494 557 494 557 526 525 526"></polygon>
            <polygon id="Path" fill="#000000" points="618 494 650 494 650 526 618 526"></polygon>
            <polygon id="Path" fill="#000000" points="647 494 679 494 679 526 647 526"></polygon>
            <polygon id="Path" fill="#000000" points="710 494 742 494 742 526 710 526"></polygon>
            <polygon id="Path" fill="#000000" points="740 494 772 494 772 526 740 526"></polygon>
            <polygon id="Path" fill="#000000" points="771 494 803 494 803 526 771 526"></polygon>
            <polygon id="Path" fill="#000000" points="803 494 835 494 835 526 803 526"></polygon>
            <polygon id="Path" fill="#000000" points="61 526 93 526 93 558 61 558"></polygon>
            <polygon id="Path" fill="#000000" points="154 526 186 526 186 558 154 558"></polygon>
            <polygon id="Path" fill="#000000" points="215 526 247 526 247 558 215 558"></polygon>
            <polygon id="Path" fill="#000000" points="246 526 278 526 278 558 246 558"></polygon>
            <polygon id="Path" fill="#000000" points="339 526 371 526 371 558 339 558"></polygon>
            <polygon id="Path" fill="#000000" points="400 526 432 526 432 558 400 558"></polygon>
            <polygon id="Path" fill="#000000" points="432 526 464 526 464 558 432 558"></polygon>
            <polygon id="Path" fill="#000000" points="464 526 496 526 496 558 464 558"></polygon>
            <polygon id="Path" fill="#000000" points="525 526 557 526 557 558 525 558"></polygon>
            <polygon id="Path" fill="#000000" points="647 526 679 526 679 558 647 558"></polygon>
            <polygon id="Path" fill="#000000" points="679 526 711 526 711 558 679 558"></polygon>
            <polygon id="Path" fill="#000000" points="740 526 772 526 772 558 740 558"></polygon>
            <polygon id="Path" fill="#000000" points="864 526 896 526 896 558 864 558"></polygon>
            <polygon id="Path" fill="#000000" points="896 526 928 526 928 558 896 558"></polygon>
            <polygon id="Path" fill="#000000" points="29 555 61 555 61 587 29 587"></polygon>
            <polygon id="Path" fill="#000000" points="61 555 93 555 93 587 61 587"></polygon>
            <polygon id="Path" fill="#000000" points="93 555 125 555 125 587 93 587"></polygon>
            <polygon id="Path" fill="#000000" points="122 555 154 555 154 587 122 587"></polygon>
            <polygon id="Path" fill="#000000" points="278 555 310 555 310 587 278 587"></polygon>
            <polygon id="Path" fill="#000000" points="307 555 339 555 339 587 307 587"></polygon>
            <polygon id="Path" fill="#000000" points="371 555 403 555 403 587 371 587"></polygon>
            <polygon id="Path" fill="#000000" points="400 555 432 555 432 587 400 587"></polygon>
            <polygon id="Path" fill="#000000" points="464 555 496 555 496 587 464 587"></polygon>
            <polygon id="Path" fill="#000000" points="554 555 586 555 586 587 554 587"></polygon>
            <polygon id="Path" fill="#000000" points="586 555 618 555 618 587 586 587"></polygon>
            <polygon id="Path" fill="#000000" points="618 555 650 555 650 587 618 587"></polygon>
            <polygon id="Path" fill="#000000" points="710 555 742 555 742 587 710 587"></polygon>
            <polygon id="Path" fill="#000000" points="740 555 772 555 772 587 740 587"></polygon>
            <polygon id="Path" fill="#000000" points="771 555 803 555 803 587 771 587"></polygon>
            <polygon id="Path" fill="#000000" points="803 555 835 555 835 587 803 587"></polygon>
            <polygon id="Path" fill="#000000" points="832 555 864 555 864 587 832 587"></polygon>
            <polygon id="Path" fill="#000000" points="896 555 928 555 928 587 896 587"></polygon>
            <polygon id="Path" fill="#000000" points="93 587 125 587 125 619 93 619"></polygon>
            <polygon id="Path" fill="#000000" points="122 587 154 587 154 619 122 619"></polygon>
            <polygon id="Path" fill="#000000" points="154 587 186 587 186 619 154 619"></polygon>
            <polygon id="Path" fill="#000000" points="185 587 217 587 217 619 185 619"></polygon>
            <polygon id="Path" fill="#000000" points="215 587 247 587 247 619 215 619"></polygon>
            <polygon id="Path" fill="#000000" points="307 587 339 587 339 619 307 619"></polygon>
            <polygon id="Path" fill="#000000" points="432 587 464 587 464 619 432 619"></polygon>
            <polygon id="Path" fill="#000000" points="464 587 496 587 496 619 464 619"></polygon>
            <polygon id="Path" fill="#000000" points="493 587 525 587 525 619 493 619"></polygon>
            <polygon id="Path" fill="#000000" points="586 587 618 587 618 619 586 619"></polygon>
            <polygon id="Path" fill="#000000" points="618 587 650 587 650 619 618 619"></polygon>
            <polygon id="Path" fill="#000000" points="771 587 803 587 803 619 771 619"></polygon>
            <polygon id="Path" fill="#000000" points="803 587 835 587 835 619 803 619"></polygon>
            <polygon id="Path" fill="#000000" points="896 587 928 587 928 619 896 619"></polygon>
            <polygon id="Path" fill="#000000" points="93 619 125 619 125 651 93 651"></polygon>
            <polygon id="Path" fill="#000000" points="122 619 154 619 154 651 122 651"></polygon>
            <polygon id="Path" fill="#000000" points="154 619 186 619 186 651 154 651"></polygon>
            <polygon id="Path" fill="#000000" points="246 619 278 619 278 651 246 651"></polygon>
            <polygon id="Path" fill="#000000" points="307 619 339 619 339 651 307 651"></polygon>
            <polygon id="Path" fill="#000000" points="339 619 371 619 371 651 339 651"></polygon>
            <polygon id="Path" fill="#000000" points="400 619 432 619 432 651 400 651"></polygon>
            <polygon id="Path" fill="#000000" points="493 619 525 619 525 651 493 651"></polygon>
            <polygon id="Path" fill="#000000" points="525 619 557 619 557 651 525 651"></polygon>
            <polygon id="Path" fill="#000000" points="554 619 586 619 586 651 554 651"></polygon>
            <polygon id="Path" fill="#000000" points="618 619 650 619 650 651 618 651"></polygon>
            <polygon id="Path" fill="#000000" points="647 619 679 619 679 651 647 651"></polygon>
            <polygon id="Path" fill="#000000" points="803 619 835 619 835 651 803 651"></polygon>
            <polygon id="Path" fill="#000000" points="864 619 896 619 896 651 864 651"></polygon>
            <polygon id="Path" fill="#000000" points="896 619 928 619 928 651 896 651"></polygon>
            <polygon id="Path" fill="#000000" points="29 648 61 648 61 680 29 680"></polygon>
            <polygon id="Path" fill="#000000" points="61 648 93 648 93 680 61 680"></polygon>
            <polygon id="Path" fill="#000000" points="93 648 125 648 125 680 93 680"></polygon>
            <polygon id="Path" fill="#000000" points="215 648 247 648 247 680 215 680"></polygon>
            <polygon id="Path" fill="#000000" points="246 648 278 648 278 680 246 680"></polygon>
            <polygon id="Path" fill="#000000" points="339 648 371 648 371 680 339 680"></polygon>
            <polygon id="Path" fill="#000000" points="371 648 403 648 403 680 371 680"></polygon>
            <polygon id="Path" fill="#000000" points="432 648 464 648 464 680 432 680"></polygon>
            <polygon id="Path" fill="#000000" points="464 648 496 648 496 680 464 680"></polygon>
            <polygon id="Path" fill="#000000" points="525 648 557 648 557 680 525 680"></polygon>
            <polygon id="Path" fill="#000000" points="554 648 586 648 586 680 554 680"></polygon>
            <polygon id="Path" fill="#000000" points="647 648 679 648 679 680 647 680"></polygon>
            <polygon id="Path" fill="#000000" points="679 648 711 648 711 680 679 680"></polygon>
            <polygon id="Path" fill="#000000" points="710 648 742 648 742 680 710 680"></polygon>
            <polygon id="Path" fill="#000000" points="740 648 772 648 772 680 740 680"></polygon>
            <polygon id="Path" fill="#000000" points="771 648 803 648 803 680 771 680"></polygon>
            <polygon id="Path" fill="#000000" points="803 648 835 648 835 680 803 680"></polygon>
            <polygon id="Path" fill="#000000" points="896 648 928 648 928 680 896 680"></polygon>
            <polygon id="Path" fill="#000000" points="278 680 310 680 310 712 278 712"></polygon>
            <polygon id="Path" fill="#000000" points="432 680 464 680 464 712 432 712"></polygon>
            <polygon id="Path" fill="#000000" points="493 680 525 680 525 712 493 712"></polygon>
            <polygon id="Path" fill="#000000" points="525 680 557 680 557 712 525 712"></polygon>
            <polygon id="Path" fill="#000000" points="586 680 618 680 618 712 586 712"></polygon>
            <polygon id="Path" fill="#000000" points="618 680 650 680 650 712 618 712"></polygon>
            <polygon id="Path" fill="#000000" points="647 680 679 680 679 712 647 712"></polygon>
            <polygon id="Path" fill="#000000" points="771 680 803 680 803 712 771 712"></polygon>
            <polygon id="Path" fill="#000000" points="832 680 864 680 864 712 832 712"></polygon>
            <polygon id="Path" fill="#000000" points="896 680 928 680 928 712 896 712"></polygon>
            <polygon id="Path" fill="#000000" points="29 709 61 709 61 741 29 741"></polygon>
            <polygon id="Path" fill="#000000" points="61 709 93 709 93 741 61 741"></polygon>
            <polygon id="Path" fill="#000000" points="93 709 125 709 125 741 93 741"></polygon>
            <polygon id="Path" fill="#000000" points="122 709 154 709 154 741 122 741"></polygon>
            <polygon id="Path" fill="#000000" points="154 709 186 709 186 741 154 741"></polygon>
            <polygon id="Path" fill="#000000" points="185 709 217 709 217 741 185 741"></polygon>
            <polygon id="Path" fill="#000000" points="215 709 247 709 247 741 215 741"></polygon>
            <polygon id="Path" fill="#000000" points="307 709 339 709 339 741 307 741"></polygon>
            <polygon id="Path" fill="#000000" points="464 709 496 709 496 741 464 741"></polygon>
            <polygon id="Path" fill="#000000" points="493 709 525 709 525 741 493 741"></polygon>
            <polygon id="Path" fill="#000000" points="525 709 557 709 557 741 525 741"></polygon>
            <polygon id="Path" fill="#000000" points="554 709 586 709 586 741 554 741"></polygon>
            <polygon id="Path" fill="#000000" points="618 709 650 709 650 741 618 741"></polygon>
            <polygon id="Path" fill="#000000" points="647 709 679 709 679 741 647 741"></polygon>
            <polygon id="Path" fill="#000000" points="710 709 742 709 742 741 710 741"></polygon>
            <polygon id="Path" fill="#000000" points="771 709 803 709 803 741 771 741"></polygon>
            <polygon id="Path" fill="#000000" points="896 709 928 709 928 741 896 741"></polygon>
            <polygon id="Path" fill="#000000" points="29 741 61 741 61 773 29 773"></polygon>
            <polygon id="Path" fill="#000000" points="215 741 247 741 247 773 215 773"></polygon>
            <polygon id="Path" fill="#000000" points="307 741 339 741 339 773 307 773"></polygon>
            <polygon id="Path" fill="#000000" points="371 741 403 741 403 773 371 773"></polygon>
            <polygon id="Path" fill="#000000" points="554 741 586 741 586 773 554 773"></polygon>
            <polygon id="Path" fill="#000000" points="586 741 618 741 618 773 586 773"></polygon>
            <polygon id="Path" fill="#000000" points="618 741 650 741 650 773 618 773"></polygon>
            <polygon id="Path" fill="#000000" points="647 741 679 741 679 773 647 773"></polygon>
            <polygon id="Path" fill="#000000" points="771 741 803 741 803 773 771 773"></polygon>
            <polygon id="Path" fill="#000000" points="803 741 835 741 835 773 803 773"></polygon>
            <polygon id="Path" fill="#000000" points="864 741 896 741 896 773 864 773"></polygon>
            <polygon id="Path" fill="#000000" points="896 741 928 741 928 773 896 773"></polygon>
            <polygon id="Path" fill="#000000" points="29 772 61 772 61 804 29 804"></polygon>
            <polygon id="Path" fill="#000000" points="93 772 125 772 125 804 93 804"></polygon>
            <polygon id="Path" fill="#000000" points="122 772 154 772 154 804 122 804"></polygon>
            <polygon id="Path" fill="#000000" points="154 772 186 772 186 804 154 804"></polygon>
            <polygon id="Path" fill="#000000" points="215 772 247 772 247 804 215 804"></polygon>
            <polygon id="Path" fill="#000000" points="278 772 310 772 310 804 278 804"></polygon>
            <polygon id="Path" fill="#000000" points="339 772 371 772 371 804 339 804"></polygon>
            <polygon id="Path" fill="#000000" points="371 772 403 772 403 804 371 804"></polygon>
            <polygon id="Path" fill="#000000" points="400 772 432 772 432 804 400 804"></polygon>
            <polygon id="Path" fill="#000000" points="464 772 496 772 496 804 464 804"></polygon>
            <polygon id="Path" fill="#000000" points="493 772 525 772 525 804 493 804"></polygon>
            <polygon id="Path" fill="#000000" points="586 772 618 772 618 804 586 804"></polygon>
            <polygon id="Path" fill="#000000" points="618 772 650 772 650 804 618 804"></polygon>
            <polygon id="Path" fill="#000000" points="647 772 679 772 679 804 647 804"></polygon>
            <polygon id="Path" fill="#000000" points="679 772 711 772 711 804 679 804"></polygon>
            <polygon id="Path" fill="#000000" points="710 772 742 772 742 804 710 804"></polygon>
            <polygon id="Path" fill="#000000" points="740 772 772 772 772 804 740 804"></polygon>
            <polygon id="Path" fill="#000000" points="771 772 803 772 803 804 771 804"></polygon>
            <polygon id="Path" fill="#000000" points="864 772 896 772 896 804 864 804"></polygon>
            <polygon id="Path" fill="#000000" points="29 802 61 802 61 834 29 834"></polygon>
            <polygon id="Path" fill="#000000" points="93 802 125 802 125 834 93 834"></polygon>
            <polygon id="Path" fill="#000000" points="122 802 154 802 154 834 122 834"></polygon>
            <polygon id="Path" fill="#000000" points="154 802 186 802 186 834 154 834"></polygon>
            <polygon id="Path" fill="#000000" points="215 802 247 802 247 834 215 834"></polygon>
            <polygon id="Path" fill="#000000" points="307 802 339 802 339 834 307 834"></polygon>
            <polygon id="Path" fill="#000000" points="339 802 371 802 371 834 339 834"></polygon>
            <polygon id="Path" fill="#000000" points="371 802 403 802 403 834 371 834"></polygon>
            <polygon id="Path" fill="#000000" points="400 802 432 802 432 834 400 834"></polygon>
            <polygon id="Path" fill="#000000" points="464 802 496 802 496 834 464 834"></polygon>
            <polygon id="Path" fill="#000000" points="525 802 557 802 557 834 525 834"></polygon>
            <polygon id="Path" fill="#000000" points="554 802 586 802 586 834 554 834"></polygon>
            <polygon id="Path" fill="#000000" points="679 802 711 802 711 834 679 834"></polygon>
            <polygon id="Path" fill="#000000" points="740 802 772 802 772 834 740 834"></polygon>
            <polygon id="Path" fill="#000000" points="803 802 835 802 835 834 803 834"></polygon>
            <polygon id="Path" fill="#000000" points="864 802 896 802 896 834 864 834"></polygon>
            <polygon id="Path" fill="#000000" points="29 834 61 834 61 866 29 866"></polygon>
            <polygon id="Path" fill="#000000" points="93 834 125 834 125 866 93 866"></polygon>
            <polygon id="Path" fill="#000000" points="122 834 154 834 154 866 122 866"></polygon>
            <polygon id="Path" fill="#000000" points="154 834 186 834 186 866 154 866"></polygon>
            <polygon id="Path" fill="#000000" points="215 834 247 834 247 866 215 866"></polygon>
            <polygon id="Path" fill="#000000" points="339 834 371 834 371 866 339 866"></polygon>
            <polygon id="Path" fill="#000000" points="400 834 432 834 432 866 400 866"></polygon>
            <polygon id="Path" fill="#000000" points="525 834 557 834 557 866 525 866"></polygon>
            <polygon id="Path" fill="#000000" points="618 834 650 834 650 866 618 866"></polygon>
            <polygon id="Path" fill="#000000" points="647 834 679 834 679 866 647 866"></polygon>
            <polygon id="Path" fill="#000000" points="679 834 711 834 711 866 679 866"></polygon>
            <polygon id="Path" fill="#000000" points="740 834 772 834 772 866 740 866"></polygon>
            <polygon id="Path" fill="#000000" points="832 834 864 834 864 866 832 866"></polygon>
            <polygon id="Path" fill="#000000" points="864 834 896 834 896 866 864 866"></polygon>
            <polygon id="Path" fill="#000000" points="896 834 928 834 928 866 896 866"></polygon>
            <polygon id="Path" fill="#000000" points="29 863 61 863 61 895 29 895"></polygon>
            <polygon id="Path" fill="#000000" points="215 863 247 863 247 895 215 895"></polygon>
            <polygon id="Path" fill="#000000" points="278 863 310 863 310 895 278 895"></polygon>
            <polygon id="Path" fill="#000000" points="307 863 339 863 339 895 307 895"></polygon>
            <polygon id="Path" fill="#000000" points="371 863 403 863 403 895 371 895"></polygon>
            <polygon id="Path" fill="#000000" points="554 863 586 863 586 895 554 895"></polygon>
            <polygon id="Path" fill="#000000" points="586 863 618 863 618 895 586 895"></polygon>
            <polygon id="Path" fill="#000000" points="679 863 711 863 711 895 679 895"></polygon>
            <polygon id="Path" fill="#000000" points="710 863 742 863 742 895 710 895"></polygon>
            <polygon id="Path" fill="#000000" points="740 863 772 863 772 895 740 895"></polygon>
            <polygon id="Path" fill="#000000" points="864 863 896 863 896 895 864 895"></polygon>
            <polygon id="Path" fill="#000000" points="896 863 928 863 928 895 896 895"></polygon>
            <polygon id="Path" fill="#000000" points="29 895 61 895 61 927 29 927"></polygon>
            <polygon id="Path" fill="#000000" points="61 895 93 895 93 927 61 927"></polygon>
            <polygon id="Path" fill="#000000" points="93 895 125 895 125 927 93 927"></polygon>
            <polygon id="Path" fill="#000000" points="122 895 154 895 154 927 122 927"></polygon>
            <polygon id="Path" fill="#000000" points="154 895 186 895 186 927 154 927"></polygon>
            <polygon id="Path" fill="#000000" points="185 895 217 895 217 927 185 927"></polygon>
            <polygon id="Path" fill="#000000" points="215 895 247 895 247 927 215 927"></polygon>
            <polygon id="Path" fill="#000000" points="493 895 525 895 525 927 493 927"></polygon>
            <polygon id="Path" fill="#000000" points="554 895 586 895 586 927 554 927"></polygon>
            <polygon id="Path" fill="#000000" points="586 895 618 895 618 927 586 927"></polygon>
            <polygon id="Path" fill="#000000" points="618 895 650 895 650 927 618 927"></polygon>
            <polygon id="Path" fill="#000000" points="647 895 679 895 679 927 647 927"></polygon>
            <polygon id="Path" fill="#000000" points="710 895 742 895 742 927 710 927"></polygon>
            <polygon id="Path" fill="#000000" points="771 895 803 895 803 927 771 927"></polygon>
            <polygon id="Path" fill="#000000" points="864 895 896 895 896 927 864 927"></polygon>
        </g>
    </g>
</svg>