<svg height="895" viewBox="0 0 899 895" width="899" xmlns="http://www.w3.org/2000/svg"><g fill="none" transform="translate(-29 -32)"><path d="m0 0h957v955h-957z"/><g fill="#000"><path d="m29 32h32v32h-32z"/><path d="m61 32h32v32h-32z"/><path d="m93 32h32v32h-32z"/><path d="m122 32h32v32h-32z"/><path d="m154 32h32v32h-32z"/><path d="m185 32h32v32h-32z"/><path d="m215 32h32v32h-32z"/><path d="m339 32h32v32h-32z"/><path d="m371 32h32v32h-32z"/><path d="m464 32h32v32h-32z"/><path d="m493 32h32v32h-32z"/><path d="m554 32h32v32h-32z"/><path d="m586 32h32v32h-32z"/><path d="m618 32h32v32h-32z"/><path d="m710 32h32v32h-32z"/><path d="m740 32h32v32h-32z"/><path d="m771 32h32v32h-32z"/><path d="m803 32h32v32h-32z"/><path d="m832 32h32v32h-32z"/><path d="m864 32h32v32h-32z"/><path d="m896 32h32v32h-32z"/><path d="m29 64h32v32h-32z"/><path d="m215 64h32v32h-32z"/><path d="m307 64h32v32h-32z"/><path d="m339 64h32v32h-32z"/><path d="m371 64h32v32h-32z"/><path d="m432 64h32v32h-32z"/><path d="m464 64h32v32h-32z"/><path d="m525 64h32v32h-32z"/><path d="m647 64h32v32h-32z"/><path d="m710 64h32v32h-32z"/><path d="m896 64h32v32h-32z"/><path d="m29 93h32v32h-32z"/><path d="m93 93h32v32h-32z"/><path d="m122 93h32v32h-32z"/><path d="m154 93h32v32h-32z"/><path d="m215 93h32v32h-32z"/><path d="m278 93h32v32h-32z"/><path d="m307 93h32v32h-32z"/><path d="m371 93h32v32h-32z"/><path d="m464 93h32v32h-32z"/><path d="m493 93h32v32h-32z"/><path d="m554 93h32v32h-32z"/><path d="m618 93h32v32h-32z"/><path d="m647 93h32v32h-32z"/><path d="m710 93h32v32h-32z"/><path d="m771 93h32v32h-32z"/><path d="m803 93h32v32h-32z"/><path d="m832 93h32v32h-32z"/><path d="m896 93h32v32h-32z"/><path d="m29 125h32v32h-32z"/><path d="m93 125h32v32h-32z"/><path d="m122 125h32v32h-32z"/><path d="m154 125h32v32h-32z"/><path d="m215 125h32v32h-32z"/><path d="m307 125h32v32h-32z"/><path d="m371 125h32v32h-32z"/><path d="m432 125h32v32h-32z"/><path d="m464 125h32v32h-32z"/><path d="m493 125h32v32h-32z"/><path d="m586 125h32v32h-32z"/><path d="m618 125h32v32h-32z"/><path d="m710 125h32v32h-32z"/><path d="m771 125h32v32h-32z"/><path d="m803 125h32v32h-32z"/><path d="m832 125h32v32h-32z"/><path d="m896 125h32v32h-32z"/><path d="m29 154h32v32h-32z"/><path d="m93 154h32v32h-32z"/><path d="m122 154h32v32h-32z"/><path d="m154 154h32v32h-32z"/><path d="m215 154h32v32h-32z"/><path d="m278 154h32v32h-32z"/><path d="m339 154h32v32h-32z"/><path d="m432 154h32v32h-32z"/><path d="m464 154h32v32h-32z"/><path d="m525 154h32v32h-32z"/><path d="m586 154h32v32h-32z"/><path d="m710 154h32v32h-32z"/><path d="m771 154h32v32h-32z"/><path d="m803 154h32v32h-32z"/><path d="m832 154h32v32h-32z"/><path d="m896 154h32v32h-32z"/><path d="m29 186h32v32h-32z"/><path d="m215 186h32v32h-32z"/><path d="m278 186h32v32h-32z"/><path d="m307 186h32v32h-32z"/><path d="m339 186h32v32h-32z"/><path d="m432 186h32v32h-32z"/><path d="m464 186h32v32h-32z"/><path d="m525 186h32v32h-32z"/><path d="m586 186h32v32h-32z"/><path d="m618 186h32v32h-32z"/><path d="m710 186h32v32h-32z"/><path d="m896 186h32v32h-32z"/><path d="m29 218h32v32h-32z"/><path d="m61 218h32v32h-32z"/><path d="m93 218h32v32h-32z"/><path d="m122 218h32v32h-32z"/><path d="m154 218h32v32h-32z"/><path d="m185 218h32v32h-32z"/><path d="m215 218h32v32h-32z"/><path d="m278 218h32v32h-32z"/><path d="m339 218h32v32h-32z"/><path d="m400 218h32v32h-32z"/><path d="m464 218h32v32h-32z"/><path d="m525 218h32v32h-32z"/><path d="m586 218h32v32h-32z"/><path d="m647 218h32v32h-32z"/><path d="m710 218h32v32h-32z"/><path d="m740 218h32v32h-32z"/><path d="m771 218h32v32h-32z"/><path d="m803 218h32v32h-32z"/><path d="m832 218h32v32h-32z"/><path d="m864 218h32v32h-32z"/><path d="m896 218h32v32h-32z"/><path d="m339 247h32v32h-32z"/><path d="m432 247h32v32h-32z"/><path d="m493 247h32v32h-32z"/><path d="m525 247h32v32h-32z"/><path d="m554 247h32v32h-32z"/><path d="m586 247h32v32h-32z"/><path d="m647 247h32v32h-32z"/><path d="m61 279h32v32h-32z"/><path d="m154 279h32v32h-32z"/><path d="m215 279h32v32h-32z"/><path d="m278 279h32v32h-32z"/><path d="m400 279h32v32h-32z"/><path d="m432 279h32v32h-32z"/><path d="m464 279h32v32h-32z"/><path d="m525 279h32v32h-32z"/><path d="m586 279h32v32h-32z"/><path d="m618 279h32v32h-32z"/><path d="m679 279h32v32h-32z"/><path d="m740 279h32v32h-32z"/><path d="m771 279h32v32h-32z"/><path d="m832 279h32v32h-32z"/><path d="m29 308h32v32h-32z"/><path d="m61 308h32v32h-32z"/><path d="m93 308h32v32h-32z"/><path d="m122 308h32v32h-32z"/><path d="m185 308h32v32h-32z"/><path d="m371 308h32v32h-32z"/><path d="m525 308h32v32h-32z"/><path d="m554 308h32v32h-32z"/><path d="m618 308h32v32h-32z"/><path d="m647 308h32v32h-32z"/><path d="m679 308h32v32h-32z"/><path d="m710 308h32v32h-32z"/><path d="m740 308h32v32h-32z"/><path d="m771 308h32v32h-32z"/><path d="m864 308h32v32h-32z"/><path d="m896 308h32v32h-32z"/><path d="m61 340h32v32h-32z"/><path d="m93 340h32v32h-32z"/><path d="m122 340h32v32h-32z"/><path d="m215 340h32v32h-32z"/><path d="m278 340h32v32h-32z"/><path d="m339 340h32v32h-32z"/><path d="m432 340h32v32h-32z"/><path d="m464 340h32v32h-32z"/><path d="m493 340h32v32h-32z"/><path d="m525 340h32v32h-32z"/><path d="m554 340h32v32h-32z"/><path d="m647 340h32v32h-32z"/><path d="m771 340h32v32h-32z"/><path d="m803 340h32v32h-32z"/><path d="m832 340h32v32h-32z"/><path d="m896 340h32v32h-32z"/><path d="m61 372h32v32h-32z"/><path d="m93 372h32v32h-32z"/><path d="m122 372h32v32h-32z"/><path d="m154 372h32v32h-32z"/><path d="m246 372h32v32h-32z"/><path d="m278 372h32v32h-32z"/><path d="m371 372h32v32h-32z"/><path d="m400 372h32v32h-32z"/><path d="m464 372h32v32h-32z"/><path d="m493 372h32v32h-32z"/><path d="m554 372h32v32h-32z"/><path d="m586 372h32v32h-32z"/><path d="m803 372h32v32h-32z"/><path d="m864 372h32v32h-32z"/><path d="m896 372h32v32h-32z"/><path d="m215 401h32v32h-32z"/><path d="m246 401h32v32h-32z"/><path d="m278 401h32v32h-32z"/><path d="m307 401h32v32h-32z"/><path d="m554 401h32v32h-32z"/><path d="m618 401h32v32h-32z"/><path d="m647 401h32v32h-32z"/><path d="m896 401h32v32h-32z"/><path d="m122 433h32v32h-32z"/><path d="m278 433h32v32h-32z"/><path d="m307 433h32v32h-32z"/><path d="m371 433h32v32h-32z"/><path d="m464 433h32v32h-32z"/><path d="m525 433h32v32h-32z"/><path d="m554 433h32v32h-32z"/><path d="m586 433h32v32h-32z"/><path d="m710 433h32v32h-32z"/><path d="m771 433h32v32h-32z"/><path d="m832 433h32v32h-32z"/><path d="m896 433h32v32h-32z"/><path d="m61 462h32v32h-32z"/><path d="m93 462h32v32h-32z"/><path d="m185 462h32v32h-32z"/><path d="m215 462h32v32h-32z"/><path d="m246 462h32v32h-32z"/><path d="m307 462h32v32h-32z"/><path d="m371 462h32v32h-32z"/><path d="m432 462h32v32h-32z"/><path d="m493 462h32v32h-32z"/><path d="m586 462h32v32h-32z"/><path d="m710 462h32v32h-32z"/><path d="m740 462h32v32h-32z"/><path d="m771 462h32v32h-32z"/><path d="m864 462h32v32h-32z"/><path d="m896 462h32v32h-32z"/><path d="m61 494h32v32h-32z"/><path d="m93 494h32v32h-32z"/><path d="m122 494h32v32h-32z"/><path d="m154 494h32v32h-32z"/><path d="m246 494h32v32h-32z"/><path d="m339 494h32v32h-32z"/><path d="m371 494h32v32h-32z"/><path d="m400 494h32v32h-32z"/><path d="m432 494h32v32h-32z"/><path d="m464 494h32v32h-32z"/><path d="m525 494h32v32h-32z"/><path d="m618 494h32v32h-32z"/><path d="m647 494h32v32h-32z"/><path d="m710 494h32v32h-32z"/><path d="m740 494h32v32h-32z"/><path d="m771 494h32v32h-32z"/><path d="m803 494h32v32h-32z"/><path d="m61 526h32v32h-32z"/><path d="m154 526h32v32h-32z"/><path d="m215 526h32v32h-32z"/><path d="m246 526h32v32h-32z"/><path d="m339 526h32v32h-32z"/><path d="m400 526h32v32h-32z"/><path d="m432 526h32v32h-32z"/><path d="m464 526h32v32h-32z"/><path d="m525 526h32v32h-32z"/><path d="m647 526h32v32h-32z"/><path d="m679 526h32v32h-32z"/><path d="m740 526h32v32h-32z"/><path d="m864 526h32v32h-32z"/><path d="m896 526h32v32h-32z"/><path d="m29 555h32v32h-32z"/><path d="m61 555h32v32h-32z"/><path d="m93 555h32v32h-32z"/><path d="m122 555h32v32h-32z"/><path d="m278 555h32v32h-32z"/><path d="m307 555h32v32h-32z"/><path d="m371 555h32v32h-32z"/><path d="m400 555h32v32h-32z"/><path d="m464 555h32v32h-32z"/><path d="m554 555h32v32h-32z"/><path d="m586 555h32v32h-32z"/><path d="m618 555h32v32h-32z"/><path d="m710 555h32v32h-32z"/><path d="m740 555h32v32h-32z"/><path d="m771 555h32v32h-32z"/><path d="m803 555h32v32h-32z"/><path d="m832 555h32v32h-32z"/><path d="m896 555h32v32h-32z"/><path d="m93 587h32v32h-32z"/><path d="m122 587h32v32h-32z"/><path d="m154 587h32v32h-32z"/><path d="m185 587h32v32h-32z"/><path d="m215 587h32v32h-32z"/><path d="m307 587h32v32h-32z"/><path d="m432 587h32v32h-32z"/><path d="m464 587h32v32h-32z"/><path d="m493 587h32v32h-32z"/><path d="m586 587h32v32h-32z"/><path d="m618 587h32v32h-32z"/><path d="m771 587h32v32h-32z"/><path d="m803 587h32v32h-32z"/><path d="m896 587h32v32h-32z"/><path d="m93 619h32v32h-32z"/><path d="m122 619h32v32h-32z"/><path d="m154 619h32v32h-32z"/><path d="m246 619h32v32h-32z"/><path d="m307 619h32v32h-32z"/><path d="m339 619h32v32h-32z"/><path d="m400 619h32v32h-32z"/><path d="m493 619h32v32h-32z"/><path d="m525 619h32v32h-32z"/><path d="m554 619h32v32h-32z"/><path d="m618 619h32v32h-32z"/><path d="m647 619h32v32h-32z"/><path d="m803 619h32v32h-32z"/><path d="m864 619h32v32h-32z"/><path d="m896 619h32v32h-32z"/><path d="m29 648h32v32h-32z"/><path d="m61 648h32v32h-32z"/><path d="m93 648h32v32h-32z"/><path d="m215 648h32v32h-32z"/><path d="m246 648h32v32h-32z"/><path d="m339 648h32v32h-32z"/><path d="m371 648h32v32h-32z"/><path d="m432 648h32v32h-32z"/><path d="m464 648h32v32h-32z"/><path d="m525 648h32v32h-32z"/><path d="m554 648h32v32h-32z"/><path d="m647 648h32v32h-32z"/><path d="m679 648h32v32h-32z"/><path d="m710 648h32v32h-32z"/><path d="m740 648h32v32h-32z"/><path d="m771 648h32v32h-32z"/><path d="m803 648h32v32h-32z"/><path d="m896 648h32v32h-32z"/><path d="m278 680h32v32h-32z"/><path d="m432 680h32v32h-32z"/><path d="m493 680h32v32h-32z"/><path d="m525 680h32v32h-32z"/><path d="m586 680h32v32h-32z"/><path d="m618 680h32v32h-32z"/><path d="m647 680h32v32h-32z"/><path d="m771 680h32v32h-32z"/><path d="m832 680h32v32h-32z"/><path d="m896 680h32v32h-32z"/><path d="m29 709h32v32h-32z"/><path d="m61 709h32v32h-32z"/><path d="m93 709h32v32h-32z"/><path d="m122 709h32v32h-32z"/><path d="m154 709h32v32h-32z"/><path d="m185 709h32v32h-32z"/><path d="m215 709h32v32h-32z"/><path d="m307 709h32v32h-32z"/><path d="m464 709h32v32h-32z"/><path d="m493 709h32v32h-32z"/><path d="m525 709h32v32h-32z"/><path d="m554 709h32v32h-32z"/><path d="m618 709h32v32h-32z"/><path d="m647 709h32v32h-32z"/><path d="m710 709h32v32h-32z"/><path d="m771 709h32v32h-32z"/><path d="m896 709h32v32h-32z"/><path d="m29 741h32v32h-32z"/><path d="m215 741h32v32h-32z"/><path d="m307 741h32v32h-32z"/><path d="m371 741h32v32h-32z"/><path d="m554 741h32v32h-32z"/><path d="m586 741h32v32h-32z"/><path d="m618 741h32v32h-32z"/><path d="m647 741h32v32h-32z"/><path d="m771 741h32v32h-32z"/><path d="m803 741h32v32h-32z"/><path d="m864 741h32v32h-32z"/><path d="m896 741h32v32h-32z"/><path d="m29 772h32v32h-32z"/><path d="m93 772h32v32h-32z"/><path d="m122 772h32v32h-32z"/><path d="m154 772h32v32h-32z"/><path d="m215 772h32v32h-32z"/><path d="m278 772h32v32h-32z"/><path d="m339 772h32v32h-32z"/><path d="m371 772h32v32h-32z"/><path d="m400 772h32v32h-32z"/><path d="m464 772h32v32h-32z"/><path d="m493 772h32v32h-32z"/><path d="m586 772h32v32h-32z"/><path d="m618 772h32v32h-32z"/><path d="m647 772h32v32h-32z"/><path d="m679 772h32v32h-32z"/><path d="m710 772h32v32h-32z"/><path d="m740 772h32v32h-32z"/><path d="m771 772h32v32h-32z"/><path d="m864 772h32v32h-32z"/><path d="m29 802h32v32h-32z"/><path d="m93 802h32v32h-32z"/><path d="m122 802h32v32h-32z"/><path d="m154 802h32v32h-32z"/><path d="m215 802h32v32h-32z"/><path d="m307 802h32v32h-32z"/><path d="m339 802h32v32h-32z"/><path d="m371 802h32v32h-32z"/><path d="m400 802h32v32h-32z"/><path d="m464 802h32v32h-32z"/><path d="m525 802h32v32h-32z"/><path d="m554 802h32v32h-32z"/><path d="m679 802h32v32h-32z"/><path d="m740 802h32v32h-32z"/><path d="m803 802h32v32h-32z"/><path d="m864 802h32v32h-32z"/><path d="m29 834h32v32h-32z"/><path d="m93 834h32v32h-32z"/><path d="m122 834h32v32h-32z"/><path d="m154 834h32v32h-32z"/><path d="m215 834h32v32h-32z"/><path d="m339 834h32v32h-32z"/><path d="m400 834h32v32h-32z"/><path d="m525 834h32v32h-32z"/><path d="m618 834h32v32h-32z"/><path d="m647 834h32v32h-32z"/><path d="m679 834h32v32h-32z"/><path d="m740 834h32v32h-32z"/><path d="m832 834h32v32h-32z"/><path d="m864 834h32v32h-32z"/><path d="m896 834h32v32h-32z"/><path d="m29 863h32v32h-32z"/><path d="m215 863h32v32h-32z"/><path d="m278 863h32v32h-32z"/><path d="m307 863h32v32h-32z"/><path d="m371 863h32v32h-32z"/><path d="m554 863h32v32h-32z"/><path d="m586 863h32v32h-32z"/><path d="m679 863h32v32h-32z"/><path d="m710 863h32v32h-32z"/><path d="m740 863h32v32h-32z"/><path d="m864 863h32v32h-32z"/><path d="m896 863h32v32h-32z"/><path d="m29 895h32v32h-32z"/><path d="m61 895h32v32h-32z"/><path d="m93 895h32v32h-32z"/><path d="m122 895h32v32h-32z"/><path d="m154 895h32v32h-32z"/><path d="m185 895h32v32h-32z"/><path d="m215 895h32v32h-32z"/><path d="m493 895h32v32h-32z"/><path d="m554 895h32v32h-32z"/><path d="m586 895h32v32h-32z"/><path d="m618 895h32v32h-32z"/><path d="m647 895h32v32h-32z"/><path d="m710 895h32v32h-32z"/><path d="m771 895h32v32h-32z"/><path d="m864 895h32v32h-32z"/></g></g></svg>