<svg height="218" viewBox="0 0 1475 218" width="1475" xmlns="http://www.w3.org/2000/svg"><path d="m47.0719373 425.660248h47.6715799c8.3950368 0 15.2908568-1.999063 20.6876668-5.997249s8.095174-10.495141 8.095174-19.49106c0-4.997732-.899455-9.095811-2.698391-12.29436-1.798937-3.198549-4.197483-5.697377-7.195711-7.496561-2.998227-1.799184-6.446137-3.048598-10.343833-3.748281-3.8976958-.699682-7.9452423-1.049518-12.1427609-1.049518h-44.0737248zm-47.0719373-86.660248h100.739942c10.193974 0 19.48834.899578 27.883377 2.698762s15.590676 4.747802 21.587131 8.845942c5.996455 4.098141 10.643638 9.545588 13.941688 16.342504s4.947051 15.19298 4.947051 25.188445c0 10.795102-2.448516 19.790886-7.345621 26.987621-4.897105 7.196734-12.142713 13.09397-21.737041 17.691884 13.192201 3.798277 23.036234 10.445161 29.532394 19.940853 6.496159 9.495692 9.744191 20.940327 9.744191 34.33425 0 10.795102-2.098728 20.140722-6.296247 28.037139-4.197518 7.896418-9.844096 14.343396-16.939901 19.341128-7.095805 4.997733-15.190898 8.695999-24.285522 11.094911-9.094623 2.398911-18.438959 3.598349-28.033287 3.598349h-103.738155zm47.0719373 177.518569h50.3699712c4.5972825 0 8.9946165-.449789 13.1921355-1.349381 4.197518-.899591 7.895277-2.398889 11.093386-4.497936 3.19811-2.099048 5.746565-4.947713 7.645442-8.54608 1.898878-3.598367 2.848302-8.196212 2.848302-13.793673 0-10.995011-3.098122-18.841333-9.294459-23.539202-6.196337-4.697868-14.391369-7.046767-24.5853427-7.046767h-51.269435zm159.5581377-70.767537c.599645-9.995465 3.098131-18.291577 7.495531-24.888584 4.397401-6.597006 9.994008-11.894523 16.789991-15.892709 6.795982-3.998186 14.441348-6.846851 22.936326-8.54608s17.039798-2.548831 25.634717-2.548831c7.795392 0 15.690606.549742 23.685879 1.649244 7.995274 1.099501 15.290852 3.248493 21.886952 6.447042 6.596101 3.198549 11.992829 7.646464 16.190348 13.343879s6.296246 13.243878 6.296246 22.639615v80.662999c0 6.996825.399758 13.693686 1.199285 20.090784.799528 6.397097 2.19868 11.194848 4.197498 14.393397h-43.174261c-.799527-2.398911-1.449133-4.847764-1.948838-7.34663s-.849493-5.047671-1.049374-7.646492c-6.795983 6.996825-14.791137 11.89453-23.985701 14.69326-9.194565 2.79873-18.58887 4.198074-28.183198 4.198074-7.395628 0-14.291448-.899578-20.687667-2.698762s-11.992826-4.597872-16.78999-8.396149c-4.797164-3.798276-8.544893-8.596027-11.243297-14.393397-2.698405-5.79737-4.047587-12.694137-4.047587-20.690509 0-8.796009 1.549061-16.042613 4.647229-21.740028 3.098169-5.697415 7.095745-10.245283 11.99285-13.643741s10.493713-5.947263 16.789991-7.646492 12.642431-3.048597 19.03865-4.048143c6.396218-.999547 12.692402-1.799172 18.888739-2.3989s11.693005-1.499306 16.490169-2.698762 8.594862-2.948636 11.393208-5.247593c2.798345-2.298957 4.097558-5.647387 3.897676-10.045392 0-4.597914-.749546-8.246204-2.248659-10.944979-1.499114-2.698776-3.497903-4.797792-5.996426-6.297112-2.498523-1.499319-5.396766-2.498851-8.694816-2.998624s-6.8459-.749656-10.643655-.749656c-8.395037 0-14.991039 1.799156-19.788203 5.397524-4.797164 3.598367-7.595467 9.595556-8.394995 17.991747zm98.341372 31.485557c-1.798937 1.599274-4.047573 2.848688-6.745978 3.74828s-5.596648 1.649241-8.694817 2.248969c-3.098168.599728-6.346199 1.099493-9.744191 1.499312-3.397991.399819-6.795931.899584-10.193922 1.499312-3.19811.599728-6.346201 1.399353-9.44437 2.3989-3.098168.999546-5.796533 2.348914-8.095174 4.048143s-4.14752 3.848222-5.546693 6.447042c-1.399173 2.598821-2.098749 5.897275-2.098749 9.895461 0 3.798277.699576 6.996778 2.098749 9.595599 1.399173 2.59882 3.298022 4.64786 5.696604 6.14718s5.196886 2.548828 8.394995 3.148556c3.198109.599727 6.49611.899587 9.894101.899587 8.395038 0 14.8911-1.399344 19.488382-4.198074 4.597282-2.798731 7.995223-6.147161 10.193923-10.045392 2.1987-3.898232 3.547882-7.846381 4.047587-11.844567.499704-3.998186.749553-7.196687.749553-9.595599zm77.407113-79.163687h40.47587v28.786795h.599642c1.998819-4.797823 4.697183-9.245738 8.095174-13.343879 3.397991-4.09814 7.295629-7.5965 11.693029-10.495185 4.397401-2.898685 9.094553-5.147631 14.091599-6.746905 4.997046-1.599275 10.193896-2.3989 15.590706-2.3989 2.798345 0 5.896467.499766 9.294459 1.499312v39.581843c-1.998819-.399818-4.397365-.749654-7.195711-1.049518-2.798345-.299864-5.49671-.449794-8.095174-.449794-7.795391 0-14.391393 1.299391-19.788203 3.898212-5.396809 2.598821-9.744174 6.147158-13.042224 10.645117-3.298051 4.497959-5.646627 9.7455-7.0458 15.742779-1.399173 5.997278-2.098749 12.494233-2.098749 19.491059v69.86795h-42.574618zm127.777084 28.486933v-28.486933-11.994498c0-13.793741 4.297395-25.088447 12.892314-33.884456s21.587044-13.193948 38.976764-13.193948c3.797755 0 7.595452.14993 11.393207.449794s7.495514.549746 11.093387.749656v31.785419c-4.997046-.599728-10.193896-.899587-15.590705-.899587-5.796574 0-9.94406 1.349368-12.442583 4.048143-2.498523 2.698776-3.747765 7.246644-3.747765 13.643741v9.295736h29.382483v28.486933h-29.382483v126.541953h-42.574619zm92.398176-28.486933h40.47587v28.786795h.599642c1.998819-4.797823 4.697183-9.245738 8.095174-13.343879 3.397991-4.09814 7.295629-7.5965 11.693029-10.495185 4.397401-2.898685 9.094553-5.147631 14.091599-6.746905 4.997046-1.599275 10.193896-2.3989 15.590706-2.3989 2.798345 0 5.896467.499766 9.294459 1.499312v39.581843c-1.998819-.399818-4.397365-.749654-7.195711-1.049518-2.798345-.299864-5.49671-.449794-8.095174-.449794-7.795391 0-14.391393 1.299391-19.788202 3.898212-5.39681 2.598821-9.744175 6.147158-13.042225 10.645117s-5.646627 9.7455-7.0458 15.742779c-1.399173 5.997278-2.098748 12.494233-2.098748 19.491059v69.86795h-42.574619zm162.256529-23.988996h-42.574619v-35.083906h42.574619zm-42.574619 23.988996h42.574619v155.028886h-42.574619zm182.344553 60.872077c-1.998818-10.795102-5.546668-18.99126-10.643654-24.58872-5.096987-5.597461-12.842292-8.396149-23.236148-8.396149-6.795982 0-12.44256 1.149461-16.939901 3.448418s-8.09516 5.147622-10.793565 8.54608-4.597254 6.996771-5.696604 10.795048-1.748956 7.196684-1.948838 10.195323zm-69.25871 26.987621c.599645 13.793741 4.097525 23.789056 10.493744 29.986245 6.396219 6.197188 15.590645 9.295735 27.583555 9.295735 8.594919 0 15.990437-2.148992 22.186773-6.447042 6.196337-4.29805 9.994035-8.845918 11.393208-13.643742h37.477657c-5.996455 18.591565-15.190881 31.885334-27.583555 39.881706s-27.383587 11.994498-44.973189 11.994498c-12.192792 0-23.186128-1.949086-32.980338-5.847318-9.79421-3.898231-18.089182-9.445631-24.885164-16.642366-6.795983-7.196734-12.042802-15.792705-15.740616-25.78817s-5.546694-20.990312-5.546694-32.98487c0-11.594739 1.898849-22.389679 5.696604-32.385144s9.194484-18.641412 16.190348-25.938102c6.995864-7.296689 15.340806-13.043995 25.035075-17.242091 9.694269-4.198095 20.437757-6.297111 32.230785-6.297111 13.192201 0 24.685235 2.548805 34.479445 7.646492 9.79421 5.097688 17.839333 11.944478 24.135611 20.540578s10.843521 18.391509 13.641867 29.38652c2.798346 10.995012 3.79774 22.489624 2.998213 34.484182zm138.870471-87.859698h40.475866v21.590097h.89947c5.39681-8.995919 12.39257-15.54285 20.98748-19.640991 8.59492-4.09814 17.38959-6.14718 26.38428-6.14718 11.39326 0 20.7376 1.549274 28.03328 4.647868 7.29569 3.098594 13.04221 7.39658 17.23973 12.894085 4.19751 5.497506 7.14573 12.194367 8.84472 20.090784 1.699 7.896418 2.54848 16.642318 2.54848 26.237965v95.356258h-42.57462v-87.559835c0-12.794195-1.99878-22.339721-5.99642-28.636864-3.99764-6.297142-11.09334-9.445667-21.28731-9.445667-11.59315 0-19.98806 3.448384-25.18499 10.345255-5.19692 6.896871-7.79535 18.241553-7.79535 34.034388v81.262723h-42.574616zm289.680566 77.06465c0-6.397098-.59964-12.544217-1.79893-18.441541s-3.24805-11.094888-6.14634-15.592847c-2.89828-4.49796-6.64601-8.14625-11.24329-10.94498-4.59729-2.79873-10.39377-4.198074-17.38964-4.198074-6.99586 0-12.89229 1.399344-17.68945 4.198074-4.79717 2.79873-8.64483 6.496997-11.54312 11.094911s-4.99701 9.845454-6.29625 15.742778c-1.29923 5.897325-1.94883 12.044443-1.94883 18.441541 0 5.997279.69957 11.994468 2.09874 17.991747 1.39918 5.997279 3.64781 11.344772 6.74598 16.042641 3.09817 4.697868 6.99581 8.496088 11.69303 11.394773 4.69723 2.898685 10.3438 4.348005 16.9399 4.348005 6.99587 0 12.84232-1.399344 17.53955-4.198074 4.69722-2.79873 8.44495-6.546973 11.24329-11.244842 2.79835-4.697868 4.79714-10.045362 5.99643-16.042641s1.79893-12.194374 1.79893-18.591471zm.59964 58.173315h-.59964c-4.99705 8.39619-11.54308 14.443356-19.6383 18.141678-8.09521 3.698322-17.23967 5.547455-27.43364 5.547455-11.59315 0-21.78697-2.248946-30.58177-6.746905s-16.04041-10.595101-21.73704-18.291609-9.99403-16.542362-12.89231-26.537827c-2.89829-9.995465-4.34741-20.390593-4.34741-31.185695 0-10.395283 1.44912-20.440575 4.34741-30.136176 2.89828-9.695601 7.19568-18.241595 12.89231-25.638239s12.8423-13.343857 21.43722-17.841816 18.58886-6.746905 29.98213-6.746905c9.19456 0 17.93926 1.949086 26.23436 5.847318 8.29509 3.898231 14.84112 9.645537 19.63829 17.242091h.59964v-77.964237h42.57462v214.101788h-40.47587zm107.38924-30.58597c0 4.597914.94942 8.546063 2.8483 11.844567 1.89888 3.298503 4.34739 5.997238 7.34562 8.096286 2.99823 2.099047 6.44614 3.648321 10.34383 4.647868 3.8977.999546 7.94525 1.499312 12.14276 1.499312 2.99823 0 6.14632-.349836 9.44437-1.049519 3.29805-.699682 6.29624-1.799167 8.99464-3.298487 2.69841-1.499319 4.94704-3.498382 6.74598-5.997249 1.79894-2.498866 2.69839-5.64739 2.69839-9.445667 0-6.397097-4.24742-11.194848-12.7424-14.393397s-20.3378-6.39705-35.52882-9.595599c-6.19634-1.399365-12.24267-3.048592-18.13919-4.94773-5.89651-1.899138-11.14333-4.397967-15.74061-7.496561-4.59729-3.098594-8.29504-6.996767-11.09339-11.694636-2.79835-4.697868-4.1975-10.445174-4.1975-17.242091 0-9.995464 1.94882-18.191623 5.84652-24.58872 3.89769-6.397098 9.04457-11.444732 15.44079-15.143054s13.59186-6.297104 21.58713-7.796424c7.99528-1.499319 16.19031-2.248968 24.58535-2.248968 8.39503 0 16.5401.799625 24.43543 2.3989 7.89533 1.599274 14.94106 4.298009 21.1374 8.096286 6.19633 3.798276 11.34321 8.84591 15.44079 15.143053s6.5461 14.243419 7.34562 23.839065h-40.47587c-.59964-8.196281-3.69776-13.743681-9.29446-16.642366-5.59669-2.898685-12.19269-4.348005-19.7882-4.348005-2.39858 0-4.99701.149929-7.79535.449793-2.79835.299864-5.3468.94956-7.64544 1.949106-2.29865.999547-4.24746 2.448867-5.84652 4.348006-1.59905 1.899138-2.39857 4.447943-2.39857 7.646492 0 3.798277 1.39915 6.896825 4.1975 9.295736 2.79834 2.398912 6.44613 4.347998 10.94347 5.847318 4.49735 1.49932 9.64423 2.848687 15.4408 4.048143s11.693 2.498847 17.68945 3.898212c6.19634 1.399365 12.24268 3.098568 18.13919 5.097661s11.14333 4.647852 15.74062 7.946355c4.59728 3.298504 8.29504 7.396583 11.09338 12.294361 2.79835 4.897777 4.1975 10.944943 4.1975 18.141678 0 10.195374-2.04876 18.741368-6.14634 25.638239-4.09757 6.896871-9.44433 12.444271-16.04043 16.642366s-14.14153 7.146713-22.63651 8.845942-17.13974 2.548831-25.93454 2.548831c-8.99468 0-17.78935-.899578-26.38427-2.698762s-16.24028-4.797778-22.93632-8.995873c-6.69604-4.198096-12.19271-9.745496-16.49017-16.642366-4.29746-6.896871-6.64604-15.542819-7.0458-25.938102z" fill="#ff7000" transform="translate(0 -339)"/></svg>