<?xml version="1.0" encoding="UTF-8"?>
<svg width="1475px" height="218px" viewBox="0 0 1475 218" version="1.1" xmlns="http://www.w3.org/2000/svg" xmlns:xlink="http://www.w3.org/1999/xlink">
    <!-- Generator: Sketch 53.2 (72643) - https://sketchapp.com -->
    <title>Barfriends</title>
    <desc>Created with Sketch.</desc>
    <g id="LateMar-2019-V2" stroke="none" stroke-width="1" fill="none" fill-rule="evenodd">
        <g id="Group-3-Copy" transform="translate(0.000000, -339.000000)" fill="#FF7000" fill-rule="nonzero">
            <path d="M47.0719373,425.660248 L94.7435172,425.660248 C103.138554,425.660248 110.034374,423.661185 115.431184,419.662999 C120.827994,415.664813 123.526358,409.167858 123.526358,400.171939 C123.526358,395.174207 122.626903,391.076128 120.827967,387.877579 C119.02903,384.67903 116.630484,382.180202 113.632256,380.381018 C110.634029,378.581834 107.186119,377.33242 103.288423,376.632737 C99.3907272,375.933055 95.3431807,375.583219 91.1456621,375.583219 L47.0719373,375.583219 L47.0719373,425.660248 Z M0,339 L100.739942,339 C110.933916,339 120.228282,339.899578 128.623319,341.698762 C137.018356,343.497946 144.213995,346.446564 150.21045,350.544704 C156.206905,354.642845 160.854088,360.090292 164.152138,366.887208 C167.450188,373.684124 169.099189,382.080188 169.099189,392.075653 C169.099189,402.870755 166.650673,411.866539 161.753568,419.063274 C156.856463,426.260008 149.610855,432.157244 140.016527,436.755158 C153.208728,440.553435 163.052761,447.200319 169.548921,456.696011 C176.04508,466.191703 179.293112,477.636338 179.293112,491.030261 C179.293112,501.825363 177.194384,511.170983 172.996865,519.0674 C168.799347,526.963818 163.152769,533.410796 156.056964,538.408528 C148.961159,543.406261 140.866066,547.104527 131.771442,549.503439 C122.676819,551.90235 113.332483,553.101788 103.738155,553.101788 L0,553.101788 L0,339 Z M47.0719373,516.518569 L97.4419085,516.518569 C102.039191,516.518569 106.436525,516.06878 110.634044,515.169188 C114.831562,514.269597 118.529321,512.770299 121.72743,510.671252 C124.92554,508.572204 127.473995,505.723539 129.372872,502.125172 C131.27175,498.526805 132.221174,493.92896 132.221174,488.331499 C132.221174,477.336488 129.123052,469.490166 122.926715,464.792297 C116.730378,460.094429 108.535346,457.74553 98.3413723,457.74553 L47.0719373,457.74553 L47.0719373,516.518569 Z M206.630075,445.751032 C207.22972,435.755567 209.728206,427.459455 214.125606,420.862448 C218.523007,414.265442 224.119614,408.967925 230.915597,404.969739 C237.711579,400.971553 245.356945,398.122888 253.851923,396.423659 C262.346901,394.72443 270.891721,393.874828 279.48664,393.874828 C287.282032,393.874828 295.177246,394.42457 303.172519,395.524072 C311.167793,396.623573 318.463371,398.772565 325.059471,401.971114 C331.655572,405.169663 337.0523,409.617578 341.249819,415.314993 C345.447338,421.012408 347.546065,428.558871 347.546065,437.954608 L347.546065,518.617607 C347.546065,525.614432 347.945823,532.311293 348.74535,538.708391 C349.544878,545.105488 350.94403,549.903239 352.942848,553.101788 L309.768587,553.101788 C308.96906,550.702877 308.319454,548.254024 307.819749,545.755158 C307.320044,543.256292 306.970256,540.707487 306.770375,538.108666 C299.974392,545.105491 291.979238,550.003196 282.784674,552.801926 C273.590109,555.600656 264.195804,557 254.601476,557 C247.205848,557 240.310028,556.100422 233.913809,554.301238 C227.51759,552.502054 221.920983,549.703366 217.123819,545.905089 C212.326655,542.106813 208.578926,537.309062 205.880522,531.511692 C203.182117,525.714322 201.832935,518.817555 201.832935,510.821183 C201.832935,502.025174 203.381996,494.77857 206.480164,489.081155 C209.578333,483.38374 213.575909,478.835872 218.473014,475.437414 C223.370119,472.038956 228.966727,469.490151 235.263005,467.790922 C241.559283,466.091693 247.905436,464.742325 254.301655,463.742779 C260.697873,462.743232 266.994057,461.943607 273.190394,461.343879 C279.386731,460.744151 284.883399,459.844573 289.680563,458.645117 C294.477727,457.445661 298.275425,455.696481 301.073771,453.397524 C303.872116,451.098567 305.171329,447.750137 304.971447,443.352132 C304.971447,438.754218 304.221901,435.105928 302.722788,432.407153 C301.223674,429.708377 299.224885,427.609361 296.726362,426.110041 C294.227839,424.610722 291.329596,423.61119 288.031546,423.111417 C284.733496,422.611644 281.185646,422.361761 277.387891,422.361761 C268.992854,422.361761 262.396852,424.160917 257.599688,427.759285 C252.802524,431.357652 250.004221,437.354841 249.204693,445.751032 L206.630075,445.751032 Z M304.971447,477.236589 C303.17251,478.835863 300.923874,480.085277 298.225469,480.984869 C295.527064,481.884461 292.628821,482.63411 289.530652,483.233838 C286.432484,483.833566 283.184453,484.333331 279.786461,484.73315 C276.38847,485.132969 272.99053,485.632734 269.592539,486.232462 C266.394429,486.83219 263.246338,487.631815 260.148169,488.631362 C257.050001,489.630908 254.351636,490.980276 252.052995,492.679505 C249.754354,494.378734 247.905475,496.527727 246.506302,499.126547 C245.107129,501.725368 244.407553,505.023822 244.407553,509.022008 C244.407553,512.820285 245.107129,516.018786 246.506302,518.617607 C247.905475,521.216427 249.804324,523.265467 252.202906,524.764787 C254.601488,526.264107 257.399792,527.313615 260.597901,527.913343 C263.79601,528.51307 267.094011,528.81293 270.492002,528.81293 C278.88704,528.81293 285.383102,527.413586 289.980384,524.614856 C294.577666,521.816125 297.975607,518.467695 300.174307,514.569464 C302.373007,510.671232 303.722189,506.723083 304.221894,502.724897 C304.721598,498.726711 304.971447,495.52821 304.971447,493.129298 L304.971447,477.236589 Z M382.37856,398.072902 L422.85443,398.072902 L422.85443,426.859697 L423.454072,426.859697 C425.452891,422.061874 428.151255,417.613959 431.549246,413.515818 C434.947237,409.417678 438.844875,405.919318 443.242275,403.020633 C447.639676,400.121948 452.336828,397.873002 457.333874,396.273728 C462.33092,394.674453 467.52777,393.874828 472.92458,393.874828 C475.722925,393.874828 478.821047,394.374594 482.219039,395.37414 L482.219039,434.955983 C480.22022,434.556165 477.821674,434.206329 475.023328,433.906465 C472.224983,433.606601 469.526618,433.456671 466.928154,433.456671 C459.132763,433.456671 452.536761,434.756062 447.139951,437.354883 C441.743142,439.953704 437.395777,443.502041 434.097727,448 C430.799676,452.497959 428.4511,457.7455 427.051927,463.742779 C425.652754,469.740057 424.953178,476.237012 424.953178,483.233838 L424.953178,553.101788 L382.37856,553.101788 L382.37856,398.072902 Z M510.155644,426.559835 L510.155644,398.072902 L510.155644,386.078404 C510.155644,372.284663 514.453039,360.989957 523.047958,352.193948 C531.642877,343.397939 544.635002,339 562.024722,339 C565.822477,339 569.620174,339.14993 573.417929,339.449794 C577.215684,339.749658 580.913443,339.99954 584.511316,340.19945 L584.511316,371.984869 C579.51427,371.385141 574.31742,371.085282 568.920611,371.085282 C563.124037,371.085282 558.976551,372.43465 556.478028,375.133425 C553.979505,377.832201 552.730263,382.380069 552.730263,388.777166 L552.730263,398.072902 L582.112746,398.072902 L582.112746,426.559835 L552.730263,426.559835 L552.730263,553.101788 L510.155644,553.101788 L510.155644,426.559835 Z M602.55382,398.072902 L643.02969,398.072902 L643.02969,426.859697 L643.629332,426.859697 C645.628151,422.061874 648.326515,417.613959 651.724506,413.515818 C655.122497,409.417678 659.020135,405.919318 663.417535,403.020633 C667.814936,400.121948 672.512088,397.873002 677.509134,396.273728 C682.50618,394.674453 687.70303,393.874828 693.09984,393.874828 C695.898185,393.874828 698.996307,394.374594 702.394299,395.37414 L702.394299,434.955983 C700.39548,434.556165 697.996934,434.206329 695.198588,433.906465 C692.400243,433.606601 689.701878,433.456671 687.103414,433.456671 C679.308023,433.456671 672.712021,434.756062 667.315212,437.354883 C661.918402,439.953704 657.571037,443.502041 654.272987,448 C650.974937,452.497959 648.62636,457.7455 647.227187,463.742779 C645.828014,469.740057 645.128439,476.237012 645.128439,483.233838 L645.128439,553.101788 L602.55382,553.101788 L602.55382,398.072902 Z M764.810349,374.083906 L722.23573,374.083906 L722.23573,339 L764.810349,339 L764.810349,374.083906 Z M722.23573,398.072902 L764.810349,398.072902 L764.810349,553.101788 L722.23573,553.101788 L722.23573,398.072902 Z M904.580283,458.944979 C902.581465,448.149877 899.033615,439.953719 893.936629,434.356259 C888.839642,428.758798 881.094337,425.96011 870.700481,425.96011 C863.904499,425.96011 858.257921,427.109571 853.76058,429.408528 C849.263239,431.707485 845.66542,434.55615 842.967015,437.954608 C840.26861,441.353066 838.369761,444.951379 837.270411,448.749656 C836.171061,452.547933 835.521455,455.94634 835.321573,458.944979 L904.580283,458.944979 Z M835.321573,485.9326 C835.921218,499.726341 839.419098,509.721656 845.815317,515.918845 C852.211536,522.116033 861.405962,525.21458 873.398872,525.21458 C881.993791,525.21458 889.389309,523.065588 895.585645,518.767538 C901.781982,514.469488 905.57968,509.92162 906.978853,505.123796 L944.45651,505.123796 C938.460055,523.715361 929.265629,537.00913 916.872955,545.005502 C904.480281,553.001874 889.489368,557 871.899766,557 C859.706974,557 848.713638,555.050914 838.919428,551.152682 C829.125218,547.254451 820.830246,541.707051 814.034264,534.510316 C807.238281,527.313582 801.991462,518.717611 798.293648,508.722146 C794.595834,498.726681 792.746954,487.731834 792.746954,475.737276 C792.746954,464.142537 794.645803,453.347597 798.443558,443.352132 C802.241313,433.356667 807.638042,424.71072 814.633906,417.41403 C821.62977,410.117341 829.974712,404.370035 839.668981,400.171939 C849.36325,395.973844 860.106738,393.874828 871.899766,393.874828 C885.091967,393.874828 896.585001,396.423633 906.379211,401.52132 C916.173421,406.619008 924.218544,413.465798 930.514822,422.061898 C936.8111,430.657998 941.358343,440.453407 944.156689,451.448418 C946.955035,462.44343 947.954429,473.938042 947.154902,485.9326 L835.321573,485.9326 Z M974.192044,398.072902 L1014.66791,398.072902 L1014.66791,419.662999 L1015.56738,419.662999 C1020.96419,410.66708 1027.95995,404.120149 1036.55486,400.022008 C1045.14978,395.923868 1053.94445,393.874828 1062.93914,393.874828 C1074.3324,393.874828 1083.67674,395.424102 1090.97242,398.522696 C1098.26811,401.62129 1104.01463,405.919276 1108.21215,411.416781 C1112.40966,416.914287 1115.35788,423.611148 1117.05687,431.507565 C1118.75587,439.403983 1119.60535,448.149883 1119.60535,457.74553 L1119.60535,553.101788 L1077.03073,553.101788 L1077.03073,465.541953 C1077.03073,452.747758 1075.03195,443.202232 1071.03431,436.905089 C1067.03667,430.607947 1059.94097,427.459422 1049.747,427.459422 C1038.15385,427.459422 1029.75894,430.907806 1024.56201,437.804677 C1019.36509,444.701548 1016.76666,456.04623 1016.76666,471.839065 L1016.76666,553.101788 L974.192044,553.101788 L974.192044,398.072902 Z M1263.87261,475.137552 C1263.87261,468.740454 1263.27297,462.593335 1262.07368,456.696011 C1260.87439,450.798687 1258.82563,445.601123 1255.92734,441.103164 C1253.02906,436.605204 1249.28133,432.956914 1244.68405,430.158184 C1240.08676,427.359454 1234.29028,425.96011 1227.29441,425.96011 C1220.29855,425.96011 1214.40212,427.359454 1209.60496,430.158184 C1204.80779,432.956914 1200.96013,436.655181 1198.06184,441.253095 C1195.16355,445.851009 1193.06483,451.098549 1191.76559,456.995873 C1190.46636,462.893198 1189.81676,469.040316 1189.81676,475.437414 C1189.81676,481.434693 1190.51633,487.431882 1191.9155,493.429161 C1193.31468,499.42644 1195.56331,504.773933 1198.66148,509.471802 C1201.75965,514.16967 1205.65729,517.96789 1210.35451,520.866575 C1215.05174,523.76526 1220.69831,525.21458 1227.29441,525.21458 C1234.29028,525.21458 1240.13673,523.815236 1244.83396,521.016506 C1249.53118,518.217776 1253.27891,514.469533 1256.07725,509.771664 C1258.8756,505.073796 1260.87439,499.726302 1262.07368,493.729023 C1263.27297,487.731744 1263.87261,481.534649 1263.87261,475.137552 Z M1264.47225,533.310867 L1263.87261,533.310867 C1258.87556,541.707057 1252.32953,547.754223 1244.23431,551.452545 C1236.1391,555.150867 1226.99464,557 1216.80067,557 C1205.20752,557 1195.0137,554.751054 1186.2189,550.253095 C1177.4241,545.755136 1170.17849,539.657994 1164.48186,531.961486 C1158.78523,524.264978 1154.48783,515.419124 1151.58955,505.423659 C1148.69126,495.428194 1147.24214,485.033066 1147.24214,474.237964 C1147.24214,463.842681 1148.69126,453.797389 1151.58955,444.101788 C1154.48783,434.406187 1158.78523,425.860193 1164.48186,418.463549 C1170.17849,411.066905 1177.32416,405.119692 1185.91908,400.621733 C1194.514,396.123774 1204.50794,393.874828 1215.90121,393.874828 C1225.09577,393.874828 1233.84047,395.823914 1242.13557,399.722146 C1250.43066,403.620377 1256.97669,409.367683 1261.77386,416.964237 L1262.3735,416.964237 L1262.3735,339 L1304.94812,339 L1304.94812,553.101788 L1264.47225,553.101788 L1264.47225,533.310867 Z M1371.86149,502.724897 C1371.86149,507.322811 1372.81091,511.27096 1374.70979,514.569464 C1376.60867,517.867967 1379.05718,520.566702 1382.05541,522.66575 C1385.05364,524.764797 1388.50155,526.314071 1392.39924,527.313618 C1396.29694,528.313164 1400.34449,528.81293 1404.542,528.81293 C1407.54023,528.81293 1410.68832,528.463094 1413.98637,527.763411 C1417.28442,527.063729 1420.28261,525.964244 1422.98101,524.464924 C1425.67942,522.965605 1427.92805,520.966542 1429.72699,518.467675 C1431.52593,515.968809 1432.42538,512.820285 1432.42538,509.022008 C1432.42538,502.624911 1428.17796,497.82716 1419.68298,494.628611 C1411.188,491.430062 1399.34518,488.231561 1384.15416,485.033012 C1377.95782,483.633647 1371.91149,481.98442 1366.01497,480.085282 C1360.11846,478.186144 1354.87164,475.687315 1350.27436,472.588721 C1345.67707,469.490127 1341.97932,465.591954 1339.18097,460.894085 C1336.38262,456.196217 1334.98347,450.448911 1334.98347,443.651994 C1334.98347,433.65653 1336.93229,425.460371 1340.82999,419.063274 C1344.72768,412.666176 1349.87456,407.618542 1356.27078,403.92022 C1362.667,400.221898 1369.86264,397.623116 1377.85791,396.123796 C1385.85319,394.624477 1394.04822,393.874828 1402.44326,393.874828 C1410.83829,393.874828 1418.98336,394.674453 1426.87869,396.273728 C1434.77402,397.873002 1441.81975,400.571737 1448.01609,404.370014 C1454.21242,408.16829 1459.3593,413.215924 1463.45688,419.513067 C1467.55446,425.81021 1470.00298,433.756486 1470.8025,443.352132 L1430.32663,443.352132 C1429.72699,435.155851 1426.62887,429.608451 1421.03217,426.709766 C1415.43548,423.811081 1408.83948,422.361761 1401.24397,422.361761 C1398.84539,422.361761 1396.24696,422.51169 1393.44862,422.811554 C1390.65027,423.111418 1388.10182,423.761114 1385.80318,424.76066 C1383.50453,425.760207 1381.55572,427.209527 1379.95666,429.108666 C1378.35761,431.007804 1377.55809,433.556609 1377.55809,436.755158 C1377.55809,440.553435 1378.95724,443.651983 1381.75559,446.050894 C1384.55393,448.449806 1388.20172,450.398892 1392.69906,451.898212 C1397.19641,453.397532 1402.34329,454.746899 1408.13986,455.946355 C1413.93643,457.145811 1419.83286,458.445202 1425.82931,459.844567 C1432.02565,461.243932 1438.07199,462.943135 1443.9685,464.942228 C1449.86501,466.941321 1455.11183,469.59008 1459.70912,472.888583 C1464.3064,476.187087 1468.00416,480.285166 1470.8025,485.182944 C1473.60085,490.080721 1475,496.127887 1475,503.324622 C1475,513.519996 1472.95124,522.06599 1468.85366,528.962861 C1464.75609,535.859732 1459.40933,541.407132 1452.81323,545.605227 C1446.21713,549.803322 1438.6717,552.75194 1430.17672,554.451169 C1421.68174,556.150398 1413.03698,557 1404.24218,557 C1395.2475,557 1386.45283,556.100422 1377.85791,554.301238 C1369.26299,552.502054 1361.61763,549.50346 1354.92159,545.305365 C1348.22555,541.107269 1342.72888,535.559869 1338.43142,528.662999 C1334.13396,521.766128 1331.78538,513.12018 1331.38562,502.724897 L1371.86149,502.724897 Z" id="Barfriends"></path>
        </g>
    </g>
</svg>