<svg height="331" viewBox="0 0 331 331" width="331" xmlns="http://www.w3.org/2000/svg"><g fill="none" fill-rule="evenodd"><rect fill="#000" height="331" rx="50" width="331"/><g fill="#f87000" transform="translate(48 85)"><g transform="translate(65.398887)"><path d="m21.2447799 74.5534694c13.4411052 0 21.2447798-16.7666835 21.2447798-37.3360341s-7.9259569-37.18154213-21.2447798-37.21737585c-13.31882298-.03583372-21.2447799 16.13125185-21.2447799 37.21737585s7.80367463 37.3360341 21.2447799 37.3360341z"/><path d="m82.0094191 74.5534694c13.4411052 0 21.2447799-16.7666835 21.2447799-37.3360341s-7.925957-37.18154213-21.2447799-37.21737585c-13.318823-.03583372-21.2447799 16.13125185-21.2447799 37.21737585s7.8036746 37.3360341 21.2447799 37.3360341z" transform="matrix(-1 0 0 1 164.018838 0)"/></g><path d="m6.06929891 85.3046422c.81950803-1.7404776 2.81534707-6.066338 9.03978129-6.1696968 1.070077-.0426028 2.5399763.2569606 4.1229168.9586242 9.7045241 6.0443609 48.0245061 31.0260314 100.731413 29.5880184 7.509373.064243 51.652715-.348726 94.634609-28.8882812 2.586477-1.7051204 4.80488-1.8295062 6.825413-1.5550026 3.422622.6418009 5.936153 2.4803324 7.38918 5.8837949 2.385426 7.2662909 4.020796 16.7097989 6.147318 22.9985439.239616.739092-.609879 2.253326-2.160936 1.423425-1.858787-1.530568-9.644001-12.0069435-11.087318-13.9396256-1.112413-1.3356781-2.499585-.9655984-3.061192-.5471947-9.608605 14.1916493-34.260629 64.1998733-100.96109 64.9427523-68.2792694-.913579-92.0918536-51.879357-101.3378135-64.9427523-.5700613-.3838826-2.0318906-.9172876-3.2763801.8081272-3.50933003 4.6972861-9.11785559 12.1584351-10.87383867 13.6786931-1.07379192.610774-2.38760168 0-2.17940126-1.385338.89352531-2.828009 3.34962141-13.4647614 6.04733844-22.8540878z" transform="matrix(-1 0 0 1 235 0)"/></g></g></svg>