<svg height="280" viewBox="0 0 437 280" width="437" xmlns="http://www.w3.org/2000/svg"><g fill="#f87000" fill-rule="evenodd"><g transform="translate(121.060811)"><path d="m39.4753529 138.626945c24.9751881 0 39.4753529-31.176472 39.4753529-69.4237358 0-38.247264-14.72738-69.13646837-39.4753529-69.20309865-24.7479729-.06663029-39.4753529 29.99493075-39.4753529 69.20309865 0 39.2081678 14.5001648 69.4237358 39.4753529 69.4237358z"/><path d="m152.383351 138.626945c24.975189 0 39.475353-31.176472 39.475353-69.4237358 0-38.247264-14.72738-69.13646837-39.475353-69.20309865-24.747972-.06663029-39.475352 29.99493075-39.475352 69.20309865 0 39.2081678 14.500164 69.4237358 39.475352 69.4237358z" transform="matrix(-1 0 0 1 304.766702 0)"/></g><path d="m11.2863133 157.646126c1.5239362-2.85097 5.2353475-9.936896 16.8101465-10.106201 1.9898878-.069785 4.723275.420911 7.6668708 1.570263 18.0462852 9.900896 89.3051454 50.821836 187.3175644 48.466313 13.964238.105233 96.05207-.571226 175.980102-47.320117 4.809747-2.793052 8.935032-2.996801 12.692365-2.547154 6.364619 1.051295 11.038718 4.06288 13.740729 9.637883 4.435877 11.902464 7.476969 27.371294 11.431395 37.672501.445585 1.210661-1.134114 3.691035-4.01842 2.331626-3.456553-2.50713-17.933739-19.667837-20.617694-22.833645-2.068616-2.187892-4.648164-1.581687-5.692514-.896326-17.867918 23.246468-63.710192 105.161867-187.744666 106.378731-126.9703858-1.496478-171.2516594-84.980386-188.4452103-106.378731-1.0600715-.628814-3.7784519-1.502552-6.0926729 1.323744-6.5258605 7.694335-16.95533143 19.915986-20.22071273 22.406227-1.99679604 1.00047-4.43992312 0-4.05275894-2.269238 1.66157685-4.632387 6.22887046-22.055798 11.24547617-37.435876z" transform="matrix(-1 0 0 1 437 0)"/></g></svg>