<svg height="443" viewBox="0 0 783 443" width="783" xmlns="http://www.w3.org/2000/svg" xmlns:xlink="http://www.w3.org/1999/xlink"><linearGradient id="a"><stop offset="0" stop-color="#808080" stop-opacity=".25"/><stop offset=".54" stop-color="#808080" stop-opacity=".12"/><stop offset="1" stop-color="#808080" stop-opacity=".1"/></linearGradient><linearGradient id="b" x1="49.973385%" x2="49.973385%" xlink:href="#a" y1="100.024371%" y2=".000002%"/><linearGradient id="c" x1="50.011186%" x2="50.011186%" xlink:href="#a" y1="100.013833%" y2="-.03633%"/><linearGradient id="d" x1="50.000584%" x2="50.000584%" xlink:href="#a" y1="99.999536%" y2="0%"/><linearGradient id="e" x1="49.993217%" x2="49.993217%" xlink:href="#a" y1="100%" y2=".00755%"/><g fill="none" fill-rule="evenodd"><g fill-rule="nonzero"><path d="m783 0h-783v443h783z" fill="#e2e2e2"/><g transform="translate(514 63)"><path d="m107.560876 296.189085c-4.689115-2.716823-7.162356-11.801586-7.9030724-15.003995l-5.59304-70.754198s-4.199488-23.418772-20.1500094-56.776693c-.1945951-19.859857-.9415893-82.6602766-2.7557178-89.4154554l-10.5709084-12.5822119c.4913589-.9708501 1.0470362-1.9091938 1.6634743-2.8090234.1883178-.0491733.3829129-.0921999.5712308-.1475198.2322587-.3011864.4770719-.614666.7281623-.866679 5.0076973-1.7177311 8.9491284-5.5673336 10.7161155-10.4664486 1.7669872-4.8991149 1.1687021-10.318655-1.6266408-14.7348553 2.6050635-1.8747311-.7156078-2.6676502-.7156078-2.6676502-2.0306846-8.8157749-10.7017063-14.57390251-19.8173146-13.15999791-1.1613938-4.00035004-4.8924697-6.76051045-9.1396927-6.76132542h-.5398445c3.9474835.21260497 7.348932 2.79443215 8.5433529 6.48472575-1.3081672-2.19579671-3.4762265-3.77246574-6.001062-4.36412823-1.7066592-1.39990041-3.8626094-2.16598829-6.0889437-2.16362413h-.5398445c1.9126606.1065762 3.7471183.77964935 5.2603452 1.93005107-.2761995 0-.552399-.04302662-.8285985-.04302662-4.2942508-.00784686-8.0596347 2.80679714-9.1839317 6.8650365-1.124297 4.05823939.6722385 8.35031009 4.3818266 10.46854319-1.050495 3.8183514-.7200476 7.8749491.935312 11.4819599-.3578039 4.9173276.7344396 11.1807736 7.4573866 14.3524499l-1.1424616 2.5324237c-1.3747202.0676132-12.554523 1.3952917-19.7482646 26.2400893-3.09469 6.226566-5.4298312 16.3009409-5.2728997 32.5772956-.3013085 4.167435-.52729 8.605323-.6277261 13.405864l-5.185018 20.947815.0753271.122934v.288893l-.0564954.221279.0376636.05532c-1.2554523 16.725061-.6277261 33.757454 2.8247677 50.175182 1.9585056 9.293749 3.4713256 18.618231 2.5109046 21.912841-2.0714963 7.375991-9.4158923 34.261479-8.3550351 42.52259l-2.42930017 14.450796.1632088.05532-9.15852453 17.032394s5.64953535 5.064847 7.87796318 5.175487c2.22842782.11064 4.79582782 3.823222 4.79582782 3.823222s13.1508628 9.951442 17.620273 6.871965c4.4694102-3.079476-1.6823061-6.761325-5.8880713-11.783146-3.4462166-4.136702-2.5673999-13.522651-2.1342689-16.749647l19.6666603-68.30168s1.9522283-10.627574 2.2409823-28.77866c1.5049285 1.184376 3.2201383 2.086651 5.0594728 2.661504.6132939.186402 1.2698846.186402 1.8831785 0l1.2554523 4.450181s22.686023 31.735203 23.3325809 39.338621c.646558 7.603418 3.239067 35.330999 7.1309691 42.737723l2.8059359 14.38933h.1694861l-2.5987863 19.054644s7.0933055 2.845904 9.2150199 2.200505c2.1217144-.6454 5.8504077 1.973077 5.8504077 1.973077s15.8500857 4.917328 18.9573297.49788c3.107244-4.419449-3.954675-5.673367-9.679537-8.967977z" fill="url(#b)"/><path d="m66.3106562 147.926486 5.6893438 13.073514s-.6321493-85.7152596-2.730885-93.6018634l-13.6481036-16.3981366-4.6210114 12.0361323 10.5 12.8672878s6.5111379 19.0915805 5.4554485 37.7707079c-1.0556893 18.679127-.6447923 34.252358-.6447923 34.252358z" fill="#3ad29f"/><path d="m66.3106562 147.926486 5.6893438 13.073514s-.6321493-85.7152596-2.730885-93.6018634l-13.6481036-16.3981366-4.6210114 12.0361323 10.5 12.8672878s6.5111379 19.0915805 5.4554485 37.7707079c-1.0556893 18.679127-.6447923 34.252358-.6447923 34.252358z" fill="#381e1d"/><path d="m66.3140794 147.926486 5.6859206 13.073514s-.631769-85.7152596-2.7292419-93.6018634l-13.6525271-16.3981366-4.618231 12.0361323 10.4936823 12.8672878s6.5072202 19.0915805 5.4521661 37.7707079c-1.0550542 18.679127-.631769 34.252358-.631769 34.252358z" fill="#333"/><path d="m15.3072178 141.832124c-1.3126728 16.838692-.747407 34.010885 2.6567492 50.560123 1.8842194 9.180737 3.3476297 18.386643 2.4557659 21.646151-2.0035532 7.280406-9.0756564 33.840988-8.0707395 42.002342l-2.3489934 14.277651 12.7247612 4.681609 19.0745803-67.782657s4.9178125-27.353435.0502459-69.217343l-26.5486504 3.838416z" fill="#6c63ff"/><path d="m10.495713 269-9.495713 17.799257s5.50118309 4.984293 7.66620566 5.097145c2.16502254.112852 4.66556034 3.761731 4.66556034 3.761731s12.7938907 9.79304 17.1492577 6.758577c4.3553671-3.034463-1.6332626-6.626916-5.6974278-11.598671-4.0641652-4.971754-1.8991426-17.617439-1.8991426-17.617439z" fill="#381e1d"/><path d="m51.4802927 185.852236s21.809181 31.301252 22.4346235 38.80928 3.1272127 34.84479 6.8798678 42.151766l2.7019118 14.186718h13.5033042l-5.397569-70.110532s-4.8409252-27.330479-23.7167808-64.889468l-23.8856502 13.143761z" fill="#6c63ff"/><path d="m68.2796068 151.257458c0 1.670719-19.2796068 0-19.2796068 0v-81.325086l8.8036175-12.932372s3.3826086 3.6177981 6.6831763 13.5102147c1.2621674 3.8250678 4.0073815 10.8847988 5.0486696 16.7385971.6310837 3.5549891-1.6913043 8.4854951-1.2621674 12.9323722 1.5335334 15.658282 2.9597825 32.780014.0063108 51.076274z" fill="#fff"/><path d="m56.5051226 62s1.9621236-8.5540591 6.4948774-12.7770296l-16.0819621-4.2229704-3.9180379 9.0819304z" fill="#a3643b"/><path d="m45.1101789 51.0001066s-23.1699342-.5195266-25.0581355 70.9623264l-5.0520434 20.580765s40.6878948 66.105066 48.8658901 12.474898c0 0 4.4205381-58.4123166-4.193196-78.1605869l4.2121412-9.9774145z" fill="#000" opacity=".1"/><path d="m45.1101789 51.0001066s-23.1699342-.5195266-25.0581355 70.9623264l-5.0520434 20.580765s40.6878948 66.105066 48.8658901 12.474898c0 0 4.4205381-58.4123166-4.193196-78.1605869l4.2121412-9.9774145z" fill="#333"/><path d="m35.0425271 155.133139s-1.4731467 22.076674 12.9212445 26.71976c.9027113.290637 1.8879355.14588 2.6707546-.392411.782819-.53829 1.2759205-1.410075 1.3367039-2.363242.2434437-3.774866-.9488064-11.481884-7.8089261-27.097246z" fill="#000" opacity=".1"/><path d="m36.0418184 154.133139s-1.4628774 22.070383 12.9158325 26.71976c.9040802.290637 1.8907984.14588 2.6748046-.392411.7840062-.53829 1.2778554-1.410075 1.338731-2.363242.2438129-3.774866-.9502452-11.481884-7.8207679-27.097246z" fill="#a3643b"/><circle cx="61" cy="89" fill="#fa9221" r="1"/><circle cx="61" cy="121" fill="#fa9221" r="1"/><path d="m83.6956087 279.286181-2.6956087 20.223486s6.9297487 2.836376 9.0086733 2.194058c2.0789246-.642319 5.7218108 1.965112 5.7218108 1.965112s15.4870349 4.896882 18.5259519.496048-3.859043-5.723628-9.453703-9.056052c-5.5946594-3.332423-7.9660321-16.108833-7.9660321-16.108833z" fill="#381e1d"/><path d="m38.7116156 67.0770029s-21.0212658-4.1617669-18.5020054 48.7064621c0 0 5.06384 38.715714 13.8749216 41.216535l13.2419416-3.32816-5.2347446-36.221161 5.253734-18.7342191s4.1903276-28.311297-8.6338472-31.639457z" fill="#daa4a2" opacity=".1"/><path d="m40.7088448 67.0770029s-21.018153-4.1617669-18.4992656 48.7064621c0 0 5.0630901 38.715714 13.872867 41.216535l13.2399808-3.32816-5.2276406-36.221161 5.252956-18.7342191s4.1833782-28.311297-8.6388976-31.639457z" fill="#000" opacity=".1"/><path d="m39.7211236 67.0770029s-21.0319474-4.1617669-18.5114069 48.7064621c0 0 5.0664131 38.715714 13.8819719 41.216535l13.2486703-3.32816-5.2564036-36.221161 5.2564036-18.7342191s4.2051228-28.311297-8.6192353-31.639457z" fill="#333"/><path d="m36 158v-1.352381l10.5139535-2.647619.4860465 1.136508z" fill="#000" opacity=".1"/><path d="m37 58.2074785 21.3869969 18.7925215.6130031-.4212442-21.5913313-18.5787558z" fill="#000" opacity=".1"/><path d="m64.0593472 152-.0593472 1 4-.5-.2077151-.5z" fill="#000" opacity=".1"/><path d="m45 47.0136968c2.9321267 2.5251118 7.2050122 4.9862967 11.3400627 4.9862967 1.6489029.0014628 3.2890843-.2440772 4.8680821-.7287664.5341895-.7309086 1.1340765-1.4093453 1.7918552-2.0264822l-16.2269405-4.2447449z" fill="#000" opacity=".1"/><circle cx="54" cy="27" fill="#fdd835" r="17"/><circle cx="57" cy="35" fill="#a3643b" r="17"/><g fill="#fdd835"><path d="m39.5090621 27s-6.392007 16.8513357 7.1346731 22c2.282237-1.1760373 3.8664979-3.3811887 4.2609072-5.9308067s-.4487768-5.1350684-2.2677689-6.95363z"/><circle cx="42" cy="15" r="9"/><path d="m70.3234005 23.5911717s5.9052978 1.4078759-4.4496323 4.9432088c-3.4407012 1.1374572-6.2470683 3.6302676-7.7487169 6.8829489-.9358993 1.9846462-2.6646239 3.4994129-4.7756366 4.1845738s-4.4159783.4795888-6.367514-.567897l-3.2609449-1.8020811-5.7209558-13.0901175 6.7570845-7.6901311 11.6135404-1.4516765z"/><path d="m50.9219812 12.9846049c.0012345-4.77116054-3.9136795-8.71355348-8.9219812-8.9846049h.5373907c5.2260548 0 9.4626093 4.02943725 9.4626093 9 0 4.9705627-4.2365545 9-9.4626093 9h-.5373907c5.0208088-.2716962 8.9404274-4.2323536 8.9219812-9.0153951z"/><path d="m46.9219812 12.9846049c.0012345-4.77116054-3.9136795-8.71355348-8.9219812-8.9846049h.5373907c5.2260548 0 9.4626093 4.02943725 9.4626093 9 0 4.9705627-4.2365545 9-9.4626093 9h-.5373907c5.0208088-.2716962 8.9404274-4.2323536 8.9219812-9.0153951z"/></g><ellipse cx="52.5" cy="40" fill="#a3643b" rx="1.5" ry="3"/></g><g transform="translate(155.005501 110.232334)"><path d="m114.762187 52.591574v-.038428l-.049509-.0329384-.297055-.2031198.060511.0494075c-.440172-.2558255-1.003198-.1344043-1.29824.279976l-.121022.1756712-6.683734 9.5905512-1.171716 1.6798561c-3.526151-1.0595171-9.2527084 3.40363-12.1517436 5.9563526l-.5115944.4501575c-.2255417-.5160342-.3630671-.8399281-.3630671-.8399281-.1430264 1.5700617-5.6990521 3.9196643-6.9972918 4.7760616-.5904859.3550085-1.2511436.5778974-1.9363575.6532774.1815336-5.9728218-4.4393195-12.2530682-4.4393195-12.2530682l-11.277082-14.3556332c-.415889-2.5962204-.0121643-5.2572535 1.1552133-7.6142499.0935173-.1866506.1870345-.3678116.2915538-.5489725h.0550102c-.427261 1.206266-.6665875 2.4707974-.709631 3.7494827.0275051.9771712.9296716 5.6818663 2.2004062 5.4897259.2582105.0263122.5092656-.0947113.6491199-.3129143 1.0121868-1.1748014 1.1002031-3.1730616 1.0506939-5.0230992-.0172282.5437839-.0779322 1.0853274-.1815335 1.6194691.0825153-1.5371232-.0935172-3.1620821-.0935172-4.3204143 0-.461137 0-.9167842.033006-1.3779212h.1375254v.5489726c0-.1866507 0-.3733013 0-.5489726h.1485275c2.5352781-.4610263 4.9111753-1.5586862 6.9037745-3.1895307.9930486-.0424265 1.9278986-.4792439 2.5964793-1.2132294.2430155.813782.0589687 1.6949809-.4895903 2.3441129 1.5127792-.0713664 2.7945159-1.2461678 3.3776235-2.624089.4996242-1.4071349.6469273-2.9148358.4290792-4.3917807-.2176845-1.4777632-.3261637-2.9695027-.3245599-4.4631471.1042861-.8044293.1484162-1.6154904.1320244-2.4264589-.0243337-.2501285-.0684798-.497941-.1320244-.741113h.0440081c.2931686.0146872.5788978-.0949831.7866453-.3019349.6271157-.4830959.8306533-1.4328184.9901828-2.1519725.4339136-1.6678642.6302117-3.3884163.5831076-5.1109348-.0330061.5215239-.0990183 1.0430479-.1760325 1.5645718.1375254-1.9763013-.1375254-3.8977053-1.4467671-5.3250341-.9021665-.9881506-2.1618991-1.5645719-3.3721225-2.13550335-.4295402-.16055267-.8090414-.43133915-1.1002031-.78503081-.2096142-.42410835-.3241234-.8886989-.335562-1.36145202-.4235782-2.89308554-3.1465809-4.89683549-5.8585816-6.07163683-3.4876438-1.50967462-7.7014218-2.16295201-11.0295362-.36232191-1.6503047.87286641-2.9155382 2.24529789-4.4008124 3.35971224-1.8593433 1.40536983-4.0047394 2.39352049-5.990606 3.62321909s-3.878216 2.78878079-4.8243907 4.90781499c-1.4577691 3.2938355-.363067 7.0323388-.1815335 10.6006607.2915539 5.626969-2.0298747 11.5284243-6.6287237 14.8222599-.550995.3374218-1.043343.7620115-1.4577692 1.2571472-.4139664.5136925-.4623073 1.2307401-.1210223 1.7951404.2365437.3129143.6106127.4830958.8691605.7740513.5225964.5983801.4180771 1.4986952.2145396 2.2617671-.6693723 2.4765085-2.0003394 4.7250216-3.8507109 6.5053252.0825152.5874006.8031482.8179691 1.3917569.900315 1.5569851.2312976 3.1292339.3450747 4.7033683.340363h.6766249c-.0715132.181161-.1485274.3733014-.2255416.5489726-.8526574 2.2452979-1.9583616 5.687356-1.5897935 7.7954108.5776066 3.3322636 2.3104265 18.544294 1.4412661 21.2068111-.8691605 2.6625171 1.3477488 22.151044 1.3477488 22.151044s.3025558 1.493205.8251523 3.722034c-1.3587508 3.20051-2.9100372 6.741384-3.6856804 8.163223-1.5622884 2.854657-.7921463 17.402431 4.593348 23.863838 0 0 2.2279113 3.140123 1.6503047 4.281986-.5776067 1.141863.0990182 3.134634.0990182 3.134634l.8526575 18.829759c-.0185853 1.922204-.1526841 3.841565-.4015742 5.747743-2.2939235 2.838189-5.8365775 6.977442-7.5033852 7.685617-2.5799763 1.043048-21.8225288 24.335955-21.8225288 24.335955s.1540284.279976.4510833.741113l-.5501016.620339-3.6911814 4.271006-.2915538.334874c-.693128-.126264-5.3084801-.966192-8.96665543-1.229699h-.36306703v-.186651c-1.28207901-.146569-2.57848672-.111453-3.8507109.104305-.24118157.046274-.46322609.162799-.63811781.334873-1.24873053 1.520655-1.91985443 25.483308-1.91985443 25.483308s1.33124577 11.989561 5.50101557 12.659308c.21308554.07252.43526785.115018.66012187.126264.07691964.005386.15412301.005386.23104265 0 2.09342846-.035905 3.99675501-1.219877 4.95091401-3.079737.1791458-.349032.3175762-.717422.4125762-1.097945 0 0-.4840894-2.140993.8141503-5.088976 1.2982397-2.947982 3.7076845-8.080876 3.7076845-8.080876s4.4008124-4.61137 3.6086662-6.856668l.4235782-.60387c1.6503047-2.344113 4.9949221-6.982931 7.7014218-10.084626l.5501016-.592891c.9835807.413346 2.0117679.711774 3.0640656.889336 0 0 4.1422647-1.646918 5.6770481-5.231709.6546208-1.537123 3.2235951-4.254537 5.9575999-6.878626l-.0880163.702685-.0935173 22.908626c.8874509.61193 1.8348061 1.132458 2.827522 1.553592v.548973c.0191837 3.266777-.1792905 6.531213-.5941096 9.771712l-.0825153.505055c-.3410629-.241548-.6381178-.323894-.8251523-.131754-.8471564.850908-1.3752539 6.324165-1.424763 8.838459v.252527c-.1375254 2.519785-1.5732905 6.170452 2.7505078 6.357103 3.2345971.137243 17.1741706.351342 24.6390487.455647 4.02002.083464 7.9322815-1.300587 11.0020311-3.892215 2.3709378-2.025709 3.8067028-4.435699.5501016-6.20888-.1980366-.104305-.4070752-.20861-.6381178-.312915l-7.1513203-1.097945-12.2177555-6.225349s-.0715132-3.765952-1.5402844-3.140123c-.4370081.095602-.8552057.262538-1.2377285.494075-.0715132-.142733-.1485274-.285466-.2200406-.439178-.9943288-1.968085-1.5106685-4.14204-1.5072783-6.346123 0-.20312 0-.40624 0-.60936.3604754-.322657.6986445-.669303 1.0121869-1.037558 0 0-.0935173-8.552993.8691604-10.172462.9626778-1.619469 3.9552302-17.951404 3.9552302-17.951404s.0935173-3.046798 2.0188727-4.852917c1.9253555-1.80612 1.2487306-7.037829 1.2487306-7.037829s2.6954976-1.421839 3.5591571-6.082616c.8636594-4.660778 3.6581753-14.82226 3.6581753-14.82226s5.7705653-15.01989 5.3909953-24.528096c-.3795701-9.508205.5776066-14.454448.5776066-14.454448l1.1992214-22.096147v-.340363c.4785884.367812.8031483.658768.8031483.658768s0-.087836 0-.236059c.1760325.142733.2750508.236059.2750508.236059s.6161137-10.0242399.4070751-13.9988014c3.3666215-1.141863 8.4935681-3.0193493 8.8016249-3.9690719.4345803-1.4273287 6.2106466-5.9179245 6.2106466-5.9179245-.1242439-.0227776-.2434487-.0673877-.352065-.1317534.1815335-.0878356.3685681-.181161.5501016-.2909555 3.7846987-2.0202191 10.8149967-7.9271642 9.6322787-11.5284243l7.701421-11.0233696c.52041-.7301398.451305-1.7255082-.16503-2.3770514z" fill="url(#c)"/><path d="m98.1106127 78.522639c-.5620474.3517046-1.1884111.5886745-1.8428402.6971952-2.4039438.0713665-4.4008124-6.428469-4.4008124-6.428469s.6821259-.6917055 1.771327-1.6469178c3.2235951-2.8601472 9.9843429-8.1467532 13.1529279-5.1877909 3.57566 3.2993252-4.538338 10.3316641-8.6806023 12.5659825z" fill="#fda57d"/><path d="m60.3076337 234.11485-8.8731381 9.579572s-8.2075152.093325-6.6012187-4.424719c.320318-.977651.5486798-1.982954.6821259-3.00288.3949767-3.208839.5787379-6.440066.5501016-9.672897 0-2.124524-.0330061-3.60675-.0330061-3.60675s12.9218856-5.648928 11.6016418.230569c-.1642499.735675-.2527259 1.486177-.2640487 2.239808.0445017 3.125951 1.0614131 6.160832 2.9100372 8.684746z" fill="#fda57d"/><path d="m80.881432 248.503422c-3.0070996 2.560055-6.8522514 3.927714-10.8039946 3.842808-7.3163507-.104305-20.9863744-.312914-24.1604604-.450157-4.246784-.181161-2.8385241-3.798891-2.7009987-6.296716 0-.082346 0-.164692 0-.247038.0495092-2.492335.5501016-7.910695 1.397258-8.756112.8471564-.845418 3.7461916 3.765951 3.7461916 3.765951s5.660545 1.646918 7.2173324-3.293835 4.7198714-5.41287 4.7198714-5.41287c1.4357651-.620339 1.5072783 3.107185 1.5072783 3.107185l11.9922139 6.186921 7.0247969 1.097945c.2310426.104305.4345802.20861.6271158.312915 3.1685849 1.751222 1.7603249 4.133763-.5666046 6.143003z" fill="#c17174"/><ellipse cx="58.745345" cy="238.495652" fill="#fff" opacity=".25" rx="1" ry="1"/><ellipse cx="63.602742" cy="240.894662" fill="#fff" opacity=".25" rx="1" ry="1"/><ellipse cx="66.105704" cy="242.014566" fill="#fff" opacity=".25" rx="1" ry="1"/><ellipse cx="71.293162" cy="244.001847" fill="#fff" opacity=".25" rx="1" ry="1"/><ellipse cx="68.652674" cy="243.150939" fill="#fff" opacity=".25" rx="1" ry="1"/><path d="m80.881432 248.503422c-3.0070996 2.560055-6.8522514 3.927714-10.8039946 3.842808-7.3163507-.104305-20.9863744-.312914-24.1604604-.450157-4.246784-.181161-2.8385241-3.798891-2.7009987-6.296716l26.6634225 1.646918s10.9195159-1.646918 11.5521327-4.896836c3.185088 1.762202 1.776828 4.144743-.5501015 6.153983z" fill="#fff" opacity=".25"/><path d="m31.2457684 210.108279c-.9826172.79517-1.8787102 1.691264-2.6734935 2.673497-2.6459885 3.068756-5.9190928 7.658167-7.5418924 9.985811-.6271157.900315-1.0066858 1.460267-1.0066858 1.460267l-3.542654-.516034s-3.8177049-5.81911-3.7461917-5.978312c.0715133-.159202 3.0200576-6.40102 3.0200576-6.40102l1.1497123-1.344983 3.6196682-4.227089 1.6503047-1.915914s12.2782667 3.952602 9.0711746 6.263777z" fill="#fda57d"/><path d="m17.0751523 230.151268s-2.3654367 5.083486-3.6361713 8.004021c-1.2707346 2.920534-.8031482 5.034078-.8031482 5.034078-.089856.380549-.2246571.749109-.4015742 1.097945-.9250698 1.825556-2.78061266 2.996072-4.82989164 3.046798-.07691964.005387-.15412301.005387-.23104265 0-4.30179418-.115284-5.66604604-12.571472-5.66604604-12.571472s.66012187-23.726595 1.88684834-25.252739c.17012961-.168557.38639898-.283154.62161476-.329384 1.24645727-.200455 2.51501451-.22448 3.76819566-.071366 3.88921797.279976 8.88964117 1.235188 8.88964117 1.235188h.8966655c-3.1630839 3.293836.2310427 10.540274.2310427 10.540274s1.5127793.142733 2.6899966 2.261767-3.4161307 7.00489-3.4161307 7.00489z" fill="#c17174"/><ellipse cx="11.876693" cy="223.10246" fill="#fff" opacity=".25" rx="1" ry="1"/><ellipse cx="11.623646" cy="227.208775" fill="#fff" opacity=".25" rx="1" ry="1"/><path d="m11.8821936 244.199477c-.9241386 1.8264-2.78024794 2.997273-4.82989164 3.046798-.07508236.005422-.15045928.005422-.22554164 0-4.30179417-.115285-5.67154705-12.571473-5.67154705-12.571473s.66012187-23.726595 1.88684834-25.252739c.17012961-.168556.38639899-.283154.62161476-.329383 1.25235781-.211668 2.52847549-.244938 3.79019973-.098815-.0715132 4.260027-.27505078 17.742794 0 19.076797.27505078 1.334004 2.7175017 12.538534 4.4283175 16.128815z" fill="#fff" opacity=".25"/><g fill="#000"><path d="m96.8398781 79.2332138c-.5620474.3517046-1.1884111.5886745-1.8428402.6971952-2.4039438.0713664-4.4008124-6.428469-4.4008124-6.428469s.6821259-.6917055 1.771327-1.6469178c.7866452 1.7567123 2.9540453 6.4998355 4.4723256 7.3781916z" opacity=".1"/><path d="m81.4150305 76.8945906s1.9803656.1372431 3.2511002-.7081747 6.722241-3.1785513 6.8652674-4.7321437c0 0 3.2511002 7.910695 5.0939404 8.190671 0 0-5.660545 4.446678-6.0841232 5.8630273s-11.4641165 4.8693869-11.4641165 4.8693869z" opacity=".1"/><path d="m31.2457684 210.108279c-.9826172.79517-1.8787102 1.691264-2.6734935 2.673497-4.2687881-1.784161-7.0192959-5.42385-8.0699899-7.02136l1.6503047-1.915914s12.3002708 3.952602 9.0931787 6.263777z" opacity=".1"/><path d="m51.4344956 170.049749s-6.9202776 9.22274-9.4507448 10.260298c-2.5304671 1.037558-21.3934495 24.099897-21.3934495 24.099897s4.0542485 7.438578 11.5081246 8.662787c0 0 4.0542484-1.603 5.5670277-5.176811 1.5127793-3.573812 13.3949729-13.652949 13.3949729-13.652949z" opacity=".1"/><path d="m30.4701253 200.951416c2.0938025.219332 4.2048603.219332 6.2986628 0 3.7461916-.351342.9186696 1.904935-6.2986628 0z" opacity=".1"/><path d="m28.7703114 203.350427s4.9509141 2.827208 6.8652675 1.410859-1.8428402 1.361452-6.8652675-1.410859z" opacity=".1"/><path d="m57.6616452 223.190296c-.1642499.735676-.2527259 1.486178-.2640487 2.239808-3.8232058 3.469507-8.4275559 2.39901-11.304587 1.136373 0-2.124524-.0330061-3.60675-.0330061-3.60675s12.9218856-5.648928 11.6016418.230569z" opacity=".1"/></g><path d="m80.5843771 100.379638-.1375254 2.60762-1.1497122 21.871068s-.9461747 4.896835-.5501016 14.311715-5.286476 24.286547-5.286476 24.286547-2.7505077 10.073647-3.5866621 14.685017-3.4876439 6.038699-3.4876439 6.038699.6601219 5.176811-1.2267264 6.966462c-1.8868484 1.78965-1.9803657 4.80351-1.9803657 4.80351s-2.9265402 16.189202-3.8507109 17.792202c-.9241706 1.603-.9351726 10.062667-.9351726 10.062667-6.1061273 7.262908-15.0672817.675236-15.0672817.675236l.0935173-22.689037s2.5469702-20.899386 4.4338186-23.81992c1.8868483-2.920534 1.8868483-10.919065 1.8868483-10.919065l-.8416554-18.665068s-.6711239-1.981791-.0935172-3.107185c.5776066-1.125394-1.6172986-4.238068-1.6172986-4.238068-5.280975-6.401021-6.0511172-20.806062-4.4998308-23.605822s6.1171294-14.119575 6.1171294-14.119575l6.2876608-3.6890955 11.4036052.340363z" fill="#5e5a6b"/><path d="m53.7504232 211.332488s1.4907752 5.149363 2.6899966 5.714805c1.1992214.565441-2.6899966-5.714805-2.6899966-5.714805z" fill="#000" opacity=".1"/><path d="m55.802302 194.171605s3.8507109 3.046798 5.5010155 3.035818c1.6503047-.010979-5.5010155-3.035818-5.5010155-3.035818z" fill="#000" opacity=".1"/><path d="m79.0770988 66.7221285v6.2418183l-4.1092586-1.7676917-4.0982566-1.762202-8.9171462-8.7561128s-7.052302-4.5729417-10.8259987-8.7396436c-2.1563981-2.3770513-3.2400981-4.6223492-1.3422478-5.8026403.9187867-.6045757 1.7498917-1.3323783 2.469956-2.162952 1.8953729-2.2302026 3.5442087-4.6578883 4.9179079-7.2409485l.1760325-.3184041c1.8373392-3.3652019 3.0530637-6.2363286 3.0530637-6.2363286s5.1654536 1.6469178 8.493568 3.9965205c.2695498.1866507.5225965.3787911.7646412.5489726 1.8538422 1.520654 2.7780129 3.2938355 1.067197 5.0285889-.4383323.4564046-.8445411.9424879-1.2157244 1.4547773-.2775545.3809971-.5310908.7788556-.7591402 1.1912706-.0990183.1811609-.1980365.3678116-.2860528.5489726-1.1446549 2.3366362-1.5403292 4.9684125-1.1332092 7.5373936z" fill="#fda57d"/><path d="m71.2491537 64.2297929s7.4813812 4.2161095 5.5615267.6587671l-9.7588016-14.4050407 11.0845464 14.2458387s7.074306 9.6948559 3.2070921 16.3813421c0 0-.5501016 5.5556026.0935172 6.8731368.6436189 1.3175342-.1925355 15.3712321-.1925355 15.3712321s-2.6404875-2.448417-4.0542485-1.976301-11.4146073 1.317534-11.4146073 1.317534z" fill="#000" opacity=".1"/><path d="m78.3234597 22.3761227c.2145396.3678117.5115945.6862158.709631 1.0650069.3336147.8378023.4417152 1.7481466.3135579 2.6405581-.1094714 1.407629-.016852 2.8236466.2750508 4.20513.2915538 1.2351884.8361544 2.4319486.8801625 3.705565.0605112 1.8006301-.8746615 3.4585273-1.7823291 5.0121198.9921714-.0298541 1.9286769-.4644057 2.5909784-1.20225.2436758.8041915.0659091 1.6767609-.4730874 2.322154 1.4797732-.0658767 2.7505078-1.2296986 3.3006094-2.5966403.5019842-1.4066599.6474987-2.9153958.4235782-4.3917807-.215856-1.4631603-.3225024-2.940301-.3190589-4.4192294.1024571-.7972067.1447506-1.6009688.1265233-2.4044999-.1375254-1.603-1.1002031-2.9864109-2.0683818-4.2874759l-1.9033514-2.5966404c-.1329006-.2159915-.3233602-.3908548-.5501016-.5050547-1.8208361-.7630719-2.0298747 2.5691917-1.5237813 3.4530375z" fill="#464353"/><path d="m70.7265572 39.7511052c-.4383323.4564046-.8445411.9424879-1.2157244 1.4547773-.2775545.3809971-.5310908.7788556-.7591402 1.1912706-.0990183.1811609-.1980365.3678116-.2860528.5489726-4.4166283-.2423816-8.4938883-2.4409122-11.1175525-5.9947807l-.1760325-.2470377.1760325-.3184041c1.8373392-3.365202 3.0530637-6.2363286 3.0530637-6.2363286s5.1654536 1.6469178 8.493568 3.9965205c.2695498.1866506.5225965.378791.7646412.5489725 1.8538422 1.5481027 2.7780129 3.304815 1.067197 5.0560376z" fill="#000" opacity=".1"/><path d="m84.1600372 27.5803829c.0043831 7.1541638-5.1124217 13.2905042-12.1627454 14.5862017-.8897546.1585595-1.7916706.2393817-2.6954976.2415479h-.0660122-.4840894c-8.1245066-.3004982-14.4971018-7.0637609-14.298191-15.1747318s6.8953984-14.5550459 15.0249084-14.4585703c8.1295101.0964756 14.670548 6.6976446 14.6761262 14.8110422z" fill="#fda57d"/><path d="m71.7882532 94.7581586s4.6703622.9881507 6.0841232 2.1135445-6.0841232-2.1135445-6.0841232-2.1135445z" fill="#000" opacity=".1"/><path d="m63.938304 83.2462034s-.5501016 19.1371846-2.6514895 21.6075616c-2.101388 2.470376 2.6514895-21.6075616 2.6514895-21.6075616z" fill="#000" opacity=".1"/><path d="m59.2762166 137.180995s-3.883717 16.880907 3.9277251 17.934935c7.8114421 1.054027 5.4129993-19.214041 5.4129993-19.214041z" fill="#000" opacity=".1"/><path d="m58.3932803 137.051007s-3.883717 16.875417 3.9332261 17.934934c7.8169432 1.059517 5.4074983-19.21404 5.4074983-19.21404z" fill="#fda57d"/><path d="m84.06652 25.9444446c-.2190261-.3219391-.4034134-.6660357-.5501016-1.0265788-1.0396919-2.1574623-3.7131855-1.0979452-5.671547-.0713664-.346564.4501575-.698629.8948253-1.050694 1.3449828-.476924.558182-.8782676 1.1764961-1.1937204 1.8390582-.1999959.5383946-.3671655 1.088372-.5005924 1.6469178-.2695498.960702-.6656229 1.8719965-1.0231889 2.7997602-1.1897445 3.1042074-1.8965516 6.3718039-2.0958869 9.6893662-.8897547.1585595-1.7916707.2393817-2.6954977.2415479h-.0660122v-.0713664c.0990183-.3733014.1815336-.7520925.2585478-1.1308836.4094326-2.1379497.4596269-4.3289775.1485274-6.4833662 0-.0439178 0-.0933254 0-.1372432-.0715132-.4830959-.1650305-.960702-.2035376-1.4437979l-.5501015 1.0046199c-1.1827184 2.1958903-2.4259479 4.3917807-4.6593602 5.3524827-.9060412.3568684-1.8614094.5734678-2.833023.6422979-1.1993771.0611709-2.3878954.2582369-3.5426541.5874007-.3933209.1059632-.7494413.3188168-1.0286899.6148493-.3102111.459514-.4889889.9947468-.5170955 1.5481027-.1185365.7305005-.3026448 1.4488865-.5501015 2.1464828-1.0086073 2.6056394-2.58727 4.9537696-4.6208531 6.8731368l-.5170955.4995651c-.8684863.8966626-1.9060752 1.6130886-3.0530636 2.1080547-1.043135.3500365-2.1399947.5135773-3.2400982.4830959.4895904-1.2791061.8911646-2.162952.8911646-2.162952s1.6062965-5.0834862 4.246784-7.7185546c.7355538-.7536304 1.7458209-1.1775075 2.8000169-1.1748013 1.9722555-2.3245114 3.6806368-4.8597307 5.0939404-7.5593526-3.7053152-5.0174343-3.8694645-11.8121004-.4107411-17.0018978 3.4587233-5.1897974 9.8013125-7.66585 15.8706919-6.1956823 6.0693794 1.4701676 10.5687374 6.5724326 11.2584819 12.7671009z" fill="#000" opacity=".1"/><path d="m85.0126947 14.3775921c-.8801625-.9771712-2.117891-1.5481027-3.3006094-2.1135445-.4221259-.1573342-.7930802-.4269107-1.072698-.779541-.2052377-.4195769-.3177955-.8782445-.330061-1.3449829-.4125761-2.86563689-3.0860697-4.84742794-5.7430602-6.01124983-3.4216317-1.49320544-7.5308903-2.13550337-10.8149966-.35683218-1.5952946.86188696-2.8550271 2.22333898-4.2962932 3.32128416-1.8263372 1.39988011-3.9277251 2.37705131-5.8750846 3.59028075-1.9473595 1.2132294-3.8067028 2.7448629-4.7308734 4.8638971-1.4302641 3.2389383-.357566 6.9609725-.1760325 10.4963559.2805518 5.5720718-1.9913677 11.4021607-6.5022004 14.6959962-.5434738.3323186-1.0269893.7535985-1.4302641 1.2461678-.4046887.5115016-.4506599 1.2193163-.1155213 1.7786712.2255416.3074247.5996107.4776062.8471564.7630719.5170955.5928904.4125762 1.482226.2090386 2.2398082-.6527993 2.4465499-1.9589973 4.6703087-3.7791977 6.4339587.0770142.581911.7811442.8069897 1.3587508.8948253 1.5278846.2267373 3.0706715.3386764 4.6153521.3348733 2.4408196.2054928 4.8347608-.7558212 6.4526913-2.5911506 2.7505078-2.5856609 5.0774373-5.80813 5.6990521-9.513695.0314256-.5544311.2098765-1.0905795.5170955-1.5535924.2820402-.2925511.6371269-.5047868 1.0286899-.6148493 2.0518788-.7081746 4.4008124-.3623219 6.375677-1.2242089 2.5744753-1.0979452 3.8507109-3.8428081 5.1984597-6.3625923.0440082.4830959.1320244.9661918.2090386 1.4437979.3899653 2.5836509.2590489 5.2190017-.3850711 7.751493-.368568 1.4383082-.9021665 2.8601472-.8636594 4.3423732.0275051 1.0979451 1.1442112 6.829219 2.6129824 5.1109348s.9296716-5.4897259.9296716-7.6471882c-.0019446-3.984637.7251077-7.9361493 2.1453961-11.6601778.352065-.9277637.7536391-1.8445479 1.0231889-2.7997602.1341098-.557761.2993988-1.1075936.4950914-1.6469178.3207367-.6608603.7236517-1.278748 1.1992214-1.8390581l1.050694-1.3449829c1.9583615-1.0320684 4.6318551-2.0860958 5.671547.0713665.3960731.8289486.6106128 1.7457328 1.6503047.9442328.6161137-.4830959.8141503-1.421839.9736797-2.1355034.6711239-2.9864108 1.2102235-6.5053251-.8471563-8.7835614z" fill="#464353"/><path d="m65.1045193 66.211584c-.4015741-10.1450135-14.6216994-12.2420888-17.9388118-2.6460479-.0275051.0658767-.0495091.1262637-.0715132.1921404-2.1674001 6.4998355-1.2212254 22.9470542-1.2212254 22.9470542s.2805517 11.0398388 1.3202437 14.7124653c1.0396919 3.672627 3.9607312 14.2129 3.9607312 15.920205s2.7120007 8.190671 3.8507109 8.662788c1.1387102.472116 1.7163169 4.139253 1.9968687 4.79802s1.1277082 9.228229 1.1277082 9.228229 10.6609681-.658767 10.8480027-2.355092c.1870345-1.696325-2.3324306-9.985811-2.3324306-9.985811s-1.8758464-3.392651-2.117891-6.121045c-.2420447-2.728394-1.749323-3.952602-1.4632702-5.835578s-.8526574-2.827209-.8526574-4.051418-.8471564-4.518045-.8471564-4.518045-1.7933311-1.410859-1.5072783-3.107184c.2860528-1.696326-2.5469702-5.0834866-1.793331-6.3076955.7536391-1.2242089.9406736-4.2380684.9406736-4.2380684s.9241706-13.5541332 1.5897935-17.2487187c.6656229-3.6945856 4.5273358-9.6015306 4.5273358-9.6015306s-.005501-.1482226-.016503-.4446678z" fill="#000" opacity=".1"/><path d="m64.6644381 125.692764c-2.5964794 2.744863-6.3041639 3.343243-9.2307042 3.173062-.3410629-1.284596-.8361543-2.860148-1.5567874-3.162083-1.1442112-.466626-3.8507109-6.960972-3.8507109-8.657297 0-1.696326-2.9265403-12.242089-3.9607312-15.920205-1.0341909-3.6781167-1.3202437-14.7124657-1.3202437-14.7124657s-.9461747-16.4691777 1.2267264-22.9415645c0-.0658767.0385071-.1317535.0660122-.1976302 3.3006094-9.5905511 17.5372377-7.4934758 17.9388118 2.6460479v.4666267s-3.8507109 5.9343937-4.5273358 9.6015306-1.6062966 17.2377393-1.6062966 17.2377393-.1925355 3.0138595-.9461746 4.2325787c-.7536392 1.2187191 2.0738828 4.6168592 1.793331 6.3131852-.2805518 1.696325 1.5072783 3.107184 1.5072783 3.107184s.8471564 3.293836.8471564 4.518045 1.1332092 2.162952.8526574 4.045928 1.2267265 3.107185 1.4687712 5.841068c.2061798 1.526626.6439366 3.013056 1.2982397 4.40825z" fill="#000" opacity=".1"/><path d="m64.5379147 65.9261182c-.4015741-10.1395237-14.6216994-12.236599-17.9388118-2.6460478l-.0660122.1976301c-2.1729011 6.4943457-1.2267264 22.9415645-1.2267264 22.9415645s.2805517 11.0453285 1.3202437 14.712465c1.0396919 3.667137 3.9607312 14.21839 3.9607312 15.920205 0 1.701816 2.7120007 8.190672 3.8507109 8.657298 1.1387102.466627 1.7163169 4.144743 1.9968687 4.80351.2805517.658767 1.1277081 9.22823 1.1277081 9.22823s10.6609682-.658768 10.8480028-2.355093c.1870345-1.696325-2.3599357-9.980321-2.3599357-9.980321s-1.8703453-3.387161-2.11239-6.132024-1.749323-3.952603-1.4632701-5.835579c.2860528-1.882976-.8526575-2.821719-.8526575-4.045928s-.8471564-4.518044-.8471564-4.518044-1.793331-1.41635-1.5072782-3.107185c.2860528-1.690836-2.5469702-5.0834864-1.7933311-6.3076952.7536391-1.2242089.9406737-4.2380684.9406737-4.2380684s.9461746-13.559623 1.6062965-17.2267599 4.5273358-9.6070203 4.5273358-9.6070203 0-.159202-.011002-.461137z" fill="#9f9eff"/><path d="m47.0281821 92.0023162c.2805518-.279976 5.660545-6.2143697 7.3548578-4.0953355s-7.3548578 4.0953355-7.3548578 4.0953355z" fill="#000" opacity=".1"/><path d="m47.5232735 96.5697682c.2090386-.2140993 5.3744922-.4227089 6.6507279-3.2938356 1.2762356-2.8711266-6.6507279 3.2938356-6.6507279 3.2938356z" fill="#000" opacity=".1"/><path d="m41.6371869 44.5271667c.1271829.1515396.2225852.3270182.2805518.5160342.212545-.6508277.1088043-1.3633422-.2805518-1.9268937-.2530468-.2854658-.6216148-.461137-.8526574-.7630719l-.0440082-.0823459c-.2596588.468412-.2427883 1.0408327.0440082 1.4932054.2310426.3074247.5996106.4776062.8526574.7630719z" fill="#000"/><path d="m48.8380162 26.2299103c0-.5489726 0-1.0704965 0-1.6029999-.0990182-1.9159144-.4565842-3.8922157-.5501015-5.8136198-.1100203 2.3550924.4180772 4.8309588.5501015 7.229969 0 .060387-.005501.120774 0 .1866507z" fill="#000"/><path d="m70.8860867 49.8137727c-1.3092417 1.5316336-2.3379317-2.8766163-2.5634733-4.6113697-.0358347.3024111-.0523711.6067896-.0495091.9112945.0330061 1.0979452 1.1442112 6.829219 2.6129824 5.1109348.9956838-1.1583322 1.1002031-3.1401232 1.0341909-4.9736917-.0550102 1.3724315-.2915538 2.6954555-1.0341909 3.5628321z" fill="#000"/><path d="m86.0358835 21.750294c-.1595294.7136644-.363067 1.6469178-.9736797 2.1300136-1.0341909.8069897-1.2432295-.1097945-1.6503047-.9387431-1.0396919-2.162952-3.7131855-1.0979452-5.671547-.0713664l-1.050694 1.3449828c-.476924.558182-.8782676 1.1764961-1.1937204 1.8390582-.1999959.5383945-.3671655 1.088372-.5005924 1.6469178-.2695498.9552123-.6656229 1.8719965-1.0231889 2.7997602-1.4249143 3.7251671-2.1575193 7.6783242-2.1618991 11.6656675v.5764212c.0985019-3.7057642.8257699-7.3680531 2.1508971-10.8312292.357566-.9277637.7536391-1.8445479 1.0231889-2.7997602.1334268-.5585457.3005964-1.1085232.5005924-1.6469178.3167676-.6618287.7180046-1.2799786 1.1937204-1.8390581l1.0506939-1.3449829c1.9583616-1.0320684 4.6318551-2.0860958 5.6715471.0713665.4015741.8289486.6106127 1.7457328 1.6503047.9442328.6106127-.4830959.8141503-1.421839.9736797-2.1355034.4147601-1.6522101.5998614-3.3534944.5501016-5.0560375-.0867555 1.2269503-.266976 2.4455301-.5390996 3.645178z" fill="#000"/><path d="m69.5218348 34.0198314c.1119255.7401171.17989 1.4861925.2035376 2.2343184.0479439-1.2187497-.020208-2.4392891-.2035376-3.645178-.0715132-.4830959-.1650305-.960702-.2090386-1.4437979-1.3587508 2.5307636-2.6184834 5.2426882-5.1929587 6.3571026-1.9968686.8673767-4.3237982.5215239-6.3811781 1.2296986-.3910385.1112737-.7458271.3233313-1.0286899.6148493-.3045915.4618651-.4811129.9960251-.5115944 1.5481027-.6271158 3.7110547-2.9595464 6.9335238-5.7045532 9.5136949-1.6194418 1.8336981-4.0116175 2.7963382-6.4526912 2.5966404-1.542852.0037349-3.0838052-.1082045-4.6098511-.3348733-.2372105-.0338059-.4697657-.0945883-.6931279-.1811609-.2145396.2415479-.4400813.4776061-.6711239.6971951.0770142.581911.7866452.8069898 1.3642518.8948254 1.5260459.2266687 3.0669991.3386081 4.6098511.3348732 2.4408196.2054928 4.8347608-.7558212 6.4526912-2.5911506 2.7505078-2.5856609 5.0774374-5.80813 5.7045532-9.5136949.0295198-.5539645.206081-1.0901394.5115944-1.5535925.2828628-.2915179.6376514-.5035756 1.0286899-.6148493 2.0573799-.7081746 4.4008125-.3623219 6.3811781-1.2242088 2.5744753-1.0979452 3.8507109-3.8428082 5.1929587-6.3625924.0440081.4830959.1375254.9661918.2090386 1.443798z" fill="#000"/><path d="m98.902759 75.1982653.2915538.1976301c-.2555463-.1745345-.4310432-.4433287-.4877991-.7471221-.0567559-.3037933.0098896-.6176402.1852432-.872347l13.1144211-18.9944516c.175994-.2620517.451046-.4415798.762159-.4974653.311114-.0558855.631633.0166598.888146.2010201l-.291554-.2031199c.851553.5870849 1.065719 1.7515248.478588 2.6021301l-12.333277 17.8361194c-.588292.8498058-1.7551265 1.0635322-2.607481.4776062z" fill="#464353"/><path d="m106.326828 51.9283085.269371-.0002584-.024398 25.412278-.269371.0002585c-.528285.0005068-.956134-.4270285-.955627-.9549268l.022562-23.5005891c.000507-.5278983.429178-.9562553.957463-.9567622z" fill="#9f9eff" transform="matrix(.8235326 .56726895 -.56726895 .8235326 55.365558 -48.708492)"/><path d="m71.5297055 64.2297929s7.4868822 4.2161095 5.5670277.6587671l-9.7643026-14.4050407 11.0845464 14.2458387s7.074306 9.6948559 3.2070921 16.3813421c0 0-.5501016 5.5556026.0935172 6.8731368s-.1870345 15.3712321-.1870345 15.3712321-2.6404875-2.448417-4.0542485-1.976301-11.4201083 1.317534-11.4201083 1.317534z" fill="#464353"/><path d="m80.5843771 100.379638-.1375254 2.60762c-.8966655-.653278-2.145396-1.377921-2.9760494-1.097945-1.413761.472116-11.4146073 1.317534-11.4146073 1.317534l.4620853-3.2389385z" fill="#000" opacity=".1"/><path d="m74.9678402 71.1688065c-.4400812 4.5235341-2.3049255 9.9144449-2.3049255 9.9144449s-1.3202437 13.3674826-3.0200576 17.3200852c-1.6998138 3.9526024-.9461746 9.4148804-1.8868483 19.4885274-.341063 3.628708-1.5127793 6.121044-3.0915707 7.8009-2.5964794 2.744863-6.3041639 3.343243-9.2307042 3.173062l-.6931279-.054898c-4.7198714-.466626-9.2472072-23.161153-9.2472072-23.161153s-2.1674002-19.2963867-1.3202438-21.9314551c.8471564-2.6350685-.8471564-17.6988763-1.413761-20.9982016-.363067-2.0860958.7206331-5.4897259 1.5567874-7.7185546.4895904-1.2791061.8911646-2.162952.8911646-2.162952s1.6062965-5.0834862 4.246784-7.7185546c.7355538-.7536304 1.7458209-1.1775075 2.8000169-1.1748013 1.241869.0473627 2.4482293.4265389 3.4931449 1.0979451.0423554.0243773.0828106.0519038.1210224.0823459 0 0 17.1741706 17.5067359 18.7749661 21.5581536.4455823 1.1253938.4895904 2.7393732.3245599 4.4851061z" fill="#9f9eff"/><path d="m60.3076337 234.11485-8.8731381 9.579572s-8.2075152.093325-6.6012187-4.424719c.320318-.977651.5486798-1.982954.6821259-3.00288 1.1717164.900315 2.8550271 3.568322 2.8550271 3.568322s5.660545 1.646918 7.2173325-3.293836c.8691604-2.744863 2.2444143-4.133763 3.3006093-4.79802.3944644.834814.8698154 1.629117 1.419262 2.371561z" fill="#000" opacity=".1"/><path d="m80.881432 248.503422c-3.0070996 2.560055-6.8522514 3.927714-10.8039946 3.842808-7.3163507-.104305-20.9863744-.312914-24.1604604-.450157-4.246784-.181161-2.8385241-3.798891-2.7009987-6.296716l26.6634225 1.646918s10.9195159-1.646918 11.5521327-4.896836c3.185088 1.762202 1.776828 4.144743-.5501015 6.153983z" fill="#c17174"/><path d="m21.0303825 222.767587c-.6271157.900315-1.0066858 1.460267-1.0066858 1.460267l-3.542654-.516034s-3.8177049-5.81911-3.7461917-5.978312c.0715133-.159202 3.0200576-6.40102 3.0200576-6.40102l1.1497123-1.344983.374069.065877h.8966656c-3.157583 3.293835.2365436 10.545763.2365436 10.545763s1.4742722.137243 2.6184834 2.168442z" fill="#000" opacity=".1"/><path d="m11.8821936 244.199477c-.9241386 1.8264-2.78024794 2.997273-4.82989164 3.046798-.07508236.005422-.15045928.005422-.22554164 0-4.30179417-.115285-5.67154705-12.571473-5.67154705-12.571473s.66012187-23.726595 1.88684834-25.252739c.17012961-.168556.38639899-.283154.62161476-.329383 1.25235781-.211668 2.52847549-.244938 3.79019973-.098815-.0715132 4.260027-.27505078 17.742794 0 19.076797.27505078 1.334004 2.7175017 12.538534 4.4283175 16.128815z" fill="#c17174"/><path d="m6.82676032 247.251764c-4.30179417-.115284-5.67154705-12.571472-5.67154705-12.571472s.66012187-23.726595 1.88684834-25.252739c.17012961-.168557.38639899-.283154.62161476-.329383.90216655 1.344982 1.6943128 4.303945.97918077 10.831229-1.3422478 12.357373.27505078 13.131424.27505078 13.131424s2.00787069 10.501846 1.9088524 14.190941z" fill="#c17174"/><path d="m6.82676032 247.251764c-4.30179417-.115284-5.67154705-12.571472-5.67154705-12.571472s.66012187-23.726595 1.88684834-25.252739c.17012961-.168557.38639899-.283154.62161476-.329383.90216655 1.344982 1.6943128 4.303945.97918077 10.831229-1.3422478 12.357373.27505078 13.131424.27505078 13.131424s2.00787069 10.501846 1.9088524 14.190941z" fill="#000" opacity=".1"/><path d="m81.4150305 76.8945906s1.9803656.1372431 3.2511002-.7081747 6.722241-3.1785513 6.8652674-4.7321437c0 0 3.2511002 7.910695 5.0939404 8.190671 0 0-5.660545 4.446678-6.0841232 5.8630273s-11.4641165 4.8693869-11.4641165 4.8693869z" fill="#9f9eff"/><path d="m51.4344956 170.049749s-6.9202776 9.22274-9.4507448 10.260298c-2.5304671 1.037558-21.3934495 24.099897-21.3934495 24.099897s4.0542485 7.438578 11.5081246 8.662787c0 0 4.0542484-1.603 5.5670277-5.176811 1.5127793-3.573812 13.3949729-13.652949 13.3949729-13.652949z" fill="#5e5a6b"/><path d="m74.0827791 70.3766694c-.4345802 4.5235341-2.2994245 9.8815066-2.2994245 9.8815066s-1.3202438 13.3729722-3.0200576 17.3255749c-1.6998138 3.9526031-.9461746 9.4148801-1.8868483 19.4885271-.341063 3.623219-1.5127793 6.115554-3.0915708 7.8009-2.5964793 2.744863-6.3041638 3.337754-9.2307041 3.167572-.2420447 0-.4675863-.027449-.698629-.049407-4.7143703-.472117-9.2417061-23.161154-9.2417061-23.161154s-2.1674002-19.2963865-1.3202438-21.9314549-.8471564-17.704366-1.413761-20.9982015c-.363067-2.0860959.7206331-5.4897259 1.5567874-7.7185546.4895904-1.2845959.8911646-2.1684418.8911646-2.1684418s1.6062965-5.0834861 4.246784-7.7185546c.7335475-.7559079 1.7456187-1.1785578 2.8000169-1.1693116 1.2421483.0457516 2.4489256.4250588 3.4931449 1.0979452l.1210223.0768562s17.1741707 17.5122256 18.7749662 21.5581535c.4455823 1.1528425.4895904 2.7723116.3190589 4.5180445z" fill="#000" opacity=".1"/><path d="m55.7307888 140.086825s-3.8947191 3.458528-5.2369669 3.293836 5.2369669-3.293836 5.2369669-3.293836z" fill="#000" opacity=".1"/><path d="m56.7429756 143.408109s-4.1037576 1.904935-5.3304841 2.195891c-1.2267264.290955 3.7681957-2.684476 5.3304841-2.195891z" fill="#000" opacity=".1"/><path d="m72.6409106 91.4368745s6.0841233.0713664 7.0027929 1.9763013-5.0224273-2.7503527-7.0027929-1.9763013z" fill="#000" opacity=".1"/></g><g transform="translate(424 107)"><path d="m79.5 103-5.5 5.5 5.5 5.5 5.5-11z" fill="#a0616a"/><path d="m80.9011876 54.3240921c1.5923446.6523727 2.3496471 2.4356811 2.9497308 4.0498756l7.3603154 19.7990572 1.432648 3.8537876c.7025804 1.8899231 1.4055833 3.7810767 1.9997534 5.7079011.3758553 1.2188125.7076323 2.450098.9953312 3.6938564.2984159 1.0643425.4131645 2.1718679.3393024 3.2748643-.1988918 1.2135699-.6413993 2.3742016-1.3008043 3.4118167-2.5608445 4.464716-6.2075378 8.208946-10.6012019 10.884749-.5148603-3.326466-2.6818386-6.163599-5.7535905-7.532933l3.8059618-2.09549c.8051848-.3783547 1.5294698-.9093741 2.1327761-1.5636735.74466-1.0314271 1.0386293-2.3215199.8144393-3.5741904-.2285422-1.2370473-.6080102-2.4413073-1.1298796-3.5857271-1.2768213-3.1905012-2.3848575-6.4461238-3.3195023-9.7533336-.5528259-1.9562597-1.0606511-3.9667512-2.1561843-5.678611-.9938434-1.5529572-2.4330038-2.7948054-3.3360387-4.4023858-1.376249-2.4499948-1.3409759-5.4666062-.7332639-8.2107898.513064-2.3168292 1.3734876-4.5465013 2.0973138-6.8019986.5687256-1.7722324 2.6981351-2.1752067 4.4028933-1.4767751z" fill="#d0cde1"/><path d="m46.4170428 1.58170127c-2.9397179.97712978-5.6029773 3.26255491-6.2049652 6.25842724-.2790485 1.38872146-.107963 2.83237129-.3427916 4.22899569-.5445963 3.2390765-3.1279267 5.7127838-5.5105923 8.0104997-2.3826657 2.2977159-4.8432213 4.9675708-5.0171184 8.2462371-.1904188 3.5902178 2.4550399 6.953673 1.9972751 10.5204311-.5318362 4.1438452-4.9787244 6.8289826-6.0779983 10.8631956-.7340334 2.6938194.1654496 5.5955974 1.645314 7.9740511 2.8200334 4.5324384 7.640331 7.6095035 12.7735814 9.2590613s10.6002813 1.9965979 15.9999089 2.0522867c6.5746701.0677987 13.7130606-.4877422 18.6529223-4.7585154 2.8217195-2.4613442 4.5937861-5.8815614 4.960892-9.5748821.46929-4.9470654-1.6285644-10.0587101-.1815152-14.8187899.910698-2.9957289 3.1944941-5.7316749 2.8536655-8.8405825-.3332423-3.0397315-3.0306656-5.1943583-4.8811657-7.6500344-1.7277696-2.2928046-2.7761744-5.0004543-3.8037009-7.6699353l-3.5157109-9.13369157c-.6911306-1.79552022-1.4500635-3.68393808-2.9902704-4.86240112-2.8834156-2.20616453-7.5198232-1.77270873-10.8914377-1.31768795-3.127895.42213732-6.4583038.21352432-9.4662926 1.21333471z" fill="#2f2e41"/><path d="m48.8079247 32.0068825s.3371026 10.1748819-.6741989 11.1923745 4.0452059 7.800743 4.0452059 7.800743l9.1016759-.33916 4.7193924-3.7307915-4.0452059-5.4266104s-1.6854941-8.8182293-.3370963-10.8532082c1.3483978-2.0349788-12.8097731 1.3566526-12.8097731 1.3566526z" fill="#000" opacity=".1"/><g fill="#a0616a"><path d="m27 111.079975 5.6664418 12.920025 4.3335582-5.440175-8.6665031-11.559825z"/><path d="m11.4600125 241-2.38003753 13.00046-4.07997497 5.666616 2.38003754 1.332924 4.07997496-.666769 4.7600751-1.666615 2.0396746-7.666309 3.7402378-10.000307z"/><path d="m55.3848114 232-1.3848114 19.250237 3.4613915 2.749763 5.5386085-4.812559v-14.093563z"/><circle cx="54.5" cy="23.5" r="12.5"/></g><path d="m63.8624223 40.2817892c-.7467555-.3590945-1.6129696-.375739-2.3729946-.0455978-.7471669.3305026-1.4725218.7081765-2.1716666 1.1307316-1.7973657.9342369-3.8352193 1.3044974-5.8467457 1.0623035-.2363442-.0178814-.4676636-.0773609-.6832812-.1756932-.2286521-.1420536-.4389675-.3116356-.6262194-.5049345-1.5160094-1.2305137-3.7354152-1.0393787-5.018273.432173-.3617419.4502423-.609398.9878061-1.0041217 1.4094884-1.0223785 1.0921716-2.7093785 1.1364109-4.2061494 1.1337065-3.1030977-.0863484-6.2054175.1977269-9.2410989.846195-3.0495801.6574239-5.8579453 2.1441176-8.1149214 4.2958808-.6160659.5786904-1.1067027 1.2775327-1.4415473 2.0532793-.412779 1.0634481-.3585124 2.2579601-.7295401 3.3366599-.4131819 1.201229-1.3284498 2.1868778-1.6988858 3.4019434-.2790136.9151829-.2401204 1.9340206-.7069772 2.7693413 1.9992284 1.7287675 3.69304 4.0341682 5.6922621 5.7629357 1.3237031 1.1446625 2.7096492 2.3828792 3.2071899 4.0597784.2237201 1.0338902.3230853 2.090767.2959861 3.1481931.2474106 5.0554651 2.9918169 9.6414864 6.0608661 13.6686546.8414184 1.1944486 1.8484994 2.2633576 2.9910299 3.1746587 1.5510614 1.0551517 3.312656 1.7618286 5.1634142 2.0713424 3.4949542.7141939 7.0923099.710565 10.6594287.6750993 3.6865557-.0366544 7.437967-.1147304 10.9422007-1.259198 1.7835279-.4971992 3.3879902-1.4925612 4.6249091-2.8691596 1.4415221-1.7685665 2.0038933-4.326988 3.9703665-5.4855752.4761144-.2179354.9270648-.4870068 1.3448809-.8024587.4004632-.4341475.6839733-.9628087.8239338-1.5363887.6878459-2.1466192 1.0669629-4.3799742 1.1259887-6.6331309-.0506717-1.3520983.0411168-2.7057717.2738514-4.0386902.34-1.1746419.835508-2.2986578 1.4733834-3.3422386l4.0750784-7.3834508c.3312028-.6000925.2452324-1.4830802.2752301-2.1676953-.0301977-.98717-.3335707-1.9466807-.8764566-2.7720645-2.6431076-4.6669584-6.7952408-8.2980624-11.7754077-10.2977743-.3924909-.1332609-.7662725-.3162153-1.1122143-.544394-.4074886-.3422723-.752076-.752949-1.0182613-1.2135561-1.0811841-1.6280309-2.4022431-3.4620508-4.3552378-3.3603645z" fill="#d0cde1"/><path d="m12.9093084 80.0841511c-.8091786 1.9396977-1.4033933 3.9599297-1.772296 6.0255142-.3959526 2.8537759.0707932 5.7593045 1.3417939 8.3527701 2.211267 4.487831 6.5647374 7.5316476 9.6373827 11.4960116 2.8548681 3.683389 4.554988 8.098289 7.0271249 12.041553-.4311171-1.003797.0925941-2.165856.7980831-3.005198.7054889-.839341 1.6073292-1.535427 2.1246125-2.498836.3521027-.746053.5734807-1.545523.6547388-2.364481.3690199-2.445118.5682364-5.10193-.696177-7.236605-.9517917-1.60687-2.5956337-2.674155-3.8973332-4.0215884-2.6396559-2.7805396-3.7822642-6.6322855-3.0783124-10.3770268.2506006-1.2711464.7113462-2.4914742 1.0565695-3.7408707.427085-1.6791465.7504264-3.382299.9682415-5.1000668l1.5512605-10.5047578c.4125944-2.7939921.7615577-5.8859646-.8433627-8.2243517-.3129963-.4895431-.7460122-.8934712-1.2590886-1.1745092-.4244663-.1914068-.8764205-.3168915-1.3398161-.3719989-1.688082-.272043-3.9750307-1.0010222-4.7992749.7825727-.9947894 2.152694-1.6877588 4.4992873-2.5205227 6.7188748z" fill="#d0cde1"/><path d="m72.3955657 86s-20.4986996 3.9212248-25.3262298 3.9212248h-8.6206331s-3.1034214 5.4556281-3.1034214 10.9112502c0 5.455621-20.3446558 81.834358-20.3446558 81.834358s-19.31018424 62.739673 2.0689496 63.080646c21.3791339.340974 34.8272909 1.363907 35.1721126-5.79657.3448218-7.160477 2.4137778-99.565137 2.4137778-99.565137l3.2186813 47.514088c.8650629 11.762724-.0587543 23.587226-2.740629 35.078988-1.5436423 6.442489-1.3041752 13.505463 6.418491 14.9262 14.8274568 2.727814 33.4479911.340974 33.4479911-4.773668s-9.6550921-118.659823-9.6550921-118.659823-4.8275429-16.7078449-7.5861424-18.0717707c-2.7585996-1.3639258-5.3631998-10.3997863-5.3631998-10.3997863z" fill="#2f2e41"/><path d="m7.67293645 258.22535 7.60746055-2.704221 5.1869061-12.845072 5.5326969-.676057s-3.1121424 6.422536-4.841109 7.436618c-1.7289665 1.014082-4.4953182 9.464789-4.4953182 9.464789s1.3831758 3.380284-5.1869061 4.732397c-6.57008186 1.352114-11.41119083 2.366196-11.41119083 2.366196s-.6915879-1.352114 2.42055448-4.732397c3.11214239-3.380284 6.74604761-9.071041 6.74604761-9.071041z" fill="#2f2e41"/><path d="m54.3879078 242.675084-1.3879078 9.994512s3.8167433 5.330404 4.8576709 5.330404c1.0409277 0 6.5925589-4.664102 6.5925589-4.664102s-.3469801-4.997256 0-6.329859c.3469801-1.332602 1.0409277-7.662455 0-7.995608-1.0409277-.333154-1.0409341 7.425056-1.0409341 7.425056l-4.5106907 4.568359-4.3492175-2.503845z" fill="#2f2e41"/><path d="m48.8079247 32.0068825s.3371026 10.1748819-.6741989 11.1923745 4.0452059 7.800743 4.0452059 7.800743l9.1016759-.33916 4.7193924-3.7307915-4.0452059-5.4266104s-1.6854941-8.8182293-.3370963-10.8532082c1.3483978-2.0349788-12.8097731 1.3566526-12.8097731 1.3566526z" fill="#a0616a"/><ellipse cx="55.5" cy="16" fill="#2f2e41" rx="13.5" ry="7"/></g></g><g transform="translate(246 81)"><path d="m81.0586961 31.5919959c-.543337 1.1668863-.9411606 2.3970359-1.1843944 3.6623825-.0710637.3181222-.1421273.6521506-.213191 1.0020851-.7106366 3.6504529-1.1843944 8.2433429-1.4331172 10.9155698-.1184394 1.3361135-.1776592 2.1950436-.1776592 2.1950436s-25.6895143-1.7297898-21.2361914-6.0721585c1.1481576-1.1988087 1.9648132-2.679418 2.3687888-4.2946505.1302834-.4652538.2368789-.9305076.3316305-1.4076909.2123092-1.0827415.350812-2.178847.414538-3.2806358 0-.2743804 0-.5487609 0-.8350709.0579215-1.7892772-.0252473-3.5803625-.2487228-5.3563835 0 0 8.3499804 0 14.6509586.6799864 4.2401319.4891129 7.5445922 1.3361134 6.7273601 2.7915227z" fill="#dcb2b0" fill-rule="nonzero"/><path d="m36.5182579 156.221905c-8.9304388-.29129-2.3443912-18.970289-1.3172095-21.482669s-1.5226459-8.66589-1.5226459-8.66589-3.0211227-17.792991-3.0211227-18.958152c-.1542745-2.425685-.4936363-4.835905-1.0150972-7.2094384-.3143659-2.4230904.1068193-4.8850599 1.2084491-7.0637929 1.0271817-1.6142344.8700833-8.0833094.8700833-8.0833094v-8.3745998l1.993941-2.645888 5.0875707 4.8548405 1.4138854 1.3350811 2.4894051 9.3698421-.8821678 13.4236338-.4712952 13.071658 3.0815452 18.084281s1.0755197 22.647831-7.9153415 22.344403z" fill="#dcb2b0" fill-rule="nonzero"/><path d="m37.629479 78.7373631-6.8442067-2.8131223v-1.0951851l1.7816665-2.3406896 4.5845321 4.2733691z" fill="#000" fill-rule="nonzero" opacity=".1"/><path d="m34.7140247 60.6152716c-.9358483 2.3170474-1.6140404 4.7315397-2.022152 7.1992441-.3761495 2.3675563-1.0157175 4.6848452-1.9066004 6.9080124l8.0886079 3.3899353z" fill="#585858" fill-rule="nonzero"/><path d="m35.9584259 61.865071c-.9358482 2.3170474-1.6140403 4.7315397-2.0221519 7.1992441-.3761496 2.3675563-1.0157176 4.6848452-1.9066005 6.9080125l8.088608 3.3899353z" fill="#ff7000" fill-rule="nonzero" opacity=".05"/><g fill-rule="nonzero" transform="matrix(.91354546 .40673664 -.40673664 .91354546 55.115183 199.189465)"><path d="m28.7877326 60.7955195-.6796771 1.4888196s-.7382699 4.9347163-.7382699 5.0547824-2.1327797 3.409877-2.1327797 3.409877l-5.3553865 1.2006609-2.2734026-.2881586c-.1210553-1.3564138-.3245724-2.7037701-.6093657-4.0342207-.0820299-.3722048-.1640599-.7564163-.2695271-1.1406278-.8003335-3.0780458-2.0613703-6.0104335-3.7382238-8.6927851 0 0-3.97259524-10.0375252-5.39054222-11.3462456-1.41794697-1.3087204-6.82020775-14.5520103-6.24599782-17.7457683.30468282-1.752965.05859285-7.6362035-.22265283-12.5349-.2343714-3.9982008-.49217994-7.3600514-.49217994-7.3600514l13.48807411-8.16449423 1.5702884 2.53339453.9374856 1.50082615s0 .28815862-.0585929.76842298v.18009914c-.1550384 2.04189607-.5484652 4.0573816-1.171857 6.00330453 0 0-1.007797 7.4200845 0 8.7288049s4.2186852 18.8023499 4.933518 26.8948045v.7324032c.2812457 3.7220488 2.5312111 7.0358729 4.7928951 9.461208.1406229.1680925.2929643.3241784.4453057.4802643 1.0046093 1.0310492 2.0774528 1.9898525 3.2108882 2.8695796z" fill="#dcb2b0"/><path d="m16.8964749 71.6623443 2.4005244.2873151 5.6548437-1.1971462s2.2520384-3.2921521 2.2520384-3.3998953c0-.1077431.7795518-5.0399856.7795518-5.0399856l.7176825-1.4844613.0866169-.179572c-1.3825119-.9265455-2.6822022-1.9637224-3.8853849-3.1006087-.1361123-.1197146-.2722245-.2394292-.3959628-.3711153-.1237384-.1316861.8042994 4.7885849-3.501796 6.9314766-2.0911785 1.0415173-3.8111419 1.8436052-5.0114041 2.3942925z" fill="#000" opacity=".1"/><path d="m30.0671874 61.2798567-.8040773 1.6656751s-.7793364 4.9251255-.7793364 5.0449582-2.2514163 3.4032497-2.2514163 3.4032497l-5.6532815 1.1983274-3.2534203-.3714815c0-.6351135-.1113337-1.533859-.2721492-2.6243369-.0989633-.6590801-.235038-1.3900598-.4205942-2.1809558 1.2370419-.5392474 3.1544568-1.4260096 5.6161703-2.6602868 4.3172762-2.145006 3.5008286-6.9383155 3.5008286-6.9383155.93399.9014652 1.921157 1.749707 2.9565302 2.540454.5937801.4074313 1.0762264.7309797 1.3607461.9227121z" fill="#7c7c7c"/><path d="m29.1294263 61.3688211s-1.858377-.4106053-2.2300524 5.5431714c-.3716754 5.9537766-7.841152 4.359662-7.841152 4.359662s-3.6687959-.9178236-3.7047645.6159079c.1224651 1.4182415.4538088 2.8102263.9831414 4.1302061 0 0 .2158115 3.5505281.9112042 4.3958919.6953927.8453639.2517801 3.9852866.2517801 3.9852866s.2877487 2.3428655 6.0667017 0c0 0 5.1554975-1.0748197 9.4357594-7.5358146.1438743-.2173793-.5035603-.8815937 3.2371728-2.2341759 3.7407331-1.3525821 14.3874349-10.0235996 13.620105-14.2624954-.169368-1.4340382-1.1680749-2.6298042-2.5417801-3.0433097-1.1310831-.3038357-2.3358678-.1385512-3.3450786.4589118-1.0107682.5509416-2.0560668 1.0350299-3.1292671 1.4491951-1.424921.5810863-2.9283788.9433976-4.4601048 1.0748197-1.1745784.1009145-2.335704.3234952-3.4649739.6642145-1.2044002.4733487-2.5131852.6110185-3.7886912.3985286z" fill="#e3e3e3"/><g fill="#000"><path d="m16.6329122 5.0880081-.0608819.07464071c-.5114072.57224541-4.1156107 4.61528363-5.2114834 4.90140629-1.81197227.698788-3.58435974 1.5003487-5.30889438 2.4009427 0 0-2.21609811 3.0229486-3.98167077 3.17223-.53382419.0787476-1.05686632.2206901-1.5585745.422964-.24352726-4.1425591-.51140725-7.62579206-.51140725-7.62579206l14.0149941-8.43439974 1.6316326 2.62486482c.3652909 1.05740999.7792873 2.04017928.9132273 2.35118222z" opacity=".1"/><path d="m30.0671874 61.306833-.7905377 1.6617029s-.7662134 4.9133805-.7662134 5.0329275-2.2135054 3.395134-2.2135054 3.395134l-5.5580878 1.1954697-3.198637-.3705956c0-.633599-.109459-1.5302012-.2675665-2.6180787.6801357.0304853 1.355965.1225273 2.0189115.274958 0 0 7.5891614 1.5899748 7.954025-4.3156456.2189181-3.3473152.9243209-4.6623319 1.4837783-5.1763839.5837817.4064597 1.0581043.7292365 1.337833.9205117z" opacity=".1"/></g></g><path d="m60.2822867 205.199084c-.8265231.686548-1.5397221 1.499886-2.1131986 2.409908-2.1131985 3.241327-3.3859204 7.771955-4.802724 9.72398-1.8490487 2.530404-2.401362 7.446617-2.401362 7.446617-.4922792 3.229277-7.3121473 20.484221-9.161196 23.544804-1.8490488 3.060584-4.4185061 11.386817-4.4185061 11.386817-1.5728921 1.976125-1.4768376 4.916213-1.3207491 6.31396 0 .240991 0 .433784.0720408.566329.0720409.132545 0 .228941 0 .228941v.084347l-2.5214301 4.301686-8.0205491-1.120607-4.1423494-2.819593c.3392205-.55294.6401023-1.128663.9005107-1.723085 2.2212599-4.964411 3.794152-13.832873 3.794152-13.832873s2.2332667-10.121615 2.0651713-12.483325c.0563184-3.222405.2767309-6.439813.6603746-9.639634 0 0 6.3155821-19.339514 8.3327261-22.472395.8407187-1.237981 1.3606792-2.666749 1.5128581-4.157092.0389787-.299968.0389787-.603747 0-.903715l2.7135391-2.711147s22.3326666 3.072633 18.8506917 5.856077z" fill="#dcb2b0" fill-rule="nonzero"/><path d="m36.3850778 266.100684v.620657.304474l-2.5640974 4.180658-8.1562716-1.089079-4.2124457-2.740263c.3449607-.537383.650934-1.096908.915749-1.674605 2.0512779-.562106 6.7399131 1.030526 6.7399131 1.030526s5.0671449.925132 7.2038927-.562105c0-.011711.0244199-.046842.0732599-.070263z" fill="#000" fill-rule="nonzero" opacity=".1"/><path d="m34.3149065 276.653475-8.0063695 2.051795-7.3450764-5.826083.3778818-3.280337c.5127155-.336865.9680003-.765208 1.3462037-1.26654.5359719-.675061.9018555-1.486071 1.0627924-2.355764.425117-2.41909 7.4041204.227978 7.4041204.227978s5.1014036 1.038562 7.0852827-.696597c-.1393104 1.590484-.0113206 3.194874.3778818 4.736858.1891275.751357.6042345 1.414732 1.1808804 1.887144 2.0429232 1.507182-3.4835973 4.521546-3.4835973 4.521546z" fill="#7c7c7c" fill-rule="nonzero"/><path d="m34.3149065 277.476071-8.0063695 1.854098-7.3450764-5.264723.3778818-2.964267c.5127155-.304408.9680003-.691478 1.3462037-1.144505h1.6059974c1.1808804.11445 4.1330816 5.207497 4.1330816 5.207497 7.2506059.469247 9.4470436-1.831208 10.1909983-3.525075.1891275.678962.6042345 1.278419 1.1808804 1.705312 2.0429232 1.407741-3.4835973 4.131663-3.4835973 4.131663z" fill="#000" fill-rule="nonzero" opacity=".1"/><path d="m26.8469363 275.508537s-2.9407547-5.359157-4.1840007-5.467545c-1.051149-.059474-2.1047829-.059474-3.1559319 0 0 0-3.2515663 7.767767-4.446995 8.430135-1.1954288.662368-2.9407548 4.38367-2.9407548 4.38367s8.6070871 8.430135 16.9272714 6.780238c2.6546742.038496 5.2647025.693787 7.6268355 1.914845 3.8492806 2.023232 19.9277976.493765 21.8883008-3.058935 1.4584231-2.673557 2.0441832-4.612488.7531201-6.021525-.7830044-.816959-1.9094291-1.202697-3.0244348-1.035703-2.0202746.276991-6.5629039.228818-10.5436817-4.696789 0 0-7.3399327-6.768194-7.9376471-6.780237s.4901258 6.322601-10.9620818 5.551846z" fill="#e3e3e3" fill-rule="nonzero"/><path d="m23.2029049 140.780502c-1.4552613 5.399344-2.46436 10.956592 2.8471305 20.217459 2.8572092 5.205862 3.3439367 6.771649 7.710834 10.771021l18.1031787 37.778076s4.7233823-2.59408 6.4488292-2.734301c1.7254469-.140222 3.8597811-3.025345 3.8597811-3.025345 1.6718425-.866212 3.3910361-1.636378 5.1493985-2.306833 1.1814831-.284426 5.1096332-4.766024 5.1096332-4.766024s-1.9815019-4.336782-1.546195-5.493953-1.29547-4.061016-1.29547-4.061016c-.5392952-1.450903-.9377785-2.950844-1.1898229-4.478642-.0020902-1.193752-1.8743708-3.906845-1.8743708-3.906845s-1.8607952-2.904073-1.8635751-4.491762c-.00278-1.58769-2.7914176-7.85976-2.7914176-7.85976l-.7690848-27.457547z" fill="#1f4997" fill-rule="nonzero" transform="matrix(.88294759 .46947156 -.46947156 .88294759 87.337333 -1.778822)"/><path d="m68.9733785 243.426198s-3.959034 8.393768-5.103956 8.952443c-1.7566504 1.261727-3.4741416 2.710418-5.1442994 4.339181 0 0-2.1435492 5.417203-3.8556358 5.684167-1.2329131.484746-2.4242364 1.289845-3.5402875 2.392534-1.5338232 1.319679-2.914004 2.751489-2.914004 2.751489l-18.108502-70.829402c-1.5811617-2.610921-3.0493545-5.458219-4.3903793-8.514358-2.4479992-5.460094-4.6283597-11.33165-6.5138896-17.541444-2.0733843-6.29677-2.815524-13.841948-2.077347-21.119949.3313707-3.335803 1.0279999-6.501042 2.0449457-9.291515l12.8232454-1.711124 25.5402057-3.422358.2288187 15.25074.5110073 36.256866s.4152641 1.814365.9374336 4.211092c.8152503 3.332153 1.417645 6.836237 1.7943483 10.437586.0031972 3.000837 1.8630577 8.422172 1.8630577 8.422172s1.8713837 5.152616 1.8736981 7.324863c.2534909 2.872296.6519635 5.69243 1.189918 8.421478 0 0 1.7299564 5.421201 1.307106 7.570615-.4228503 2.149414 1.5345161 10.414924 1.5345161 10.414924z" fill="#000" fill-rule="nonzero" opacity=".05" transform="matrix(.96592583 .25881905 -.25881905 .96592583 53.573812 -4.271625)"/><path d="m60.2864026 205.081325c-.8188845.664539-1.5254923 1.451802-2.0936689 2.33265-7.8393623.559836-16.9515802-3.498975-19.3188535-4.571994.0386186-.290352.0386186-.584391 0-.874743l2.6884612-2.624231s22.1738565 3.044108 18.7240612 5.738318z" fill="#000" fill-rule="nonzero" opacity=".1"/><path d="m83.6723244 142.302834s-1.1978018 4.099877-1.5930764 5.853512-1.305604 10.412962-1.305604 10.412962l-.5030768 2.418807-8.2887885 39.910307-13.9294477 64.059054c-2.1140899 1.171604-7.0378138 3.487365-11.9670275 3.293082-2.4996229-.098521-3.2974438-1.770404-7.2114233-2.668182-9.294942 1.040087-13.5946121 2.286219-15.6797256-.6249-1.0639783-1.485467.8744178-17.884763 5.4134155-35.619283 4.3562257-17.020404 6.7170014-34.582447 6.5058271-36.08683-.4312086-3.071884-.4312086-5.575349 2.611208-5.575349-.7186811-2.781627 4.604359-17.084597 4.604359-17.084597s.5869229-4.535262 2.7669222-5.708383-.2874725-2.926756-.8743953-3.966843c-.2059699-.894901-.1348928-1.832073.2036263-2.684875.188496-.676676.4124-1.342783.670769-1.995515-5.5338444-5.587443-4.5204713-13.001726-4.5324493-17.851433-.015153-1.183217.0368369-2.366339.1557143-3.543552l11.9780181-2.116456 26.1719696-4.61992 2.671098 8.296506.6707691 2.080174z" fill="#1f4997" fill-rule="nonzero"/><path d="m59.9617504 185.243698 1.6224522-5.897482c-2.3729405 10.163423-4.9735644 20.340689-7.8018718 30.531797-2.3407247 8.434224-5.0205201 17.69432-9.604576 38.374848-.7362822 3.321666-2.9098953 12.097233-3.6655839 15.734915-.1495716.719997-.0182828 1.456484.3938663 2.209461-1.0629543-.409908-1.74034-.614861-2.032157-.614861s-.7478203.057152-1.36801.171457z" fill="#000" fill-opacity=".295318"/><g fill-rule="nonzero"><path d="m81.0607181 31.4543001c-.5345356 1.1167646-.925915 2.2940752-1.1652087 3.5050709-.0699125.3044578-.139825.6241385-.2097376.9590422-2.4585903 1.5641521-3.9733616 1.5755693-7.1194251 1.5755693-1.0836441 0-1.6895526-2.0322561-2.7149363-2.2834338 0 0-1.5380755-5.4345724-1.9692027-.8562877-2.9596301-.5936928-5.5114371 1.6669067-7.6088128-.3082635 0-.2625949 0-.5251898 0-.7992019.0569832-1.7124217-.0248383-3.4265739-.2446938-5.1263088 0 0 8.2147213 0 14.4136316.6507787 4.1714471.4795211 7.4223794 1.29014 6.6183854 2.6830346z" fill="#000" opacity=".1"/><path d="m86.7830381 21.5549861c-.0069416 4.7861853-2.1525915 9.316659-5.8456779 12.3429691-3.6930864 3.02631-8.5438145 4.229038-13.2154806 3.276751-7.168598-1.4831293-12.3980314-7.6950216-12.6604744-15.0390103-.262443-7.3439888 4.510141-13.91619807 11.5544404-15.91133899 7.0442995-1.99514093 14.5341308 1.10401236 18.1329047 7.50305959 1.3494127 2.3851841 2.0509304 5.0844968 2.0342878 7.8275696z" fill="#dcb2b0"/><path d="m78.0725189 47.2500404c-.1175999 1.2886309-.1763998 2.1170365-.1763998 2.1170365s-25.507407-1.6683168-21.0856527-5.8563673c1.1400185-1.1562057 1.950885-2.5841973 2.3519969-4.142028l11.0661457 1.7718675s3.128156 2.3701605 5.5507128 4.6022533c.6898755.6032496 1.4615566 1.1104485 2.2931971 1.507238z" fill="#000" opacity=".1"/><path d="m82.4279231 139.908556c-1.1320852.143508-2.2830103.062551-3.3808349-.237812-.4753892-.144559-.9328301-.33822-1.3641966-.577543-2.1589893-1.234357-9.3358495.28311-9.3358495.28311s-19.5495299 1.234356-20.4154982 0c-.4863657-.713436-3.9383761-.611517-6.7616699-.396354-1.1862579.090595-2.1945771.203839-2.9181944.271785.3364315-1.687027 1.0395819-3.287993 2.0640887-4.699615l12.8827606-.871977 25.9197348-4.325911 2.645355 7.768521c.1714366.938823.3931622 1.868641.6643044 2.785796z" fill="#000" opacity=".1"/><path d="m70.9552191 41.6894102-14.2111425-2.3207286c-.5081728 1.127526-1.4884654 1.9760491-2.6811208 2.3207286-1.8876052.4306506-10.3397483 4.7850074-14.1269817 10.0006654l-3.7872334 5.2276206s-3.0658556 3.7681933-2.0439038 6.806673c1.0219519 3.0384797 2.1881793 13.3382082 2.1881793 13.3382082l1.4547786 11.4481301s2.7652815 8.2661003 1.8996282 11.8907435c-.8656534 3.624643.4328266 18.840967.4328266 18.840967l-2.909557 18.840966s9.8948987-1.303914 10.8206668 0c.9257682 1.303915 20.6915197 0 20.6915197 0s7.2137779-1.602977 9.462072-.299063c1.4702011.788957 3.1536657 1.094645 4.8091853.873264 0 0-1.7433297-5.981259-.7334008-9.270952 1.0099289-3.289692.7334008-9.426464.7334008-9.426464s1.4547785-8.840301.7213777-10.431316c-.7334007-1.591015 1.6110771-7.392837 1.6110771-7.392837l7.7187424-40.4333124s-.9377912-7.2492862-5.0616675-9.713565c-4.1238764-2.4642788-8.7767632-3.1939925-11.2534936-5.5027585-2.4767304-2.3087661-5.7349534-4.7969699-5.7349534-4.7969699z" fill="#585858"/><path d="m76.8281176 82.0476537v4.8325409l4.4873987 12.1538405 1.6241255 11.2719019s2.9234259 8.046181 2.9234259 10.873217 7.1341217 16.249419 7.1341217 16.249419 1.9489507 4.542588.9744753 5.412446c-.9744753.869857-9.4199279 20.200021 1.203056 19.620116 10.6229843-.579905 7.2905193-20.779926 7.2905193-20.779926l-1.455698-8.783143s-2.0451951-21.963899-2.0451951-23.570719c0 0-2.622662-9.3630477-2.9113954-11.4168776s-2.1895618-12.443793-2.1895618-12.443793l-1.6000644-6.7293133z" fill="#dcb2b0"/><path d="m71.8505127 96.8594547-15.6671268 9.2723823-4.8654934 7.59991 6.4833592-6.812865z" fill="#000" opacity=".1"/><path d="m66.8729078 114.356646s-7.1871358 4.826954-10.5650896 4.826954-11.2119318 8.29594-11.2119318 8.29594 11.1041248-7.407089 11.9785596-7.172531c.8744349.234557 9.7984618-5.950363 9.7984618-5.950363z" fill="#000" opacity=".1"/><path d="m49.5326636 117.481145s-6.445804 5.605227-4.7856946 6.2109c1.6601093.605673 10.3041272-6.2109 10.3041272-6.2109z" fill="#000" opacity=".1"/><path d="m78.9555027 94.9847555s-5.1480654 6.3445215-3.7547816 6.2479045c1.3932837-.096617 5.3606002-3.7143898 5.3606002-3.7143898z" fill="#000" opacity=".1"/><path d="m79.3169201 101.858652s-5.8153934 6.334212-5.5936199 7.9414c.2217734 1.607189 5.5936199-7.9414 5.5936199-7.9414z" fill="#000" opacity=".1"/><path d="m81.1835219 106.23295s-3.666999 6.612345-2.0987227 7.986036 2.0987227-7.986036 2.0987227-7.986036z" fill="#000" opacity=".1"/><path d="m75.9022055 87.4859591s-2.9119263 5.1244622-.786343 5.4703635c2.1255834.3459012 2.3344557 0 2.3344557 0z" fill="#000" opacity=".1"/><path d="m76.8281176 70.613667c-.7652063 2.7854011-1.8151156 5.5043488-3.1369281 8.1236961-.4920335-1.3348419-.8988263-2.6928068-1.2184762-4.0675449 1.2931716-1.4771634 2.7523386-2.8360733 4.3554043-4.0561512z" fill="#000" opacity=".1"/><path d="m84.9167256 13.7252143c-.2772354.6047663-.639755 1.1666311-1.0764854 1.6684319-.7332478.6612931-1.384577 1.4081495-1.9400395 2.2245758-.4371766 1.2198385-.6729068 2.5027329-.6979411 3.7983448-.2129311 1.2779479-1.0173378 2.6978899-2.3659018 2.7333884-.663445-.0560484-1.3079927-.2494673-1.8927215-.5679768-.5946761-.3084189-1.3067638-.2860199-1.880892.0591643-.3734074.3799498-.5889859.8873366-.603305 1.419942-.1635265 1.1122511-.2268716 2.2369441-.1892722 3.3605294 0 .4496483 0 .8874638.0709771 1.3371121.3304766 1.4141191.2441901 2.8937338-.2484197 4.259826-.6172726.9890942-1.5512988 1.7398629-2.6498101 2.129913-1.1928424.4921976-2.4396376.8417166-3.714466 1.0412908-2.4288032.2981844-4.8794856.3773887-7.3224663.236657-.225523.0061107-.4502004-.0300084-.6624525-.1064956-.1045458-.0415871-.200725-.1017161-.2839083-.1774928.2705296-1.3445052.4170422-2.7110218.4376919-4.0823333-4.4847792-4.3552586-6.0171037-10.9273671-3.9211712-16.8178228 2.0959326-5.8904558 7.4347831-10.01629274 13.6619535-10.55788946s12.1977896 2.60061989 15.2786301 8.04083526z" fill="#000" opacity=".1"/><path d="m78.0789187.02038247c-1.487005-.15799546-2.890066.64413534-4.353087.97227976-3.0099857.66844233-6.0919233-.71705632-9.1858529-.70490283-2.6598497.1530574-5.2473147.9355898-7.5549442 2.28485744-1.866271.89364145-3.5693349 2.10184341-5.0366295 3.57312812-1.4737128 1.49526298-2.3311393 3.50259597-2.398395 5.61491564.2044959 1.210469.1677988 2.4501808-.1079278 3.6460491-.3112356.6027993-.6808052 1.1727627-1.1032617 1.7014896-.7747662 1.2607492-.9633395 2.8029885-.5156549 4.2172634.6199604 1.3842128 1.4583993 2.6567584 2.4823388 3.7675841 1.9906678 2.5886949 3.2378332 5.6878366 5.0246375 8.4345269.7794626 1.1924812 1.6537901 2.3184022 2.6142506 3.3665187.1570687.1857862.3485545.3385607.5636228.4496794.2115371.0755089.4355619.1085332.6595586.097228 3.7894641.1093814 7.71084.1944559 11.2005047-1.3125777 1.1178904-.3927909 2.067072-1.1657995 2.6862024-2.1876295.5033599-1.4019211.594998-2.9216515.2638235-4.3752589-.1588528-1.6188993-.1226102-3.2513788.1079277-4.8613988.0151449-.5433309.2338179-1.0604405.6115908-1.4462661.5828841-.3663579 1.3143981-.3895256 1.918716-.0607675.5928205.3164795 1.2401378.5145282 1.906724.5833678 1.3071253 0 2.1345716-1.5070336 2.398395-2.8196113-.2934321-2.4027363.7324463-4.7758543 2.6742104-6.18613 1.821896-2.3433569 2.4321448-5.4266697 1.6429006-8.30083842-.8634222-2.73453683-3.5016567-6.14966949-6.4996504-6.45350691z" fill="#1e1637"/><path d="m92.9079179 68.5278411c-.3203877 1.9628742-.3203877 3.9636046 0 5.9264788-.1443138 1.5882963 0 10.3476319 0 10.3476319-4.8104593-1.4460608-17.0410519 1.4342078-17.0410519 1.4342078l-1.4551639-4.3026235c-.8306031-1.0615644-1.450753-2.2679178-1.8279746-3.5558873-.4564669-1.3926682-.8338708-2.8093155-1.1304579-4.2433588-.6350544-2.9802719-1.1127342-5.9910221-1.4311116-9.0201006-.6133336-4.5633887 6.2776493-9.482366 11.4969976-12.2085463 5.2193483-2.7261802 9.7892846 8.9015711 9.7892846 8.9015711s2.1767328 4.468565 1.5994777 6.7206269z" fill="#000" opacity=".1"/><path d="m94.1523191 68.5412633c-.3193602 1.9627809-.3193602 3.9631724 0 5.9259533-.1443137 1.5763035 0 10.3348624 0 10.3348624-4.8104592-1.4340807-17.0410519 1.4340806-17.0410519 1.4340806l-1.4551639-4.302242c-.833072-1.0599329-1.4534711-2.2666639-1.8279745-3.5555719-.4564909-1.3885257-.8338984-2.8011043-1.130458-4.2311306-.6341241-2.9801754-1.1117963-5.990611-1.4311116-9.0193008-.6133336-4.5748359 6.2776493-9.4815252 11.4969976-12.2193155 5.2193483-2.7377904 9.7892846 8.9007817 9.7892846 8.9007817s2.1767328 4.432613 1.5994777 6.7318828z" fill="#585858"/><path d="m84.5858096 6.05494929c-.2507553-.812241-.6119029-1.58771714-1.0737202-2.30555104.0723856.20099675.1447712.39017017.2050926.59116693.7940023 2.7960899.1800745 5.79564242-1.6528052 8.07534032-1.9534705 1.3719646-2.9855337 3.6806151-2.6903325 6.0180794-.2050927 1.2769206-1.0375274 2.6838979-2.4128543 2.7311913-.6766114-.0560034-1.3339504-.2492668-1.9302835-.5675203-.6064776-.308171-1.332697-.28579-1.9182192.0591167-.3808177.3796444-.6006745.8866234-.6152778 1.4188006-.2330092 1.566194-.2694733 3.1544557-.1085784 4.7293355.1327069 1.4424473.4222495 2.9913047-.265414 4.2682253-.6358648.9827621-1.5862372 1.7312027-2.7023968 2.128201-3.510703 1.466094-7.4557198 1.3833306-11.2680296 1.2769205-.2261185.0069123-.4514583-.0292251-.663535-.10641-.2213699-.1002685-.4155979-.2501178-.5670207-.4374635-.9762639-1.0112103-1.8565671-2.1074224-2.6300112-3.2750649-1.7975765-2.6720745-3.0522607-5.6752025-5.0549298-8.205397-.5428922-.6857537-1.2064271-1.359684-1.6528052-2.0809076v.14188c.6150517 1.3513028 1.459455 2.5906138 2.4973042 3.665235 1.9906048 2.5183712 3.2573533 5.5333225 5.0428655 8.2053971.7845158 1.1630099 1.6683827 2.2586339 2.6420755 3.2750648.1535907.1804082.3422288.3291086.5549565.4374635.213029.0725922.4382317.1046948.6635349.0945868 3.8123098.10641 7.7693909.1891734 11.2680296-1.2769206 1.1246299-.3821205 2.0795338-1.1341297 2.7023968-2.128201.5063945-1.3638369.5985851-2.8422828.265414-4.2564019-.1475678-1.5753579-.1111392-3.1620765.1085784-4.7293355.0254814-.5263114.2439628-1.0259204.6152779-1.4069773.5863982-.3564055 1.3223223-.3789438 1.9302834-.0591167.5963945.3078822 1.2476143.5005507 1.9182192.5675203 1.3270699 0 2.1474403-1.466094 2.4128543-2.7430146.0195834-1.295152.2601696-2.577963.711792-3.7952918.5628515-.8185133 1.2274744-1.5651826 1.9785405-2.2227876 1.8457084-2.2779743 2.4730317-5.28168746 1.6889981-8.08716371z" fill="#000" opacity=".2"/></g></g><g fill-rule="nonzero" transform="translate(325 105)"><path d="m104.153317 11.1316427-9.4141472 20.2881447s-1.3837925 3.8123148-2.2772648 4.5195268c-.8934723.7072121-4.8487217 12.7519168-4.8487217 12.7519168l-10.1005955 15.7796681-.6864482 1.1050188-3.9552494-1.1050188-2.778481-10.5197788.1634401-3.0498518v-.3867566s6.2325142-6.6301126 7.6272026-7.1273711c0 0 1.0896004.1326023 3.1598411-5.0057351 2.0702408-5.1383373 3.9661454-6.2433561 3.9661454-6.2433561l1.0896004-3.7128631 11.6914121-18.88477089s9.8064031-14.24369206 12.4759241-7.92298464c2.669521 6.32070741-6.112658 9.51421173-6.112658 9.51421173z" fill="#ffd2c6"/><path d="m63.7964672 155.111686c-.0315929.343707-.1398614.675709-.3166698.971056-1.0919647 1.611071-7.239726 34.39525-7.239726 34.39525.4913841 2.206946-.8954111 6.620837-1.7908221 8.629158-.8954111 2.008321-2.8827869 12.425105-2.8827869 12.425105s-.4913841 22.466707-1.7689828 25.975751.4040269 11.034729.4040269 11.034729c-.1201161 3.45387 1.9327776 7.1174 3.155778 8.971235l.2402323.353111c.3931073.573806.6551788.904848.6551788.904848.336584.669594.8091326 1.259925 1.3867952 1.732452l.2839108.220695c1.6873928 1.139216 3.5734965 1.944296 5.5581004 2.372466h.1965536c.7862146.176556 1.3103577.253799 1.3103577.253799l.4913841 2.714543-5.2523502 1.103473-10.0242361.695188s-11.8150581.915883-9.128825-4.413891c.1859746-.355783.3465387-.724548.4804645-1.103473.1040719-.26006.1951832-.525226.2729912-.794501 1.6161078-5.109079.5241431-11.321631.5241431-11.321631l-2.2822063-18.141095c-3.7672782-16.850031 2.9592244-35.598035 2.9592244-35.598035s-.5787413-1.500723.709777-5.307704c1.2885184-3.806982 0-12.138202 0-12.138202s-.6879377-10.725757-1.5833488-16.033461c-.3528965-2.235929-.4736681-4.502997-.3603483-6.764289.0431701-1.322824.1634951-2.641924.3603483-3.950433l22.6145891-3.03455s1.299438 3.718703 1.0264469 5.848406z" fill="#ffd2c6"/><path d="m64.4599835 266.003049-5.433646 1.140779-10.3702432.718692s-12.2228792.946847-9.4439252-4.563119c.1923938-.367812.3585002-.749043.4970487-1.14078.1076641-.268852.2019203-.542982.2824141-.821361 2.1179307.070512 4.2097018.494527 6.1905155 1.254857 3.4793409 1.357528 6.1001431-2.178889 6.1001431-2.178889l1.6944842-3.26263.2485243-.467719c.4066762.593205.6777937.935439.6777937.935439.4098881.801622 1.0022276 1.493625 1.7283739 2.01918l-.2937106.604613-1.6380014 3.490786s2.1011604.216748 4.9704869.684468c1.1524549.30088 2.3383966-.352821 2.7111747-1.494422h.2033381c.8133524.182525 1.3555874.26238 1.3555874.26238z" fill="#000" opacity=".1"/><path d="m69.389165 268.415705c-.3939624 1.874239-11.4796263 2.445653-11.4796263 2.445653s-6.1720774-.617127-7.9011346.879978c-1.7290571 1.497105-6.817738 1.142829-7.0147192 1.142829s-2.8781141-.102855-3.9286805-5.131301c-1.0505664-5.028445 1.3679249-5.714143 1.4773589-5.794141 2.1455499.032542 4.2685873.462034 6.2705681 1.26854 3.3705671 1.359966 5.9094358-2.182802 5.9094358-2.182802l1.8822648-3.73705c.3939624.594271.656604.93712.656604.93712.3970739.803062.9708952 1.496308 1.6743401 2.022806l-1.8713213 4.102755s2.0354723.217137 4.8150959.674269c.6746083.161246 1.3829033-.001997 1.929861-.444782s.8749021-1.118421.8935361-1.840876c.0055214-.102773.0055214-.20579 0-.308563 0 0 1.7290572.525701 3.8739635 1.142828 1.9952764.599875 3.2177404 2.696131 2.8124537 4.822737z" fill="#626696"/><path d="m90.3066878 179.665804c-.2668663 1.593628-.544852 5.726071-.544852 5.726071.9451515 3.46202-1.4788842 11.682944-1.4788842 11.682944l-1.2120179 4.69296c.5337327 5.989844-3.3358289 20.640234-3.3358289 20.640234s-2.5908272 13.584307-3.9362782 19.442264c-.8050019 3.256558-.5600749 6.680373.7005241 9.792571l.1000749.241792c0 .109905.0555971.219811.077836.329716.040143.161078.0921729.319032.155672.472593.3012235.806584.7497312 1.551641 1.3232122 2.198108.2208317.263969.4625115.510198.7227629.736367 1.267461 1.109932 2.7195519 1.994885 4.2920999 2.615748l.6782852.263773c.7029043.257585 1.4192838.477713 2.14605.659432h.2446274l-.544852 3.143295-7.138674-1.813439-9.5627096-3.066361-4.6368023-2.571786s0-.252783.1445526-.736366c.0054366-.029062.0054366-.058863 0-.087925 0-.20882.0889555-.450612.1445526-.736366.7338824-4.121452 2.5574689-15.650528 1.6456756-24.179187-1.1119429-10.517946 3.335829-25.036449 4.369936-28.487479.6427763-1.979075.9177829-4.056814.8117183-6.132721-1.7568699-2.527824-2.1571694-12.650111-2.1571694-12.650111s-3.235754-6.52838-5.9044172-13.45242c-.8893154-2.260043-1.5341274-4.606772-1.9236613-7.000974-.31602-1.68465-.4465076-3.398176-.3891801-5.110601 0 0 21.6940076-19.574151 24.0735656-.626461.077836.648442.155672 1.252922.233508 1.857401 2.1126917 17.420006 1.1564207 20.607262.9006738 22.156928z" fill="#ffd2c6"/><path d="m90.1188119 259.134071-.5437133 3.169601-7.1237536-1.828616-9.5427229-3.092023-4.6936881-2.68197s0-.254898.1442505-.742528c.0054251-.029305.0054251-.059355 0-.08866 0-.210568.0887695-.454384.1442504-.742529h.6657714c1.355701-.131407 2.72341.054524 3.9946282.543043 1.5534665.576291 3.5951653 1.241242 4.0057243.964179.7207061-.308048 1.5032199-.444629 2.2858151-.39897l.9875608-2.216504.1553467-.332476c.2980395.814548.7458766 1.566289 1.3204465 2.216504.2380704.278398.4938098.541226.7656371.786859v.764694l-.055481 1.108252c1.0659268.677878 2.2194726 1.207334 3.4287226 1.573717.3133094.077901.6409628.077901.9542722 0l.6768676.265981c.7014352.259741 1.4163174.481711 2.1415646.664951z" fill="#000" opacity=".1"/><path d="m86.2897892 266.446439c-1.9444328-.57135-6.6371421-1.501195-7.3975349-.784206-.7603927.716989-7.2671818 0-7.2671818 0-1.386178-.022309-2.6597774-.791697-3.3565907-2.027734-1.3578442-2.173372-.2607061-9.197621-.2607061-9.197621h.4779611l.8038438-.089623c1.3262659-.132315 2.6642726.051673 3.9105911.537741 1.5207854.593757 3.519532 1.265934 3.9214539.98586.7035915-.318856 1.4705218-.46092 2.2377271-.414509l1.0862753-2.520664c.2942702.822172.7324247 1.581628 1.2926677 2.24059.230355.280479.4809101.542626.7495299.784206l-.0977648 1.870893c1.0446344.685898 2.1734983 1.224679 3.3565908 1.602021.5894367.230686 1.2553004.012607 1.6076874-.526538.050121-.088319.0902151-.182296.1194903-.280074.8794033.427668 1.8058927.743661 2.7591393.941048 2.5262237-.271838 4.853898 1.437369 5.4313766 3.988249 1.0319615 3.125623-7.4301232 3.461712-9.374556 2.890361z" fill="#626696"/><path d="m64.4214145 154.737533-1.231186.351178c-.9669923.273485-1.9579969.467038-2.9615015.578412-6.3666735.836631-16.848392.330521-20.1759217.134274.0438506-1.238196.1660722-2.472907.3660282-3.697703l22.9710467-2.840414s1.3088284 3.480798 1.0315343 5.474253z" fill="#000" opacity=".1"/><path d="m84.4863861 149.440815s-8.4098481 1.299331-15.2594481 2.785854c-2.2795115.495507-4.4262359 1.024048-5.9643529 1.519556-.9656335.290416-1.9538819.500355-2.9545124.627643-7.6241913 1.101127-21.1684731.077079-21.1684731.077079-3.7180381-12.002293 4.5147606-27.120777 4.5147606-27.120777-.188115-1.200229 1.7151664-4.889007 1.7151664-4.889007v-.121124l1.1729525-4.283387h31.2602909l.3872956 1.838884.7967225 3.743834 4.9131218 23.200761z" fill="#626696"/><path d="m89.4929868 157.137195-.1899669.078942-3.6987667 1.657779c-4.0004789 1.860773-15.9683918 2.255482-20.1141395 2.255482-.3175856-1.728622-.4487197-3.486873-.3911082-5.243996 0 0 21.8014922-20.08507 24.1928399-.642812.0446981.654089.1229197 1.319457.2011414 1.894605z" fill="#000" opacity=".1"/><path d="m90.1188119 154.508548-.7555214.338106-3.6243127 1.603281c-3.9856489 1.83232-16.09589 2.181333-19.9720431 2.181333h-1.0183115c-1.7847823-.054533-3.5805143-1.723253-3.5805143-2.181333 0-.239947-.1861429-1.417867-.3394371-2.421281-.1423446-.807093-.2518405-1.50512-.2518405-1.50512-4.1570417-1.782502-8.18198-3.856332-12.0445436-6.205893-3.033035-2.06136-2.2665641-16.709015-1.6862361-24.071015.2080421-2.541254.3941851-4.209974.3941851-4.209974l31.3158133 1.821414 4.3798341.250853 2.5074549.55624.6679247.141787s1.8066816 13.088001 2.693598 14.178667c.8869164 1.090667.3065884 4.755307.1970925 6.849387-.0014736.898727-.1005971 1.794655-.2956388 2.672134 0 0 1.292051 3.66464.9964122 5.715094-.1354696 1.442128.0057355 2.896761.4160843 4.28632z" fill="#626696"/><ellipse cx="56.324257" cy="31.85116" fill="#ffd2c6" rx="13.142327" ry="13.115184"/><path d="m49.945206 37.5079293s.8837928 12.344876-1.5930093 15.1808611c-2.8304008 2.888044-5.8096921 5.6203905-8.9252165 8.1854313l1.9858061 8.3856184 11.2056202 1.3123382 13.0932272-14.2466542-2.9787092-3.6812198s-2.2804037-7.8851505-.4037078-11.822165c1.8766958-3.9370145-12.3840107-3.31421-12.3840107-3.31421z" fill="#ffd2c6"/><path d="m77.6023102 64.4451487-.6947485 1.1307692-4.003075-1.1307692-2.8120775-10.7649232.1654164-3.1209232.8270816-1.2212307s4.4111019.1017692 4.22363 4.2177692c-.1874718 3.5958462 1.8195796 9.5210771 2.293773 10.8893079z" fill="#000" opacity=".1"/><path d="m85.7380363 122.172975s-3.1626395.656885-6.7849014 1.098229c-3.6222619.441345-7.8026367.677413-9.5207488-.266859-2.8781115-1.601157-18.4724414-1.139285-22.9811178-.975064h-.7660373l1.1599993-3.992629h30.9150751l.3830186 1.714059 4.3773558.236068 2.5060362.523456c.4596223 1.005855.7113203 1.66274.7113203 1.66274z" fill="#000" opacity=".1"/><path d="m69.1863837 51.2116692s4.3812455.0982088 4.1840895 4.070207c-.1971561 3.9719983 2.3877788 10.8029624 2.3877788 10.8029624l-.9967334 2.2806253s-1.3910454 5.5542504-.2957341 6.9400849c1.0953114 1.3858346 5.0712918 1.3858346 2.782091 12.7889615 0 0-.4928902 8.533249.7009993 11.3049181 1.1938894 2.7716696 1.1938894 9.4171276 2.9792469 12.1997086 1.63009 2.962072 3.0289177 6.044746 4.1840895 9.220711 0 0-12.9356275 2.869878-16.3201396.894791-3.3845122-1.975088-24.1844755-.993-24.1844755-.993s.0985781-3.470043 0-3.87379c-.1951534-.87195-.016524-1.785479.4928902-2.520691.7009992-.949351 1.7963106-2.531603 1.1938894-3.917438-.6024213-1.385834 1.4896235-3.437306.3943121-5.586986-1.0953114-2.149681-2.4206382-2.575252-2.1906228-3.753757.1189933-1.3652176-.3237665-2.7200284-1.2267488-3.7537564-.7886242-.9929996-6.1666031-11.4685994-6.1666031-11.4685994l-.8981553-4.8886133s-6.922368-5.0522945-6.7909306-7.4311286c.1314374-2.3788342 2.6177942-5.6851954 2.6177942-5.6851954l6.6594932-6.5472498s3.6911994 3.9610861 7.2728677 2.5752516c3.5816682-1.3858346 11.2817072-8.0312932 11.2817072-8.0312932s2.7492316-1.4840433 2.9463877-2.5752516c.197156-1.0912084 1.8948887-.0982088 1.8948887-.0982088s2.4863568-1.3640104 2.9792469-.8838787c.8440054.4384719 1.7540842.7370095 2.6944661.8838787z" fill="#ffcde5"/><path d="m31.9760968 71.1967109-2.1132962 1.6830538c-1.6060749 3.4361675-2.5110104 7.1643564-2.6607823 10.9619954-.5600748 5.7106744-1.455887 11.3825622-2.6826817 16.9855569l-4.1827936 7.562669s-6.8654753 14.582776-7.7633524 18.458229c-.8978772 3.875453-4.97117349 10.419432-4.97117349 10.419432s-13.82949805 12.56754-4.18279355 14.837448c9.64670454 2.269908 9.95329664-9.96545 9.95329664-9.96545s2.1899443-2.513508 2.6169834-4.22978c.4270392-1.716272 12.6031293-23.595972 12.6031293-23.595972s4.281341-5.890689 3.3834639-9.013196c0 0 5.5734082-13.2872676 5.5734082-16.6090844-.1037864-2.7789041-.4038432-5.5467541-.8978772-8.2823965l.8978772-6.9425971z" fill="#ffd2c6"/><g fill="#000"><path d="m61.3308581 99.3006757s-10.2715583 5.2989253-12.2681646 5.5832023 8.7019719-1.137108 8.7019719-1.137108z" opacity=".1"/><path d="m68.8407591 102.423338s-13.042931 5.269547-18.7747525 4.321029c0-.026348 14.2688119 3.227598 18.7747525-4.321029z" opacity=".1"/><path d="m70.0367834 104.921469s-11.7852963 7.325397-18.7191266 6.131872c0 0 16.2047824 3.186383 18.7191266 1.489169l-7.2439697-1.981909s8.041471-4.215662 7.2439697-5.639132z" opacity=".1"/><path d="m56.3409128 9.09805081c-3.4156989-.84526143-7.0278865-.16293198-9.9060963 1.87122649-2.0032329 1.5833456-3.3020322 4.0081894-5.5914411 5.1929305-1.1890103.5107123-2.4096469.9434391-3.6542489 1.2954645-4.5116028 1.8564112-7.1728423 6.5790792-6.4389626 11.4266614.3522168 1.9930223 1.2767858 3.8310318 1.7390703 5.8019095.8145012 3.5099338.0880541 7.1859527-.7924878 10.6848142-2.4636519 9.7013674-6.2022083 19.0289674-11.1168414 27.7362275-.387094.5396954-.5810775 1.195363-.5503387 1.8601542.1239287.4467351.358762.8544264.68242 1.1847411 4.6228449 5.370088 12.1074511 7.2191698 19.2068201 7.4627614 2.6061119.2591916 5.233991-.1801241 7.6166874-1.2733198 1.4716762-.8519249 2.7382428-2.0201761 3.7092828-3.421355 2.4562033-3.380783 3.6769991-7.5108481 3.4561269-11.6923978-.1871151-3.3770656-1.3098061-6.7873483-.4622845-10.0536904.0841577-.4561533.28955-.8808639.5943658-1.2290305.7594674-.7861366 2.0252464-.575762 3.1039102-.7086301 2.9388086-.3432428 4.8319737-3.4545721 5.1841904-6.4108886.3522168-2.9563164-.3852371-5.9237052-.4072506-8.857877-.011348-3.9285765 1.209648-7.7606241 3.4891473-10.9505505.9796028-1.3508263 2.2013547-2.6795079 2.5535715-4.3735768.4182574-2.1258905-.8034945-3.6870914-1.8601448-5.3590157-1.6400093-2.6130737-2.4435038-5.6579689-4.9420414-7.6509913-1.648953-1.2740459-3.5713252-2.14237107-5.6134546-2.53556729z" opacity=".1"/></g><path d="m55.0429876 7.84257946c-3.3964329-.83493224-6.9856144-.15196845-9.844896 1.87332616-2.0042183 1.59620688-3.3036564 4.02377158-5.6052037 5.20984198-1.1917176.5026665-2.4126442.932067-3.6560464 1.2858333-4.5048127 1.8564841-7.1654416 6.5718863-6.44213 11.4173133.35239 1.9952587 1.2774138 3.8353305 1.7399257 5.8084196.8149019 3.5138721.0991097 7.1940158-.7928776 10.6968032-2.4636409 9.693373-6.2003338 19.0128023-11.1112976 27.7119255-.3955165.5361897-.590489 1.1956154-.5506094 1.8622413.1131485.4492659.3453161.8591948.6717434 1.1860705 4.625119 5.3871983 12.1134068 7.2272701 19.2162681 7.4711351 2.606299.2592472 5.2344784-.1765725 7.6204341-1.2636638 1.4705537-.8601651 2.7370235-2.0328456 3.7111073-3.4362788 2.4526813-3.3864347 3.6700617-7.5207057 3.4468149-11.7055173-.1982194-3.3254311-1.3214626-6.7949641-.4735241-10.0649713.0933776-.4535691.2977778-.8764943.5946581-1.2304095.7708532-.7870187 2.0262426-.5764081 3.1164492-.6983405 2.9292421-.3436279 4.8233384-3.4695331 5.1757284-6.418082.35239-2.9485488-.3854266-5.930352-.3964388-8.8678161-.0165754-3.9303756 1.2056378-7.7647785 3.4908636-10.9517529.9690726-1.3634268 2.2024376-2.6935992 2.5548277-4.4339081.4074509-2.1282759-.814902-3.6801437-1.872072-5.3650288-1.640816-2.604921-2.4447057-5.6643175-4.9444724-7.6595762-1.6697708-1.24064693-3.6041632-2.07188301-5.6492525-2.42756464z" fill="#f8e71c"/><path d="m51.3176568 133.649966s2.3481037 12.772524 6.2582508 16.237846z" fill="#000" opacity=".1"/><g fill="#000" opacity=".1" transform="translate(18.148927 19.985042)"><path d="m11.8958851 10.6350273c-.1327677-.4626842-.2876635-.93638466-.4536231-1.39906885.1770236.47370048.2876634.89231955.4536231 1.39906885z"/><path d="m48.5729763.21361664c.0462814.36576395.0462814.73586509 0 1.10162903-.3319194 1.68549243-1.582149 3.00744727-2.5668432 4.3514347-2.2893059 3.17480019-3.5164305 6.98677233-3.5072814 10.89511113 0 2.9633821.7523506 5.915748.3983032 8.8130323-.3540473 2.8972844-2.2127958 6.0369271-5.2000702 6.3674159-1.1063979.1321954-2.3566276-.0771141-3.1200422.7050425-.3014754.3510958-.5105831.7712942-.6085188 1.2228083-.8519264 3.2498056.2876635 6.6097742.4757511 10.0027916.2057782 4.1618119-1.0369298 8.266862-3.5183454 11.6221864-.9730196 1.3967538-2.2468313 2.5596953-3.728561 3.4040337-2.3909737 1.088262-5.0291216 1.5254245-7.6452097 1.2668734-6.9813709-.2313421-14.38317297-2.0269975-19.07430017-7.1716051-.12437422.3072047-.16261529.6422756-.11063979.9694336.11368069.4464904.34694015.8538868.67490273 1.1787431 4.64687128 5.3539171 12.17037713 7.1826213 19.30664373 7.4249797 2.6185567.2576456 5.2590967-.1754817 7.6562737-1.2558571 1.4774698-.8548511 2.749896-2.020287 3.728561-3.41505 2.4642164-3.365514 3.6873222-7.4742441 3.4630255-11.6332027-.1991516-3.3048871-1.3276775-6.752986-.4757511-10.0027916.0938168-.450767.2991783-.8710795.5974549-1.2228083.7744785-.7821566 2.0357721-.572847 3.1311061-.6940262 2.9430185-.341505 4.8460229-3.4480989 5.2000702-6.3784322.3540474-2.9303332-.3872392-5.8937153-.3983032-8.8130323-.0166534-3.9060943 1.211308-7.716809 3.5072814-10.88409483.9736302-1.35500372 2.2127958-2.67695856 2.5668432-4.40651615.18348-1.20237475-.0843596-2.42991091-.7523506-3.44809888z"/></g></g><g fill-rule="nonzero" transform="translate(107 144)"><path d="m304.945474 109.999587c-37.170101 0-75.662112-3.769572-115.08134-11.3464108-106.0033894-20.3305565-163.2840627-59.760276-166.4165506-61.4503007l-9.4475834-15.7630921c.8833616.477479 76.1570452 40.6296999 179.58553 60.3822554 94.920647 18.1316396 233.80263 22.2970162 356.41447-60.8220388l-2.69394 18.9797933c-56.384781 38.2423045-108.38408 57.3791633-178.821202 66.1559827-21.080106 2.600346-42.30041 3.890747-63.539384 3.863811z" fill="url(#d)"/><path d="m304.948874 106.999809c-37.170535 0-75.662996-3.768517-115.082684-11.3432365-106.0046289-20.324868-163.2859717-59.7435553-166.4184961-61.433107l-9.4476939-15.7838052c.8833719.4773455 76.1579353 40.6183318 179.587629 60.3653606 94.915492 18.1202857 233.799098 22.2844971 356.412371-60.8050209l-2.693971 18.9744828c-56.385441 38.2316044-108.385347 57.3631088-178.823293 66.1374722-21.077758 2.607758-42.296212 3.906188-63.533862 3.887854z" fill="#ff7000"/><path d="m32.4390178 182.969787h-3.0017637v-157.8991428c5.0488416-2.9191752 7.5103627-8.8704268 6.0014736-14.5098402-1.5088892-5.63941353-6.6119479-9.560804-12.441848-9.560804s-10.9329589 3.92139047-12.441848 9.560804c-1.50888922 5.6394134.9526319 11.590665 6.0014735 14.5098402v157.8991428h-3.0017636c-7.48607709 0-13.5547416 6.077461-13.5547416 13.574389v9.455824h46v-9.455824c.0000004-3.601235-1.428941-7.054882-3.972298-9.600753-2.5433571-2.545872-5.9926621-3.975294-9.5886842-3.973636z" fill="url(#e)"/><path d="m17 176s7.7129864 2.25 12 0" fill="#000" opacity=".1"/><path d="m17 6h12v175h-12z" fill="#cfcfcf"/><path d="m12.8155065 175h20.3565365c6.5324003 0 11.827957 5.295557 11.827957 11.827957v10.172043h-44v-10.178268c.00343066-6.525111 5.29039879-11.814864 11.8155065-11.821732z" fill="#c9c9c9"/><circle cx="23.5" cy="13.5" fill="#000" opacity=".1" r="12.5"/><circle cx="23.5" cy="12.5" fill="#c9c9c9" r="12.5"/><path d="m539 6h12v175h-12z" fill="#e0e0e0"/><path d="m534.815507 175.006223h20.356536c6.5324 0 11.827957 5.294059 11.827957 11.824612v10.169165h-44v-10.175389c0-6.530552 5.295557-11.824611 11.827957-11.824611z" fill="#e0e0e0"/><circle cx="545.5" cy="13.5" fill="#000" opacity=".1" r="12.5"/><circle cx="545.5" cy="12.5" fill="#e0e0e0" r="12.5"/><path d="m539 176s7.712986 2.25 12 0" fill="#000" opacity=".1"/><path d="m555.439018 181.969787h-3.001764v-157.8991428c5.048842-2.9191752 7.510363-8.8704268 6.001474-14.50984024-1.50889-5.63941349-6.611948-9.56080396-12.441848-9.56080396s-10.932959 3.92139047-12.441848 9.56080396c-1.50889 5.63941344.952632 11.59066504 6.001473 14.50984024v157.8991428h-3.001763c-7.486077 0-13.554742 6.077461-13.554742 13.574389v9.455824h46v-9.455824c0-3.601235-1.428941-7.054882-3.972298-9.600753-2.543357-2.545872-5.992662-3.975294-9.588684-3.973636z" fill="url(#e)"/></g></g></svg>