<svg height="443" viewBox="0 0 783 443" width="783" xmlns="http://www.w3.org/2000/svg"><g fill="none" fill-rule="nonzero"><path d="m783 0h-783v443h783z" fill="#e2e2e2"/><g transform="translate(91 49)"><g fill="#6c63ff"><path d="m596.239707 259.853656c-6.018809 14.465653-18.611278 27.531746-32.128498 39.905979-11.882612 10.879608-24.593096 21.393041-38.131453 31.5403-3.751848 2.816727-7.563584 5.598245-11.435209 8.344554l-2.689705 1.896009c-2.384977 1.686516-4.810467 3.357187-7.27647 5.012014l-.295921.200692c-2.392023 1.626659-4.805183 3.237475-7.23948 4.832447-7.963429 5.228549-16.381307 10.420129-25.686945 14.719159-3.170576 1.468219-6.441553 2.836092-9.828784 4.061368-1.831888.665452-3.702528 1.288652-5.611919 1.869602-3.128301.950646-6.341151 1.77982-9.696676 2.461115-.560135.11619-1.125554.227099-1.690974.332726-3.43479.644327-6.911854 1.114368-10.425909 1.436531-12.87782 1.177744-26.178384.316882-39.077342-1.700599-6.446836-1.00874-12.793271-2.307955-18.933619-3.786737-.755654-.179566-1.506023-.364414-2.261677-.528136-20.909945-5.22855-40.541091-12.326702-61.598996-17.31759-7.257095-1.721724-14.655104-3.182901-22.194028-4.383531-3.677868-.584471-7.376872-1.112607-11.097014-1.584409-8.756073-1.087961-17.623115-1.816789-26.527148-2.186484-12.005912-.528137-24.402862-.301038-35.827502 1.795663-1.521876.278152-3.024377.591513-4.507501.940083-1.881209.440113-3.727188.941843-5.537939 1.505188-4.881457 1.576395-9.63237 3.531153-14.209462 5.846469-.903614.443635-1.796659.89255-2.689705 1.346748-2.800675 1.425968-5.56436 2.883624-8.370319 4.299029-5.050022 2.64176-10.305671 4.870729-15.715485 6.66508-2.963145.935387-5.976389 1.704149-9.025572 2.302675-8.069114 1.616097-16.656089 2.255142-25.280054 2.297393-4.158739 0-8.322761-.089784-12.439225-.30632h-.126823c-1.405621-.073939-2.816527-.15844-4.227434-.264068-6.425699-.438353-12.830261-1.114367-19.1397065-2.038606-21.61804-3.168818-42.1210944-9.157883-58.6133709-18.294641-22.4001153-12.400641-36.62543033-30.890693-34.49057621-49.364901 1.53244478-13.309035 11.04945531-25.667424 20.08031101-37.767027 16.7987654-22.530295 32.535388-45.572882 40.8158742-69.86187 6.7163356-19.715329 8.7190824-40.560869 24.1756375-58.279842 4.951382-5.672183 11.2819642-10.847919 18.6535519-15.38461 5.51007-3.371557 11.285479-6.289454 17.269068-8.724812 6.762695-2.768394 13.719681-5.036678 20.814827-6.786551 6.149161-1.524676 12.380771-2.695541 18.664121-3.506825 3.413653-.443635 6.86958-.786924 10.346644-1.019304 2.677375-.186608 5.36708-.304558 8.069115-.353851h.417459c1.652222-.031688 3.304444-.031688 4.956666 0 12.047472.186412 24.061876 1.314787 35.933188 3.374791 7.429715 1.24112 14.796019 2.762153 22.009078 4.436345 4.304937.996417 8.571122 2.040367 12.798556 3.131848 1.289367.332726 2.578735.670733 3.852249 1.014022 30.078192 8.054079 56.541928 19.176629 85.520988 28.302825.14796.047532.290636.095064.438596.132034 5.94782 1.828098 11.987202 3.344158 18.093417 4.541972 4.486364.897832 9.07313 1.674192 13.73916 2.355488 7.144363 1.056272 14.441971 1.890728 21.792422 2.608993l1.622278.158441c10.78524 1.056273 21.665598 1.843196 32.234183 2.762153 3.751847.327444 7.471989.665452 11.139288 1.056273 2.325089.23238 4.62904.478843 6.911855.73939 1.63813.190129 3.281545.380259 4.92496.58095 1.643415.200692 3.381947.411947 5.072921.628483 1.099133.137315 2.192981.279912 3.292114.433071 6.658208.881988 13.300564 1.869603 19.868939 2.999815 3.994925.686577 7.968713 1.425968 11.894942 2.223453 2.84295.577429 5.661239 1.186547 8.454868 1.827352 2.071443.468281 4.125271.961208 6.161485 1.478782 16.545119 4.156432 32.028096 9.606799 45.370934 16.963738 34.649105 19.060439 50.153219 50.415891 38.638746 78.079671z" opacity=".1"/><circle cx="131.5" cy="36.5" opacity=".1" r="11.5"/><circle cx="365.5" cy="11.5" opacity=".1" r="11.5"/><circle cx="503.5" cy="37.5" opacity=".1" r="11.5"/><circle cx="19" cy="64" opacity=".1" r="19"/><circle cx="37" cy="159" opacity=".1" r="19"/><circle cx="551" cy="124" opacity=".1" r="19"/></g><path d="m187.545409 126.334343c.094534 1.606284.000929 3.218144-.278898 4.802561-1.052442 4.902835-5.504272 8.269905-9.814023 10.824234-4.309751 2.55433-9.045741 4.971443-11.608437 9.283193-3.088918 5.208932-2.104885 12.212227 1.520778 17.078118 3.625664 4.865892 9.371998 7.763262 15.286723 8.971818 10.787533 2.232399 22.601196-.902459 30.689215-8.396566 8.088018-7.494106 12.145183-19.204967 10.161329-30.081976-4.388684.617472-8.298507-3.266798-9.719304-7.478274-1.420797-4.211477-1.126113-8.776549-1.678645-13.19385-.04031-.746923-.264492-1.472198-.652514-2.111016-.615679-.854961-1.704956-1.203279-2.720563-1.482988-5.072771-1.398548-13.608078-4.459522-18.865026-3.287908-4.73599 1.087174-2.399569 11.082834-2.320635 15.072654z" fill="#be6f72"/><path d="m187.545409 126.334343c.094534 1.606284.000929 3.218144-.278898 4.802561-1.052442 4.902835-5.504272 8.269905-9.814023 10.824234-4.309751 2.55433-9.045741 4.971443-11.608437 9.283193-3.088918 5.208932-2.104885 12.212227 1.520778 17.078118 3.625664 4.865892 9.371998 7.763262 15.286723 8.971818 10.787533 2.232399 22.601196-.902459 30.689215-8.396566 8.088018-7.494106 12.145183-19.204967 10.161329-30.081976-4.388684.617472-8.298507-3.266798-9.719304-7.478274-1.420797-4.211477-1.126113-8.776549-1.678645-13.19385-.04031-.746923-.264492-1.472198-.652514-2.111016-.615679-.854961-1.704956-1.203279-2.720563-1.482988-5.072771-1.398548-13.608078-4.459522-18.865026-3.287908-4.73599 1.087174-2.399569 11.082834-2.320635 15.072654z" fill="#000" opacity=".1"/><path d="m180.640118 360.920012c-4.979433 2.674822-10.161619 4.931687-15.495815 6.748495-2.921726.947093-5.892851 1.725477-8.899413 2.331493-.212727-4.111828.005627-8.235211.651304-12.29916.406413-2.33684 1.005613-4.65229 1.161925-7.021215.221246-3.41941-.491518-6.834352-2.058119-9.860718 5.804418-.812814 11.317052-2.138984 17.147522-1.74862l.36994.026738c.693305.018075 1.379329.149862 2.032067.390364.89706.445364 1.658995 1.133057 2.204012 1.989256.300212.420179.576814.8576.828458 1.310128 1.646495 2.919713 2.271747 6.288613 2.402008 9.759115.061281 2.796063-.053588 5.593268-.343889 8.374124z" fill="#be6f72"/><path d="m212 347.38617c-1.864324.455808-3.693735.97543-5.488235 1.558866-4.837645 1.632611-9.545918 3.65708-14.08193 6.054964-.294666-1.489755-.438598-3.007733-.429423-4.528916 5.400347-3.889784 12.08059-5.324711 18.512318-3.976476.425569.053873.830105.223636 1.173058.492273.124275.114924.230327.249692.314212.399289z" fill="#be6f72"/><path d="m221.203783 320.774398c-.358518 3.440494-.88575 6.891508-2.108929 10.126835-1.323354 3.472057-3.474462 6.838901-3.200301 10.54769.121263 1.609772.669585 3.356322.74867 4.950312-1.518429.277063-3.017527.589198-4.497292.936403-1.876948.438391-3.718746.938157-5.525396 1.499298-4.870402 1.570225-9.610554 3.517333-14.17728 5.823587-.901567.441898-1.79259.889057-2.683613 1.341477-.369062-.047346-.732853-.105214-1.101915-.173603-2.636162-.478723-5.409405-1.657118-6.901473-3.761396-.341479-.484282-.609722-1.01604-.796121-1.578207-.859388-2.561958.036907-5.755199-1.750411-7.785826l-.084357.073649-.063268.042086c-.979051.884952-2.054264 1.657821-3.205573 2.304183-5.299853 2.992773-11.623594 3.600807-17.39867 1.672901-1.131394-.384342-2.22406-.873989-3.263568-1.462473-2.414725-1.373041-4.745092-3.682485-4.555288-6.439088.105446-1.536123.985924-3.009117.74867-4.529457-.173987-1.088964-.891023-1.993803-1.4288-2.95651-3.527185-6.312832.68013-14.430081-1.534247-21.290025-.052723-.163082-.110718-.326163-.168714-.483984-.163442-.447159-.347973-.878536-.527232-1.309913-.45342-1.004792-.959563-1.993802-1.36026-3.024898-.33367-.866865-.598111-1.758703-.790849-2.667172-.497725-2.638068-.674748-5.326406-.527232-8.006775 0-7.065111 1.265358-14.298564 3.068493-21.105901.321611-1.209959.680129-2.919685 1.154639-4.78197.462537-1.962905 1.086794-3.884331 1.866402-5.744677 1.054465-2.419919 2.488537-4.350593 4.449842-4.808274 2.952501-.68915 7.465611.768062 10.460291 1.125789l11.836368 1.409866 23.667462 2.824992c4.086052.489244 8.377723 1.052138 11.746739 3.345801.221437.15256.437602.310381.653768.478723.890038.699505 1.687285 1.509136 2.372546 2.409397.242527.310381.474509.636544.695946.967968.76784 1.172893 1.421089 2.416612 1.95076 3.714049 2.936685 7.038808 3.005225 14.893023 3.026314 22.515767 0 7.954168.026362 15.903076-.796121 23.799376z" fill="#3f3d56"/><path d="m175.817447 345c-.713924-2.752744-2.221095-6.738928-2.443204-7.824145-.745055-3.64064-1.285314-7.320285-1.618226-11.021562-.587004-6.595997-1.644667-15.881214.682193-22.154293 2.184076 1.164622 4.103736 4.462621 5.113805 6.71246 3.659518 8.15765-.460083 18.173402 2.977325 26.426339.257027.494322.416808 1.033463.47066 1.588122-.059707.704181-.312224 1.378248-.729788 1.948095l-1.158142 1.926921z" fill="#000" opacity=".1"/><path d="m251.497803 93.8546485c3.923318-6.3219835 9.296558-12.5386006 8.96073-19.930053-.122603-2.6341598-.996821-5.210368-1.663145-7.7918446-1.909482-7.4712589-2.0354-15.2789477-.367811-22.8065555 6.591826-1.0466592 13.338701.4468643 18.848983 4.1725091 1.743104 1.1906403 3.395589 2.6710381 4.163194 4.6255846.708969 1.8017653.591696 3.8089951.463762 5.7372-.293183 4.4306568-.692977 9.1563395-3.454225 12.643967-.858226 1.0905422-1.913684 2.0124981-2.750587 3.1135769-1.220707 1.5804959-1.935006 3.5087008-2.633314 5.3894909l-9.062011 24.3659781c-4.573651 12.280453-9.531104 25.124616-19.605928 33.622416-.245207.205464-7.462832-9.925515-8.059859-10.9423-2.414759-4.167241-1.359302-5.92686 1.561864-9.414487 5.762373-6.896231 8.891432-15.214907 13.598347-22.7854825z" fill="#be6f72"/><path d="m148 302c-.030247 1.836059-.18198 3.66795-.454169 5.483209-.093966.670111-.203592 1.334904-.334101 1.999696-1.780132 9.466647-6.212191 18.470598-9.313066 27.6926-4.087517 12.173682-5.88331 22.735907-7.30846 34.824495-4.108398 0-8.222017-.090412-12.288653-.308464h-.125288c-1.388608-.074457-2.782435-.15955-4.176263-.265917 1.258099-11.274882-1.044066-23.102872 1.205896-34.388391.908337-4.541863 2.458775-8.950767 3.393213-13.471357.288062-1.330923.505888-2.676621.652542-4.031302.130508-1.287038.198372-2.621942.767388-3.78134.052017-.11204.111312-.22042.177491-.324419.499855-.802415 1.119872-1.520209 1.837556-2.127336 6.360678-5.682562 14.140572-9.461476 22.478735-10.918553 1.185014-.164869 2.338707-.303146 3.487179-.382921z" fill="#fbbebe"/><path d="m148 302c-.030247 1.836059-.18198 3.66795-.454169 5.483209-.093966.670111-.203592 1.334904-.334101 1.999696-1.780132 9.466647-6.212191 18.470598-9.313066 27.6926-4.087517 12.173682-5.88331 22.735907-7.30846 34.824495-4.108398 0-8.222017-.090412-12.288653-.308464h-.125288c-1.388608-.074457-2.782435-.15955-4.176263-.265917 1.258099-11.274882-1.044066-23.102872 1.205896-34.388391.908337-4.541863 2.458775-8.950767 3.393213-13.471357.288062-1.330923.505888-2.676621.652542-4.031302.130508-1.287038.198372-2.621942.767388-3.78134.052017-.11204.111312-.22042.177491-.324419.499855-.802415 1.119872-1.520209 1.837556-2.127336 6.360678-5.682562 14.140572-9.461476 22.478735-10.918553 1.185014-.164869 2.338707-.303146 3.487179-.382921z" fill="#000" opacity=".1"/><path d="m121.997817 326.576396c-.084408 2.953677-.32313 5.900687-.715154 8.828529-1.393767 11.96449-1.654772 24.449868-2.61005 36.595075-1.388547-.074413-2.782314-.159456-4.176081-.265759-6.347643-.441161-12.674406-1.121505-18.9072063-2.051663.4802493-2.735551.9639787-5.471101 1.4511881-8.206652.5950915-3.353884 1.190183-6.739659 1.0179197-10.14138-.1618231-3.21569-1.0074795-6.346336-1.6808725-9.498243-1.4355278-6.75029-2.2394234-14.032098-4.6041292-20.399695-1.2332673-3.571415-3.2016775-6.833331-5.7734318-9.56734 9.7824694-3.911979 19.183871-4.135217 29.691935-3.720632.74601-.042004 1.487418.143024 2.129801.531519.497998.439242.868132 1.009153 1.070121 1.647709 1.579027 3.867616 2.57004 7.957645 2.938917 12.129261.125563 1.369228.181319 2.744164.167043 4.119271z" fill="#fbbebe"/><circle cx="201.5" cy="103.5" fill="#be6f72" r="20.5"/><path d="m205.921192 151.666376c2.641328-4.520231 4.955132-10.163896 10.037049-11.41981 2.868483-.715395 5.853185.259661 8.64771 1.218819.809639.192219 1.544706.619893 2.113063 1.229418.412835.657194.634239 1.4171.639202 2.193876.884737 9.342413.854658 18.749316-.089805 28.085843-.670898 6.608122-1.801386 13.184449-2.002127 19.824367-.279981 9.204737 1.230859 18.409475.734289 27.603615-.375069 6.968469-1.896474 13.815055-3.407314 20.624548l-6.339189 28.509781c-.113462.882171-.466123 1.71618-1.019553 2.411143-.5346.491752-1.174276.854283-1.870061 1.059843-18.555543 6.579923-39.02066 4.972314-56.328977-4.424845-2.287391-1.261214-4.569499-2.718498-6.059208-4.86998-2.113063-3.052348-2.308522-7.09035-1.621776-10.746809.686745-3.656459 2.171172-7.106249 3.169594-10.693818 1.542536-5.564176 1.90704-11.372117 2.255695-17.137664.464874-7.588477.929748-15.224647.121501-22.786627-.554679-5.20913-1.711581-10.338771-2.583219-15.505506-1.283811-7.787132-2.028686-15.654076-2.229282-23.544416-.132066-4.711003.084523-9.941329 3.333357-13.338126 1.584797-1.653355 3.69786-2.649608 5.847902-3.455089 3.608055-1.335402 7.638723-2.119686 11.283756-.900866 3.645034 1.218819 6.582192 5.055452 5.721119 8.812596-.3962 1.743442-1.521406 3.269616-1.796104 5.039554-.364503 2.342253.871638 4.700404 2.641329 6.28487 9.519349 8.627123 24.05194-5.892728 28.801049-14.074717z" fill="#e3e8f4"/><path d="m206.204566 130.412397c2.892104-1.064835 6.035154-1.248658 9.031771-.528228 1.907823.454276 3.968906 1.257184 5.728754.406736.639464-.306373 1.167947-.80819 1.812696-1.093433 1.743994-.765932 4.0059.174315 5.54907-.940247.972408-.702544 1.289498-1.980857 1.617157-3.14296 1.587002-5.547119 4.839163-10.473718 9.317153-14.114265-.554907 4.051513-.956554 8.662947 1.722854 11.758366 1.220795 1.405088 2.933079 2.28723 4.666503 2.973927 2.489154.987787 5.22141 1.64279 7.84797 1.103997 2.626559-.538793 5.084005-2.524932 5.501506-5.171357-.089842 3.977561-3.879064 6.756043-4.941314 10.596264-.401647 1.436782-.364654 2.963362-.644749 4.431837-.713452 3.750422-3.39286 6.761325-5.734039 9.782792-7.477499 9.718331-12.254028 21.238438-13.84625 33.394606-.108307 1.442536-.410497 2.863921-.898421 4.225828-.517918 1.04453-1.104038 2.053866-1.754563 3.021467-3.873779 6.539468-2.679408 14.790398-1.363486 22.259548 2.055799 11.700262 4.106312 23.16282 7.435754 34.567273.570761 1.949164 1.21551 3.982843 2.668838 5.403778-.45978 4.611435-5.115714 6.713784-9.301298 8.705206-4.132688 1.969758-7.945233 4.55-11.309532 7.654031-1.204941 1.109279-2.394027 2.355899-2.832668 3.935302-.412217 1.484322-.116266 3.116548-.644749 4.558612s-2.642414 2.477391-3.572544 1.262466c-1.162662-4.347321.824433-8.895368.734591-13.395875-.063418-3.037314-1.056966-5.990111-1.199656-9.027425-.137405-3.438767.877282-6.814148 1.955387-10.0786 3.001782-9.090812 6.627174-18.097108 7.668285-27.610503 1.041112-9.513395-.903705-19.90365-7.657716-26.691386-8.017084-8.092461-12.46691-19.063767-21.06004-26.495942-1.363486-1.177949-2.906656-2.641142-2.679408-4.426554.156923-.786296.503409-1.522451 1.009402-2.144608 2.948934-4.162441 6.870277-7.55895 10.041174-11.541793s5.707614-8.567866 5.131568-13.63886z" fill="#9d9ab8"/><path d="m178.462454 139.168413c-.534637.531627-.903536 1.265273-1.523715 1.722473-.724331.444483-1.550325.698752-2.400519.738961-3.146408.475181-6.319229.757477-9.500494.845288-2.673184 0-5.447949-.233916-8.019551.494413-3.587413 1.010092-6.453065 3.827717-8.249445 7.070643-1.796379 3.242926-2.646452 6.911154-3.336133 10.563434-1.520297 8.046665-2.334227 16.209519-2.432597 24.396375 4.406829-3.494499 8.334194-7.548103 11.681812-12.057306 2.566257-3.460894 4.891926-7.28861 8.554188-9.601189 1.684106-1.063254 3.57672-1.765002 5.271518-2.801676 3.533949-2.163723 5.982585-5.66183 8.334987-9.037663 1.732222-2.503965 6.741769-7.394935 7.1374-10.393313.336821-2.865471-3.646223-4.263651-5.517451-1.94044z" fill="#9d9ab8"/><path d="m197.036082 88.8319157c.652024.395658 1.276524.8358675 1.869134 1.3175522 3.585146 2.5284201 8.384702 2.0590087 12.719615 1.482913 1.33057-.170695 2.6981-.3627269 3.838588-1.0668439 1.832174-1.141523 2.692821-3.4885795 2.513299-5.6596069-.179521-2.1710273-1.261929-4.1713597-2.581939-5.8676415-3.533873-4.5362376-8.752551-7.412349-14.440908-7.9586555-1.457495-.1930113-2.939521-.0339645-4.324353.4640771-1.705452.7094512-2.988502 2.1710273-4.561954 3.1471895-4.641154 2.8804786-11.790328 1.6002659-14.78411 6.1983631-2.191217 3.3925636-.628325 8.0013293-1.663213 11.9006438-.770885 2.9124838-2.993782 5.5635909-2.566099 8.5347514.237602 1.600266 1.230249 2.997831 2.022255 4.427402 1.818804 3.286522 2.660307 7.033428 2.423538 10.791126 2.032816 1.450908 4.868197-.805467 5.433161-3.24854.564964-2.443072-.084481-5.046171.396003-7.510581.850086-4.326052 4.630595-7.4999123 6.336047-11.4685717 1.22497-2.843139 3.220824-7.6439365 7.370936-5.4835776z" fill="#3f3d56"/><path d="m146.509446 135.696921c-.157079.957709-.256563 2.015398.27227 2.825767 1.047195 1.57864 3.44527 1.01033 5.33022 1.247126 2.937381.363087 5.105074 3.157281 5.675795 6.093552s-.109956 5.925163-.853464 8.808813c-1.682492 6.535572-3.686124 12.978178-6.010896 19.327821-6.251751-.741961-12.833369-3.157281-16.152976-8.519396-3.01592-4.877999-2.706997-11.09258-4.623363-16.502055-1.345645-3.809785-3.759429-7.12493-6.147032-10.376929 3.837968.484116 6.581617-3.925553 6.806764-7.809008.225147-3.883456-.989599-7.824794-.162315-11.618794.193731-.899825 15.320456 1.936466 16.791764 2.962582 4.25161 2.962582-.256563 9.445532-.926767 13.560521z" fill="#fbbebe"/><path d="m146.509446 135.696921c-.157079.957709-.256563 2.015398.27227 2.825767 1.047195 1.57864 3.44527 1.01033 5.33022 1.247126 2.937381.363087 5.105074 3.157281 5.675795 6.093552s-.109956 5.925163-.853464 8.808813c-1.682492 6.535572-3.686124 12.978178-6.010896 19.327821-6.251751-.741961-12.833369-3.157281-16.152976-8.519396-3.01592-4.877999-2.706997-11.09258-4.623363-16.502055-1.345645-3.809785-3.759429-7.12493-6.147032-10.376929 3.837968.484116 6.581617-3.925553 6.806764-7.809008.225147-3.883456-.989599-7.824794-.162315-11.618794.193731-.899825 15.320456 1.936466 16.791764 2.962582 4.25161 2.962582-.256563 9.445532-.926767 13.560521z" fill="#000" opacity=".1"/><circle cx="143.5" cy="109.5" fill="#fbbebe" r="20.5"/><path d="m136.622681 132.623767c.748576-1.169869-.527166-2.803469.057988-4.062922.34793-.758833 1.228297-1.085553 1.908341-1.580903.85286-.693814 1.53315-1.575875 1.987416-2.576873 3.200921-6.148316 4.169719-13.216021 2.741264-19.998427-.484993-2.276501-.917269-5.301296 1.165037-6.3236135.577178-.2575043 1.20974-.3662133 1.839809-.3161806 3.753423.1212025 7.380325 2.6348391 11.023043 1.7442633 2.546094-.6920465 4.395091-2.8911054 4.639061-5.5173527.237225-3.4042119-2.314259-6.3236134-4.823569-8.6159233-4.517814-4.1525062-11.402602-5.0746998-17.538815-5.1748237l-11.413145-.1897084c-3.653261-.0632361-7.749341.0526968-10.290282 2.6717267-3.658532 3.7678197-1.818723 9.9333428-2.345889 15.1555935-.448143 4.1680137-2.533985 7.9874607-5.798826 10.6184007-2.366976 1.886545-5.624862 3.688775-5.582689 6.70303 0 1.053936.453363 2.013017.743304 3.008987 1.165037 3.941719.052717 8.299742-2.182467 11.751381s-5.5036139 6.107557-8.8932916 8.431485c-1.8134513 1.238374-3.6901624 2.429321-5.1240541 4.110349-1.5720108 1.941658-2.5054916 4.321415-2.6727319 6.813693-.2255905 1.904442.1661459 3.830986 1.117592 5.496274 2.2299124 3.562302 7.5806479 4.084 11.244452 2.018287 3.6638046-2.065714 5.8989886-5.975815 7.3803246-9.906995.885639-2.334467 1.787093-5.006194 4.053907-6.05486 2.867784-1.333228 6.22056.774643 8.086728 3.330437 1.866167 2.555794 3.015389 5.675443 5.403452 7.751696 3.742879 3.256661 10.111045 2.729693 13.274041-1.096093 2.261542-2.745502 2.76235-6.54494 2.63583-10.101973-.062918-2.896896-.979838-5.710781-2.63583-8.088955z" fill="#3f3d56"/><path d="m144.308499 159.93072c-2.360998.501598-4.828109-.607198-6.584267-2.265112s-2.939309-3.796306-4.170212-5.866059c-3.120704-5.220745-6.698178-10.157307-10.69081-14.752266-3.480483-3.996946-8.324508-8.057251-13.492175-6.821736-1.730231.496932-3.335651 1.351538-4.711385 2.507991-9.2619368 7.297995-14.1053402 18.820537-12.823667 30.50773.4032266 3.363348 1.3210977 6.652776 1.7031019 10.031964.2573215 2.785314.3317582 5.584369.2228357 8.379329-.1432515 8.51133-.4350602 17.513697-5.0456382 24.683911-7.1466611 11.08796-10.9720083 24.330152-16.2192598 36.431868-2.8331975 6.541897-4.5309938 13.506191-6.1969564 20.433526-.9868441 4.111345-1.9719196 8.220931-2.9552266 12.328756l-6.4197921 26.875102c-.6632016 2.77199-1.3264033 5.67598-.6260623 8.44797 1.0611226 4.139505 4.9713596 7.032934 9.0938211 8.21037 4.1224616 1.177436 8.4889813.976797 12.7706113 1.013757 8.1918669.079199 16.4474012 1.092956 24.1352344 3.923025 2.196524.807837 4.387743 1.774074 6.727518 1.964153 2.339776.19008 4.66894-.417118 6.860158-1.261915 5.979426-2.302072 11.104649-6.335977 16.611875-9.593725 3.440028-2.062954 7.063038-3.807383 10.823451-5.211342 1.888799-.702237 3.915543-1.367515 5.215418-2.903989.981539-1.156316 1.421905-2.66639 1.745547-4.144785 1.793297-8.32125.588923-16.943459 0-25.433668s-5.687617-17.460897-1.469655-24.86343c.848898-1.494235 1.86227-2.93039 2.297331-4.588304.573006-2.164792.090195-4.493263.573006-6.679175.355476-1.615675 1.20968-3.067669 1.793297-4.614704 1.018678-2.72447 1.156624-5.691819 1.146013-8.601089-.023964-6.387548-.699472-12.756175-2.016133-19.007931-1.671268-7.919971 3.857181-15.750183 7.024632-23.231916 1.135401-2.67695 2.743002-5.206061 3.215201-8.073091.424449-2.58719-.122029-5.221901-.530561-7.814371-.60971-4.017979-.858289-8.082048-.742786-12.143956.100807-3.643187.488117-7.355014-.38731-10.897881-.875426-3.542867-3.37437-6.980135-6.96627-7.708772-.815509-.237909-1.695198-.100396-2.398137.374879-.414626.404565-.706896.916768-.843593 1.478394-1.167234 3.558707-.939093 7.391974-1.591684 11.08796-.65259 3.695987-1.416598 7.017095-5.077471 7.798532z" fill="#f5a623"/><path d="m94.3533988 183.300564c.2158727-1.439322-.4633365-3.351488-1.9375891-3.299527-1.3584185.051961-1.9639151 1.730303-1.9586499 3.076094s.1895468 2.889035-.7739826 3.834726c-.8529604.836573-2.2640308.810592-3.2538861 1.491282-.7089474.49903-1.1273529 1.307415-1.121485 2.166776 0 .722259.3317068 1.413341.3527676 2.135599.0210607.722259-.4686017 1.558832-1.1951976 1.512067-.767434 1.271007-.5706678 2.892768.479132 3.94904.3790936.363727.8740212.675494 1.0003857 1.184712.040022.357136.0114416.718518-.084243 1.065202-.2211379 1.428929.7792478 3.029329 2.2377049 3.185212-.8161042.576768-.6528833 1.927755.0947733 2.598053.7476567.670297 1.821755.8002 2.8274059.8002 2.2824318-.012461 4.5394836-.473493 6.6394019-1.356183.7190252-.234236 1.3549156-.667027 1.8322854-1.247066.457451-.617914.3927547-1.472149-.1526905-2.016089 1.0214463.166276 2.2482353.259806 2.9169143-.51961.931938-1.091182-.068448-2.707171-1.053038-3.76198.834729-.12242 1.514815-.724749 1.728112-1.530531.213298-.805782-.081381-1.659414-.748787-2.169096-.336972-.244217-.795043-.457258-.84243-.86775s.305381-.675494.452806-1.039221c.336972-.815789-.431745-1.647165-1.174137-2.140795-1.7585724-1.153536-4.3490448-1.132751-5.9128056-2.296679s-.5791707-3.195605-.3527676-4.754436z" fill="#be6f72"/><path d="m203.448935 102.002226c-1.253192.129277-2.514255.159388-3.77197.090066-.446041-.049903-.848872.275357-.905479.731118l-2.405989 18.479269c-.185095 1.341422-.721495 2.606488-1.552251 3.660888-1.384403 1.696104-2.01957 3.904268-1.754043 6.097947v31.390388s-.155225 4.185385 2.985496 4.185385c3.758915.483617 7.562166.483617 11.321082 0 0 0 2.514646-.487412 2.514646-4.349622v-30.908274c.388248-2.182515-.17929-4.429495-1.552251-6.145629-.802942-1.058237-1.321971-2.312889-1.505683-3.639695l-2.499124-18.866021c-.058911-.440211-.441622-.757878-.874434-.72582z" fill="#3f3d56"/><path d="m203.448935 102.002226c-1.253192.129277-2.514255.159388-3.77197.090066-.446041-.049903-.848872.275357-.905479.731118l-2.405989 18.479269c-.185095 1.341422-.721495 2.606488-1.552251 3.660888-1.384403 1.696104-2.01957 3.904268-1.754043 6.097947v31.390388s-.155225 4.185385 2.985496 4.185385c3.758915.483617 7.562166.483617 11.321082 0 0 0 2.514646-.487412 2.514646-4.349622v-30.908274c.388248-2.182515-.17929-4.429495-1.552251-6.145629-.802942-1.058237-1.321971-2.312889-1.505683-3.639695l-2.499124-18.866021c-.058911-.440211-.441622-.757878-.874434-.72582z" fill="#000" opacity=".1"/><rect fill="#ff7000" height="26" rx="8" width="16" x="194" y="132"/><path d="m256.138418 23.0971227c-1.133459.6230786-2.314585 1.1551847-3.532248 1.5913044-.438696.1308988-.694492.5862263-.578101 1.0290435l4.84756 18.0347832c.346665 1.3090109.332002 2.6875309-.04243 3.9888697-.660624 2.1134191-.410773 4.4065731.689478 6.3280871l12.102988 29.0041749s1.463814 3.9252175 4.439176 2.6840001c3.74564-1.039228 7.345208-2.546961 10.713424-4.4874784 0 0 2.190418-1.4427827.705389-5.0073046l-11.917359-28.5586096c-.474691-2.170053-1.876031-4.023235-3.834557-5.0709567-1.166219-.6600906-2.140471-1.612529-2.826859-2.7635653l-9.636778-16.4434788c-.227117-.3952922-.725925-.5405034-1.129683-.3288695z" fill="#3f3d56"/><path d="m270.612667 49.743976c4.295531-.0016841 7.779111 3.4791658 7.780795 7.7746959.000001.0020321.000001.0040641 0 .0060962l-.004221 10.7757058c-.001685 4.2998848-3.487009 7.7852098-7.786894 7.7868955-4.29553.0016841-7.77911-3.4791658-7.780794-7.7746959-.000001-.002032-.000001-.0040641 0-.0060962l.004221-10.7757058c.001685-4.2998848 3.487009-7.7852097 7.786893-7.7868955z" fill="#ff7000" transform="matrix(.9228745 -.38510083 .38510083 .9228745 -3.35814 109.063578)"/><path d="m107.957347 133.782313c-5.672353 2.347682-7.914911 9.650405-6.585206 15.660048s5.33465 11.017679 9.239339 15.781937l10.943684 13.407758c3.023496 3.709656 6.331928 7.615394 10.943683 8.908474 6.743504 1.891924 13.487008-2.421876 19.317659-6.322314 17.404206-11.647892 36.007952-21.377473 55.488802-29.02011 1.904855-.741932 3.857199-1.494462 5.424352-2.819339 3.25039-2.745146 4.163243-7.806176 2.353367-11.658919-1.809877-3.852743-6.025886-6.359411-10.273555-6.391208-4.247668-.031797-8.379252 2.225794-10.93313 5.638677-1.218896 1.62695-2.110643 3.487077-3.287326 5.140524-2.976007 4.154815-7.619421 6.725077-12.16258 9.046261-10.954355 5.613276-22.230969 10.568207-33.770286 14.838625-2.110643.773728-4.490393 1.51036-6.479674.487555-1.218896-.630642-2.042047-1.823031-2.780772-2.988923-3.366275-5.321672-6.043725-11.05242-7.967676-17.053819-1.440514-4.504583-2.606644-9.411928-6.068099-12.612831-4.907244-4.53638-13.793051-3.449981-17.470846 2.119803 0 0-4.3109883 6.332913-1.672685 8.982668 2.638304 2.649754 5.740949-11.144867 5.740949-11.144867z" fill="#fbbebe"/><path d="m404.198361 111.734933c.771339 2.050399.792472 4.295823.681526 6.483266-.137362 2.6671-.808321 5.798044-3.2914 6.815337-1.616643.648327-3.613672.158128-5.050688 1.138525-1.743438 1.180692-1.658907 3.72129-1.389467 5.798043.744924 5.708438 1.584944 11.627713 4.702 16.455902 1.674757 2.588035 3.941227 4.743853 6.239395 6.804794 4.580488 4.121882 9.60476 8.148887 15.622263 9.524604.980206.275688 2.011427.319008 3.011393.126503.985998-.303891 1.880959-.847234 2.604591-1.581285 3.486876-3.194194 5.283146-7.753565 7.60773-11.885989 1.643058-2.957002 3.603105-5.798043 4.527656-9.055489 1.55324-5.805761-.326039-11.98816-4.849928-15.955161-1.030213-.880249-2.171373-1.618182-3.169887-2.530056-2.609875-2.361385-4.131421-5.750605-4.754832-9.208347s-.528314-7.015632-.227175-10.541897c-5.283146-.405863-10.52931.231922-15.68566 1.259757-2.292886.458572-5.520888.66941-7.597164 1.760497-2.335151 1.238672.380386 2.825228 1.019647 4.590996z" fill="#fbbebe"/><path d="m404.198361 111.734933c.771339 2.050399.792472 4.295823.681526 6.483266-.137362 2.6671-.808321 5.798044-3.2914 6.815337-1.616643.648327-3.613672.158128-5.050688 1.138525-1.743438 1.180692-1.658907 3.72129-1.389467 5.798043.744924 5.708438 1.584944 11.627713 4.702 16.455902 1.674757 2.588035 3.941227 4.743853 6.239395 6.804794 4.580488 4.121882 9.60476 8.148887 15.622263 9.524604.980206.275688 2.011427.319008 3.011393.126503.985998-.303891 1.880959-.847234 2.604591-1.581285 3.486876-3.194194 5.283146-7.753565 7.60773-11.885989 1.643058-2.957002 3.603105-5.798043 4.527656-9.055489 1.55324-5.805761-.326039-11.98816-4.849928-15.955161-1.030213-.880249-2.171373-1.618182-3.169887-2.530056-2.609875-2.361385-4.131421-5.750605-4.754832-9.208347s-.528314-7.015632-.227175-10.541897c-5.283146-.405863-10.52931.231922-15.68566 1.259757-2.292886.458572-5.520888.66941-7.597164 1.760497-2.335151 1.238672.380386 2.825228 1.019647 4.590996z" fill="#000" opacity=".1"/><path d="m373.97301 127.716082c-8.551179-2.954731-12.63721-14.497808-21.588568-15.792161-1.411155-.206884-2.859169-.127313-4.243996-.456206-5.154929-1.230695-7.371707-7.235642-8.861844-12.3546995-5.023292-17.0652937-11.58411-33.7645616-20.904053-48.8936315-3.933332-6.3656675-10.151893-11.5961243-12.99-18.5665303-.652922-1.5914169-.984649-3.4056321-2.158856-4.6628515-1.174208-1.2572193-3.685853-1.4375799-4.32298.1644464-.177703.5674826-.217432 1.1696791-.115841 1.7558633l.616064 6.6043801-10.710036-.9707643c-.990731-.170217-2.007587-.0974334-2.964479.2121889-1.033338.5209486-1.857065 1.3845302-2.332618 2.4454773-3.622667 6.8590068.236948 15.8452075 6.62927 20.1844708 7.466485 5.0660105 18.129132 5.8351953 23.089237 13.3944255 2.948682 4.4984051 3.006603 10.2858578 4.949574 15.3094305.926729 2.4030395 2.279964 4.6098042 3.359392 6.9385776 2.058812 4.4400531 3.111913 9.2673507 4.707361 13.8930697 2.285229 6.614989 5.670948 12.779077 9.046137 18.906032 2.601159 4.731813 5.265504 9.548502 9.267287 13.166323 2.632753 2.376516 5.728869 4.137684 8.824986 5.835195 7.613919 4.190731 16.591604 8.22232 24.658357 5.007658.463365-7.246251-1.342704-15.325344-3.954394-22.120694z" fill="#fbbebe"/><path d="m400.920482 355.216604c-.647861 6.897497-4.819456 13.144885-5.793882 19.783396-6.425941-1.009519-12.751807-2.309737-18.872253-3.789659-.753205-.179705-1.501142-.364696-2.254347-.528544 3.465795-9.513789.447709-20.169233 1.364196-30.301419.089542-.972521.215954-1.945041.384503-2.906991 7.937618-2.716715 15.10623-6.342526 23.428352-5.285438.163282 1.69134.331831 3.387966.495113 5.079306.333587 3.379157.663663 6.75479.990227 10.1269.33404 2.593289.420463 5.212667.258091 7.822449z" fill="#fbbebe"/><path d="m456 371.755272c-3.137944.953871-6.360698 1.785859-9.726567 2.469467-.561862.116584-1.129024.227869-1.696186.333855-3.445378.646513-6.933161 1.11815-10.458048 1.441406-.360439-7.366008-5.300581-14.138495-6.02146-21.700576-.147525-1.87927-.128013-3.767918.058306-5.64374.063607-.7419.137815-1.4838.206723-2.2257l1.494764-15.246046c1.189953-.149703 2.389618-.208166 3.588493-.174877 6.890756.164278 13.161344 3.147776 19.988494 5.474163.508836 3.216527.68645 6.476738.530058 9.729489-.259729 8.277485-1.590175 16.655656 1.484163 24.249533.174919.429242.36574.858484.55126 1.293026z" fill="#fbbebe"/><path d="m366.545262 256.42299c.919962 7.250726-2.744114 14.193136-4.331706 21.321599-1.051385 4.715099-1.193322 9.568407-1.335259 14.405768l-.830594 28.976326c-.08411 2.897101-.157707 5.847359.714942 8.627513 1.755813 5.570939 7.165188 9.334512 12.795355 10.674089 5.630166 1.339577 11.517921.659157 17.253226-.106315 2.812455-.377421 5.745818-.818631 8.074636-2.461207 3.201467-2.259207 4.599809-6.283254 5.808902-10.036196l3.411744-10.594352c3.926922 8.941144 2.265734 18.716867 4.620836 28.205537.151186.87732.512118 1.703985 1.051385 2.408049.993559 1.116314 2.628463 1.291735 4.116172 1.39805 10.303572.733578 20.749082 1.46184 30.884432-.531578 2.78617-.531578 5.693249-1.392735 7.617284-3.508416 2.23945-2.461207 2.628462-6.081254 2.602177-9.42488-.141937-11.487404-4.247595-22.570809-5.162299-34.021002-.39427-4.906467-.199764-9.839512-.373242-14.761926-.136491-3.702123-.478732-7.393558-1.0251-11.056825-.173618-1.678044-.628721-3.313907-1.345773-4.837362-1.577077-2.976837-4.852141-4.592835-7.953727-5.847359-24.097742-9.897985-50.603156-9.802301-76.593391-8.829513z" fill="#f86d70"/><circle cx="411.5" cy="91.5" fill="#fbbebe" r="22.5"/><path d="m430.832063 131.333692c-1.679957 3.692057-4.323652 7.384114-8.257596 8.322951-3.617965.870271-7.451849-.875545-10.116609-3.475808-2.664761-2.600263-4.407914-5.975858-6.256394-9.209045-1.348179-2.362916-2.849081-4.74693-5.1294-6.234301-3.117664-2.025357-7.141136-1.972614-10.81703-1.37661-3.675895.596003-7.325457 1.661426-11.059282 1.418805-4.650164-.311188-9.389856-2.637184-13.776704-1.08652 1.421907 6.371435.911074 13.375795.747818 19.905461.027624 1.008256-.114811 2.013953-.421306 2.974743-.382915.895863-.899658 1.728182-1.5325 2.468404l-4.21306 5.437872c4.518506 3.386144 8.426119 7.806063 10.006016 13.233387.890009 3.090779.61616 6.371435.584562 9.588799-.10006 9.446391 1.94854 18.855862 1.300783 28.281156-.758351 11.03925-5.160998 21.471948-7.430784 32.300223-1.944175 9.295661-2.310928 18.852919-1.084863 28.270607 23.603666 8.180543 47.923552 12.368391 72.875397 13.739726 4.407914.242621 9.168671.279541 12.786636-2.257429 3.007071-2.109747 4.692295-5.722688 5.266324-9.362001.57403-3.639314.179055-7.341919-.221185-11.00233-1.084863-9.898229-2.167971-19.796457-3.249322-29.694686-.61616-5.633024-1.23232-11.297694-.83208-16.946541.300181-4.219494 1.163858-8.359872 2.022269-12.489701l5.266324-25.348608c.753085-3.602392 1.511435-7.231157 3.001805-10.590929 1.221787-2.742671 2.912278-5.274367 4.260457-7.943196 1.607085-3.200001 2.71533-6.627641 3.286186-10.163705.228712-1.026363.214283-2.092103-.042131-3.111877-.563496-1.729992-2.285584-2.769043-3.891813-3.618216-9.794535-5.155281-20.291622-8.842692-31.155576-10.944311-.737285 3.106602-.595094 6.018052-1.916942 8.91368z" fill="#e3e8f4"/><path d="m428.928831 115.952437c2.646596-5.062764 7.595732-8.614098 10.469935-13.560598 3.223911-5.6913487 3.464934-12.5948749.64577-18.4965304-1.011-2.061042-2.381937-3.9529727-3.175916-6.1091397-.883963-2.4521114-.968654-5.1526048-1.99024-7.551869-1.402696-3.2870976-4.440989-5.6546534-7.749235-7.0181119-3.308245-1.3634585-6.88115-1.8549378-10.443469-2.3305628l-12.026134-1.6171252c-1.74146-.2325278-3.546439-.4650556-5.240261 0s-3.271193 1.8443683-3.408816 3.5988963c-.164089 2.076896 1.662062 4.0111046 1.238607 6.0510076-.153503.7187224-.576958 1.4480141-.333471 2.1455975.2169.4659996.591892.8403911 1.058638 1.0569446 2.853031 1.5854169 6.261848 1.7281044 9.353072 2.7639101 3.091225 1.0358056 6.193036 3.6358893 5.880737 6.8701397-.169382 1.7386738-1.291539 3.546049-.529319 5.1050423.730461 1.4427293 2.646596 1.7069655 4.176329 2.1561669 4.949135 1.4321599 8.42147 6.7908689 7.701596 11.890626-.222314 1.585417-.793979 3.102133-.91043 4.692834-.386403 5.570098.492267 7.1608 5.049706 10.400335z" fill="#3f3d56"/><path d="m459.359202 140.608186c.024164 1.0527-.167135 2.099177-.562054 3.074653-1.638886 3.50711-6.655347 3.285608-9.980394 5.273849-4.139238 2.478709-5.053232 8.010977-5.431436 12.831275-.430733 5.458433-.724892 10.995975.38871 16.348931 1.113602 5.352957 3.79255 10.574067 8.267969 13.712007 5.447194 3.802445 12.853698 3.934292 19.073059 1.619072 6.219362-2.31522 11.41442-6.792717 15.921356-11.686849 4.275812-4.640987 8.105131-9.814633 10.400622-15.705522.404469-1.05477.761662-2.172826.435986-3.227596-.488514-1.582154-2.206193-2.299398-3.603448-3.164309-3.262013-1.977693-5.436689-5.426791-6.566049-9.07102-1.12936-3.64423-1.318463-7.520509-1.355233-11.344049-.042022-3.971208-.052528-8.311586-2.573891-11.375692s-6.891725-3.923744-10.873377-3.892101c-3.256761 0-12.270633.311157-14.492584 3.16431-1.822735 2.373232 1.082085 10.046682.950764 13.443041z" fill="#be6f72"/><path d="m459.359202 140.608186c.024164 1.0527-.167135 2.099177-.562054 3.074653-1.638886 3.50711-6.655347 3.285608-9.980394 5.273849-4.139238 2.478709-5.053232 8.010977-5.431436 12.831275-.430733 5.458433-.724892 10.995975.38871 16.348931 1.113602 5.352957 3.79255 10.574067 8.267969 13.712007 5.447194 3.802445 12.853698 3.934292 19.073059 1.619072 6.219362-2.31522 11.41442-6.792717 15.921356-11.686849 4.275812-4.640987 8.105131-9.814633 10.400622-15.705522.404469-1.05477.761662-2.172826.435986-3.227596-.488514-1.582154-2.206193-2.299398-3.603448-3.164309-3.262013-1.977693-5.436689-5.426791-6.566049-9.07102-1.12936-3.64423-1.318463-7.520509-1.355233-11.344049-.042022-3.971208-.052528-8.311586-2.573891-11.375692s-6.891725-3.923744-10.873377-3.892101c-3.256761 0-12.270633.311157-14.492584 3.16431-1.822735 2.373232 1.082085 10.046682.950764 13.443041z" fill="#000" opacity=".1"/><path d="m430.958649 282.76191c.16448.811667.54674 1.563021 1.105638 2.1732.524945.415342 1.137649.705015 1.791346.846909 17.445691 5.129393 36.08207 3.084027 54.144367.990724-2.471739-7.542284-4.959424-15.169792-5.645132-23.079603-.568766-6.524928.069102-13.31618-2.237854-19.436296-.680393-1.811-40.334524 6.524928-44.246781 7.20139-2.003969.346221-4.310925.229038-5.730182 1.821654-1.711612 1.928182-1.855133 6.519601-2.035862 8.92184-.510294 6.940393.919593 13.928724 2.85446 20.560182z" fill="#be6f72"/><path d="m470.913276 365.642061c-3.168982 1.462245-6.438316 2.824552-9.823847 4.044843-1.830967.662744-3.700667 1.283409-5.609099 1.861995-3.12673.946777-6.337966 1.772577-9.691806 2.451101-1.911954-4.828564-3.825667-9.658881-5.741141-14.490951-1.410198-3.555675-2.820395-7.127129-3.9982-10.761701-.819274-2.481909-1.492939-5.00916-2.017586-7.568958-1.729124-8.700814-1.279253-17.691863 1.309846-26.17839 7.320351 1.372827 14.47697 2.267005 21.686407 3.30846 3.850314.525988 7.711191 1.146653 11.619604 1.877775.306335 2.535259.584501 5.070518.834499 7.605777.380277 3.913346.691894 7.826692.93485 11.740038.538727 8.696324.704218 17.399661.496473 26.110011z" fill="#be6f72"/><path d="m470.913276 365.642061c-3.168982 1.462245-6.438316 2.824552-9.823847 4.044843-1.830967.662744-3.700667 1.283409-5.609099 1.861995-3.12673.946777-6.337966 1.772577-9.691806 2.451101-1.911954-4.828564-3.825667-9.658881-5.741141-14.490951-1.410198-3.555675-2.820395-7.127129-3.9982-10.761701-.819274-2.481909-1.492939-5.00916-2.017586-7.568958-1.729124-8.700814-1.279253-17.691863 1.309846-26.17839 7.320351 1.372827 14.47697 2.267005 21.686407 3.30846 3.850314.525988 7.711191 1.146653 11.619604 1.877775.306335 2.535259.584501 5.070518.834499 7.605777.380277 3.913346.691894 7.826692.93485 11.740038.538727 8.696324.704218 17.399661.496473 26.110011z" fill="#000" opacity=".1"/><path d="m510.998525 342.798076c.04194 3.071013-.817835 6.206005-1.614699 9.218371-.057668.213264-.110093.421197-.162518.634462-1.896054-.600491-3.530819-1.84693-4.629153-3.529532-.567246-.912347-.986747-1.911416-1.242479-2.959049-2.373118 1.642139-4.767206 3.268283-7.182264 4.878432-7.900489 5.278304-16.251837 10.519286-25.483929 14.859224-3.145517 1.482191-6.390642 2.86308-9.751102 4.100016-.699004-2.488089-1.363058-4.992173-1.992161-7.512252-.687508-2.594573-1.226644-5.227472-1.614699-7.885466-.768013-6.037109-.172762-12.172831 1.74052-17.9409l.235914-.693111c.890744-2.565271 2.04156-5.029309 3.433855-7.352304 1.30539-2.132648 3.889956-1.775429 6.526948-1.066324 1.195296.314566 2.40632.693111 3.507251.927702 6.851985 1.460864 13.966095-.047984 20.970113.351887 3.337832.169411 6.608647 1.015967 9.620039 2.489867 3.370946 1.722113 6.086575 4.355933 7.150808 7.997429.151204.524478.266812 1.058897.346007 1.599486.088289.623454.135577 1.252205.141549 1.882062z" fill="#be6f72"/><path d="m384.557452 100.101569c-10.921383-10.5394093-23.334209-19.4715584-36.032631-27.82404-3.30423-2.0647814-6.483059-4.3223968-9.519849-6.7610308-3.173283-2.6348523-5.939329-5.7281688-9.308298-8.0995358s-7.536547-3.9997057-11.582483-3.2197894c-4.045936.7799162-7.642324 4.6373399-7.049978 8.6739335.528881 3.5517808 3.733897 5.9863843 6.695628 8.0257599 5.606133 3.8626934 11.238711 7.7359262 17.336704 10.7660063 2.118358.9567847 4.172878 2.0481017 6.15088 3.2672167 3.797362 2.550537 6.563408 6.3236454 9.435229 9.8701565 10.839476 13.4151961 24.116327 24.6776381 39.137159 33.1991381.17982.105394 6.436476-13.348161 6.172036-15.092434-.581768-4.010245-8.557287-10.022977-11.434397-12.805381z" fill="#be6f72"/><path d="m477.329929 271.033183c-8.381145.528814-16.420525 3.373833-24.617643 5.187665s-17.104057 2.517154-24.712286-1.057628l4.626981 31.776431c.257639 1.766238.525794 3.574782.141964 5.31458-.352281 1.660476-1.267161 3.225765-1.188292 4.923258.120932 2.686375 2.628966 4.57424 4.989778 5.816953 6.858386 3.641779 14.542241 5.4225 22.293637 5.166512-.573115 2.326782-1.288194 4.627123-1.866566 6.953904 3.864581 4.172342 10.184616 4.452613 15.700188 5.774648 4.206347.999459 8.149797 2.733968 12.272016 3.955529 4.984963 1.47975 10.161135 2.20512 15.358423 2.152272 3.507042-.037017 7.224401-.528813 9.94801-2.72868 3.349303-2.712815 4.390374-7.324073 5.115969-11.586313.404861-2.379663.778174-4.791055.525793-7.19187-.273412-2.760409-1.335515-5.37275-2.387101-7.932209l-7.203369-17.583064c-1.309225-3.172884-2.628966-6.393361-4.206346-9.455194-5.152775-9.904685-13.702174-20.17954-24.791156-19.486794z" fill="#3f3d56"/><path d="m483.928682 160.95266c1.282809-3.378147 4.685327-5.456829 8.269039-5.05176 2.106762.29561 3.987047 1.451655 5.793595 2.581307l10.059787 6.292266c1.667039.994156 3.266424 2.09808 4.787615 3.304495 6.936513 5.764391 9.6121 15.239741 10.375802 24.240004.763701 9.000262 0 18.153609 1.78548 27.006066-4.245125 3.526203-8.953737 6.508695-13.198862 10.029618-2.222633 1.842283-4.471601 3.695123-6.157011 6.06528-1.337793 1.863398-2.291103 3.996011-3.686833 5.806621-2.285306 2.86162-5.601366 4.708228-9.232882 5.141499 2.301637 1.340802 3.592028 3.943224 4.213523 6.535088.621494 2.591865.790035 5.278747 1.48 7.870611.948043 3.520924 2.912598 6.73568 3.560427 10.325228.452954 2.475732.252811 5.014809.416085 7.527492.821638 13.001553 11.002563 24.366694 10.3442 37.373525-4.805468-1.750362-9.351864-4.145872-13.514876-7.121029-1.875018-1.34608-3.686833-2.803014-5.461779-4.25467l-13.414805-10.900611c-6.525694-5.278746-13.114591-10.673625-18.302492-17.303731-3.254947-4.159652-5.909466-8.762719-9.174947-12.911813-3.265481-4.149095-7.284128-7.91812-12.271887-9.660106-.732099 1.103258-2.033025 1.868676-2.765124 2.971934-.129229.173956-.232162.366056-.305481.570105-.088963.49213-.028412.999697.173808 1.456934.588343 2.135034.941576 4.328236 1.053381 6.540366l.331815 3.969618c.123772 1.052105.123772 2.115142 0 3.167248-.500356 3.394234-3.639431 6.028328-7.02605 6.556203-.489755.106052-.99802.089737-1.48-.047509-.942776-.316725-1.4642-1.314408-1.748612-2.264582-1.332527-4.50805.711032-9.2642.874306-13.957006.022872-1.190789-.017565-2.381955-.121139-3.568432l-.316014-4.682248c-3.060072-.638729-4.819218-3.932667-5.630321-6.957388-2.191032-8.166221-4.397865-16.617494-3.128541-24.979028.337082-2.238189.926975-4.50805.52669-6.746238-.52669-2.993049-2.675587-5.421273-3.807971-8.240123-3.686833-9.190298 4.145053-19.167129 3.418221-29.033106-.305481-4.143815-2.928399-7.743921-4.50847-11.586848-.817819-2.239899-1.877494-4.383485-3.160143-6.392562-1.611673-2.306812-3.786904-4.154373-5.898932-6.012492-6.522743-5.735971-12.709374-11.844862-18.528969-18.296135-2.988778-.31067-5.792635-1.597965-7.97936-3.66345-1.390463-1.319687-2.533381-3.061673-2.570249-4.977858-.036869-1.916185 1.374662-3.927387 3.286548-4.027683 1.116584-.058067 2.159431.496202 3.24968.739024 3.412954.749582 6.846975-1.76838 8.36911-4.930349 1.522136-3.161969 1.522136-6.799025 1.495801-10.304113 3.392111-.60354 6.852531.611231 9.127545 3.204199 2.354306 2.565471 3.886975 5.764391 5.740926 8.709932.754582 1.308675 1.723121 2.481028 2.865195 3.468136 2.533381 2.016481 6.183346 2.396551 8.395446 4.750872 1.12185 1.203554 1.743345 2.797735 2.770391 4.085749 2.886264 3.626499 8.168969 4.069914 12.11388 6.455907 3.944911 2.385994 6.688968 6.746238 11.060498 8.160942 1.580072.527875 3.302349.596499 4.86662 1.182439 3.613096 1.346081 5.819929 5.194287 6.320285 9.021378s-.352883 7.696412-1.216655 11.465437l-2.027758 8.820786c-.447687 1.953136-.790036 4.302178.647829 5.695767.679407.56343 1.476989.965825 2.333239 1.17716 3.686832 1.203555 7.795018 2.385994 11.260641.680959 1.638007-.812927 2.923131-2.185401 4.097651-3.589548 5.140498-6.070558 8.558719-14.02035 11.171104-21.489777z" fill="#0c0841"/><path d="m525.766023 340.973697c-.734214 4.863906-3.41569 9.648076-7.805012 11.875373-2.631841 1.296552-5.668553 1.506587-8.4541.584732-1.924213-.598704-3.583258-1.841431-4.697904-3.519023-.575671-.90963-1.001402-1.905725-1.260932-2.950238 0-.053157-.026602-.111631-.037243-.164788-.399827-1.880778-.566013-3.803639-.494796-5.725057-.001205-2.982991.176459-5.963375.532039-8.925134.296848-2.493804.787811-4.960694 1.468427-7.378253.989593-3.449918 2.415457-6.772259 3.724273-10.099914.68101-1.754196 1.335418-3.513707 1.872778-5.315745.324543-1.063149.601204-2.158192.82466-3.263867l.079806-.398681c.042563-.223261.079806-.446522.117048-.669783.532039-3.029975.686331-6.166264 2.053671-8.903872 3.192234-6.426735 9.406449-4.78417 10.353479 1.142885.071654.459233.112534.922734.122369 1.387409.14365 7.500515-2.835768 14.830927-1.473748 22.358021.384161 1.835601.867247 3.649138 1.447146 5.43269.478835 1.642565.909787 3.306393 1.239651 4.991484.668157 3.135812.79948 6.362096.388388 9.541761z" fill="#be6f72"/><path d="m529.046875 257.630577c.143224 3.065889 0 6.168909.615331 9.176452 1.437539 7.107772 6.895945 13.39868 6.291223 20.623147-.148528 1.76103-.80099 3.654668-2.339316 4.524575-1.538326.869906-4.084521.80095-4.588456 2.551372-.143223.487996-.068959 1.018427-.228097 1.501119-.334188 1.029035-1.591371 1.469293-2.652286 1.442771-1.060915-.026521-2.121829-.376606-3.219876-.286432-3.845815.323562-5.256832 5.468741-8.683586 7.235075-2.307489 1.188165-5.304573.530431-7.208914-1.225295-1.904342-1.755726-2.73716-4.492748-2.588632-7.086555.111396-1.957289.732031-3.845623 1.060915-5.776391.599416-3.442495.286447-6.96986-.026523-10.449486-.461498-5.097439-.93891-10.25853-2.615155-15.090754-.790381-2.280853-1.840686-4.460923-2.524976-6.773601-.976042-3.272758-1.198834-6.715253-1.299621-10.125923-.206878-7.176728.286447-14.852061 4.572542-20.623148 3.219876-4.328315 7.834854-7.845071 11.479096-11.849823 2.280966-2.508937 2.938733-3.293975 5.458406-1.166948 2.074088 1.745118 4.243658 4.153273 4.477059 6.518994.636549 6.062824 0 12.024866 1.135179 18.19908 1.135178 6.174213 2.588631 12.343123 2.885687 18.681771z" fill="#0c0841"/><circle cx="474" cy="114" fill="#be6f72" r="27"/><path d="m498.612606 166.416217c.589947-.832338 1.290507-1.728295 2.291309-1.903245.755638-.057371 1.511916.102587 2.180693.461232l7.074085 2.974151c1.911605-3.177407 3.038702-6.769681 3.286842-10.475798.147487-2.274351-.031604-4.580511.400321-6.817751.64262-3.31875 2.596816-6.292901 3.04981-9.64346.358182-2.703773-.289706-5.423452-.679491-8.121924-1.200962-8.333985.089545-16.837618-.600481-25.22992-.690026-8.3923019-4.03481-17.383675-11.472343-21.237878-2.106951-1.0603034-4.377189-1.6964855-6.568417-2.5341252-4.882857-1.8714356-9.260046-4.8667928-14.084962-6.8919723-4.824916-2.0251796-10.492612-2.9529451-15.170041-.6255791-4.677429 2.3273661-7.400662 8.8747398-4.361387 13.1477626 1.000802 1.4049021 2.465132 2.4015873 3.866254 3.4141771 2.84965 2.0516871 5.757241 4.5858124 6.415663 8.0530049 1.179892 6.239885-5.267375 11.133186-7.08462 17.235232-.670887 2.382983-.730691 4.898239-.173823 7.310792.784839 3.615635 2.702163 7.029812 2.633688 10.730271-.052674 4.055661-2.465132 7.729612-2.918126 11.764067-.163289 1.479123-.063209 2.979452-.247567 4.453274-.324619 1.944175-.896434 3.83823-1.701362 5.635513-4.2139 10.603034-8.485742 21.3174-14.748651 30.849528 6.70516.114501 13.334071-1.444638 19.294396-4.538098-.85652 4.086538-2.497252 7.96554-4.830183 11.419468 5.359131-.624338 10.51453-2.434811 15.096297-5.301518-1.111724 4.006898-2.722261 7.856273-4.793311 11.456579.17909-.307488 3.492269-1.060303 4.103285-1.410204 1.255987-.718792 2.266062-1.803804 2.897056-3.11199 1.790908-3.223323 2.907591-7.109335 4.566815-10.459894 3.547498-7.181857 7.653013-14.070506 12.278251-20.601695z" fill="#3f3d56"/><path d="m294.448935 4.00222643c-1.253192.12927667-2.514255.15938773-3.77197.09006525-.446041-.04990289-.848872.27535767-.905479.73111789l-2.405989 18.47926973c-.185095 1.3414217-.721495 2.6064877-1.552251 3.6608874-1.384403 1.6961044-2.01957 3.9042686-1.754043 6.0979471v31.3903879s-.155225 4.1853851 2.985496 4.1853851c3.758915.4836176 7.562166.4836176 11.321082 0 0 0 2.514646-.4874119 2.514646-4.3496217v-30.9082739c.388248-2.1825156-.17929-4.4294954-1.552251-6.1456287-.802942-1.0582378-1.321971-2.3128892-1.505683-3.6396956l-2.499124-18.86602053c-.058911-.44021149-.441622-.75787849-.874434-.72581994z" fill="#3f3d56"/><rect fill="#ff7000" height="26" rx="8" width="16" x="285" y="34"/><path d="m330.448935 31.0022264c-1.253192.1292767-2.514255.1593878-3.77197.0900653-.446041-.0499029-.848872.2753577-.905479.7311179l-2.405989 18.4792697c-.185095 1.3414217-.721495 2.6064877-1.552251 3.6608874-1.384403 1.6961044-2.01957 3.9042686-1.754043 6.0979471v31.3903879s-.155225 4.1853851 2.985496 4.1853851c3.758915.4836176 7.562166.4836176 11.321082 0 0 0 2.514646-.4874119 2.514646-4.3496217v-30.9082739c.388248-2.1825156-.17929-4.4294954-1.552251-6.1456287-.802942-1.0582378-1.321971-2.3128892-1.505683-3.6396956l-2.499124-18.8660205c-.058911-.4402115-.441622-.7578785-.874434-.72582z" fill="#3f3d56"/><rect fill="#ff7000" height="26" rx="8" width="16" x="321" y="61"/></g></g></svg>