<svg height="444" viewBox="0 0 783 444" width="783" xmlns="http://www.w3.org/2000/svg"><g fill="none"><path d="m783 0h-783v444h783z" fill="#e2e2e2"/><g transform="translate(230 61)"><path d="m321.564865 160.826667c-.003056 63.03568-36.871115 120.258134-94.305692 146.370688-57.434577 26.112553-124.84555 16.300421-172.432146-25.098688-34.5749938-30.854407-54.35662202-74.959467-54.39189186-121.272-.00000086-57.302543 30.60348926-110.2522771 80.28243176-138.9035489 49.6789421-28.65127177 110.8859241-28.65127177 160.5648661 0 49.678943 28.6512718 80.282433 81.6010059 80.282432 138.9035489z" fill="#fff"/><path d="m171.878378 32.5130667c-.87027 0-1.74054-.4346667-2.61081-.4346667-.870271 0-2.610811-.4346667-4.351352-.4346667 2.175676.4346667 4.786487.4346667 6.962162.8693334z" fill="#99644d"/><path d="m54.0872973 281.446667s4.3513513-19.994667.4351351-29.557334l-2.3062162-5.389866 54.1743248 24.5152z" fill="#99644d"/><path d="m195.810811 183.559733h-70.970541v94.626934h70.970541z" fill="#ffafa1"/><path d="m125.014324 197.990667v-28.470667h70.796487v60.853333c-9.83665.602274-19.704926-.440786-29.197568-3.086133-16.091007-6.155039-30.389496-16.22492-41.598919-29.296533z" fill="#fc8484"/><path d="m152.297297 32.0784c1.305406 0 2.610811-.4346667 4.351352-.4346667-2.34256.0751037-4.673174.3661168-6.962163.8693334.870271 0 1.740541-.4346667 2.610811-.4346667z" fill="#99644d"/><path d="m266.998919 281.4032s-3.872703-17.821333-.391622-26.3408l1.958108-5.6072-47.864864 23.167733z" fill="#99644d"/><path d="m167.091892 180.7344c-1.915909-1.166565-4.361419-.992074-6.091892.434667-1.730473-1.426741-4.175983-1.601232-6.091892-.434667l-9.137838 5.650667 1.740541 1.304c3.807257 3.160559 8.543922 4.992133 13.489189 5.216 5.000457.058171 9.831227-1.809791 13.489189-5.216l1.740541-1.304z" fill="#fc8484"/><path d="m152.297297 32.0784c-.892669-.0685109-1.788637.0806563-2.610811.4346667.870271 0 1.740541-.4346667 2.610811-.4346667z" fill="#99644d"/><path d="m229.011622 115.2736c0 2.9992-.435136 6.476533-.435136 9.475733.063224.877347-.08603 1.756998-.435135 2.564534-.370116 3.336864-.95146 6.646959-1.74054 9.9104-1.305406 5.6072-3.002433 11.649066-4.742973 16.8216-3.431165 9.940323-8.219313 19.36004-14.228919 27.992533 0 .24006-.194817.434667-.435135.434667-.87027 1.304-2.175676 2.9992-3.002433 4.346666-2.567297 3.433867-5.613243 6.9112-8.702702 10.345067-1.338521 1.556543-2.793131 3.009587-4.351352 4.346667-18.536756 20.690133-40.554594 21.733333-60.353243 0l-.435135-.434667c-1.338399-1.556656-2.793018-3.009709-4.351351-4.346667-5.095913-5.476576-9.710848-11.380822-13.793784-17.647466-3.318533-4.927509-6.229089-10.117257-8.702703-15.5176-3.141385-6.627719-5.5910657-13.56101-7.3102702-20.690134-1.8397139-7.19152-2.9907493-14.541482-3.4375676-21.950666 0-2.173334-.4351351-3.868534-.4351351-6.041867v-7.780533c-.0543636-1.879191.0915017-3.758829.4351351-5.6072.0527289-2.4565384.3441873-4.9021533.8702703-7.3024003v-.8693334c-.0818318-2.442344.0638402-4.8869987.4351351-7.3024l1.3054055-3.4338666.8702702-2.9992 2.5672973-6.4765334c7.8715224-18.0263347 23.0930154-31.8232671 41.8164864-37.9029333 2.845566-.9299265 5.753825-1.6562087 8.702703-2.1733333.87027 0 1.74054-.4346667 2.567297-.4346667s2.567297-.4346667 4.351351-.4346667h8.702703c1.305406 0 2.567297.4346667 4.351352.4346667.878291-.0631554 1.758891.0859381 2.567297.4346667 2.959769.4647757 5.872188 1.1920966 8.702703 2.1733333 18.624924 6.1190551 33.74567 19.8949616 41.555405 37.8594667l2.567297 6.4765333.87027 2.9992 1.305406 3.4338667c0 2.5645333.435135 4.7378666.435135 7.3024v.8693333c.861237 3.823492 1.299003 7.729987 1.305405 11.649067v1.304c.588758 2.681448.793863 5.432751.60919 8.171733z" fill="#ffafa1"/><path d="m197.116216 283.315733-1.305405-.434666v-86.064c6.091892-9.562667 16.1-19.994667 17.84054-38.685334 1.305406-11.736 4.351352-29.992-12.183783-39.989333-.435136 0-.435136-.434667-.870271-.434667-17.190253-7.147502-31.347204-20.0594984-40.032432-36.5119997-8.685228 16.4525013-22.84218 29.3644977-40.032433 36.5119997-.435135 0-.435135.434667-.87027.434667-16.535135 9.562667-13.489189 28.253333-12.183784 39.989333 2.175676 18.690667 11.531081 29.513867 17.405406 37.5552v86.8464l-1.000811.7824c-47.8648649 10.432-89.2027027-34.338666-72.6675676-79.109333l44.8189189-124.7493333 2.6108108-6.52c8.0106299-18.1763558 23.4182029-32.0646238 42.3386489-38.1637334 2.846051-.928242 5.75419-1.654494 8.702702-2.1733333.870271 0 1.740541-.4346667 2.610811-.4346667.870271 0 2.610811-.4346666 4.351352-.4346666h8.702702c1.305406 0 2.610811.4346666 4.351352.4346666.892669-.0685108 1.788637.0806563 2.610811.4346667 2.959312.467018 5.871534 1.1942897 8.702702 2.1733333 18.905491 6.1210221 34.274315 20.0488619 42.208108 38.2506667l2.610811 6.52 44.818919 124.749333c16.535135 44.683734-24.802703 89.4544-73.537838 79.0224z" fill="#ff7f47"/><path d="m161 321.653333c-39.510558.628246-77.7749541-13.812321-106.9997297-40.380533l57.7424327-13.735467c7.863849-1.782604 13.41248-8.810548 13.315135-16.865066v-15.952267h71.014054v16.082667c-.097345 8.054518 5.451285 15.082462 13.315135 16.865066l57.655405 13.8224c-19.711621 20.298934-62.267837 40.1632-106.042432 40.1632z" fill="#231f20"/><path d="m167.091892 180.7344c-1.915909-1.166565-4.361419-.992074-6.091892.434667-1.730473-1.426741-4.175983-1.601232-6.091892-.434667l-9.137838 5.650667 1.740541 1.304c3.807257 3.160559 8.543922 4.992133 13.489189 5.216 5.000457.058171 9.831227-1.809791 13.489189-5.216l1.740541-1.304z" fill="#fc8484"/></g></g></svg>