<svg height="449" viewBox="0 0 783 449" width="783" xmlns="http://www.w3.org/2000/svg" xmlns:xlink="http://www.w3.org/1999/xlink"><defs><path id="a" d="m783 0h-783v443h783z"/><linearGradient id="b"><stop offset="0" stop-color="#808080" stop-opacity=".25"/><stop offset=".54" stop-color="#808080" stop-opacity=".12"/><stop offset="1" stop-color="#808080" stop-opacity=".1"/></linearGradient><linearGradient id="c" x1="50.02707%" x2="50.02707%" xlink:href="#b" y1="99.996824%" y2="-.011909%"/><linearGradient id="d" x1="50.012339%" x2="50.012339%" xlink:href="#b" y1="100%" y2="-.01137%"/><linearGradient id="e" x1="37.967919%" x2="62.029307%" xlink:href="#b" y1="101.734056%" y2="-1.736057%"/><linearGradient id="f" x1="50%" x2="50%" y1="100.002688%" y2="0%"><stop offset="0" stop-color="#fcfdff"/><stop offset="1" stop-color="#80f1ff"/></linearGradient><linearGradient id="g" x1="49.960533%" x2="49.960533%" xlink:href="#b" y1="99.998198%" y2=".011085%"/><linearGradient id="h" x1="49.988707%" x2="49.988707%" xlink:href="#b" y1="100.019419%" y2="-.065099%"/><linearGradient id="i" x1="50%" x2="50%" xlink:href="#b" y1="100.003317%" y2="-.003317%"/><linearGradient id="j" x1="49.996688%" x2="49.996688%" xlink:href="#b" y1="100.010181%" y2=".022693%"/><mask id="k" fill="#fff"><use fill="#fff" fill-rule="evenodd" xlink:href="#a"/></mask></defs><g fill="none" fill-rule="evenodd"><use fill="#e2e2e2" fill-rule="nonzero" xlink:href="#a"/><g mask="url(#k)"><g transform="translate(0 -16.289955)"><path d="m0 0c157.266027 25.8066969 289.766027 38.7100454 397.5 38.7100454s236.233973-12.4366667 385.5-37.30999998" stroke="#262626" stroke-width="3"/><g fill-rule="evenodd" transform="translate(8 2)"><path d="m2.91558178 6.37820313c-1.36758532 2.26253359-2.05137798 4.54364607-2.05137798 6.84333737 0 3.4495369.31685987 6.1566626 2.46281748 6.1566626 2.1459576 0 4.53718252-3.5824687 4.53718252-6.1566626 0-1.7161293-.24209169-3.73907794-.72627509-6.06884582z" fill="#f8e71c" transform="translate(0 2.289955)"/><g transform="translate(43 7.289955)"><path d="m4.95097192.77438942c-1.46184956 1.36705097-2.36556545 3.18673572-2.71114769 5.45905426 1.50428217.59815473 2.25642325.89723209 2.25642325.89723209h2.29246428s1.48018334.55693656 1.48018334 0c0-.55693657.5953087-.18783281.5953087-1.40177407s-.5953087-2.04975622-.5953087-2.73095772.57346993-1.58304502 0-1.58304502c-.57346994 0-1.12514885-2.69108599-3.31792318-.64050954z" fill="#000"/><path d="m2.91558178 6.37820313c-1.36758532 2.26253359-2.05137798 4.54364607-2.05137798 6.84333737 0 3.4495369.31685987 6.1566626 2.46281748 6.1566626 2.1459576 0 4.53718252-3.5824687 4.53718252-6.1566626 0-1.7161293-.24209169-3.73907794-.72627509-6.06884582z" fill="#4a90e2"/></g><g transform="matrix(-1 0 0 1 593 28.289955)"><path d="m4.95097192.77438942c-1.46184956 1.36705097-2.36556545 3.18673572-2.71114769 5.45905426 1.50428217.59815473 2.25642325.89723209 2.25642325.89723209h2.29246428s1.48018334.55693656 1.48018334 0c0-.55693657.5953087-.18783281.5953087-1.40177407s-.5953087-2.04975622-.5953087-2.73095772.57346993-1.58304502 0-1.58304502c-.57346994 0-1.12514885-2.69108599-3.31792318-.64050954z" fill="#000"/><path d="m2.91558178 6.37820313c-1.36758532 2.26253359-2.05137798 4.54364607-2.05137798 6.84333737 0 3.4495369.31685987 6.1566626 2.46281748 6.1566626 2.1459576 0 4.53718252-3.5824687 4.53718252-6.1566626 0-1.7161293-.24209169-3.73907794-.72627509-6.06884582z" fill="#4a90e2"/></g><g transform="matrix(-1 0 0 1 652 22.289955)"><path d="m4.95097192.77438942c-1.46184956 1.36705097-2.36556545 3.18673572-2.71114769 5.45905426 1.50428217.59815473 2.25642325.89723209 2.25642325.89723209h2.29246428s1.48018334.55693656 1.48018334 0c0-.55693657.5953087-.18783281.5953087-1.40177407s-.5953087-2.04975622-.5953087-2.73095772.57346993-1.58304502 0-1.58304502c-.57346994 0-1.12514885-2.69108599-3.31792318-.64050954z" fill="#000"/><path d="m2.91558178 6.37820313c-1.36758532 2.26253359-2.05137798 4.54364607-2.05137798 6.84333737 0 3.4495369.31685987 6.1566626 2.46281748 6.1566626 2.1459576 0 4.53718252-3.5824687 4.53718252-6.1566626 0-1.7161293-.24209169-3.73907794-.72627509-6.06884582z" fill="#f8e71c"/></g><g transform="matrix(-1 0 0 1 714 12.289955)"><path d="m4.95097192.77438942c-1.46184956 1.36705097-2.36556545 3.18673572-2.71114769 5.45905426 1.50428217.59815473 2.25642325.89723209 2.25642325.89723209h2.29246428s1.48018334.55693656 1.48018334 0c0-.55693657.5953087-.18783281.5953087-1.40177407s-.5953087-2.04975622-.5953087-2.73095772.57346993-1.58304502 0-1.58304502c-.57346994 0-1.12514885-2.69108599-3.31792318-.64050954z" fill="#000"/><path d="m2.91558178 6.37820313c-1.36758532 2.26253359-2.05137798 4.54364607-2.05137798 6.84333737 0 3.4495369.31685987 6.1566626 2.46281748 6.1566626 2.1459576 0 4.53718252-3.5824687 4.53718252-6.1566626 0-1.7161293-.24209169-3.73907794-.72627509-6.06884582z" fill="#f8e71c"/></g><path d="m2.05137798 11c-1.36758532 2.2625336-2.05137798 4.543646-2.05137798 6.8433373 0 3.449537.31685987 6.1566627 2.46281748 6.1566627 2.1459576 0 4.53718252-3.5824687 4.53718252-6.1566627 0-1.7161293-.2420917-3.7390779-.7262751-6.0688458z" fill="#d0021b" transform="matrix(-1 0 0 1 773 .289955)"/><g transform="translate(89 16.289955)"><path d="m4.95097192.77438942c-1.46184956 1.36705097-2.36556545 3.18673572-2.71114769 5.45905426 1.50428217.59815473 2.25642325.89723209 2.25642325.89723209h2.29246428s1.48018334.55693656 1.48018334 0c0-.55693657.5953087-.18783281.5953087-1.40177407s-.5953087-2.04975622-.5953087-2.73095772.57346993-1.58304502 0-1.58304502c-.57346994 0-1.12514885-2.69108599-3.31792318-.64050954z" fill="#000"/><path d="m2.91558178 6.37820313c-1.36758532 2.26253359-2.05137798 4.54364607-2.05137798 6.84333737 0 3.4495369.31685987 6.1566626 2.46281748 6.1566626 2.1459576 0 4.53718252-3.5824687 4.53718252-6.1566626 0-1.7161293-.24209169-3.73907794-.72627509-6.06884582z" fill="#d0021b"/></g><g transform="translate(144 20.289955)"><path d="m4.95097192.77438942c-1.46184956 1.36705097-2.36556545 3.18673572-2.71114769 5.45905426 1.50428217.59815473 2.25642325.89723209 2.25642325.89723209h2.29246428s1.48018334.55693656 1.48018334 0c0-.55693657.5953087-.18783281.5953087-1.40177407s-.5953087-2.04975622-.5953087-2.73095772.57346993-1.58304502 0-1.58304502c-.57346994 0-1.12514885-2.69108599-3.31792318-.64050954z" fill="#000"/><path d="m2.91558178 6.37820313c-1.36758532 2.26253359-2.05137798 4.54364607-2.05137798 6.84333737 0 3.4495369.31685987 6.1566626 2.46281748 6.1566626 2.1459576 0 4.53718252-3.5824687 4.53718252-6.1566626 0-1.7161293-.24209169-3.73907794-.72627509-6.06884582z" fill="#4a90e2"/></g><g transform="matrix(-1 0 0 1 551 32.289955)"><path d="m4.95097192.77438942c-1.46184956 1.36705097-2.36556545 3.18673572-2.71114769 5.45905426 1.50428217.59815473 2.25642325.89723209 2.25642325.89723209h2.29246428s1.48018334.55693656 1.48018334 0c0-.55693657.5953087-.18783281.5953087-1.40177407s-.5953087-2.04975622-.5953087-2.73095772.57346993-1.58304502 0-1.58304502c-.57346994 0-1.12514885-2.69108599-3.31792318-.64050954z" fill="#000"/><path d="m2.91558178 6.37820313c-1.36758532 2.26253359-2.05137798 4.54364607-2.05137798 6.84333737 0 3.4495369.31685987 6.1566626 2.46281748 6.1566626 2.1459576 0 4.53718252-3.5824687 4.53718252-6.1566626 0-1.7161293-.24209169-3.73907794-.72627509-6.06884582z" fill="#f8e71c"/></g><g transform="translate(193 30.289955)"><path d="m4.95097192.77438942c-1.46184956 1.36705097-2.36556545 3.18673572-2.71114769 5.45905426 1.50428217.59815473 2.25642325.89723209 2.25642325.89723209h2.29246428s1.48018334.55693656 1.48018334 0c0-.55693657.5953087-.18783281.5953087-1.40177407s-.5953087-2.04975622-.5953087-2.73095772.57346993-1.58304502 0-1.58304502c-.57346994 0-1.12514885-2.69108599-3.31792318-.64050954z" fill="#000"/><path d="m2.91558178 6.37820313c-1.36758532 2.26253359-2.05137798 4.54364607-2.05137798 6.84333737 0 3.4495369.31685987 6.1566626 2.46281748 6.1566626 2.1459576 0 4.53718252-3.5824687 4.53718252-6.1566626 0-1.7161293-.24209169-3.73907794-.72627509-6.06884582z" fill="#f8e71c"/></g><g transform="translate(235 34.289955)"><path d="m4.95097192.77438942c-1.46184956 1.36705097-2.36556545 3.18673572-2.71114769 5.45905426 1.50428217.59815473 2.25642325.89723209 2.25642325.89723209h2.29246428s1.48018334.55693656 1.48018334 0c0-.55693657.5953087-.18783281.5953087-1.40177407s-.5953087-2.04975622-.5953087-2.73095772.57346993-1.58304502 0-1.58304502c-.57346994 0-1.12514885-2.69108599-3.31792318-.64050954z" fill="#000"/><path d="m2.91558178 6.37820313c-1.36758532 2.26253359-2.05137798 4.54364607-2.05137798 6.84333737 0 3.4495369.31685987 6.1566626 2.46281748 6.1566626 2.1459576 0 4.53718252-3.5824687 4.53718252-6.1566626 0-1.7161293-.24209169-3.73907794-.72627509-6.06884582z" fill="#f8e71c"/></g><g transform="translate(284 36.289955)"><path d="m4.95097192.77438942c-1.46184956 1.36705097-2.36556545 3.18673572-2.71114769 5.45905426 1.50428217.59815473 2.25642325.89723209 2.25642325.89723209h2.29246428s1.48018334.55693656 1.48018334 0c0-.55693657.5953087-.18783281.5953087-1.40177407s-.5953087-2.04975622-.5953087-2.73095772.57346993-1.58304502 0-1.58304502c-.57346994 0-1.12514885-2.69108599-3.31792318-.64050954z" fill="#000"/><path d="m2.91558178 6.37820313c-1.36758532 2.26253359-2.05137798 4.54364607-2.05137798 6.84333737 0 3.4495369.31685987 6.1566626 2.46281748 6.1566626 2.1459576 0 4.53718252-3.5824687 4.53718252-6.1566626 0-1.7161293-.24209169-3.73907794-.72627509-6.06884582z" fill="#f8e71c"/></g><g transform="translate(360 36.289955)"><path d="m4.95097192.77438942c-1.46184956 1.36705097-2.36556545 3.18673572-2.71114769 5.45905426 1.50428217.59815473 2.25642325.89723209 2.25642325.89723209h2.29246428s1.48018334.55693656 1.48018334 0c0-.55693657.5953087-.18783281.5953087-1.40177407s-.5953087-2.04975622-.5953087-2.73095772.57346993-1.58304502 0-1.58304502c-.57346994 0-1.12514885-2.69108599-3.31792318-.64050954z" fill="#000"/><path d="m2.91558178 6.37820313c-1.36758532 2.26253359-2.05137798 4.54364607-2.05137798 6.84333737 0 3.4495369.31685987 6.1566626 2.46281748 6.1566626 2.1459576 0 4.53718252-3.5824687 4.53718252-6.1566626 0-1.7161293-.24209169-3.73907794-.72627509-6.06884582z" fill="#4a90e2"/></g><g transform="translate(434 36.289955)"><path d="m4.95097192.77438942c-1.46184956 1.36705097-2.36556545 3.18673572-2.71114769 5.45905426 1.50428217.59815473 2.25642325.89723209 2.25642325.89723209h2.29246428s1.48018334.55693656 1.48018334 0c0-.55693657.5953087-.18783281.5953087-1.40177407s-.5953087-2.04975622-.5953087-2.73095772.57346993-1.58304502 0-1.58304502c-.57346994 0-1.12514885-2.69108599-3.31792318-.64050954z" fill="#000"/><path d="m2.91558178 6.37820313c-1.36758532 2.26253359-2.05137798 4.54364607-2.05137798 6.84333737 0 3.4495369.31685987 6.1566626 2.46281748 6.1566626 2.1459576 0 4.53718252-3.5824687 4.53718252-6.1566626 0-1.7161293-.24209169-3.73907794-.72627509-6.06884582z" fill="#f8e71c"/></g><g transform="matrix(-1 0 0 1 502 34.289955)"><path d="m4.95097192.77438942c-1.46184956 1.36705097-2.36556545 3.18673572-2.71114769 5.45905426 1.50428217.59815473 2.25642325.89723209 2.25642325.89723209h2.29246428s1.48018334.55693656 1.48018334 0c0-.55693657.5953087-.18783281.5953087-1.40177407s-.5953087-2.04975622-.5953087-2.73095772.57346993-1.58304502 0-1.58304502c-.57346994 0-1.12514885-2.69108599-3.31792318-.64050954z" fill="#000"/><path d="m2.91558178 6.37820313c-1.36758532 2.26253359-2.05137798 4.54364607-2.05137798 6.84333737 0 3.4495369.31685987 6.1566626 2.46281748 6.1566626 2.1459576 0 4.53718252-3.5824687 4.53718252-6.1566626 0-1.7161293-.24209169-3.73907794-.72627509-6.06884582z" fill="#d0021b"/></g></g></g></g><g mask="url(#k)"><g transform="translate(16 -148)"><path d="m390.5 530c88.917845 0 161-71.858298 161-160.5s-72.082155-160.5-161-160.5-161 71.858298-161 160.5 72.082155 160.5 161 160.5z" fill="none" opacity=".684873" stroke="#3ad29f" stroke-dasharray="12" stroke-width="5"/><g fill-rule="nonzero"><path d="m732 424.5c.828427 0 1.5-.671573 1.5-1.5s-.671573-1.5-1.5-1.5-1.5.671573-1.5 1.5.671573 1.5 1.5 1.5z" fill="#f5f5f5"/><path d="m707.5 561c.828427 0 1.5-.671573 1.5-1.5s-.671573-1.5-1.5-1.5-1.5.671573-1.5 1.5.671573 1.5 1.5 1.5z" fill="#f5f5f5"/><path d="m479.69 316c-4.48.49-3.72 7.45.76 7s3.72-7.44-.76-7z" fill="#fff"/><path d="m508.39 394.39c-4.48.49-3.72 7.45.76 7s3.72-7.49-.76-7z" fill="#fafafa"/><path d="m498.25 448.82c-4.48.49-3.72 7.45.76 7s3.73-7.49-.76-7z" fill="#fafafa"/><path d="m525 518.32c-4.48.49-3.72 7.45.76 7s3.71-7.49-.76-7z" fill="#fafafa"/><path d="m589.25 517.32c-4.48.49-3.72 7.45.76 7s3.73-7.5-.76-7z" fill="#fafafa"/><path d="m226.004059 521.025374c-4.48.49-3.72 7.45.76 7s3.73-7.5-.76-7z" fill="#fafafa"/><path d="m582.28 315.88c-4.48.49-3.72 7.45.76 7s3.72-7.49-.76-7z" fill="#fff"/><path d="m628.45 305.79c-4.48.49-3.72 7.45.76 7s3.73-7.49-.76-7z" fill="#fff"/><path d="m692.862604 319.03174c-5.76.63-4.79 9.58 1 8.95s4.76-9.58-1-8.95z" fill="#fafafa"/><path d="m600 431.64c-5.76.63-4.79 9.58 1 8.95s4.75-9.59-1-8.95z" fill="#fafafa"/><path d="m513 574.46c-6.4.7-5.32 10.64 1.09 9.94s5.34-10.65-1.09-9.94z" fill="#fafafa"/><path d="m481.25 339.52c-6.4.7-5.32 10.64 1.09 9.94s5.32-10.64-1.09-9.94z" fill="#fafafa"/><path d="m544.79 561.42-30.32-276.85-79.52 8.71 30.32 276.84c1.312807 11.995748 7.337144 22.978669 16.747723 30.532637 9.41058 7.553969 21.436532 11.060201 33.432277 9.747363l79.55-8.71c-11.999026 1.321447-24.031373-2.179521-33.448348-9.732231s-15.44663-18.538038-16.761652-30.537769z" fill="#000" opacity=".05"/><path d="m341 186.79c4.37 1.1 2.66 7.89-1.71 6.79s-2.68-7.89 1.71-6.79z" fill="#fff"/><path d="m301.8 260.45c4.37 1.1 2.66 7.89-1.71 6.79s-2.66-7.89 1.71-6.79z" fill="#fafafa"/><path d="m304.37 315.75c4.37 1.1 2.66 7.89-1.71 6.79s-2.66-7.89 1.71-6.79z" fill="#fafafa"/><path d="m268.35 380.93c4.37 1.1 2.66 7.89-1.71 6.79s-2.64-7.9 1.71-6.79z" fill="#fafafa"/><path d="m204.83 371.11c4.37 1.1 2.66 7.89-1.71 6.79s-2.67-7.9 1.71-6.79z" fill="#fafafa"/><path d="m92.2608058 380.120091c4.37 1.1 2.66 7.89-1.71 6.79s-2.68-7.89 1.71-6.79z" fill="#fff"/><path d="m46.2461433 252.120091c4.37 1.1 2.66 7.89-1.71 6.79s-2.63-7.89 1.71-6.79z" fill="#fff"/><path d="m463.476872 178.155431c5.62 1.41 3.43 10.14-2.2 8.73s-3.42-10.15 2.2-8.73z" fill="#fafafa"/><path d="m206 284.77c5.62 1.41 3.43 10.14-2.2 8.73s-3.47-10.15 2.2-8.73z" fill="#fafafa"/><path d="m272.49 438.17c6.24 1.57 3.81 11.27-2.44 9.7s-3.81-11.27 2.44-9.7z" fill="#fafafa"/><path d="m585.070086 206.171263c6.24 1.57 3.81 11.27-2.44 9.7s-3.77-11.27 2.44-9.7z" fill="#fafafa"/><path d="m7.40543502.93979128c-1.90298299-1.43229843-4.51934607-1.17708055-6.13853424.59879445-1.76040776 2.01278564-1.6761663 5.13108793.19007425 7.03583482l5.88798182 6.12403415c.38293906.4020604 1.00373897.4020604 1.38667803 0l5.83182352-6.16032472c1.8550467-1.91596433 1.9220502-5.03394827.1511954-7.03583482-1.6282561-1.76443074-4.2438604-2.00411135-6.13853421-.56250388-.34834732.26849143-.82233726.26849143-1.17068457 0z" fill="#6c63ff" opacity=".5" transform="translate(665 421)"/><path d="m5.09123657.62652752c-1.3083008-.95486562-3.10705042-.78472036-4.22024228.3991963-1.21028034 1.34185709-1.15236434 3.42072529.13067604 4.69055655l4.0479875 4.08268945c.26327061.26804028.69007054.26804028.95334115 0l4.00937862-4.10688317c1.2753447-1.27730955 1.3214095-3.35596551.1039469-4.69055655-1.11942606-1.17628715-2.91765405-1.33607422-4.22024228-.37500258-.23948878.17899428-.56535687.17899428-.80484565 0z" fill="#6c63ff" opacity=".5" transform="translate(52 537)"/><g fill="#3ad29f" opacity=".5" transform="translate(52 220)"><path d="m7 0h3v17h-3z"/><path d="m7 0h3v17h-3z" transform="matrix(0 1 -1 0 17 0)"/></g><g fill="#3ad29f" opacity=".5" transform="translate(0 497)"><path d="m7 0h3v17h-3z"/><path d="m7 0h3v17h-3z" transform="matrix(0 1 -1 0 17 0)"/></g><g fill="#3ad29f" opacity=".5" transform="translate(144 480)"><path d="m7 0h3v17h-3z"/><path d="m7 0h3v17h-3z" transform="matrix(0 1 -1 0 17 0)"/></g><path d="m339.423422 587.675919c-.889076-.513439-1.339759-1.799817-1.049702-2.996152.022441-.089769.036535-.18264.041988-.276671.027511-.548438-.228668-1.054882-.629741-1.244946s-.851611-.018525-1.107518.421679c-.042222.07545-.077451.156978-.10497.242931-.399341 1.143098-1.399858 1.722548-2.33034 1.349618-.069821-.028853-.142054-.046974-.215189-.053985-.426563-.035371-.820464.294001-.968291.809667-.147828.515665-.014409 1.094929.327972 1.423951.058683.054286.122095.09958.188947.134962.889076.513438 1.339759 1.799817 1.049702 2.996151-.022441.08977-.036535.182641-.041988.276672-.027511.548438.228668 1.054882.629741 1.244946s.851611.018525 1.107518-.421679c.042222-.07545.077451-.156979.10497-.242931.399341-1.143098 1.399858-1.722548 2.33034-1.349618.069821.028853.142054.046974.215189.053985.426563.035371.820464-.294002.968291-.809667.147828-.515665.014409-1.094929-.327972-1.423951-.058683-.054287-.122095-.09958-.188947-.134962z" fill="#f55f44" opacity=".5"/><path d="m6.42342234 588.165422c-.88907611-.45639-1.33975935-1.599838-1.04970281-2.663246.02244099-.079795.03653516-.162347.04198811-.24593.02751098-.4875-.2286676-.937673-.62974062-1.106619-.40107303-.168945-.85161133-.016466-1.10751754.374826-.04222288.067066-.07745136.139536-.10497028.215939-.39934131 1.016087-1.39985811 1.531153-2.33034026 1.19966-.06982086-.025647-.14205347-.041754-.21518907-.047986-.42656265-.031441-.82046364.261334-.96829116.719703s-.01440828.97327.32797244 1.265735c.05868319.048254.12209446.088515.18894651.119966.88907611.45639 1.33975935 1.599838 1.04970281 2.663246-.02244099.079795-.03653516.162347-.04198811.24593-.02751098.4875.2286676.937673.62974062 1.106619.40107303.168945.85161133.016466 1.10751754-.374826.04222288-.067067.07745136-.139537.10497028-.215939.39934131-1.016087 1.39985811-1.531154 2.33034026-1.19966.06982086.025647.14205347.041754.21518907.047986.42656265.031441.82046364-.261334.96829116-.719703.14782752-.45837.01440828-.973271-.32797244-1.265735-.05868318-.048255-.12209446-.088516-.18894651-.119966z" fill="#f55f44" opacity=".5" transform="matrix(-1 0 0 -1 7 1176.162892)"/><path d="m473.423422 565.165422c-.889076-.45639-1.339759-1.599838-1.049702-2.663246.022441-.079795.036535-.162347.041988-.24593.027511-.4875-.228668-.937673-.629741-1.106619-.401073-.168945-.851611-.016466-1.107518.374826-.042222.067066-.077451.139536-.10497.215939-.399341 1.016087-1.399858 1.531153-2.33034 1.19966-.069821-.025647-.142054-.041754-.215189-.047986-.426563-.031441-.820464.261334-.968291.719703-.147828.458369-.014409.97327.327972 1.265735.058683.048254.122095.088515.188947.119966.889076.45639 1.339759 1.599838 1.049702 2.663246-.022441.079795-.036535.162347-.041988.24593-.027511.4875.228668.937673.629741 1.106619.401073.168945.851611.016466 1.107518-.374826.042222-.067067.077451-.139537.10497-.215939.399341-1.016087 1.399858-1.531154 2.33034-1.19966.069821.025647.142054.041754.215189.047986.426563.031441.820464-.261334.968291-.719703.147828-.45837.014409-.973271-.327972-1.265735-.058683-.048255-.122095-.088516-.188947-.119966z" fill="#3ad29f" opacity=".5"/><path d="m147.423422 568.165422c-.889076-.45639-1.339759-1.599838-1.049702-2.663246.022441-.079795.036535-.162347.041988-.24593.027511-.4875-.228668-.937673-.629741-1.106619-.401073-.168945-.851611-.016466-1.107518.374826-.042222.067066-.077451.139536-.10497.215939-.399341 1.016087-1.399858 1.531153-2.33034 1.19966-.069821-.025647-.142054-.041754-.215189-.047986-.426563-.031441-.820464.261334-.968291.719703-.147828.458369-.014409.97327.327972 1.265735.058683.048254.122095.088515.188947.119966.889076.45639 1.339759 1.599838 1.049702 2.663246-.022441.079795-.036535.162347-.041988.24593-.027511.4875.228668.937673.629741 1.106619.401073.168945.851611.016466 1.107518-.374826.042222-.067067.077451-.139537.10497-.215939.399341-1.016087 1.399858-1.531154 2.33034-1.19966.069821.025647.142054.041754.215189.047986.426563.031441.820464-.261334.968291-.719703.147828-.45837.014409-.973271-.327972-1.265735-.058683-.048255-.122095-.088516-.188947-.119966z" fill="#3ad29f" opacity=".5" transform="matrix(-1 0 0 -1 289 1136.162892)"/><g fill="#f55f44"><path d="m520.258686 254.675919c-1.143098-.513439-1.722548-1.799817-1.349618-2.996152.028853-.089769.046974-.18264.053985-.276671.035371-.548438-.294002-1.054882-.809667-1.244946s-1.094929-.018525-1.423951.421679c-.054287.07545-.09958.156978-.134962.242931-.513439 1.143098-1.799817 1.722548-2.996151 1.349618-.08977-.028853-.182641-.046974-.276672-.053985-.548438-.035371-1.054882.294001-1.244946.809667-.190064.515665-.018525 1.094929.421679 1.423951.07545.054286.156978.09958.242931.134962 1.143098.513438 1.722548 1.799817 1.349618 2.996151-.028853.08977-.046974.182641-.053985.276672-.035371.548438.294002 1.054882.809667 1.244946s1.094929.018525 1.423951-.421679c.054287-.07545.09958-.156979.134962-.242931.513439-1.143098 1.799817-1.722548 2.996151-1.349618.08977.028853.182641.046974.276672.053985.548438.035371 1.054882-.294002 1.244946-.809667s.018525-1.094929-.421679-1.423951c-.07545-.054287-.156978-.09958-.242931-.134962z" opacity=".5"/><path d="m94.1763176 292.165422c-1.2701087-.45639-1.9139419-1.599838-1.4995754-2.663246.0320585-.079795.0521931-.162347.059983-.24593.0393014-.4875-.326668-.937673-.8996295-1.106619-.5729614-.168945-1.2165876-.016466-1.5821679.374826-.0603184.067066-.1106448.139536-.1499575.215939-.5704876 1.016087-1.9997973 1.531153-3.3290575 1.19966-.0997441-.025647-.2029336-.041754-.307413-.047986-.6093752-.031441-1.1720909.261334-1.3832731.719703-.2111821.458369-.0205832.97327.4685321 1.265735.0838331.048254.1744206.088515.2699236.119966 1.2701087.45639 1.9139419 1.599838 1.4995754 2.663246-.0320585.079795-.0521931.162347-.059983.24593-.0393014.4875.326668.937673.8996295 1.106619.5729614.168945 1.2165876.016466 1.5821679-.374826.0603184-.067067.1106448-.139537.1499575-.215939.5704876-1.016087 1.9997973-1.531154 3.3290575-1.19966.0997441.025647.2029336.041754.307413.047986.6093752.031441 1.1720909-.261334 1.3832731-.719703.2111821-.45837.0205832-.973271-.4685321-1.265735-.0838331-.048255-.1744206-.088516-.2699236-.119966z" opacity=".5" transform="matrix(-1 0 0 -1 180 584.162892)"/><path d="m705.093949 258.675919c-1.397119-.513439-2.105336-1.799817-1.649533-2.996152.035265-.089769.057413-.18264.065982-.276671.043231-.548438-.359335-1.054882-.989593-1.244946-.630257-.190064-1.338246-.018525-1.740384.421679-.066351.07545-.12171.156978-.164954.242931-.627536 1.143098-2.199777 1.722548-3.661963 1.349618-.109718-.028853-.223227-.046974-.338154-.053985-.670313-.035371-1.2893.294001-1.521601.809667-.2323.515665-.022641 1.094929.515386 1.423951.092216.054286.191862.09958.296916.134962 1.397119.513438 2.105336 1.799817 1.649533 2.996151-.035265.08977-.057413.182641-.065982.276672-.043231.548438.359335 1.054882.989593 1.244946.630257.190064 1.338246.018525 1.740384-.421679.066351-.07545.12171-.156979.164954-.242931.627536-1.143098 2.199777-1.722548 3.661963-1.349618.109718.028853.223227.046974.338154.053985.670313.035371 1.2893-.294002 1.521601-.809667.2323-.515665.022641-1.094929-.515386-1.423951-.092216-.054287-.191862-.09958-.296916-.134962z" opacity=".5"/><path d="m288.011581 296.165422c-1.52413-.45639-2.29673-1.599838-1.79949-2.663246.03847-.079795.062631-.162347.071979-.24593.047162-.4875-.392001-.937673-1.079555-1.106619-.687554-.168945-1.459905-.016466-1.898602.374826-.072382.067066-.132773.139536-.179949.215939-.684585 1.016087-2.399756 1.531153-3.994869 1.19966-.119693-.025647-.24352-.041754-.368895-.047986-.73125-.031441-1.406509.261334-1.659928.719703s-.0247.97327.562239 1.265735c.100599.048254.209304.088515.323908.119966 1.52413.45639 2.29673 1.599838 1.79949 2.663246-.03847.079795-.062631.162347-.071979.24593-.047162.4875.392001.937673 1.079555 1.106619.687554.168945 1.459905.016466 1.898602-.374826.072382-.067067.132773-.139537.179949-.215939.684585-1.016087 2.399756-1.531154 3.994869-1.19966.119693.025647.24352.041754.368895.047986.73125.031441 1.406509-.261334 1.659928-.719703.253419-.45837.0247-.973271-.562239-1.265735-.100599-.048255-.209304-.088516-.323908-.119966z" opacity=".5" transform="matrix(-1 0 0 -1 566 592.162892)"/><path d="m440.176318 441.675919c-1.270109-.513439-1.913942-1.799817-1.499576-2.996152.032059-.089769.052193-.18264.059983-.276671.039302-.548438-.326668-1.054882-.899629-1.244946-.572962-.190064-1.216588-.018525-1.582168.421679-.060319.07545-.110645.156978-.149958.242931-.570487 1.143098-1.999797 1.722548-3.329057 1.349618-.099744-.028853-.202934-.046974-.307413-.053985-.609375-.035371-1.172091.294001-1.383273.809667-.211182.515665-.020584 1.094929.468532 1.423951.083833.054286.17442.09958.269923.134962 1.270109.513438 1.913942 1.799817 1.499576 2.996151-.032059.08977-.052193.182641-.059983.276672-.039302.548438.326668 1.054882.899629 1.244946.572962.190064 1.216588.018525 1.582168-.421679.060319-.07545.110645-.156979.149958-.242931.570487-1.143098 1.999797-1.722548 3.329057-1.349618.099744.028853.202934.046974.307413.053985.609375.035371 1.172091-.294002 1.383273-.809667s.020584-1.094929-.468532-1.423951c-.083833-.054287-.17442-.09958-.269923-.134962z" opacity=".5"/><path d="m9.17631763 458.165422c-1.27010873-.45639-1.91394193-1.599838-1.49957545-2.663246.03205856-.079795.05219309-.162347.05998302-.24593.0393014-.4875-.326668-.937673-.89962946-1.106619-.57296146-.168945-1.21658761-.016466-1.58216791.374826-.0603184.067066-.1106448.139536-.14995755.215939-.57048758 1.016087-1.9997973 1.531153-3.3290575 1.19966-.09974409-.025647-.20293354-.041754-.30741297-.047986-.60937521-.031441-1.17209091.261334-1.38327308.719703s-.02058326.97327.46853206 1.265735c.08383312.048254.17442065.088515.26992358.119966 1.27010873.45639 1.91394193 1.599838 1.49957545 2.663246-.03205856.079795-.05219309.162347-.05998302.24593-.0393014.4875.326668.937673.89962946 1.106619.57296146.168945 1.21658761.016466 1.58216791-.374826.0603184-.067067.1106448-.139537.14995755-.215939.57048758-1.016087 1.9997973-1.531154 3.3290575-1.19966.09974409.025647.20293354.041754.30741297.047986.60937521.031441 1.17209091-.261334 1.38327308-.719703.21118213-.45837.02058326-.973271-.46853205-1.265735-.08383313-.048255-.17442066-.088516-.26992359-.119966z" opacity=".5" transform="matrix(-1 0 0 -1 10 916.162892)"/><path d="m751.176318 158.675919c-1.270109-.513439-1.913942-1.799817-1.499576-2.996152.032059-.089769.052193-.18264.059983-.276671.039302-.548438-.326668-1.054882-.899629-1.244946-.572962-.190064-1.216588-.018525-1.582168.421679-.060319.07545-.110645.156978-.149958.242931-.570487 1.143098-1.999797 1.722548-3.329057 1.349618-.099744-.028853-.202934-.046974-.307413-.053985-.609375-.035371-1.172091.294001-1.383273.809667-.211182.515665-.020584 1.094929.468532 1.423951.083833.054286.17442.09958.269923.134962 1.270109.513438 1.913942 1.799817 1.499576 2.996151-.032059.08977-.052193.182641-.059983.276672-.039302.548438.326668 1.054882.899629 1.244946.572962.190064 1.216588.018525 1.582168-.421679.060319-.07545.110645-.156979.149958-.242931.570487-1.143098 1.999797-1.722548 3.329057-1.349618.099744.028853.202934.046974.307413.053985.609375.035371 1.172091-.294002 1.383273-.809667s.020584-1.094929-.468532-1.423951c-.083833-.054287-.17442-.09958-.269923-.134962z" opacity=".5"/><path d="m183.258686 207.083976c-1.143098-.45639-1.722548-1.599838-1.349618-2.663246.028853-.079795.046974-.162347.053985-.24593.035371-.4875-.294002-.937673-.809667-1.106619-.515665-.168945-1.094929-.016466-1.423951.374826-.054287.067067-.09958.139537-.134962.215939-.513439 1.016087-1.799817 1.531153-2.996151 1.19966-.08977-.025647-.182641-.041754-.276672-.047986-.548438-.031441-1.054882.261334-1.244946.719703-.190064.45837-.018525.97327.421679 1.265735.07545.048254.156978.088516.242931.119966 1.143098.45639 1.722548 1.599838 1.349618 2.663246-.028853.079795-.046974.162347-.053985.24593-.035371.4875.294002.937673.809667 1.106619.515665.168945 1.094929.016466 1.423951-.374826.054287-.067067.09958-.139537.134962-.215939.513439-1.016087 1.799817-1.531153 2.996151-1.19966.08977.025647.182641.041754.276672.047986.548438.031441 1.054882-.261334 1.244946-.719703.190064-.45837.018525-.97327-.421679-1.265735-.07545-.048254-.156978-.088516-.242931-.119966z" opacity=".5" transform="matrix(-1 0 0 -1 359 414)"/></g></g></g></g><path d="m406 327.974968c59.094468 0 107-47.905532 107-107s-47.905532-107-107-107-107 47.905532-107 107 47.905532 107 107 107z" opacity=".980357" stroke="#3ad29f" stroke-dasharray="12" stroke-width="5"/><g fill-rule="nonzero" transform="translate(301 108)"><path d="m72.6701185 117.870237c-4.503281 7.126017-13.8977376 9.267118-21.0285322 4.792636l-44.53392844-29.4391802c-7.10392354-4.5172861-9.238386-13.9409591-4.77777634-21.0939303 4.50328101-7.1260166 13.89773758-9.2671172 21.02853218-4.7926351l44.5339284 29.4391798c7.1039236 4.5172858 9.238386 13.9409588 4.7777764 21.0939298z" fill="url(#c)"/><path d="m70.8142955 116.345971c-4.2008615 6.649885-12.9685214 8.648682-19.6231751 4.473571l-41.55602451-27.4863444c-6.63096338-4.2128485-8.62407322-13.0055264-4.46084178-19.6791688 4.20086147-6.6498845 12.96852129-8.6486816 19.62317509-4.4735706l41.5605533 27.4636358c6.6431779 4.215255 8.6357604 13.024693 4.456313 19.701877z" fill="#be7c5e"/><path d="m213.99998 257.561587c-.007691-16.803404-12.819972-30.843711-29.581516-32.41683-16.761543-1.573119-31.971569 9.837213-35.117524 26.344638l-100.30094-2.710799 1.1361827 17.195505s-14.299606 32.936216 60.8649893 41.723725v33.302174h86.911185v-55.336457c9.978228-5.854928 16.100419-16.549208 16.087623-28.101956z" fill="url(#d)"/><path d="m41.045078 271.466708c-.5138893 9.230234 5.7429383 28.473765 64.060358 34.760765v31.772527h89.894564v-84.156694l-154-3.843306.0495858.742559c.4310245 6.901395.429519 13.822941-.0045078 20.724149z" fill="#be7c5e"/><path d="m138.673137 0-132.92717427.32512111c-3.01496859.00747318-5.45373808 2.46309904-5.44875776 5.48641868l.62142857 249.30918721c.00357847 1.452695.5825004 2.844465 1.60940864 3.869135 1.02690823 1.02467 2.41768311 1.598303 3.86636776 1.594705l132.92717406-.325121c1.448685-.003588 2.836613-.584112 3.858454-1.613863s1.593891-2.424376 1.590304-3.877071l-.616926-249.30467117c-.003577-1.45347952-.583117-2.84593592-1.611-3.87073571-1.027883-1.02479978-2.419816-1.59790257-3.869279-1.59310512z" fill="url(#e)" opacity=".5" transform="translate(35)"/><path d="m50.9546942 3.56357495h113.0491998c7.533164 0 13.64 6.10683601 13.64 13.63999995v226.4536471c0 7.533164-6.106836 13.64-13.64 13.64h-113.0491998c-7.5331639 0-13.64-6.106836-13.64-13.64v-226.4536471c0-7.53316394 6.1068361-13.63999995 13.64-13.63999995z" fill="#000" transform="matrix(.99999701 -.00244346 .00244346 .99999701 -.31838 .263011)"/><path d="m142.003976 10.0632423c-.827008 5.553028-5.582233 9.6740774-11.200188 9.7064858l-48.525106.1174354c-5.6191488-.003844-10.3958856-4.102227-11.2499059-9.6522849l-25.7043853.0632344c-2.9462995.0074749-5.329382 2.3990287-5.3243829 5.3433098l.5559415 230.0378432c.00748 2.944276 2.4006774 5.325722 5.3469822 5.320726l122.7726774-.298105c2.9463-.007475 5.329382-2.399029 5.324383-5.34331l-.560461-230.0378431c-.00748-2.9442759-2.400678-5.32572163-5.346982-5.3207261z" fill="#262626"/><path d="m91.2715399 12.9841796 29.3110331-.0007578c.540731-.000014.979092.4383238.979106.979055v.0000506c-.000014.5407672-.438389.9791422-.979157.9791562l-29.3110326.0007579c-.5407312.000014-.9790917-.4383239-.9791057-.979055 0-.0000169 0-.0000338 0-.0000506.000014-.5407673.4383889-.9791423.9791562-.9791563z" fill="#dbdbdb" transform="matrix(.99988735 -.01500927 .01500927 .99988735 -.197641 1.59146)"/><ellipse cx="128.201454" cy="13.43134" fill="#dbdbdb" rx="1.17384" ry="1.175862" transform="matrix(.99988735 -.01500927 .01500927 .99988735 -.187153 1.925723)"/><circle cx="110" cy="230" fill="#ff7000" opacity=".846959" r="11"/><circle cx="158" cy="222" fill="#d0021b" opacity=".874884" r="11"/><circle cx="62" cy="221" fill="#d22df4" opacity=".836705" r="11"/><path d="m40 36h134v168h-134z" fill="url(#f)"/><g fill="#6c63ff"><path d="m40 103h40v102h-40z" opacity=".3"/><path d="m136 181h20v24h-20z" opacity=".3"/><path d="m156 160h17v45h-17z" opacity=".3"/></g><path d="m74.440071 205h-6.2397158s-1.9378272-70.305558 6.2397158-92h1.559929s-5.4487659 79.546286-1.559929 92z" fill="#fff8e1"/><path d="m69.8099073 109.20103s-5.1968476 14.415574-2.7965705 20.79897c0 0 3.6026674-13.19926 7.7952715-15.199421s8.596865 15.199421 8.596865 15.199421 2.4002771-10.81168-1.9994804-19.596171c0 0 8.7950117 4.797683 13.1947692 13.996621 0 0 .8015935-6.000482-9.5966052-18.397876 0 0 9.1958085 2.401094 15.1942501 8.000644 0 0 1.99948-4.401255-10.3936958-11.600032 0 0 1.5986836-5.1986168 11.1952888-2.7975227 0 0 0-6.7978441-15.1942496-5.5995496 0 0 0-4.4012549 9.9928986-3.6038934 0 0 0-5.5995496-11.5960856-3.6038935 0 0 2.4002772-3.6038935 3.9989608-4.401255 0 0-3.1973673-.4009331-5.5976444 1.5992278 0 0 .4007967-7.207787-5.5976444-9.9962996l-.8015935 9.9962996s-6.7189746-7.9240608-5.1968477-6.396911c.4007968.4009332 1.5986837 5.1986164 1.1978869 7.5997104 0 0-6.7955313-5.5995495-15.1942496.4009332 0 0 10.3936954.8018663 11.992379 4.4012549 0 0-8.7950117-1.5992277-10.8080021-.4009331 0 0 6.7955313 2.401094 6.3947346 4.0003217 0 0-11.992379 0-13.5910626 4.401255 0 0 12.3931757 1.5992277 13.1947692 2.7975223 0 0-14.4106694 10.397233-15.1942496 13.19926 0 0 14.7934528-8.798005 17.1892266-8.798005s-10.808002 12.798327-9.9928985 15.996782c.0180133 0 10.8125054-12.793822 13.6135792-11.99646z" fill="#b7feba"/><path d="m79.8858537 168s-17.6268173 5.840201-13.1608801 37h8.3328398l9.9421866-31.820271z" fill="#be7c5e"/><path d="m135.276181 167s17.561157 6.675921 12.953139 38l-8.432673-.063667-9.796647-32.742939z" fill="#be7c5e"/><path d="m80.4785462 117s-8.0767289 41.798978-12.4785462 39.580963c0 0 42.488081 36.942834 80 0 0 0-6.604969-29.977091-16.153458-39.580963z" fill="#333"/><circle cx="108" cy="114" fill="#333" r="32"/><path d="m140.108401 205s3.706239-8.199473.74306-18.626468c-2.963179-10.426996-.74306-.747064-.74306-.747064l-5.18783-18.626468h-55.5754708l-5.1878293 22.352673s-3.0447348 10.349557.7430602 14.900264" fill="#000" opacity=".1"/><path d="m134.914512 167h-55.6321077l-5.1922696 22.352673s-5.1650612 14.82738.7436962 14.900264c65.5813131.810837.3627787 0 65.2729511.747063 0 0 3.709412-8.199473.743696-18.626468-2.965716-10.426996-.743696-.747064-.743696-.747064z" fill="#f55f44"/><path d="m97.0044825 149h21.9955175v25.94043c0 .811448-.317831 1.589662-.883573 2.163443-.565743.57378-1.333054.896127-2.133134.896127h-15.966586c-1.6660811 0-3.016707-1.369816-3.016707-3.05957v-25.94043z" fill="#000" opacity=".1"/><path d="m97.0044825 148h21.9955175v25.940909c0 1.689489-1.350626 3.059091-3.016707 3.059091h-15.966586c-1.6660811 0-3.016707-1.369602-3.016707-3.059091v-25.940909z" fill="#be7c5e"/><path d="m97 151.836584c7.090084 2.861054 14.89491 2.885095 22 .067768v-2.904352h-22z" fill="#000" opacity=".1"/><circle cx="108" cy="121" fill="#be7c5e" r="32"/><path d="m77 109h61s-5.20765-24.4884352-28.266851-22.9285183c-23.0592003 1.559917-32.733149 22.9285183-32.733149 22.9285183z" fill="#333"/><ellipse cx="77" cy="119.5" fill="#be7c5e" rx="3" ry="5.5"/><ellipse cx="139" cy="119.5" fill="#be7c5e" rx="3" ry="5.5"/><path d="m77 110h61s-5.20765-24.4884352-28.266851-22.9285183c-23.0592003 1.559917-32.733149 22.9285183-32.733149 22.9285183z" fill="#000" opacity=".1"/><circle cx="179" cy="258" fill="#be7c5e" r="31"/><path d="m198.719341 263.578693c-9.071236 2.087519-15.325853-3.800819-17.425844-12.831707l-20.863843-77.098448c-2.080276-9.065076 3.59322-18.09883 12.699731-20.221435 9.119234-2.067922 18.206959 3.571879 20.342246 12.624307l17.044852 79.073251c2.081848 9.05794-2.689622 16.366512-11.797142 18.454032z" fill="url(#g)"/><path d="m187.265576 155.943463c7.82915-.002958 14.178328 6.341424 14.181287 14.170574.000001.003568.000001.007137 0 .010705l-.032103 85.08752c-.002956 7.836797-6.355195 14.189039-14.191992 14.192-7.82915.002959-14.178328-6.341423-14.181287-14.170573-.000001-.003569-.000001-.007137 0-.010706l.032103-85.08752c.002957-7.836797 6.355195-14.189038 14.191992-14.192z" fill="#be7c5e" transform="matrix(.97433079 -.22512111 .22512111 .97433079 -43.070966 47.611786)"/><path d="m66.7058613 208.897359c-4.4522251 7.094162-13.729037 9.229412-20.7788313 4.782679l-29.9034486-19.564673c-7.01519674-4.502341-9.12667981-13.883575-4.7294427-21.012724 4.4522251-7.094162 13.729037-9.229412 20.7788313-4.782679l29.9034486 19.564673c7.0151967 4.502341 9.1266798 13.883575 4.7294427 21.012724z" fill="url(#h)"/><path d="m59.6716487 248.891659c-4.500291 7.103978-13.8903736 9.239097-21.0180534 4.779089l-18.5480024-13.536226c-7.1012319-4.502031-9.2355253-13.895745-4.7772416-21.026181 4.500291-7.103978 13.8903736-9.239097 21.0180534-4.779089l18.5480024 13.536226c7.1012319 4.502031 9.2355253 13.895745 4.7772416 21.026181z" fill="url(#i)"/><path d="m58.8080532 248.377319c-4.2232031 6.618556-13.0374921 8.607937-19.7275375 4.452495l-17.4101322-12.620676c-6.666229-4.193001-8.6699389-12.944255-4.484566-19.586457 4.223203-6.618556 13.0374921-8.607937 19.7275374-4.452495l17.4101323 12.607115c6.674556 4.193548 8.6792115 12.954995 4.484566 19.600018z" fill="#be7c5e"/><path d="m64.8561871 207.321372c-4.1536752 6.674468-12.8228521 8.680655-19.4027573 4.490109l-27.8928628-18.370699c-6.5564809-4.228423-8.52720309-13.053606-4.4107353-19.75192 4.1545736-6.68837 12.840586-8.696136 19.4251468-4.490109l27.8704733 18.384374c6.5483017 4.227864 8.5180955 13.042782 4.4107353 19.738245z" fill="#be7c5e"/><path d="m74.6859649 167.93144c-4.4621759 7.06519-13.7735415 9.187826-20.8401612 4.750762l-37.7970065-24.694017c-7.04688796-4.47762-9.16299878-13.827244-4.7347621-20.919625 4.4621759-7.06519 13.7735415-9.187826 20.8401612-4.750762l37.7970065 24.694017c7.046888 4.47762 9.1629988 13.827244 4.7347621 20.919625z" fill="url(#j)"/><path d="m72.8103917 166.317113c-4.1984854 6.678725-12.9611861 8.68619-19.6120759 4.492972l-35.5669728-23.336086c-6.6272128-4.231119-8.61919534-13.06193-4.4583187-19.764515 4.1919373-6.700678 12.97323-8.720285 19.6347071-4.515779l35.5669727 23.336086c6.6330417 4.239537 8.6161188 13.085919 4.4356876 19.787322z" fill="#be7c5e"/></g></g></svg>