<?xml version="1.0" encoding="UTF-8"?>
<svg width="3716px" height="1922px" viewBox="0 0 3716 1922" version="1.1" xmlns="http://www.w3.org/2000/svg" xmlns:xlink="http://www.w3.org/1999/xlink">
    <!-- Generator: Sketch 52.6 (67491) - http://www.bohemiancoding.com/sketch -->
    <title>Cheers to Better Nig</title>
    <desc>Created with Sketch.</desc>
    <g id="Page-1" stroke="none" stroke-width="1" fill="none" fill-rule="evenodd">
        <path d="M320.508,149.816 C317.233317,137.126603 312.730695,125.46072 307,114.818 C301.269305,104.17528 293.901378,94.9653722 284.896,87.188 C275.890622,79.4106278 265.350394,73.3730215 253.275,69.075 C241.199606,64.7769785 227.18008,62.628 211.216,62.628 C187.883883,62.628 167.724418,67.3352863 150.737,76.75 C133.749582,86.1647137 119.93472,98.7515879 109.292,114.511 C98.6492801,130.270412 90.7696922,148.178566 85.653,168.236 C80.5363077,188.293434 77.978,208.759896 77.978,229.636 C77.978,250.512104 80.5363077,270.978566 85.653,291.036 C90.7696922,311.093434 98.6492801,329.001588 109.292,344.761 C119.93472,360.520412 133.749582,373.107286 150.737,382.522 C167.724418,391.936714 187.883883,396.644 211.216,396.644 C228.408086,396.644 243.553268,393.676363 256.652,387.741 C269.750732,381.805637 281.007286,373.619052 290.422,363.181 C299.836714,352.742948 307.20464,340.565403 312.526,326.648 C317.84736,312.730597 321.326658,297.79008 322.964,281.826 L397.872,281.826 C396.234658,308.023464 390.606381,331.969225 380.987,353.664 C371.367619,375.358775 358.371415,394.085588 341.998,409.845 C325.624585,425.604412 306.386111,437.781957 284.282,446.378 C262.177889,454.974043 237.8228,459.272 211.216,459.272 C178.46917,459.272 149.099797,453.234394 123.107,441.159 C97.1142034,429.083606 75.1127567,412.608104 57.102,391.732 C39.0912433,370.855896 25.2763814,346.500806 15.657,318.666 C6.03761857,290.831194 1.228,261.154824 1.228,229.636 C1.228,198.526511 6.03761857,169.054806 15.657,141.22 C25.2763814,113.385194 39.0912433,89.0301044 57.102,68.154 C75.1127567,47.2778956 97.1142034,30.7000614 123.107,18.42 C149.099797,6.1399386 178.46917,0 211.216,0 C235.776123,0 258.903225,3.37696623 280.598,10.131 C302.292775,16.8850338 321.428917,26.7089355 338.007,39.603 C354.585083,52.4970645 367.990615,68.1539079 378.224,86.574 C388.457384,104.994092 394.801988,126.074548 397.258,149.816 L320.508,149.816 Z M469.675893,10.438 L539.671893,10.438 L539.671893,173.148 L540.899893,173.148 C549.495936,158.821262 562.287475,146.848381 579.274893,137.229 C596.262311,127.609619 615.193789,122.8 636.069893,122.8 C670.8634,122.8 698.28846,131.805243 718.345893,149.816 C738.403327,167.826757 748.431893,194.842487 748.431893,230.864 L748.431893,448.834 L678.435893,448.834 L678.435893,249.284 C677.617222,224.314542 672.295942,206.201723 662.471893,194.945 C652.647844,183.688277 637.297998,178.06 616.421893,178.06 C604.551167,178.06 593.908607,180.208979 584.493893,184.507 C575.079179,188.805021 567.097259,194.740295 560.547893,202.313 C553.998527,209.885705 548.881912,218.788615 545.197893,229.022 C541.513875,239.255384 539.671893,250.102609 539.671893,261.564 L539.671893,448.834 L469.675893,448.834 L469.675893,10.438 Z M1051.71379,262.178 C1050.89512,251.125945 1048.54147,240.483384 1044.65279,230.25 C1040.7641,220.016615 1035.44282,211.113705 1028.68879,203.541 C1021.93475,195.968295 1013.74817,189.828357 1004.12879,185.121 C994.509405,180.413643 983.764512,178.06 971.893786,178.06 C959.613725,178.06 948.459503,180.208979 938.430786,184.507 C928.40207,188.805021 919.806155,194.740295 912.642786,202.313 C905.479417,209.885705 899.748808,218.788615 895.450786,229.022 C891.152765,239.255384 888.799122,250.307274 888.389786,262.178 L1051.71379,262.178 Z M888.389786,308.228 C888.389786,320.508061 890.129436,332.378609 893.608786,343.84 C897.088137,355.301391 902.307085,365.329957 909.265786,373.926 C916.224488,382.522043 925.025066,389.378308 935.667786,394.495 C946.310506,399.611692 958.999713,402.17 973.735786,402.17 C994.202555,402.17 1010.67806,397.769711 1023.16279,388.969 C1035.64752,380.168289 1044.95976,366.967421 1051.09979,349.366 L1117.41179,349.366 C1113.72777,366.558086 1107.38316,381.907932 1098.37779,395.416 C1089.37241,408.924068 1078.52518,420.282954 1065.83579,429.493 C1053.14639,438.703046 1038.9222,445.661643 1023.16279,450.369 C1007.40337,455.076357 990.927872,457.43 973.735786,457.43 C948.766328,457.43 926.662549,453.336708 907.423786,445.15 C888.185023,436.963292 871.914186,425.502074 858.610786,410.766 C845.307386,396.029926 835.27882,378.428769 828.524786,357.962 C821.770753,337.495231 818.393786,314.982123 818.393786,290.422 C818.393786,267.908554 821.975417,246.521101 829.138786,226.259 C836.302155,205.996899 846.535386,188.191077 859.838786,172.841 C873.142186,157.490923 889.208359,145.313378 908.037786,136.308 C926.867214,127.302622 948.152334,122.8 971.893786,122.8 C996.863244,122.8 1019.27402,128.018948 1039.12679,138.457 C1058.97955,148.895052 1075.45505,162.709914 1088.55379,179.902 C1101.65252,197.094086 1111.16942,216.844222 1117.10479,239.153 C1123.04015,261.461778 1124.57513,284.486548 1121.70979,308.228 L888.389786,308.228 Z M1404.72968,262.178 C1403.91101,251.125945 1401.55737,240.483384 1397.66868,230.25 C1393.77999,220.016615 1388.45871,211.113705 1381.70468,203.541 C1374.95065,195.968295 1366.76406,189.828357 1357.14468,185.121 C1347.5253,180.413643 1336.78041,178.06 1324.90968,178.06 C1312.62962,178.06 1301.4754,180.208979 1291.44668,184.507 C1281.41796,188.805021 1272.82205,194.740295 1265.65868,202.313 C1258.49531,209.885705 1252.7647,218.788615 1248.46668,229.022 C1244.16866,239.255384 1241.81501,250.307274 1241.40568,262.178 L1404.72968,262.178 Z M1241.40568,308.228 C1241.40568,320.508061 1243.14533,332.378609 1246.62468,343.84 C1250.10403,355.301391 1255.32298,365.329957 1262.28168,373.926 C1269.24038,382.522043 1278.04096,389.378308 1288.68368,394.495 C1299.3264,399.611692 1312.01561,402.17 1326.75168,402.17 C1347.21845,402.17 1363.69395,397.769711 1376.17868,388.969 C1388.66341,380.168289 1397.97565,366.967421 1404.11568,349.366 L1470.42768,349.366 C1466.74366,366.558086 1460.39906,381.907932 1451.39368,395.416 C1442.3883,408.924068 1431.54108,420.282954 1418.85168,429.493 C1406.16228,438.703046 1391.93809,445.661643 1376.17868,450.369 C1360.41927,455.076357 1343.94377,457.43 1326.75168,457.43 C1301.78222,457.43 1279.67844,453.336708 1260.43968,445.15 C1241.20092,436.963292 1224.93008,425.502074 1211.62668,410.766 C1198.32328,396.029926 1188.29471,378.428769 1181.54068,357.962 C1174.78665,337.495231 1171.40968,314.982123 1171.40968,290.422 C1171.40968,267.908554 1174.99131,246.521101 1182.15468,226.259 C1189.31805,205.996899 1199.55128,188.191077 1212.85468,172.841 C1226.15808,157.490923 1242.22425,145.313378 1261.05368,136.308 C1279.88311,127.302622 1301.16823,122.8 1324.90968,122.8 C1349.87914,122.8 1372.28991,128.018948 1392.14268,138.457 C1411.99545,148.895052 1428.47095,162.709914 1441.56968,179.902 C1454.66841,197.094086 1464.18532,216.844222 1470.12068,239.153 C1476.05604,261.461778 1477.59103,284.486548 1474.72568,308.228 L1241.40568,308.228 Z M1539.77557,131.396 L1605.47357,131.396 L1605.47357,192.796 L1606.70157,192.796 C1608.74825,184.199957 1612.73921,175.808708 1618.67457,167.622 C1624.60994,159.435292 1631.7732,151.965034 1640.16457,145.211 C1648.55595,138.456966 1657.86819,133.033354 1668.10157,128.94 C1678.33496,124.846646 1688.77285,122.8 1699.41557,122.8 C1707.60228,122.8 1713.23056,123.004665 1716.30057,123.414 C1719.37059,123.823335 1722.54289,124.232665 1725.81757,124.642 L1725.81757,192.182 C1720.90555,191.363329 1715.89126,190.647003 1710.77457,190.033 C1705.65788,189.418997 1700.6436,189.112 1695.73157,189.112 C1683.86085,189.112 1672.70662,191.465643 1662.26857,196.173 C1651.83052,200.880357 1642.72294,207.838954 1634.94557,217.049 C1627.1682,226.259046 1621.02826,237.617932 1616.52557,251.126 C1612.02288,264.634068 1609.77157,280.188579 1609.77157,297.79 L1609.77157,448.834 L1539.77557,448.834 L1539.77557,131.396 Z M1820.33947,346.91 C1822.38614,367.376769 1830.1634,381.703292 1843.67147,389.89 C1857.17953,398.076708 1873.34804,402.17 1892.17747,402.17 C1898.72683,402.17 1906.19709,401.658338 1914.58847,400.635 C1922.97984,399.611662 1930.85943,397.667348 1938.22747,394.802 C1945.5955,391.936652 1951.63311,387.741028 1956.34047,382.215 C1961.04782,376.688972 1963.1968,369.423378 1962.78747,360.418 C1962.37813,351.412622 1959.1035,344.044695 1952.96347,338.314 C1946.82344,332.583305 1938.94385,327.978351 1929.32447,324.499 C1919.70508,321.019649 1908.75553,318.052012 1896.47547,315.596 C1884.1954,313.139988 1871.71086,310.479348 1859.02147,307.614 C1845.92273,304.748652 1833.33586,301.269354 1821.26047,297.176 C1809.18507,293.082646 1798.33785,287.556701 1788.71847,280.598 C1779.09908,273.639299 1771.42416,264.736388 1765.69347,253.889 C1759.96277,243.041612 1757.09747,229.63608 1757.09747,213.672 C1757.09747,196.479914 1761.29309,182.051058 1769.68447,170.385 C1778.07584,158.718942 1788.7184,149.304369 1801.61247,142.141 C1814.50653,134.977631 1828.83305,129.963348 1844.59247,127.098 C1860.35188,124.232652 1875.39473,122.8 1889.72147,122.8 C1906.09488,122.8 1921.75172,124.539649 1936.69247,128.019 C1951.63321,131.498351 1965.14107,137.126628 1977.21647,144.904 C1989.29186,152.681372 1999.32043,162.812271 2007.30247,175.297 C2015.28451,187.781729 2020.29879,202.824579 2022.34547,220.426 L1949.27947,220.426 C1946.00478,203.643249 1938.32986,192.386695 1926.25447,186.656 C1914.17907,180.925305 1900.36421,178.06 1884.80947,178.06 C1879.89744,178.06 1874.0645,178.469329 1867.31047,179.288 C1860.55643,180.106671 1854.21183,181.641655 1848.27647,183.893 C1842.3411,186.144345 1837.32682,189.418979 1833.23347,193.717 C1829.14011,198.015021 1827.09347,203.643299 1827.09347,210.602 C1827.09347,219.198043 1830.0611,226.15664 1835.99647,231.478 C1841.93183,236.79936 1849.70908,241.199649 1859.32847,244.679 C1868.94785,248.158351 1879.8974,251.125988 1892.17747,253.582 C1904.45753,256.038012 1917.14673,258.698652 1930.24547,261.564 C1942.93486,264.429348 1955.4194,267.908646 1967.69947,272.002 C1979.97953,276.095354 1990.92908,281.621299 2000.54847,288.58 C2010.16785,295.538701 2017.9451,304.33928 2023.88047,314.982 C2029.81583,325.62472 2032.78347,338.723256 2032.78347,354.278 C2032.78347,373.107427 2028.48551,389.071268 2019.88947,402.17 C2011.29342,415.268732 2000.1392,425.911292 1986.42647,434.098 C1972.71373,442.284708 1957.46622,448.219982 1940.68347,451.904 C1923.90072,455.588018 1907.32288,457.43 1890.94947,457.43 C1870.89203,457.43 1852.36988,455.178689 1835.38247,450.676 C1818.39505,446.173311 1803.65919,439.317046 1791.17447,430.107 C1778.68974,420.896954 1768.86583,409.435735 1761.70247,395.723 C1754.5391,382.010265 1750.7528,365.739427 1750.34347,346.91 L1820.33947,346.91 Z M2102.74536,131.17 L2155.54936,131.17 L2155.54936,36 L2225.54536,36 L2225.54536,131.17 L2288.78736,131.17 L2288.78736,183.36 L2225.54536,183.36 L2225.54536,352.824 C2225.54536,360.192037 2225.85236,366.53664 2226.46636,371.858 C2227.08036,377.17936 2228.51301,381.681982 2230.76436,385.366 C2233.0157,389.050018 2236.39267,391.812991 2240.89536,393.655 C2245.39805,395.497009 2251.53799,396.418 2259.31536,396.418 C2264.22738,396.418 2269.13933,396.315668 2274.05136,396.111 C2278.96338,395.906332 2283.87533,395.190006 2288.78736,393.962 L2288.78736,447.994 C2281.00999,448.812671 2273.4374,449.631329 2266.06936,450.45 C2258.70132,451.268671 2251.12873,451.678 2243.35136,451.678 C2224.93127,451.678 2210.09308,449.938351 2198.83636,446.459 C2187.57964,442.979649 2178.77906,437.863034 2172.43436,431.109 C2166.08966,424.354966 2161.7917,415.861384 2159.54036,405.628 C2157.28901,395.394616 2155.95869,383.728732 2155.54936,370.63 L2155.54936,183.36 L2102.74536,183.36 L2102.74536,131.17 Z M2495.99936,457.63 C2470.62057,457.63 2448.00512,453.434375 2428.15236,445.043 C2408.29959,436.651625 2391.51709,425.088074 2377.80436,410.352 C2364.09162,395.615926 2353.65373,378.014769 2346.49036,357.548 C2339.32699,337.081231 2335.74536,314.568123 2335.74536,290.008 C2335.74536,265.857213 2339.32699,243.548769 2346.49036,223.082 C2353.65373,202.615231 2364.09162,185.014074 2377.80436,170.278 C2391.51709,155.541926 2408.29959,143.978375 2428.15236,135.587 C2448.00512,127.195625 2470.62057,123 2495.99936,123 C2521.37815,123 2543.99359,127.195625 2563.84636,135.587 C2583.69912,143.978375 2600.48162,155.541926 2614.19436,170.278 C2627.90709,185.014074 2638.34499,202.615231 2645.50836,223.082 C2652.67173,243.548769 2656.25336,265.857213 2656.25336,290.008 C2656.25336,314.568123 2652.67173,337.081231 2645.50836,357.548 C2638.34499,378.014769 2627.90709,395.615926 2614.19436,410.352 C2600.48162,425.088074 2583.69912,436.651625 2563.84636,445.043 C2543.99359,453.434375 2521.37815,457.63 2495.99936,457.63 Z M2496.00336,402.11 C2511.5581,402.11 2525.06597,398.835366 2536.52736,392.286 C2547.98875,385.736634 2557.40332,377.14072 2564.77136,366.498 C2572.1394,355.85528 2577.56301,343.8824 2581.04236,330.579 C2584.52171,317.2756 2586.26136,303.665403 2586.26136,289.748 C2586.26136,276.239932 2584.52171,262.732068 2581.04236,249.224 C2577.56301,235.715932 2572.1394,223.743052 2564.77136,213.305 C2557.40332,202.866948 2547.98875,194.373366 2536.52736,187.824 C2525.06597,181.274634 2511.5581,178 2496.00336,178 C2480.44861,178 2466.94075,181.274634 2455.47936,187.824 C2444.01797,194.373366 2434.6034,202.866948 2427.23536,213.305 C2419.86732,223.743052 2414.44371,235.715932 2410.96436,249.224 C2407.48501,262.732068 2405.74536,276.239932 2405.74536,289.748 C2405.74536,303.665403 2407.48501,317.2756 2410.96436,330.579 C2414.44371,343.8824 2419.86732,355.85528 2427.23536,366.498 C2434.6034,377.14072 2444.01797,385.736634 2455.47936,392.286 C2466.94075,398.835366 2480.44861,402.11 2496.00336,402.11 Z M147,925.958 L272.256,925.958 C290.676092,925.958 306.025939,920.739052 318.306,910.301 C330.586061,899.862948 336.726,884.820098 336.726,865.172 C336.726,843.067889 331.200055,827.513378 320.148,818.508 C309.095945,809.502622 293.132104,805 272.256,805 L147,805 L147,925.958 Z M70,742 L283.058,742 C322.354196,742 353.872548,751.005243 377.614,769.016 C401.355452,787.026757 413.226,814.247151 413.226,850.678 C413.226,872.782111 407.802388,891.713588 396.955,907.473 C386.107612,923.232412 370.655434,935.409957 350.598,944.006 L350.598,945.234 C377.614135,950.964695 398.080597,963.756234 411.998,983.609 C425.915403,1003.46177 432.874,1028.32852 432.874,1058.21 C432.874,1075.40209 429.804031,1091.46826 423.664,1106.409 C417.523969,1121.34974 407.904732,1134.24361 394.806,1145.091 C381.707268,1155.93839 364.924769,1164.5343 344.458,1170.879 C323.991231,1177.2237 299.636141,1180.396 271.392,1180.396 L70,1180.396 L70,742 Z M147,1117.922 L282.694,1117.922 C306.026117,1117.922 324.138936,1111.88439 337.033,1099.809 C349.927064,1087.73361 356.374,1070.64411 356.374,1048.54 C356.374,1026.84522 349.927064,1010.16506 337.033,998.499 C324.138936,986.832942 306.026117,981 282.694,981 L147,981 L147,1117.922 Z M696.324,994.118 C695.505329,983.065945 693.151686,972.423384 689.263,962.19 C685.374314,951.956615 680.053034,943.053705 673.299,935.481 C666.544966,927.908295 658.358381,921.768357 648.739,917.061 C639.119619,912.353643 628.374726,910 616.504,910 C604.223939,910 593.069717,912.148979 583.041,916.447 C573.012283,920.745021 564.416369,926.680295 557.253,934.253 C550.089631,941.825705 544.359021,950.728615 540.061,960.962 C535.762979,971.195384 533.409335,982.247274 533,994.118 L696.324,994.118 Z M532.996,1040.428 C532.996,1052.70806 534.735649,1064.57861 538.215,1076.04 C541.694351,1087.50139 546.913299,1097.52996 553.872,1106.126 C560.830701,1114.72204 569.63128,1121.57831 580.274,1126.695 C590.91672,1131.81169 603.605926,1134.37 618.342,1134.37 C638.808769,1134.37 655.284271,1129.96971 667.769,1121.169 C680.253729,1112.36829 689.565969,1099.16742 695.706,1081.566 L762.018,1081.566 C758.333982,1098.75809 751.989378,1114.10793 742.984,1127.616 C733.978622,1141.12407 723.131397,1152.48295 710.442,1161.693 C697.752603,1170.90305 683.528412,1177.86164 667.769,1182.569 C652.009588,1187.27636 635.534086,1189.63 618.342,1189.63 C593.372542,1189.63 571.268763,1185.53671 552.03,1177.35 C532.791237,1169.16329 516.5204,1157.70207 503.217,1142.966 C489.9136,1128.22993 479.885034,1110.62877 473.131,1090.162 C466.376966,1069.69523 463,1047.18212 463,1022.622 C463,1000.10855 466.581631,978.721101 473.745,958.459 C480.908369,938.196899 491.1416,920.391077 504.445,905.041 C517.7484,889.690923 533.814573,877.513378 552.644,868.508 C571.473427,859.502622 592.758548,855 616.5,855 C641.469458,855 663.880234,860.218948 683.733,870.657 C703.585766,881.095052 720.061268,894.909914 733.16,912.102 C746.258732,929.294086 755.775637,949.044222 761.711,971.353 C767.646363,993.661778 769.181348,1016.68655 766.316,1040.428 L532.996,1040.428 Z M779.711786,863.396 L832.515786,863.396 L832.515786,768.226 L902.511786,768.226 L902.511786,863.396 L965.753786,863.396 L965.753786,915.586 L902.511786,915.586 L902.511786,1085.05 C902.511786,1092.41804 902.818783,1098.76264 903.432786,1104.084 C904.046789,1109.40536 905.479442,1113.90798 907.730786,1117.592 C909.982131,1121.27602 913.359097,1124.03899 917.861786,1125.881 C922.364475,1127.72301 928.504414,1128.644 936.281786,1128.644 C941.193811,1128.644 946.105762,1128.54167 951.017786,1128.337 C955.929811,1128.13233 960.841762,1127.41601 965.753786,1126.188 L965.753786,1180.22 C957.976414,1181.03867 950.403823,1181.85733 943.035786,1182.676 C935.667749,1183.49467 928.095159,1183.904 920.317786,1183.904 C901.897694,1183.904 887.059509,1182.16435 875.802786,1178.685 C864.546063,1175.20565 855.745485,1170.08903 849.400786,1163.335 C843.056088,1156.58097 838.758131,1148.08738 836.506786,1137.854 C834.255442,1127.62062 832.925122,1115.95473 832.515786,1102.856 L832.515786,915.586 L779.711786,915.586 L779.711786,863.396 Z M995.805679,863.396 L1048.60968,863.396 L1048.60968,768.226 L1118.60568,768.226 L1118.60568,863.396 L1181.84768,863.396 L1181.84768,915.586 L1118.60568,915.586 L1118.60568,1085.05 C1118.60568,1092.41804 1118.91268,1098.76264 1119.52668,1104.084 C1120.14068,1109.40536 1121.57333,1113.90798 1123.82468,1117.592 C1126.07602,1121.27602 1129.45299,1124.03899 1133.95568,1125.881 C1138.45837,1127.72301 1144.59831,1128.644 1152.37568,1128.644 C1157.2877,1128.644 1162.19965,1128.54167 1167.11168,1128.337 C1172.0237,1128.13233 1176.93565,1127.41601 1181.84768,1126.188 L1181.84768,1180.22 C1174.07031,1181.03867 1166.49772,1181.85733 1159.12968,1182.676 C1151.76164,1183.49467 1144.18905,1183.904 1136.41168,1183.904 C1117.99159,1183.904 1103.1534,1182.16435 1091.89668,1178.685 C1080.63996,1175.20565 1071.83938,1170.08903 1065.49468,1163.335 C1059.14998,1156.58097 1054.85202,1148.08738 1052.60068,1137.854 C1050.34933,1127.62062 1049.01901,1115.95473 1048.60968,1102.856 L1048.60968,915.586 L995.805679,915.586 L995.805679,863.396 Z M1435.324,994.118 C1434.50533,983.065945 1432.15169,972.423384 1428.263,962.19 C1424.37431,951.956615 1419.05303,943.053705 1412.299,935.481 C1405.54497,927.908295 1397.35838,921.768357 1387.739,917.061 C1378.11962,912.353643 1367.37473,910 1355.504,910 C1343.22394,910 1332.06972,912.148979 1322.041,916.447 C1312.01228,920.745021 1303.41637,926.680295 1296.253,934.253 C1289.08963,941.825705 1283.35902,950.728615 1279.061,960.962 C1274.76298,971.195384 1272.40934,982.247274 1272,994.118 L1435.324,994.118 Z M1271.996,1040.428 C1271.996,1052.70806 1273.73565,1064.57861 1277.215,1076.04 C1280.69435,1087.50139 1285.9133,1097.52996 1292.872,1106.126 C1299.8307,1114.72204 1308.63128,1121.57831 1319.274,1126.695 C1329.91672,1131.81169 1342.60593,1134.37 1357.342,1134.37 C1377.80877,1134.37 1394.28427,1129.96971 1406.769,1121.169 C1419.25373,1112.36829 1428.56597,1099.16742 1434.706,1081.566 L1501.018,1081.566 C1497.33398,1098.75809 1490.98938,1114.10793 1481.984,1127.616 C1472.97862,1141.12407 1462.1314,1152.48295 1449.442,1161.693 C1436.7526,1170.90305 1422.52841,1177.86164 1406.769,1182.569 C1391.00959,1187.27636 1374.53409,1189.63 1357.342,1189.63 C1332.37254,1189.63 1310.26876,1185.53671 1291.03,1177.35 C1271.79124,1169.16329 1255.5204,1157.70207 1242.217,1142.966 C1228.9136,1128.22993 1218.88503,1110.62877 1212.131,1090.162 C1205.37697,1069.69523 1202,1047.18212 1202,1022.622 C1202,1000.10855 1205.58163,978.721101 1212.745,958.459 C1219.90837,938.196899 1230.1416,920.391077 1243.445,905.041 C1256.7484,889.690923 1272.81457,877.513378 1291.644,868.508 C1310.47343,859.502622 1331.75855,855 1355.5,855 C1380.46946,855 1402.88023,860.218948 1422.733,870.657 C1442.58577,881.095052 1459.06127,894.909914 1472.16,912.102 C1485.25873,929.294086 1494.77564,949.044222 1500.711,971.353 C1506.64636,993.661778 1508.18135,1016.68655 1505.316,1040.428 L1271.996,1040.428 Z M1570,863.596 L1635.698,863.596 L1635.698,924.996 L1636.926,924.996 C1638.97268,916.399957 1642.96364,908.008708 1648.899,899.822 C1654.83436,891.635292 1661.99762,884.165034 1670.389,877.411 C1678.78038,870.656966 1688.09262,865.233354 1698.326,861.14 C1708.55938,857.046646 1718.99728,855 1729.64,855 C1737.82671,855 1743.45498,855.204665 1746.525,855.614 C1749.59502,856.023335 1752.76732,856.432665 1756.042,856.842 L1756.042,924.382 C1751.12998,923.563329 1746.11569,922.847003 1740.999,922.233 C1735.88231,921.618997 1730.86802,921.312 1725.956,921.312 C1714.08527,921.312 1702.93105,923.665643 1692.493,928.373 C1682.05495,933.080357 1672.94737,940.038954 1665.17,949.249 C1657.39263,958.459046 1651.25269,969.817932 1646.75,983.326 C1642.24731,996.834068 1639.996,1012.38858 1639.996,1029.99 L1639.996,1181.034 L1570,1181.034 L1570,863.596 Z M1886.00336,742 L1967.05136,742 L2167.21536,1064.964 L2168.44336,1064.964 L2168.44336,742 L2241.50936,742 L2241.50936,1180.396 L2160.46136,1180.396 L1960.91136,858.046 L1959.06936,858.046 L1959.06936,1180.396 L1886.00336,1180.396 L1886.00336,742 Z M2336.00336,742 L2405.99936,742 L2405.99936,808.312 L2336.00336,808.312 L2336.00336,742 Z M2336.00336,863 L2405.99936,863 L2405.99936,1180.438 L2336.00336,1180.438 L2336.00336,863 Z M2787.84536,1164.456 C2787.84536,1212.34824 2774.43983,1248.06222 2747.62836,1271.599 C2720.81689,1295.13578 2682.23761,1306.904 2631.88936,1306.904 C2615.92528,1306.904 2599.85911,1305.26668 2583.69036,1301.992 C2567.52161,1298.71732 2552.78576,1293.19137 2539.48236,1285.414 C2526.17896,1277.63663 2515.02474,1267.4034 2506.01936,1254.714 C2497.01398,1242.0246 2491.6927,1226.47009 2490.05536,1208.05 L2560.05136,1208.05 C2562.09804,1217.87405 2565.57733,1225.85597 2570.48936,1231.996 C2575.40138,1238.13603 2581.23433,1242.94565 2587.98836,1246.425 C2594.74239,1249.90435 2602.21265,1252.15566 2610.39936,1253.179 C2618.58607,1254.20234 2627.18198,1254.714 2636.18736,1254.714 C2664.4315,1254.714 2685.10263,1247.7554 2698.20136,1233.838 C2711.30009,1219.9206 2717.84936,1199.86346 2717.84936,1173.666 L2717.84936,1125.16 L2716.62136,1125.16 C2706.79731,1142.76142 2693.39178,1156.47395 2676.40436,1166.298 C2659.41694,1176.12205 2641.09946,1181.034 2621.45136,1181.034 C2596.07257,1181.034 2574.48045,1176.63371 2556.67436,1167.833 C2538.86827,1159.03229 2524.13242,1146.95708 2512.46636,1131.607 C2500.8003,1116.25692 2492.30672,1098.55343 2486.98536,1078.496 C2481.664,1058.43857 2479.00336,1036.94878 2479.00336,1014.026 C2479.00336,992.74056 2482.27799,972.478763 2488.82736,953.24 C2495.37673,934.001237 2504.7913,917.116406 2517.07136,902.585 C2529.35142,888.053594 2544.39427,876.490043 2562.20036,867.894 C2580.00645,859.297957 2600.16591,855 2622.67936,855 C2642.73679,855 2661.15661,859.195625 2677.93936,867.587 C2694.72211,875.978375 2707.61598,889.179243 2716.62136,907.19 L2717.84936,907.19 L2717.84936,863.596 L2787.84536,863.596 L2787.84536,1164.456 Z M2632.50736,1125.514 C2648.0621,1125.514 2661.26297,1122.3417 2672.11036,1115.997 C2682.95775,1109.6523 2691.75833,1101.26105 2698.51236,1090.823 C2705.26639,1080.38495 2710.17834,1068.5144 2713.24836,1055.211 C2716.31837,1041.9076 2717.85336,1028.50207 2717.85336,1014.994 C2717.85336,1001.48593 2716.21604,988.387397 2712.94136,975.698 C2709.66668,963.008603 2704.65239,951.752049 2697.89836,941.928 C2691.14433,932.103951 2682.34375,924.326695 2671.49636,918.596 C2660.64897,912.865305 2647.65277,910 2632.50736,910 C2616.95261,910 2603.85408,913.274634 2593.21136,919.824 C2582.56864,926.373366 2573.97273,934.866948 2567.42336,945.305 C2560.87399,955.743052 2556.16671,967.6136 2553.30136,980.917 C2550.43601,994.2204 2549.00336,1007.42127 2549.00336,1020.52 C2549.00336,1033.61873 2550.64068,1046.41027 2553.91536,1058.895 C2557.19004,1071.37973 2562.20433,1082.53395 2568.95836,1092.358 C2575.71239,1102.18205 2584.30831,1110.16397 2594.74636,1116.304 C2605.18441,1122.44403 2617.77129,1125.514 2632.50736,1125.514 Z M2870.00336,742 L2939.99936,742 L2939.99936,904.71 L2941.22736,904.71 C2949.8234,890.383262 2962.61494,878.410381 2979.60236,868.791 C2996.58978,859.171619 3015.52125,854.362 3036.39736,854.362 C3071.19087,854.362 3098.61593,863.367243 3118.67336,881.378 C3138.73079,899.388757 3148.75936,926.404487 3148.75936,962.426 L3148.75936,1180.396 L3078.76336,1180.396 L3078.76336,980.846 C3077.94469,955.876542 3072.62341,937.763723 3062.79936,926.507 C3052.97531,915.250277 3037.62546,909.622 3016.74936,909.622 C3004.87863,909.622 2994.23607,911.770979 2984.82136,916.069 C2975.40665,920.367021 2967.42473,926.302295 2960.87536,933.875 C2954.32599,941.447705 2949.20938,950.350616 2945.52536,960.584 C2941.84134,970.817385 2939.99936,981.664609 2939.99936,993.126 L2939.99936,1180.396 L2870.00336,1180.396 L2870.00336,742 Z M3202.00336,863.17 L3254.80736,863.17 L3254.80736,768 L3324.80336,768 L3324.80336,863.17 L3388.04536,863.17 L3388.04536,915.36 L3324.80336,915.36 L3324.80336,1084.824 C3324.80336,1092.19204 3325.11036,1098.53664 3325.72436,1103.858 C3326.33836,1109.17936 3327.77101,1113.68198 3330.02236,1117.366 C3332.2737,1121.05002 3335.65067,1123.81299 3340.15336,1125.655 C3344.65605,1127.49701 3350.79599,1128.418 3358.57336,1128.418 C3363.48538,1128.418 3368.39733,1128.31567 3373.30936,1128.111 C3378.22138,1127.90633 3383.13333,1127.19001 3388.04536,1125.962 L3388.04536,1179.994 C3380.26799,1180.81267 3372.6954,1181.63133 3365.32736,1182.45 C3357.95932,1183.26867 3350.38673,1183.678 3342.60936,1183.678 C3324.18927,1183.678 3309.35108,1181.93835 3298.09436,1178.459 C3286.83764,1174.97965 3278.03706,1169.86303 3271.69236,1163.109 C3265.34766,1156.35497 3261.0497,1147.86138 3258.79836,1137.628 C3256.54701,1127.39462 3255.21669,1115.72873 3254.80736,1102.63 L3254.80736,915.36 L3202.00336,915.36 L3202.00336,863.17 Z M3502.99936,1079.11 C3505.04604,1099.57677 3512.82329,1113.90329 3526.33136,1122.09 C3539.83943,1130.27671 3556.00793,1134.37 3574.83736,1134.37 C3581.38673,1134.37 3588.85698,1133.85834 3597.24836,1132.835 C3605.63973,1131.81166 3613.51932,1129.86735 3620.88736,1127.002 C3628.2554,1124.13665 3634.293,1119.94103 3639.00036,1114.415 C3643.70772,1108.88897 3645.85669,1101.62338 3645.44736,1092.618 C3645.03802,1083.61262 3641.76339,1076.2447 3635.62336,1070.514 C3629.48333,1064.7833 3621.60374,1060.17835 3611.98436,1056.699 C3602.36498,1053.21965 3591.41542,1050.25201 3579.13536,1047.796 C3566.8553,1045.33999 3554.37076,1042.67935 3541.68136,1039.814 C3528.58263,1036.94865 3515.99575,1033.46935 3503.92036,1029.376 C3491.84497,1025.28265 3480.99774,1019.7567 3471.37836,1012.798 C3461.75898,1005.8393 3454.08405,996.936388 3448.35336,986.089 C3442.62266,975.241612 3439.75736,961.83608 3439.75736,945.872 C3439.75736,928.679914 3443.95298,914.251058 3452.34436,902.585 C3460.73573,890.918942 3471.37829,881.504369 3484.27236,874.341 C3497.16642,867.177631 3511.49295,862.163348 3527.25236,859.298 C3543.01177,856.432652 3558.05462,855 3572.38136,855 C3588.75477,855 3604.41162,856.739649 3619.35236,860.219 C3634.2931,863.698351 3647.80097,869.326628 3659.87636,877.104 C3671.95175,884.881372 3681.98032,895.012271 3689.96236,907.497 C3697.9444,919.981729 3702.95868,935.024579 3705.00536,952.626 L3631.93936,952.626 C3628.66468,935.843249 3620.98975,924.586695 3608.91436,918.856 C3596.83897,913.125305 3583.0241,910.26 3567.46936,910.26 C3562.55733,910.26 3556.72439,910.669329 3549.97036,911.488 C3543.21633,912.306671 3536.87172,913.841655 3530.93636,916.093 C3525.001,918.344345 3519.98671,921.618979 3515.89336,925.917 C3511.80001,930.215021 3509.75336,935.843299 3509.75336,942.802 C3509.75336,951.398043 3512.721,958.35664 3518.65636,963.678 C3524.59172,968.99936 3532.36898,973.399649 3541.98836,976.879 C3551.60774,980.358351 3562.5573,983.325988 3574.83736,985.782 C3587.11742,988.238012 3599.80663,990.898652 3612.90536,993.764 C3625.59476,996.629348 3638.0793,1000.10865 3650.35936,1004.202 C3662.63942,1008.29535 3673.58898,1013.8213 3683.20836,1020.78 C3692.82774,1027.7387 3700.605,1036.53928 3706.54036,1047.182 C3712.47572,1057.82472 3715.44336,1070.92326 3715.44336,1086.478 C3715.44336,1105.30743 3711.1454,1121.27127 3702.54936,1134.37 C3693.95332,1147.46873 3682.79909,1158.11129 3669.08636,1166.298 C3655.37362,1174.48471 3640.12611,1180.41998 3623.34336,1184.104 C3606.56061,1187.78802 3589.98277,1189.63 3573.60936,1189.63 C3553.55193,1189.63 3535.02978,1187.37869 3518.04236,1182.876 C3501.05494,1178.37331 3486.31909,1171.51705 3473.83436,1162.307 C3461.34963,1153.09695 3451.52573,1141.63574 3444.36236,1127.923 C3437.19899,1114.21026 3433.41269,1097.93943 3433.00336,1079.11 L3502.99936,1079.11 Z M160.254,1921.43 C134.875206,1921.43 112.259766,1917.23438 92.407,1908.843 C72.5542341,1900.45162 55.7717352,1888.88807 42.059,1874.152 C28.3462648,1859.41593 17.9083691,1841.81477 10.745,1821.348 C3.58163085,1800.88123 0,1778.36812 0,1753.808 C0,1729.65721 3.58163085,1707.34877 10.745,1686.882 C17.9083691,1666.41523 28.3462648,1648.81407 42.059,1634.078 C55.7717352,1619.34193 72.5542341,1607.77838 92.407,1599.387 C112.259766,1590.99562 134.875206,1586.8 160.254,1586.8 C185.632794,1586.8 208.248234,1590.99562 228.101,1599.387 C247.953766,1607.77838 264.736265,1619.34193 278.449,1634.078 C292.161735,1648.81407 302.599631,1666.41523 309.763,1686.882 C316.926369,1707.34877 320.508,1729.65721 320.508,1753.808 C320.508,1778.36812 316.926369,1800.88123 309.763,1821.348 C302.599631,1841.81477 292.161735,1859.41593 278.449,1874.152 C264.736265,1888.88807 247.953766,1900.45162 228.101,1908.843 C208.248234,1917.23438 185.632794,1921.43 160.254,1921.43 Z M160.254,1866.17 C175.808744,1866.17 189.316609,1862.89537 200.778,1856.346 C212.239391,1849.79663 221.653963,1841.20072 229.022,1830.558 C236.390037,1819.91528 241.813649,1807.9424 245.293,1794.639 C248.772351,1781.3356 250.512,1767.7254 250.512,1753.808 C250.512,1740.29993 248.772351,1726.79207 245.293,1713.284 C241.813649,1699.77593 236.390037,1687.80305 229.022,1677.365 C221.653963,1666.92695 212.239391,1658.43337 200.778,1651.884 C189.316609,1645.33463 175.808744,1642.06 160.254,1642.06 C144.699256,1642.06 131.191391,1645.33463 119.73,1651.884 C108.268609,1658.43337 98.8540368,1666.92695 91.486,1677.365 C84.1179632,1687.80305 78.6943507,1699.77593 75.215,1713.284 C71.7356493,1726.79207 69.996,1740.29993 69.996,1753.808 C69.996,1767.7254 71.7356493,1781.3356 75.215,1794.639 C78.6943507,1807.9424 84.1179632,1819.91528 91.486,1830.558 C98.8540368,1841.20072 108.268609,1849.79663 119.73,1856.346 C131.191391,1862.89537 144.699256,1866.17 160.254,1866.17 Z M669.225893,1912.834 L600.457893,1912.834 L600.457893,1868.626 L599.229893,1868.626 C590.63385,1884.59008 577.842311,1897.38162 560.854893,1907.001 C543.867475,1916.62038 526.573314,1921.43 508.971893,1921.43 C467.219684,1921.43 437.031653,1911.09444 418.406893,1890.423 C399.782133,1869.75156 390.469893,1838.54021 390.469893,1796.788 L390.469893,1595.396 L460.465893,1595.396 L460.465893,1790.034 C460.465893,1817.86881 465.787173,1837.51661 476.429893,1848.978 C487.072613,1860.43939 502.01313,1866.17 521.251893,1866.17 C535.987967,1866.17 548.267844,1863.91869 558.091893,1859.416 C567.915942,1854.91331 575.897862,1848.8757 582.037893,1841.303 C588.177924,1833.7303 592.578213,1824.62272 595.238893,1813.98 C597.899573,1803.33728 599.229893,1791.87606 599.229893,1779.596 L599.229893,1595.396 L669.225893,1595.396 L669.225893,1912.834 Z M722.609786,1595.396 L775.413786,1595.396 L775.413786,1500.226 L845.409786,1500.226 L845.409786,1595.396 L908.651786,1595.396 L908.651786,1647.586 L845.409786,1647.586 L845.409786,1817.05 C845.409786,1824.41804 845.716783,1830.76264 846.330786,1836.084 C846.944789,1841.40536 848.377442,1845.90798 850.628786,1849.592 C852.880131,1853.27602 856.257097,1856.03899 860.759786,1857.881 C865.262475,1859.72301 871.402414,1860.644 879.179786,1860.644 C884.091811,1860.644 889.003762,1860.54167 893.915786,1860.337 C898.827811,1860.13233 903.739762,1859.41601 908.651786,1858.188 L908.651786,1912.22 C900.874414,1913.03867 893.301823,1913.85733 885.933786,1914.676 C878.565749,1915.49467 870.993159,1915.904 863.215786,1915.904 C844.795694,1915.904 829.957509,1914.16435 818.700786,1910.685 C807.444063,1907.20565 798.643485,1902.08903 792.298786,1895.335 C785.954088,1888.58097 781.656131,1880.08738 779.404786,1869.854 C777.153442,1859.62062 775.823122,1847.95473 775.413786,1834.856 L775.413786,1647.586 L722.609786,1647.586 L722.609786,1595.396 Z M1017.60268,1829.944 L1020.05868,1829.944 C1042.94812,1829.944 1061.50368,1848.49956 1061.50368,1871.389 L1061.50368,1871.389 C1061.50368,1894.27844 1042.94812,1912.834 1020.05868,1912.834 L1017.60268,1912.834 C994.713238,1912.834 976.157679,1894.27844 976.157679,1871.389 L976.157679,1871.389 C976.157679,1848.49956 994.713238,1829.944 1017.60268,1829.944 Z" id="Cheers-to-Better-Nig" fill="#FFFFFF"></path>
    </g>
</svg>