<?xml version="1.0" encoding="UTF-8"?>
<svg width="2869px" height="226px" viewBox="0 0 2869 226" version="1.1" xmlns="http://www.w3.org/2000/svg" xmlns:xlink="http://www.w3.org/1999/xlink">
    <!-- Generator: Sketch 53.2 (72643) - https://sketchapp.com -->
    <title>barfriendsbusiness</title>
    <desc>Created with Sketch.</desc>
    <g id="Mar-2019" stroke="none" stroke-width="1" fill="none" fill-rule="evenodd">
        <g id="barfriendsbusiness" fill-rule="nonzero">
            <path d="M47.0719373,94.6602476 L94.7435172,94.6602476 C103.138554,94.6602476 110.034374,92.6611846 115.431184,88.6629986 C120.827994,84.6648127 123.526358,78.1678579 123.526358,69.1719395 C123.526358,64.174207 122.626903,60.0761279 120.827967,56.8775791 C119.02903,53.6790303 116.630484,51.1802016 113.632256,49.3810179 C110.634029,47.5818342 107.186119,46.3324198 103.288423,45.6327373 C99.3907272,44.9330547 95.3431807,44.5832187 91.1456621,44.5832187 L47.0719373,44.5832187 L47.0719373,94.6602476 Z M0,8 L100.739942,8 C110.933916,8 120.228282,8.89957835 128.623319,10.698762 C137.018356,12.4979457 144.213995,15.4465636 150.21045,19.5447043 C156.206905,23.6428449 160.854088,29.0902916 164.152138,35.8872077 C167.450188,42.6841239 169.099189,51.0801884 169.099189,61.0756534 C169.099189,71.8707555 166.650673,80.866539 161.753568,88.0632737 C156.856463,95.2600085 149.610855,101.157244 140.016527,105.755158 C153.208728,109.553435 163.052761,116.200319 169.548921,125.696011 C176.04508,135.191703 179.293112,146.636338 179.293112,160.030261 C179.293112,170.825363 177.194384,180.170983 172.996865,188.0674 C168.799347,195.963818 163.152769,202.410796 156.056964,207.408528 C148.961159,212.406261 140.866066,216.104527 131.771442,218.503439 C122.676819,220.90235 113.332483,222.101788 103.738155,222.101788 L0,222.101788 L0,8 Z M47.0719373,185.518569 L97.4419085,185.518569 C102.039191,185.518569 106.436525,185.06878 110.634044,184.169188 C114.831562,183.269597 118.529321,181.770299 121.72743,179.671252 C124.92554,177.572204 127.473995,174.723539 129.372872,171.125172 C131.27175,167.526805 132.221174,162.92896 132.221174,157.331499 C132.221174,146.336488 129.123052,138.490166 122.926715,133.792297 C116.730378,129.094429 108.535346,126.74553 98.3413723,126.74553 L47.0719373,126.74553 L47.0719373,185.518569 Z M206.630075,114.751032 C207.22972,104.755567 209.728206,96.4594553 214.125606,89.8624484 C218.523007,83.2654416 224.119614,77.9679246 230.915597,73.9697387 C237.711579,69.9715527 245.356945,67.1228879 253.851923,65.4236589 C262.346901,63.7244298 270.891721,62.8748281 279.48664,62.8748281 C287.282032,62.8748281 295.177246,63.4245704 303.172519,64.5240715 C311.167793,65.6235727 318.463371,67.7725654 325.059471,70.9711142 C331.655572,74.1696629 337.0523,78.6175781 341.249819,84.3149931 C345.447338,90.0124081 347.546065,97.5588709 347.546065,106.954608 L347.546065,187.617607 C347.546065,194.614432 347.945823,201.311293 348.74535,207.708391 C349.544878,214.105488 350.94403,218.903239 352.942848,222.101788 L309.768587,222.101788 C308.96906,219.702877 308.319454,217.254024 307.819749,214.755158 C307.320044,212.256292 306.970256,209.707487 306.770375,207.108666 C299.974392,214.105491 291.979238,219.003196 282.784674,221.801926 C273.590109,224.600656 264.195804,226 254.601476,226 C247.205848,226 240.310028,225.100422 233.913809,223.301238 C227.51759,221.502054 221.920983,218.703366 217.123819,214.905089 C212.326655,211.106813 208.578926,206.309062 205.880522,200.511692 C203.182117,194.714322 201.832935,187.817555 201.832935,179.821183 C201.832935,171.025174 203.381996,163.77857 206.480164,158.081155 C209.578333,152.38374 213.575909,147.835872 218.473014,144.437414 C223.370119,141.038956 228.966727,138.490151 235.263005,136.790922 C241.559283,135.091693 247.905436,133.742325 254.301655,132.742779 C260.697873,131.743232 266.994057,130.943607 273.190394,130.343879 C279.386731,129.744151 284.883399,128.844573 289.680563,127.645117 C294.477727,126.445661 298.275425,124.696481 301.073771,122.397524 C303.872116,120.098567 305.171329,116.750137 304.971447,112.352132 C304.971447,107.754218 304.221901,104.105928 302.722788,101.407153 C301.223674,98.7083772 299.224885,96.609361 296.726362,95.1100413 C294.227839,93.6107215 291.329596,92.61119 288.031546,92.1114168 C284.733496,91.6116435 281.185646,91.3617607 277.387891,91.3617607 C268.992854,91.3617607 262.396852,93.1609174 257.599688,96.7592847 C252.802524,100.357652 250.004221,106.354841 249.204693,114.751032 L206.630075,114.751032 Z M304.971447,146.236589 C303.17251,147.835863 300.923874,149.085277 298.225469,149.984869 C295.527064,150.884461 292.628821,151.63411 289.530652,152.233838 C286.432484,152.833566 283.184453,153.333331 279.786461,153.73315 C276.38847,154.132969 272.99053,154.632734 269.592539,155.232462 C266.394429,155.83219 263.246338,156.631815 260.148169,157.631362 C257.050001,158.630908 254.351636,159.980276 252.052995,161.679505 C249.754354,163.378734 247.905475,165.527727 246.506302,168.126547 C245.107129,170.725368 244.407553,174.023822 244.407553,178.022008 C244.407553,181.820285 245.107129,185.018786 246.506302,187.617607 C247.905475,190.216427 249.804324,192.265467 252.202906,193.764787 C254.601488,195.264107 257.399792,196.313615 260.597901,196.913343 C263.79601,197.51307 267.094011,197.81293 270.492002,197.81293 C278.88704,197.81293 285.383102,196.413586 289.980384,193.614856 C294.577666,190.816125 297.975607,187.467695 300.174307,183.569464 C302.373007,179.671232 303.722189,175.723083 304.221894,171.724897 C304.721598,167.726711 304.971447,164.52821 304.971447,162.129298 L304.971447,146.236589 Z M382.37856,67.0729023 L422.85443,67.0729023 L422.85443,95.8596974 L423.454072,95.8596974 C425.452891,91.0618742 428.151255,86.6139591 431.549246,82.5158184 C434.947237,78.4176778 438.844875,74.9193176 443.242275,72.0206327 C447.639676,69.1219479 452.336828,66.873002 457.333874,65.2737276 C462.33092,63.6744533 467.52777,62.8748281 472.92458,62.8748281 C475.722925,62.8748281 478.821047,63.3745938 482.219039,64.3741403 L482.219039,103.955983 C480.22022,103.556165 477.821674,103.206329 475.023328,102.906465 C472.224983,102.606601 469.526618,102.456671 466.928154,102.456671 C459.132763,102.456671 452.536761,103.756062 447.139951,106.354883 C441.743142,108.953704 437.395777,112.502041 434.097727,117 C430.799676,121.497959 428.4511,126.7455 427.051927,132.742779 C425.652754,138.740057 424.953178,145.237012 424.953178,152.233838 L424.953178,222.101788 L382.37856,222.101788 L382.37856,67.0729023 Z M510.155644,95.5598349 L510.155644,67.0729023 L510.155644,55.0784044 C510.155644,41.2846628 514.453039,29.9899569 523.047958,21.1939477 C531.642877,12.3979386 544.635002,8 562.024722,8 C565.822477,8 569.620174,8.14992972 573.417929,8.44979367 C577.215684,8.74965762 580.913443,8.9995405 584.511316,9.19944979 L584.511316,40.9848693 C579.51427,40.3851414 574.31742,40.085282 568.920611,40.085282 C563.124037,40.085282 558.976551,41.4346495 556.478028,44.133425 C553.979505,46.8322006 552.730263,51.3800689 552.730263,57.7771664 L552.730263,67.0729023 L582.112746,67.0729023 L582.112746,95.5598349 L552.730263,95.5598349 L552.730263,222.101788 L510.155644,222.101788 L510.155644,95.5598349 Z M602.55382,67.0729023 L643.02969,67.0729023 L643.02969,95.8596974 L643.629332,95.8596974 C645.628151,91.0618742 648.326515,86.6139591 651.724506,82.5158184 C655.122497,78.4176778 659.020135,74.9193176 663.417535,72.0206327 C667.814936,69.1219479 672.512088,66.873002 677.509134,65.2737276 C682.50618,63.6744533 687.70303,62.8748281 693.09984,62.8748281 C695.898185,62.8748281 698.996307,63.3745938 702.394299,64.3741403 L702.394299,103.955983 C700.39548,103.556165 697.996934,103.206329 695.198588,102.906465 C692.400243,102.606601 689.701878,102.456671 687.103414,102.456671 C679.308023,102.456671 672.712021,103.756062 667.315212,106.354883 C661.918402,108.953704 657.571037,112.502041 654.272987,117 C650.974937,121.497959 648.62636,126.7455 647.227187,132.742779 C645.828014,138.740057 645.128439,145.237012 645.128439,152.233838 L645.128439,222.101788 L602.55382,222.101788 L602.55382,67.0729023 Z M744.23573,42 L743.23573,42 C731.637751,42 722.23573,32.5979797 722.23573,21 L722.23573,21 C722.23573,9.40202025 731.637751,2.13051432e-15 743.23573,0 L744.23573,0 C755.83371,-2.13051432e-15 765.23573,9.40202025 765.23573,21 L765.23573,21 C765.23573,32.5979797 755.83371,42 744.23573,42 Z M722.23573,67.0729023 L764.810349,67.0729023 L764.810349,222.101788 L722.23573,222.101788 L722.23573,67.0729023 Z M904.580283,127.944979 C902.581465,117.149877 899.033615,108.953719 893.936629,103.356259 C888.839642,97.7587982 881.094337,94.96011 870.700481,94.96011 C863.904499,94.96011 858.257921,96.1095713 853.76058,98.4085282 C849.263239,100.707485 845.66542,103.55615 842.967015,106.954608 C840.26861,110.353066 838.369761,113.951379 837.270411,117.749656 C836.171061,121.547933 835.521455,124.94634 835.321573,127.944979 L904.580283,127.944979 Z M835.321573,154.9326 C835.921218,168.726341 839.419098,178.721656 845.815317,184.918845 C852.211536,191.116033 861.405962,194.21458 873.398872,194.21458 C881.993791,194.21458 889.389309,192.065588 895.585645,187.767538 C901.781982,183.469488 905.57968,178.92162 906.978853,174.123796 L944.45651,174.123796 C938.460055,192.715361 929.265629,206.00913 916.872955,214.005502 C904.480281,222.001874 889.489368,226 871.899766,226 C859.706974,226 848.713638,224.050914 838.919428,220.152682 C829.125218,216.254451 820.830246,210.707051 814.034264,203.510316 C807.238281,196.313582 801.991462,187.717611 798.293648,177.722146 C794.595834,167.726681 792.746954,156.731834 792.746954,144.737276 C792.746954,133.142537 794.645803,122.347597 798.443558,112.352132 C802.241313,102.356667 807.638042,93.7107197 814.633906,86.4140303 C821.62977,79.1173409 829.974712,73.3700347 839.668981,69.1719395 C849.36325,64.9738442 860.106738,62.8748281 871.899766,62.8748281 C885.091967,62.8748281 896.585001,65.4236334 906.379211,70.5213205 C916.173421,75.6190076 924.218544,82.4657984 930.514822,91.0618982 C936.8111,99.657998 941.358343,109.453407 944.156689,120.448418 C946.955035,131.44343 947.954429,142.938042 947.154902,154.9326 L835.321573,154.9326 Z M974.192044,67.0729023 L1014.66791,67.0729023 L1014.66791,88.6629986 L1015.56738,88.6629986 C1020.96419,79.6670802 1027.95995,73.1201489 1036.55486,69.0220083 C1045.14978,64.9238676 1053.94445,62.8748281 1062.93914,62.8748281 C1074.3324,62.8748281 1083.67674,64.4241019 1090.97242,67.522696 C1098.26811,70.6212901 1104.01463,74.9192756 1108.21215,80.4167813 C1112.40966,85.914287 1115.35788,92.611148 1117.05687,100.507565 C1118.75587,108.403983 1119.60535,117.149883 1119.60535,126.74553 L1119.60535,222.101788 L1077.03073,222.101788 L1077.03073,134.541953 C1077.03073,121.747758 1075.03195,112.202232 1071.03431,105.905089 C1067.03667,99.6079465 1059.94097,96.4594223 1049.747,96.4594223 C1038.15385,96.4594223 1029.75894,99.907806 1024.56201,106.804677 C1019.36509,113.701548 1016.76666,125.04623 1016.76666,140.839065 L1016.76666,222.101788 L974.192044,222.101788 L974.192044,67.0729023 Z M1263.87261,144.137552 C1263.87261,137.740454 1263.27297,131.593335 1262.07368,125.696011 C1260.87439,119.798687 1258.82563,114.601123 1255.92734,110.103164 C1253.02906,105.605204 1249.28133,101.956914 1244.68405,99.1581843 C1240.08676,96.3594541 1234.29028,94.96011 1227.29441,94.96011 C1220.29855,94.96011 1214.40212,96.3594541 1209.60496,99.1581843 C1204.80779,101.956914 1200.96013,105.655181 1198.06184,110.253095 C1195.16355,114.851009 1193.06483,120.098549 1191.76559,125.995873 C1190.46636,131.893198 1189.81676,138.040316 1189.81676,144.437414 C1189.81676,150.434693 1190.51633,156.431882 1191.9155,162.429161 C1193.31468,168.42644 1195.56331,173.773933 1198.66148,178.471802 C1201.75965,183.16967 1205.65729,186.96789 1210.35451,189.866575 C1215.05174,192.76526 1220.69831,194.21458 1227.29441,194.21458 C1234.29028,194.21458 1240.13673,192.815236 1244.83396,190.016506 C1249.53118,187.217776 1253.27891,183.469533 1256.07725,178.771664 C1258.8756,174.073796 1260.87439,168.726302 1262.07368,162.729023 C1263.27297,156.731744 1263.87261,150.534649 1263.87261,144.137552 Z M1264.47225,202.310867 L1263.87261,202.310867 C1258.87556,210.707057 1252.32953,216.754223 1244.23431,220.452545 C1236.1391,224.150867 1226.99464,226 1216.80067,226 C1205.20752,226 1195.0137,223.751054 1186.2189,219.253095 C1177.4241,214.755136 1170.17849,208.657994 1164.48186,200.961486 C1158.78523,193.264978 1154.48783,184.419124 1151.58955,174.423659 C1148.69126,164.428194 1147.24214,154.033066 1147.24214,143.237964 C1147.24214,132.842681 1148.69126,122.797389 1151.58955,113.101788 C1154.48783,103.406187 1158.78523,94.8601929 1164.48186,87.4635488 C1170.17849,80.0669048 1177.32416,74.1196924 1185.91908,69.6217331 C1194.514,65.1237739 1204.50794,62.8748281 1215.90121,62.8748281 C1225.09577,62.8748281 1233.84047,64.8239145 1242.13557,68.7221458 C1250.43066,72.6203771 1256.97669,78.3676832 1261.77386,85.9642366 L1262.3735,85.9642366 L1262.3735,8 L1304.94812,8 L1304.94812,222.101788 L1264.47225,222.101788 L1264.47225,202.310867 Z M1371.86149,171.724897 C1371.86149,176.322811 1372.81091,180.27096 1374.70979,183.569464 C1376.60867,186.867967 1379.05718,189.566702 1382.05541,191.66575 C1385.05364,193.764797 1388.50155,195.314071 1392.39924,196.313618 C1396.29694,197.313164 1400.34449,197.81293 1404.542,197.81293 C1407.54023,197.81293 1410.68832,197.463094 1413.98637,196.763411 C1417.28442,196.063729 1420.28261,194.964244 1422.98101,193.464924 C1425.67942,191.965605 1427.92805,189.966542 1429.72699,187.467675 C1431.52593,184.968809 1432.42538,181.820285 1432.42538,178.022008 C1432.42538,171.624911 1428.17796,166.82716 1419.68298,163.628611 C1411.188,160.430062 1399.34518,157.231561 1384.15416,154.033012 C1377.95782,152.633647 1371.91149,150.98442 1366.01497,149.085282 C1360.11846,147.186144 1354.87164,144.687315 1350.27436,141.588721 C1345.67707,138.490127 1341.97932,134.591954 1339.18097,129.894085 C1336.38262,125.196217 1334.98347,119.448911 1334.98347,112.651994 C1334.98347,102.65653 1336.93229,94.4603713 1340.82999,88.0632737 C1344.72768,81.6661762 1349.87456,76.6185421 1356.27078,72.9202201 C1362.667,69.2218981 1369.86264,66.6231162 1377.85791,65.1237964 C1385.85319,63.6244767 1394.04822,62.8748281 1402.44326,62.8748281 C1410.83829,62.8748281 1418.98336,63.6744533 1426.87869,65.2737276 C1434.77402,66.873002 1441.81975,69.5717371 1448.01609,73.3700138 C1454.21242,77.1682904 1459.3593,82.2159245 1463.45688,88.5130674 C1467.55446,94.8102103 1470.00298,102.756486 1470.8025,112.352132 L1430.32663,112.352132 C1429.72699,104.155851 1426.62887,98.608451 1421.03217,95.7097662 C1415.43548,92.8110813 1408.83948,91.3617607 1401.24397,91.3617607 C1398.84539,91.3617607 1396.24696,91.5116904 1393.44862,91.8115543 C1390.65027,92.1114183 1388.10182,92.7611138 1385.80318,93.7606602 C1383.50453,94.7602067 1381.55572,96.2095274 1379.95666,98.1086657 C1378.35761,100.007804 1377.55809,102.556609 1377.55809,105.755158 C1377.55809,109.553435 1378.95724,112.651983 1381.75559,115.050894 C1384.55393,117.449806 1388.20172,119.398892 1392.69906,120.898212 C1397.19641,122.397532 1402.34329,123.746899 1408.13986,124.946355 C1413.93643,126.145811 1419.83286,127.445202 1425.82931,128.844567 C1432.02565,130.243932 1438.07199,131.943135 1443.9685,133.942228 C1449.86501,135.941321 1455.11183,138.59008 1459.70912,141.888583 C1464.3064,145.187087 1468.00416,149.285166 1470.8025,154.182944 C1473.60085,159.080721 1475,165.127887 1475,172.324622 C1475,182.519996 1472.95124,191.06599 1468.85366,197.962861 C1464.75609,204.859732 1459.40933,210.407132 1452.81323,214.605227 C1446.21713,218.803322 1438.6717,221.75194 1430.17672,223.451169 C1421.68174,225.150398 1413.03698,226 1404.24218,226 C1395.2475,226 1386.45283,225.100422 1377.85791,223.301238 C1369.26299,221.502054 1361.61763,218.50346 1354.92159,214.305365 C1348.22555,210.107269 1342.72888,204.559869 1338.43142,197.662999 C1334.13396,190.766128 1331.78538,182.12018 1331.38562,171.724897 L1371.86149,171.724897 Z" id="Barfriends" fill="#FF7000"></path>
            <path d="M1609,95 L1656.38824,95 C1664.73338,95 1671.58821,93.004012 1676.95294,89.011976 C1682.31767,85.0199401 1685,78.532979 1685,69.5508982 C1685,64.5608533 1684.10589,60.4690778 1682.31765,57.2754491 C1680.5294,54.0818204 1678.14511,51.5868353 1675.16471,49.7904192 C1672.1843,47.994003 1668.75688,46.7465105 1664.88235,46.0479042 C1661.00782,45.3492979 1656.98433,45 1652.81176,45 L1609,45 L1609,95 Z M1562,8 L1662.57525,8 C1672.75256,8 1682.03173,8.89915067 1690.41304,10.697479 C1698.79436,12.4958073 1705.97823,15.4430234 1711.96488,19.5392157 C1717.95153,23.635408 1722.59112,29.0802648 1725.88378,35.8739496 C1729.17644,42.6676343 1730.82274,51.0597073 1730.82274,61.0504202 C1730.82274,71.8403901 1728.37823,80.8318968 1723.48913,88.0252101 C1718.60003,95.2185234 1711.36627,101.112956 1701.78763,105.708683 C1714.95826,109.505154 1724.7862,116.148879 1731.27174,125.640056 C1737.75728,135.131233 1741,146.570428 1741,159.957983 C1741,170.747953 1738.9047,180.08913 1734.71405,187.981793 C1730.52339,195.874456 1724.88604,202.318369 1717.80184,207.313725 C1710.71763,212.309082 1702.63578,216.00559 1693.55602,218.403361 C1684.47626,220.801132 1675.14721,222 1665.56856,222 L1562,222 L1562,8 Z M1609,186 L1659.28169,186 C1663.87091,186 1668.26054,185.548474 1672.4507,184.645408 C1676.64087,183.742342 1680.33214,182.237255 1683.52465,180.130102 C1686.71715,178.022949 1689.26114,175.163283 1691.15669,171.55102 C1693.05224,167.938757 1694,163.323157 1694,157.704082 C1694,146.666611 1690.90731,138.78999 1684.72183,134.07398 C1678.53635,129.35797 1670.35568,127 1660.17958,127 L1609,127 L1609,186 Z M1919,222.1 L1878.63918,222.1 L1878.63918,200.5 L1877.74227,200.5 C1872.3608,209.500045 1865.38492,215.99998 1856.81443,220 C1848.24394,224.00002 1839.47427,226 1830.50515,226 C1819.14427,226 1809.8265,224.500015 1802.55155,221.5 C1795.2766,218.499985 1789.54641,214.250028 1785.36082,208.75 C1781.17524,203.249972 1778.2354,196.550039 1776.54124,188.65 C1774.84707,180.74996 1774,172.000048 1774,162.4 L1774,67 L1816.45361,67 L1816.45361,154.6 C1816.45361,167.400064 1818.44672,176.949969 1822.43299,183.25 C1826.41926,189.550031 1833.49479,192.7 1843.65979,192.7 C1855.21999,192.7 1863.59104,189.250034 1868.7732,182.35 C1873.95535,175.449965 1876.54639,164.100079 1876.54639,148.3 L1876.54639,67 L1919,67 L1919,222.1 Z M1990.30271,171.766544 C1990.30271,176.36093 1991.24808,180.30605 1993.13883,183.602022 C1995.02958,186.897994 1997.46763,189.594659 2000.45303,191.692096 C2003.43843,193.789533 2006.87159,195.337618 2010.75261,196.336397 C2014.63363,197.335177 2018.66386,197.834559 2022.84342,197.834559 C2025.82882,197.834559 2028.96345,197.484991 2032.24739,196.785846 C2035.53133,196.0867 2038.51669,194.988059 2041.20355,193.48989 C2043.89041,191.99172 2046.12943,189.994191 2047.92067,187.497243 C2049.71191,185.000294 2050.60752,181.854186 2050.60752,178.058824 C2050.60752,171.666635 2046.37826,166.872565 2037.91962,163.676471 C2029.46099,160.480376 2017.66883,157.28433 2002.5428,154.088235 C1996.37297,152.689944 1990.3525,151.041983 1984.48121,149.144301 C1978.60992,147.24662 1973.38555,144.749709 1968.80793,141.653493 C1964.23032,138.557276 1960.54838,134.662095 1957.762,129.967831 C1954.97563,125.273567 1953.58246,119.530671 1953.58246,112.738971 C1953.58246,102.751176 1955.52295,94.5613065 1959.40397,88.1691176 C1963.28499,81.7769288 1968.40985,76.733168 1974.77871,73.0376838 C1981.14756,69.3421997 1988.31242,66.7454119 1996.27349,65.2472426 C2004.23456,63.7490734 2012.39453,63 2020.75365,63 C2029.11278,63 2037.22299,63.7990116 2045.08455,65.3970588 C2052.94611,66.995106 2059.96169,69.6917702 2066.13152,73.4871324 C2072.30135,77.2824945 2077.42621,82.3262553 2081.50626,88.6185662 C2085.58631,94.910877 2088.02435,102.851055 2088.82046,112.439338 L2048.51775,112.439338 C2047.92067,104.249346 2044.8358,98.7062032 2039.26305,95.8097426 C2033.6903,92.9132821 2027.12252,91.4650735 2019.5595,91.4650735 C2017.17118,91.4650735 2014.58387,91.6148882 2011.79749,91.9145221 C2009.01112,92.2141559 2006.47357,92.8633528 2004.18476,93.8621324 C2001.89595,94.8609119 1999.95547,96.3091204 1998.36326,98.2068015 C1996.77104,100.104483 1995.97495,102.651332 1995.97495,105.847426 C1995.97495,109.642789 1997.36811,112.738959 2000.15449,115.136029 C2002.94086,117.5331 2006.57305,119.480691 2011.05115,120.97886 C2015.52925,122.47703 2020.65411,123.825362 2026.42589,125.023897 C2032.19766,126.222432 2038.06886,127.520826 2044.03967,128.919118 C2050.2095,130.317409 2056.22996,132.015309 2062.10125,134.012868 C2067.97254,136.010427 2073.19692,138.657153 2077.77453,141.953125 C2082.35215,145.249097 2086.03408,149.344032 2088.82046,154.238051 C2091.60683,159.132071 2093,165.174596 2093,172.365809 C2093,182.55336 2090.96001,191.092796 2086.87996,197.984375 C2082.79991,204.875954 2077.47602,210.419097 2070.90814,214.613971 C2064.34026,218.808845 2056.82711,221.7552 2048.36848,223.453125 C2039.90984,225.15105 2031.30206,226 2022.54489,226 C2013.58868,226 2004.83164,225.101112 1996.27349,223.303309 C1987.71534,221.505506 1980.10268,218.509212 1973.43528,214.314338 C1966.76789,210.119464 1961.29473,204.576321 1957.01566,197.684743 C1952.73658,190.793164 1950.39805,182.153851 1950,171.766544 L1990.30271,171.766544 Z M2167,43 L2125,43 L2125,8 L2167,8 L2167,43 Z M2125,67 L2167,67 L2167,222 L2125,222 L2125,67 Z M2206,67.1920904 L2246.36082,67.1920904 L2246.36082,88.7514124 L2247.25773,88.7514124 C2252.6392,79.7683167 2259.61508,73.2307173 2268.18557,69.1384181 C2276.75606,65.0461189 2285.52573,63 2294.49485,63 C2305.85573,63 2315.1735,64.5470655 2322.44845,67.6412429 C2329.7234,70.7354204 2335.45359,75.0272795 2339.63918,80.5169492 C2343.82476,86.0066188 2346.7646,92.6939342 2348.45876,100.579096 C2350.15293,108.464258 2351,117.197692 2351,126.779661 L2351,222 L2308.54639,222 L2308.54639,134.564972 C2308.54639,121.789013 2306.55328,112.257094 2302.56701,105.968927 C2298.58074,99.6807595 2291.50521,96.5367232 2281.34021,96.5367232 C2269.78001,96.5367232 2261.40896,99.9801916 2256.2268,106.867232 C2251.04465,113.754272 2248.45361,125.082784 2248.45361,140.853107 L2248.45361,222 L2206,222 L2206,67.1920904 Z M2493,128 C2491.00865,117.199946 2487.47405,109.000028 2482.3961,103.4 C2477.31816,97.799972 2469.60178,95 2459.24675,95 C2452.47616,95 2446.85067,96.1499885 2442.37013,98.45 C2437.88959,100.750011 2434.30521,103.599983 2431.61688,107 C2428.92856,110.400017 2427.0368,113.999981 2425.94156,117.8 C2424.84631,121.600019 2424.19914,124.999985 2424,128 L2493,128 Z M2424.38897,154.987132 C2424.986,168.77029 2428.46863,178.757935 2434.83696,184.950368 C2441.20529,191.142801 2450.35962,194.238971 2462.30024,194.238971 C2470.85768,194.238971 2478.22094,192.091627 2484.39026,187.796875 C2490.55958,183.502123 2494.34072,178.957745 2495.73379,174.163603 L2533.04803,174.163603 C2527.07772,192.740902 2517.92338,206.02447 2505.58475,214.014706 C2493.24611,222.004942 2478.32057,226 2460.80767,226 C2448.66804,226 2437.72264,224.052409 2427.97114,220.157169 C2418.21964,216.261929 2409.96083,210.718786 2403.19449,203.527574 C2396.42814,196.336361 2391.2042,187.746986 2387.52251,177.759191 C2383.84082,167.771396 2382,156.784986 2382,144.799632 C2382,133.21379 2383.89057,122.427133 2387.67176,112.439338 C2391.45296,102.451543 2396.82615,93.8122301 2403.79151,86.5211397 C2410.75687,79.2300493 2419.06543,73.4871533 2428.71742,69.2922794 C2438.36942,65.0974055 2449.06606,63 2460.80767,63 C2473.94234,63 2485.38526,65.5468495 2495.13676,70.640625 C2504.88827,75.7344005 2512.89831,82.5759374 2519.16713,91.1654412 C2525.43595,99.7549449 2529.96337,109.542837 2532.74951,120.529412 C2535.53566,131.515986 2536.53069,143.001778 2535.73465,154.987132 L2424.38897,154.987132 Z M2599.30271,171.766544 C2599.30271,176.36093 2600.24808,180.30605 2602.13883,183.602022 C2604.02958,186.897994 2606.46763,189.594659 2609.45303,191.692096 C2612.43843,193.789533 2615.87159,195.337618 2619.75261,196.336397 C2623.63363,197.335177 2627.66386,197.834559 2631.84342,197.834559 C2634.82882,197.834559 2637.96345,197.484991 2641.24739,196.785846 C2644.53133,196.0867 2647.51669,194.988059 2650.20355,193.48989 C2652.89041,191.99172 2655.12943,189.994191 2656.92067,187.497243 C2658.71191,185.000294 2659.60752,181.854186 2659.60752,178.058824 C2659.60752,171.666635 2655.37826,166.872565 2646.91962,163.676471 C2638.46099,160.480376 2626.66883,157.28433 2611.5428,154.088235 C2605.37297,152.689944 2599.3525,151.041983 2593.48121,149.144301 C2587.60992,147.24662 2582.38555,144.749709 2577.80793,141.653493 C2573.23032,138.557276 2569.54838,134.662095 2566.762,129.967831 C2563.97563,125.273567 2562.58246,119.530671 2562.58246,112.738971 C2562.58246,102.751176 2564.52295,94.5613065 2568.40397,88.1691176 C2572.28499,81.7769288 2577.40985,76.733168 2583.77871,73.0376838 C2590.14756,69.3421997 2597.31242,66.7454119 2605.27349,65.2472426 C2613.23456,63.7490734 2621.39453,63 2629.75365,63 C2638.11278,63 2646.22299,63.7990116 2654.08455,65.3970588 C2661.94611,66.995106 2668.96169,69.6917702 2675.13152,73.4871324 C2681.30135,77.2824945 2686.42621,82.3262553 2690.50626,88.6185662 C2694.58631,94.910877 2697.02435,102.851055 2697.82046,112.439338 L2657.51775,112.439338 C2656.92067,104.249346 2653.8358,98.7062032 2648.26305,95.8097426 C2642.6903,92.9132821 2636.12252,91.4650735 2628.5595,91.4650735 C2626.17118,91.4650735 2623.58387,91.6148882 2620.79749,91.9145221 C2618.01112,92.2141559 2615.47357,92.8633528 2613.18476,93.8621324 C2610.89595,94.8609119 2608.95547,96.3091204 2607.36326,98.2068015 C2605.77104,100.104483 2604.97495,102.651332 2604.97495,105.847426 C2604.97495,109.642789 2606.36811,112.738959 2609.15449,115.136029 C2611.94086,117.5331 2615.57305,119.480691 2620.05115,120.97886 C2624.52925,122.47703 2629.65411,123.825362 2635.42589,125.023897 C2641.19766,126.222432 2647.06886,127.520826 2653.03967,128.919118 C2659.2095,130.317409 2665.22996,132.015309 2671.10125,134.012868 C2676.97254,136.010427 2682.19692,138.657153 2686.77453,141.953125 C2691.35215,145.249097 2695.03408,149.344032 2697.82046,154.238051 C2700.60683,159.132071 2702,165.174596 2702,172.365809 C2702,182.55336 2699.96001,191.092796 2695.87996,197.984375 C2691.79991,204.875954 2686.47602,210.419097 2679.90814,214.613971 C2673.34026,218.808845 2665.82711,221.7552 2657.36848,223.453125 C2648.90984,225.15105 2640.30206,226 2631.54489,226 C2622.58868,226 2613.83164,225.101112 2605.27349,223.303309 C2596.71534,221.505506 2589.10268,218.509212 2582.43528,214.314338 C2575.76789,210.119464 2570.29473,204.576321 2566.01566,197.684743 C2561.73658,190.793164 2559.39805,182.153851 2559,171.766544 L2599.30271,171.766544 Z M2766.30271,171.766544 C2766.30271,176.36093 2767.24808,180.30605 2769.13883,183.602022 C2771.02958,186.897994 2773.46763,189.594659 2776.45303,191.692096 C2779.43843,193.789533 2782.87159,195.337618 2786.75261,196.336397 C2790.63363,197.335177 2794.66386,197.834559 2798.84342,197.834559 C2801.82882,197.834559 2804.96345,197.484991 2808.24739,196.785846 C2811.53133,196.0867 2814.51669,194.988059 2817.20355,193.48989 C2819.89041,191.99172 2822.12943,189.994191 2823.92067,187.497243 C2825.71191,185.000294 2826.60752,181.854186 2826.60752,178.058824 C2826.60752,171.666635 2822.37826,166.872565 2813.91962,163.676471 C2805.46099,160.480376 2793.66883,157.28433 2778.5428,154.088235 C2772.37297,152.689944 2766.3525,151.041983 2760.48121,149.144301 C2754.60992,147.24662 2749.38555,144.749709 2744.80793,141.653493 C2740.23032,138.557276 2736.54838,134.662095 2733.762,129.967831 C2730.97563,125.273567 2729.58246,119.530671 2729.58246,112.738971 C2729.58246,102.751176 2731.52295,94.5613065 2735.40397,88.1691176 C2739.28499,81.7769288 2744.40985,76.733168 2750.77871,73.0376838 C2757.14756,69.3421997 2764.31242,66.7454119 2772.27349,65.2472426 C2780.23456,63.7490734 2788.39453,63 2796.75365,63 C2805.11278,63 2813.22299,63.7990116 2821.08455,65.3970588 C2828.94611,66.995106 2835.96169,69.6917702 2842.13152,73.4871324 C2848.30135,77.2824945 2853.42621,82.3262553 2857.50626,88.6185662 C2861.58631,94.910877 2864.02435,102.851055 2864.82046,112.439338 L2824.51775,112.439338 C2823.92067,104.249346 2820.8358,98.7062032 2815.26305,95.8097426 C2809.6903,92.9132821 2803.12252,91.4650735 2795.5595,91.4650735 C2793.17118,91.4650735 2790.58387,91.6148882 2787.79749,91.9145221 C2785.01112,92.2141559 2782.47357,92.8633528 2780.18476,93.8621324 C2777.89595,94.8609119 2775.95547,96.3091204 2774.36326,98.2068015 C2772.77104,100.104483 2771.97495,102.651332 2771.97495,105.847426 C2771.97495,109.642789 2773.36811,112.738959 2776.15449,115.136029 C2778.94086,117.5331 2782.57305,119.480691 2787.05115,120.97886 C2791.52925,122.47703 2796.65411,123.825362 2802.42589,125.023897 C2808.19766,126.222432 2814.06886,127.520826 2820.03967,128.919118 C2826.2095,130.317409 2832.22996,132.015309 2838.10125,134.012868 C2843.97254,136.010427 2849.19692,138.657153 2853.77453,141.953125 C2858.35215,145.249097 2862.03408,149.344032 2864.82046,154.238051 C2867.60683,159.132071 2869,165.174596 2869,172.365809 C2869,182.55336 2866.96001,191.092796 2862.87996,197.984375 C2858.79991,204.875954 2853.47602,210.419097 2846.90814,214.613971 C2840.34026,218.808845 2832.82711,221.7552 2824.36848,223.453125 C2815.90984,225.15105 2807.30206,226 2798.54489,226 C2789.58868,226 2780.83164,225.101112 2772.27349,223.303309 C2763.71534,221.505506 2756.10268,218.509212 2749.43528,214.314338 C2742.76789,210.119464 2737.29473,204.576321 2733.01566,197.684743 C2728.73658,190.793164 2726.39805,182.153851 2726,171.766544 L2766.30271,171.766544 Z" id="Business" fill="#FFFFFF"></path>
        </g>
    </g>
</svg>