<svg height="226" viewBox="0 0 2869 226" width="2869" xmlns="http://www.w3.org/2000/svg"><g fill="none"><path d="m47.0719373 94.6602476h47.6715799c8.3950368 0 15.2908568-1.999063 20.6876668-5.997249 5.39681-3.9981859 8.095174-10.4951407 8.095174-19.4910591 0-4.9977325-.899455-9.0958116-2.698391-12.2943604-1.798937-3.1985488-4.197483-5.6973775-7.195711-7.4965612-2.998227-1.7991837-6.446137-3.0485981-10.343833-3.7482806-3.8976958-.6996826-7.9452423-1.0495186-12.1427609-1.0495186h-44.0737248zm-47.0719373-86.6602476h100.739942c10.193974 0 19.48834.89957835 27.883377 2.698762 8.395037 1.7991837 15.590676 4.7478016 21.587131 8.8459423 5.996455 4.0981406 10.643638 9.5455873 13.941688 16.3425034 3.29805 6.7969162 4.947051 15.1929807 4.947051 25.1884457 0 10.7951021-2.448516 19.7908856-7.345621 26.9876203-4.897105 7.1967348-12.142713 13.0939703-21.737041 17.6918843 13.192201 3.798277 23.036234 10.445161 29.532394 19.940853 6.496159 9.495692 9.744191 20.940327 9.744191 34.33425 0 10.795102-2.098728 20.140722-6.296247 28.037139-4.197518 7.896418-9.844096 14.343396-16.939901 19.341128-7.095805 4.997733-15.190898 8.695999-24.285522 11.094911-9.094623 2.398911-18.438959 3.598349-28.033287 3.598349h-103.738155zm47.0719373 177.518569h50.3699712c4.5972825 0 8.9946165-.449789 13.1921355-1.349381 4.197518-.899591 7.895277-2.398889 11.093386-4.497936 3.19811-2.099048 5.746565-4.947713 7.645442-8.54608 1.898878-3.598367 2.848302-8.196212 2.848302-13.793673 0-10.995011-3.098122-18.841333-9.294459-23.539202-6.196337-4.697868-14.391369-7.046767-24.5853427-7.046767h-51.269435zm159.5581377-70.767537c.599645-9.995465 3.098131-18.2915767 7.495531-24.8885836 4.397401-6.5970068 9.994008-11.8945238 16.789991-15.8927097 6.795982-3.998186 14.441348-6.8468508 22.936326-8.5460798 8.494978-1.6992291 17.039798-2.5488308 25.634717-2.5488308 7.795392 0 15.690606.5497423 23.685879 1.6492434 7.995274 1.0995012 15.290852 3.2484939 21.886952 6.4470427 6.596101 3.1985487 11.992829 7.6464639 16.190348 13.3438789s6.296246 13.2438778 6.296246 22.6396149v80.662999c0 6.996825.399758 13.693686 1.199285 20.090784.799528 6.397097 2.19868 11.194848 4.197498 14.393397h-43.174261c-.799527-2.398911-1.449133-4.847764-1.948838-7.34663s-.849493-5.047671-1.049374-7.646492c-6.795983 6.996825-14.791137 11.89453-23.985701 14.69326-9.194565 2.79873-18.58887 4.198074-28.183198 4.198074-7.395628 0-14.291448-.899578-20.687667-2.698762s-11.992826-4.597872-16.78999-8.396149c-4.797164-3.798276-8.544893-8.596027-11.243297-14.393397-2.698405-5.79737-4.047587-12.694137-4.047587-20.690509 0-8.796009 1.549061-16.042613 4.647229-21.740028 3.098169-5.697415 7.095745-10.245283 11.99285-13.643741s10.493713-5.947263 16.789991-7.646492 12.642431-3.048597 19.03865-4.048143c6.396218-.999547 12.692402-1.799172 18.888739-2.3989s11.693005-1.499306 16.490169-2.698762 8.594862-2.948636 11.393208-5.247593c2.798345-2.298957 4.097558-5.647387 3.897676-10.045392 0-4.597914-.749546-8.246204-2.248659-10.944979-1.499114-2.6987758-3.497903-4.797792-5.996426-6.2971117-2.498523-1.4993198-5.396766-2.4988513-8.694816-2.9986245-3.29805-.4997733-6.8459-.7496561-10.643655-.7496561-8.395037 0-14.991039 1.7991567-19.788203 5.397524s-7.595467 9.5955563-8.394995 17.9917473zm98.341372 31.485557c-1.798937 1.599274-4.047573 2.848688-6.745978 3.74828s-5.596648 1.649241-8.694817 2.248969c-3.098168.599728-6.346199 1.099493-9.744191 1.499312-3.397991.399819-6.795931.899584-10.193922 1.499312-3.19811.599728-6.346201 1.399353-9.44437 2.3989-3.098168.999546-5.796533 2.348914-8.095174 4.048143s-4.14752 3.848222-5.546693 6.447042c-1.399173 2.598821-2.098749 5.897275-2.098749 9.895461 0 3.798277.699576 6.996778 2.098749 9.595599 1.399173 2.59882 3.298022 4.64786 5.696604 6.14718s5.196886 2.548828 8.394995 3.148556c3.198109.599727 6.49611.899587 9.894101.899587 8.395038 0 14.8911-1.399344 19.488382-4.198074 4.597282-2.798731 7.995223-6.147161 10.193923-10.045392 2.1987-3.898232 3.547882-7.846381 4.047587-11.844567.499704-3.998186.749553-7.196687.749553-9.595599zm77.407113-79.1636867h40.47587v28.7867951h.599642c1.998819-4.7978232 4.697183-9.2457383 8.095174-13.343879 3.397991-4.0981406 7.295629-7.5965008 11.693029-10.4951857 4.397401-2.8986848 9.094553-5.1476307 14.091599-6.7469051 4.997046-1.5992743 10.193896-2.3988995 15.590706-2.3988995 2.798345 0 5.896467.4997657 9.294459 1.4993122v39.5818427c-1.998819-.399818-4.397365-.749654-7.195711-1.049518-2.798345-.299864-5.49671-.449794-8.095174-.449794-7.795391 0-14.391393 1.299391-19.788203 3.898212-5.396809 2.598821-9.744174 6.147158-13.042224 10.645117-3.298051 4.497959-5.646627 9.7455-7.0458 15.742779-1.399173 5.997278-2.098749 12.494233-2.098749 19.491059v69.86795h-42.574618zm127.777084 28.4869326v-28.4869326-11.9944979c0-13.7937416 4.297395-25.0884475 12.892314-33.8844567 8.594919-8.7960091 21.587044-13.1939477 38.976764-13.1939477 3.797755 0 7.595452.14992972 11.393207.44979367s7.495514.54974683 11.093387.74965612v31.78541951c-4.997046-.5997279-10.193896-.8995873-15.590705-.8995873-5.796574 0-9.94406 1.3493675-12.442583 4.048143-2.498523 2.6987756-3.747765 7.2466439-3.747765 13.6437414v9.2957359h29.382483v28.4869326h-29.382483v126.5419531h-42.574619zm92.398176-28.4869326h40.47587v28.7867951h.599642c1.998819-4.7978232 4.697183-9.2457383 8.095174-13.343879 3.397991-4.0981406 7.295629-7.5965008 11.693029-10.4951857 4.397401-2.8986848 9.094553-5.1476307 14.091599-6.7469051 4.997046-1.5992743 10.193896-2.3988995 15.590706-2.3988995 2.798345 0 5.896467.4997657 9.294459 1.4993122v39.5818427c-1.998819-.399818-4.397365-.749654-7.195711-1.049518-2.798345-.299864-5.49671-.449794-8.095174-.449794-7.795391 0-14.391393 1.299391-19.788202 3.898212-5.39681 2.598821-9.744175 6.147158-13.042225 10.645117s-5.646627 9.7455-7.0458 15.742779c-1.399173 5.997278-2.098748 12.494233-2.098748 19.491059v69.86795h-42.574619zm141.68191-25.0729023h-1c-11.597979 0-21-9.4020203-21-21 0-11.59797975 9.402021-21 21-21h1c11.59798 0 21 9.40202025 21 21 0 11.5979797-9.40202 21-21 21zm-22 25.0729023h42.574619v155.0288857h-42.574619zm182.344553 60.8720767c-1.998818-10.795102-5.546668-18.99126-10.643654-24.58872-5.096987-5.5974608-12.842292-8.396149-23.236148-8.396149-6.795982 0-12.44256 1.1494613-16.939901 3.4484182-4.497341 2.2989568-8.09516 5.1476218-10.793565 8.5460798s-4.597254 6.996771-5.696604 10.795048-1.748956 7.196684-1.948838 10.195323zm-69.25871 26.987621c.599645 13.793741 4.097525 23.789056 10.493744 29.986245 6.396219 6.197188 15.590645 9.295735 27.583555 9.295735 8.594919 0 15.990437-2.148992 22.186773-6.447042 6.196337-4.29805 9.994035-8.845918 11.393208-13.643742h37.477657c-5.996455 18.591565-15.190881 31.885334-27.583555 39.881706s-27.383587 11.994498-44.973189 11.994498c-12.192792 0-23.186128-1.949086-32.980338-5.847318-9.79421-3.898231-18.089182-9.445631-24.885164-16.642366-6.795983-7.196734-12.042802-15.792705-15.740616-25.78817s-5.546694-20.990312-5.546694-32.98487c0-11.594739 1.898849-22.389679 5.696604-32.385144s9.194484-18.6414123 16.190348-25.9381017 15.340806-13.0439956 25.035075-17.2420908c9.694269-4.1980953 20.437757-6.2971114 32.230785-6.2971114 13.192201 0 24.685235 2.5488053 34.479445 7.6464924s17.839333 11.9444779 24.135611 20.5405777 10.843521 18.3915088 13.641867 29.3865198c2.798346 10.995012 3.79774 22.489624 2.998213 34.484182zm138.870471-87.8596977h40.475866v21.5900963h.89947c5.39681-8.9959184 12.39257-15.5428497 20.98748-19.6409903 8.59492-4.0981407 17.38959-6.1471802 26.38428-6.1471802 11.39326 0 20.7376 1.5492738 28.03328 4.6478679 7.29569 3.0985941 13.04221 7.3965796 17.23973 12.8940853 4.19751 5.4975057 7.14573 12.1943667 8.84472 20.0907837 1.699 7.896418 2.54848 16.642318 2.54848 26.237965v95.356258h-42.57462v-87.559835c0-12.794195-1.99878-22.339721-5.99642-28.636864-3.99764-6.2971425-11.09334-9.4456667-21.28731-9.4456667-11.59315 0-19.98806 3.4483837-25.18499 10.3452547-5.19692 6.896871-7.79535 18.241553-7.79535 34.034388v81.262723h-42.574616zm289.680566 77.0646497c0-6.397098-.59964-12.544217-1.79893-18.441541s-3.24805-11.094888-6.14634-15.592847c-2.89828-4.49796-6.64601-8.14625-11.24329-10.9449797-4.59729-2.7987302-10.39377-4.1980743-17.38964-4.1980743-6.99586 0-12.89229 1.3993441-17.68945 4.1980743-4.79717 2.7987297-8.64483 6.4969967-11.54312 11.0949107s-4.99701 9.845454-6.29625 15.742778c-1.29923 5.897325-1.94883 12.044443-1.94883 18.441541 0 5.997279.69957 11.994468 2.09874 17.991747 1.39918 5.997279 3.64781 11.344772 6.74598 16.042641 3.09817 4.697868 6.99581 8.496088 11.69303 11.394773 4.69723 2.898685 10.3438 4.348005 16.9399 4.348005 6.99587 0 12.84232-1.399344 17.53955-4.198074 4.69722-2.79873 8.44495-6.546973 11.24329-11.244842 2.79835-4.697868 4.79714-10.045362 5.99643-16.042641s1.79893-12.194374 1.79893-18.591471zm.59964 58.173315h-.59964c-4.99705 8.39619-11.54308 14.443356-19.6383 18.141678-8.09521 3.698322-17.23967 5.547455-27.43364 5.547455-11.59315 0-21.78697-2.248946-30.58177-6.746905s-16.04041-10.595101-21.73704-18.291609-9.99403-16.542362-12.89231-26.537827c-2.89829-9.995465-4.34741-20.390593-4.34741-31.185695 0-10.395283 1.44912-20.440575 4.34741-30.136176 2.89828-9.695601 7.19568-18.2415951 12.89231-25.6382392 5.69663-7.396644 12.8423-13.3438564 21.43722-17.8418157 8.59492-4.4979592 18.58886-6.746905 29.98213-6.746905 9.19456 0 17.93926 1.9490864 26.23436 5.8473177 8.29509 3.8982313 14.84112 9.6455374 19.63829 17.2420908h.59964v-77.9642366h42.57462v214.101788h-40.47587zm107.38924-30.58597c0 4.597914.94942 8.546063 2.8483 11.844567 1.89888 3.298503 4.34739 5.997238 7.34562 8.096286 2.99823 2.099047 6.44614 3.648321 10.34383 4.647868 3.8977.999546 7.94525 1.499312 12.14276 1.499312 2.99823 0 6.14632-.349836 9.44437-1.049519 3.29805-.699682 6.29624-1.799167 8.99464-3.298487 2.69841-1.499319 4.94704-3.498382 6.74598-5.997249 1.79894-2.498866 2.69839-5.64739 2.69839-9.445667 0-6.397097-4.24742-11.194848-12.7424-14.393397s-20.3378-6.39705-35.52882-9.595599c-6.19634-1.399365-12.24267-3.048592-18.13919-4.94773-5.89651-1.899138-11.14333-4.397967-15.74061-7.496561-4.59729-3.098594-8.29504-6.996767-11.09339-11.694636-2.79835-4.697868-4.1975-10.445174-4.1975-17.242091 0-9.995464 1.94882-18.1916227 5.84652-24.5887203 3.89769-6.3970975 9.04457-11.4447316 15.44079-15.1430536s13.59186-6.2971039 21.58713-7.7964237c7.99528-1.4993197 16.19031-2.2489683 24.58535-2.2489683 8.39503 0 16.5401.7996252 24.43543 2.3988995 7.89533 1.5992744 14.94106 4.2980095 21.1374 8.0962862 6.19633 3.7982766 11.34321 8.8459107 15.44079 15.1430536s6.5461 14.2434186 7.34562 23.8390646h-40.47587c-.59964-8.196281-3.69776-13.743681-9.29446-16.6423658-5.59669-2.8986849-12.19269-4.3480055-19.7882-4.3480055-2.39858 0-4.99701.1499297-7.79535.4497936-2.79835.299864-5.3468.9495595-7.64544 1.9491059-2.29865.9995465-4.24746 2.4488672-5.84652 4.3480055-1.59905 1.8991383-2.39857 4.4479433-2.39857 7.6464923 0 3.798277 1.39915 6.896825 4.1975 9.295736 2.79834 2.398912 6.44613 4.347998 10.94347 5.847318 4.49735 1.49932 9.64423 2.848687 15.4408 4.048143s11.693 2.498847 17.68945 3.898212c6.19634 1.399365 12.24268 3.098568 18.13919 5.097661s11.14333 4.647852 15.74062 7.946355c4.59728 3.298504 8.29504 7.396583 11.09338 12.294361 2.79835 4.897777 4.1975 10.944943 4.1975 18.141678 0 10.195374-2.04876 18.741368-6.14634 25.638239-4.09757 6.896871-9.44433 12.444271-16.04043 16.642366s-14.14153 7.146713-22.63651 8.845942-17.13974 2.548831-25.93454 2.548831c-8.99468 0-17.78935-.899578-26.38427-2.698762s-16.24028-4.797778-22.93632-8.995873c-6.69604-4.198096-12.19271-9.745496-16.49017-16.642366-4.29746-6.896871-6.64604-15.542819-7.0458-25.938102z" fill="#ff7000"/><path d="m1609 95h47.38824c8.34514 0 15.19997-1.995988 20.5647-5.988024 5.36473-3.9920359 8.04706-10.478997 8.04706-19.4610778 0-4.9900449-.89411-9.0818204-2.68235-12.2754491-1.78825-3.1936287-4.17254-5.6886138-7.15294-7.4850299-2.98041-1.7964162-6.40783-3.0439087-10.28236-3.742515s-7.89802-1.0479042-12.07059-1.0479042h-43.81176zm-47-87h100.57525c10.17731 0 19.45648.89915067 27.83779 2.697479 8.38132 1.7983283 15.56519 4.7455444 21.55184 8.8417367s10.62624 9.5410491 13.9189 16.3347339c3.29266 6.7936847 4.93896 15.1857577 4.93896 25.1764706 0 10.7899699-2.44451 19.7814766-7.33361 26.9747899s-12.12286 13.0877459-21.7015 17.6834729c13.17063 3.796471 22.99857 10.440196 29.48411 19.931373s9.72826 20.930372 9.72826 34.317927c0 10.78997-2.0953 20.131147-6.28595 28.02381-4.19066 7.892663-9.82801 14.336576-16.91221 19.331932-7.08421 4.995357-15.16606 8.691865-24.24582 11.089636s-18.40881 3.596639-27.98746 3.596639h-103.56856zm47 178h50.28169c4.58922 0 8.97885-.451526 13.16901-1.354592 4.19017-.903066 7.88144-2.408153 11.07395-4.515306 3.1925-2.107153 5.73649-4.966819 7.63204-8.579082s2.84331-8.227863 2.84331-13.846938c0-11.037471-3.09269-18.914092-9.27817-23.630102s-14.36615-7.07398-24.54225-7.07398h-51.17958zm310 36.1h-40.36082v-21.6h-.89691c-5.38147 9.000045-12.35735 15.49998-20.92784 19.5s-17.34016 6-26.30928 6c-11.36088 0-20.67865-1.499985-27.9536-4.5s-13.00514-7.249972-17.19073-12.75c-4.18558-5.500028-7.12542-12.199961-8.81958-20.1-1.69417-7.90004-2.54124-16.649952-2.54124-26.25v-95.4h42.45361v87.6c0 12.800064 1.99311 22.349969 5.97938 28.65s11.0618 9.45 21.2268 9.45c11.5602 0 19.93125-3.449966 25.11341-10.35 5.18215-6.900035 7.77319-18.249921 7.77319-34.05v-81.3h42.45361zm71.30271-50.333456c0 4.594386.94537 8.539506 2.83612 11.835478s4.3288 5.992637 7.3142 8.090074 6.41856 3.645522 10.29958 4.644301c3.88102.99878 7.91125 1.498162 12.09081 1.498162 2.9854 0 6.12003-.349568 9.40397-1.048713 3.28394-.699146 6.2693-1.797787 8.95616-3.295956 2.68686-1.49817 4.92588-3.495699 6.71712-5.992647 1.79124-2.496949 2.68685-5.643057 2.68685-9.438419 0-6.392189-4.22926-11.186259-12.6879-14.382353-8.45863-3.196095-20.25079-6.392141-35.37682-9.588236-6.16983-1.398291-12.1903-3.046252-18.06159-4.943934-5.87129-1.897681-11.09566-4.394592-15.67328-7.490808-4.57761-3.096217-8.25955-6.991398-11.04593-11.685662-2.78637-4.694264-4.17954-10.43716-4.17954-17.22886 0-9.987795 1.94049-18.1776645 5.82151-24.5698534 3.88102-6.3921888 9.00588-11.4359496 15.37474-15.1314338 6.36885-3.6954841 13.53371-6.2922719 21.49478-7.7904412 7.96107-1.4981692 16.12104-2.2472426 24.48016-2.2472426 8.35913 0 16.46934.7990116 24.3309 2.3970588s14.87714 4.2947114 21.04697 8.0900736c6.16983 3.7953621 11.29469 8.8391229 15.37474 15.1314338 4.08005 6.2923108 6.51809 14.2324888 7.3142 23.8207718h-40.30271c-.59708-8.189992-3.68195-13.7331348-9.2547-16.6295954-5.57275-2.8964605-12.14053-4.3446691-19.70355-4.3446691-2.38832 0-4.97563.1498147-7.76201.4494486-2.78637.2996338-5.32392.9488307-7.61273 1.9476103-2.28881.9987795-4.22929 2.446988-5.8215 4.3446691-1.59222 1.8976815-2.38831 4.4445305-2.38831 7.6406245 0 3.795363 1.39316 6.891533 4.17954 9.288603 2.78637 2.397071 6.41856 4.344662 10.89666 5.842831 4.4781 1.49817 9.60296 2.846502 15.37474 4.045037 5.77177 1.198535 11.64297 2.496929 17.61378 3.895221 6.16983 1.398291 12.19029 3.096191 18.06158 5.09375s11.09567 4.644285 15.67328 7.940257c4.57762 3.295972 8.25955 7.390907 11.04593 12.284926 2.78637 4.89402 4.17954 10.936545 4.17954 18.127758 0 10.187551-2.03999 18.726987-6.12004 25.618566s-9.40394 12.434722-15.97182 16.629596-14.08103 7.141229-22.53966 8.839154c-8.45864 1.697925-17.06642 2.546875-25.82359 2.546875-8.95621 0-17.71325-.898888-26.2714-2.696691s-16.17081-4.794097-22.83821-8.988971c-6.66739-4.194874-12.14055-9.738017-16.41962-16.629595-4.27908-6.891579-6.61761-15.530892-7.01566-25.918199zm176.69729-128.766544h-42v-35h42zm-42 24h42v155h-42zm81 .1920904h40.36082v21.559322h.89691c5.38147-8.9830957 12.35735-15.5206951 20.92784-19.6129943s17.34016-6.1384181 26.30928-6.1384181c11.36088 0 20.67865 1.5470655 27.9536 4.6412429 7.27495 3.0941775 13.00514 7.3860366 17.19073 12.8757063 4.18558 5.4896696 7.12542 12.176985 8.81958 20.0621468 1.69417 7.885162 2.54124 16.618596 2.54124 26.200565v95.220339h-42.45361v-87.435028c0-12.775959-1.99311-22.307878-5.97938-28.596045-3.98627-6.2881675-11.0618-9.4322038-21.2268-9.4322038-11.5602 0-19.93125 3.4434684-25.11341 10.3305088-5.18215 6.88704-7.77319 18.215552-7.77319 33.985875v81.146893h-42.45361zm287 60.8079096c-1.99135-10.800054-5.52595-18.999972-10.6039-24.6-5.07794-5.600028-12.79432-8.4-23.14935-8.4-6.77059 0-12.39608 1.1499885-16.87662 3.45-4.48054 2.300011-8.06492 5.149983-10.75325 8.55-2.68832 3.400017-4.58008 6.999981-5.67532 10.8-1.09525 3.800019-1.74242 7.199985-1.94156 10.2zm-68.61103 26.987132c.59703 13.783158 4.07966 23.770803 10.44799 29.963236s15.52266 9.288603 27.46328 9.288603c8.55744 0 15.9207-2.147344 22.09002-6.442096s9.95046-8.83913 11.34353-13.633272h37.31424c-5.97031 18.577299-15.12465 31.860867-27.46328 39.851103-12.33864 7.990236-27.26418 11.985294-44.77708 11.985294-12.13963 0-23.08503-1.947591-32.83653-5.842831s-18.01031-9.438383-24.77665-16.629595c-6.76635-7.191213-11.99029-15.780588-15.67198-25.768383s-5.52251-20.974205-5.52251-32.959559c0-11.585842 1.89057-22.372499 5.67176-32.360294 3.7812-9.987795 9.15439-18.6271079 16.11975-25.9181983s15.27392-13.0339864 24.92591-17.2288603c9.652-4.1948739 20.34864-6.2922794 32.09025-6.2922794 13.13467 0 24.57759 2.5468495 34.32909 7.640625 9.75151 5.0937755 17.76155 11.9353124 24.03037 20.5248162 6.26882 8.5895037 10.79624 18.3773958 13.58238 29.3639708 2.78615 10.986574 3.78118 22.472366 2.98514 34.45772zm174.91374 16.779412c0 4.594386.94537 8.539506 2.83612 11.835478s4.3288 5.992637 7.3142 8.090074 6.41856 3.645522 10.29958 4.644301c3.88102.99878 7.91125 1.498162 12.09081 1.498162 2.9854 0 6.12003-.349568 9.40397-1.048713 3.28394-.699146 6.2693-1.797787 8.95616-3.295956 2.68686-1.49817 4.92588-3.495699 6.71712-5.992647 1.79124-2.496949 2.68685-5.643057 2.68685-9.438419 0-6.392189-4.22926-11.186259-12.6879-14.382353-8.45863-3.196095-20.25079-6.392141-35.37682-9.588236-6.16983-1.398291-12.1903-3.046252-18.06159-4.943934-5.87129-1.897681-11.09566-4.394592-15.67328-7.490808-4.57761-3.096217-8.25955-6.991398-11.04593-11.685662-2.78637-4.694264-4.17954-10.43716-4.17954-17.22886 0-9.987795 1.94049-18.1776645 5.82151-24.5698534 3.88102-6.3921888 9.00588-11.4359496 15.37474-15.1314338 6.36885-3.6954841 13.53371-6.2922719 21.49478-7.7904412 7.96107-1.4981692 16.12104-2.2472426 24.48016-2.2472426 8.35913 0 16.46934.7990116 24.3309 2.3970588s14.87714 4.2947114 21.04697 8.0900736c6.16983 3.7953621 11.29469 8.8391229 15.37474 15.1314338 4.08005 6.2923108 6.51809 14.2324888 7.3142 23.8207718h-40.30271c-.59708-8.189992-3.68195-13.7331348-9.2547-16.6295954-5.57275-2.8964605-12.14053-4.3446691-19.70355-4.3446691-2.38832 0-4.97563.1498147-7.76201.4494486-2.78637.2996338-5.32392.9488307-7.61273 1.9476103-2.28881.9987795-4.22929 2.446988-5.8215 4.3446691-1.59222 1.8976815-2.38831 4.4445305-2.38831 7.6406245 0 3.795363 1.39316 6.891533 4.17954 9.288603 2.78637 2.397071 6.41856 4.344662 10.89666 5.842831 4.4781 1.49817 9.60296 2.846502 15.37474 4.045037 5.77177 1.198535 11.64297 2.496929 17.61378 3.895221 6.16983 1.398291 12.19029 3.096191 18.06158 5.09375s11.09567 4.644285 15.67328 7.940257c4.57762 3.295972 8.25955 7.390907 11.04593 12.284926 2.78637 4.89402 4.17954 10.936545 4.17954 18.127758 0 10.187551-2.03999 18.726987-6.12004 25.618566s-9.40394 12.434722-15.97182 16.629596-14.08103 7.141229-22.53966 8.839154c-8.45864 1.697925-17.06642 2.546875-25.82359 2.546875-8.95621 0-17.71325-.898888-26.2714-2.696691s-16.17081-4.794097-22.83821-8.988971c-6.66739-4.194874-12.14055-9.738017-16.41962-16.629595-4.27908-6.891579-6.61761-15.530892-7.01566-25.918199zm167 0c0 4.594386.94537 8.539506 2.83612 11.835478s4.3288 5.992637 7.3142 8.090074 6.41856 3.645522 10.29958 4.644301c3.88102.99878 7.91125 1.498162 12.09081 1.498162 2.9854 0 6.12003-.349568 9.40397-1.048713 3.28394-.699146 6.2693-1.797787 8.95616-3.295956 2.68686-1.49817 4.92588-3.495699 6.71712-5.992647 1.79124-2.496949 2.68685-5.643057 2.68685-9.438419 0-6.392189-4.22926-11.186259-12.6879-14.382353-8.45863-3.196095-20.25079-6.392141-35.37682-9.588236-6.16983-1.398291-12.1903-3.046252-18.06159-4.943934-5.87129-1.897681-11.09566-4.394592-15.67328-7.490808-4.57761-3.096217-8.25955-6.991398-11.04593-11.685662-2.78637-4.694264-4.17954-10.43716-4.17954-17.22886 0-9.987795 1.94049-18.1776645 5.82151-24.5698534 3.88102-6.3921888 9.00588-11.4359496 15.37474-15.1314338 6.36885-3.6954841 13.53371-6.2922719 21.49478-7.7904412 7.96107-1.4981692 16.12104-2.2472426 24.48016-2.2472426 8.35913 0 16.46934.7990116 24.3309 2.3970588s14.87714 4.2947114 21.04697 8.0900736c6.16983 3.7953621 11.29469 8.8391229 15.37474 15.1314338 4.08005 6.2923108 6.51809 14.2324888 7.3142 23.8207718h-40.30271c-.59708-8.189992-3.68195-13.7331348-9.2547-16.6295954-5.57275-2.8964605-12.14053-4.3446691-19.70355-4.3446691-2.38832 0-4.97563.1498147-7.76201.4494486-2.78637.2996338-5.32392.9488307-7.61273 1.9476103-2.28881.9987795-4.22929 2.446988-5.8215 4.3446691-1.59222 1.8976815-2.38831 4.4445305-2.38831 7.6406245 0 3.795363 1.39316 6.891533 4.17954 9.288603 2.78637 2.397071 6.41856 4.344662 10.89666 5.842831 4.4781 1.49817 9.60296 2.846502 15.37474 4.045037 5.77177 1.198535 11.64297 2.496929 17.61378 3.895221 6.16983 1.398291 12.19029 3.096191 18.06158 5.09375s11.09567 4.644285 15.67328 7.940257c4.57762 3.295972 8.25955 7.390907 11.04593 12.284926 2.78637 4.89402 4.17954 10.936545 4.17954 18.127758 0 10.187551-2.03999 18.726987-6.12004 25.618566s-9.40394 12.434722-15.97182 16.629596-14.08103 7.141229-22.53966 8.839154c-8.45864 1.697925-17.06642 2.546875-25.82359 2.546875-8.95621 0-17.71325-.898888-26.2714-2.696691s-16.17081-4.794097-22.83821-8.988971c-6.66739-4.194874-12.14055-9.738017-16.41962-16.629595-4.27908-6.891579-6.61761-15.530892-7.01566-25.918199z" fill="#fff"/></g></svg>