<?xml version="1.0" encoding="UTF-8"?>
<svg width="1455px" height="873px" viewBox="0 0 1455 873" version="1.1" xmlns="http://www.w3.org/2000/svg" xmlns:xlink="http://www.w3.org/1999/xlink">
    <!-- Generator: Sketch 53.2 (72643) - https://sketchapp.com -->
    <title>BetterEvents</title>
    <desc>Created with Sketch.</desc>
    <g id="BetterEvents" stroke="none" stroke-width="1" fill="none" fill-rule="evenodd">
        <rect fill="#01050C" x="0" y="0" width="1455" height="873"></rect>
        <g id="concert" transform="translate(-110.000000, -345.000000)">
            <path d="M1565,723.5 C1565,323.985691 1217.77529,0 815.5,0 C413.224708,0 87,323.985691 87,723.5 C87,1123.01431 413.224708,1447 815.5,1447 C1217.77529,1447 1565,1123.01431 1565,723.5 Z" id="Path" fill="#1E1859" fill-rule="nonzero"></path>
            <path d="M1488,780.5 C1488,409.147723 1186.85228,108 815.5,108 C444.147723,108 143,409.147723 143,780.5 C143,1151.85228 444.147723,1453 815.5,1453 C1186.85228,1453 1488,1151.85228 1488,780.5 Z" id="Path" fill="#EA4949" fill-rule="nonzero"></path>
            <polygon id="Rectangle" fill="#8B7ADF" transform="translate(434.525808, 731.449631) rotate(-8.000000) translate(-434.525808, -731.449631) " points="215.646572 590.756079 280.044866 510.309986 653.405044 856.937789 233.596858 952.589276"></polygon>
            <path d="M1103.90605,580.826806 L1168.30435,500.380713 L1423.04185,882.688478 L1156.62896,974.513471 L1155.86928,973.32109 C1150.09327,959.502418 1145.97609,948.546779 1143.51775,940.454173 C1139.5949,927.540577 1135.53835,907.449671 1132.90487,894.238445 C1119.52797,827.131252 1109.8617,722.660705 1103.90605,580.826806 Z" id="Rectangle" fill="#50E3C2" transform="translate(1263.473955, 737.447092) scale(-1, 1) rotate(-6.000000) translate(-1263.473955, -737.447092) "></path>
            <polygon id="Rectangle" fill="#8B7ADF" transform="translate(837.624009, 768.701279) scale(-1, 1) rotate(29.000000) translate(-837.624009, -768.701279) " points="649.261393 564.748328 767.352708 577.75437 1025.98663 901.053838 853.646328 972.65423"></polygon>
            <path d="M927.462428,662.026731 C1355.30099,662.026731 1715.13377,445.671194 1822,151.148496 L1816.76879,151.148496 C1815.64781,84.7064082 1755.11519,31.1060688 1680.38357,31.1060688 C1687.21372,-4.3594918 1545.71661,127.014847 1545.71661,163.622061 C1545.71661,168.163764 1560.54297,161.483979 1550.34108,168.163764 C1547.49825,167.679646 1545.1039,166.484811 1543.15802,164.579258 C1541.36942,162.827715 1538.16205,158.536907 1533.53592,151.706832 C1507.75351,103.96903 1452.82576,71.0271549 1389.30388,71.0271549 C1325.782,71.0271549 1271.22791,103.410693 1245.07184,151.148496 L1219.24153,151.148496 C1182.76392,106.406853 1154.95747,79.6997389 1135.82218,71.0271549 C1129.24086,68.0443413 1050.61625,75.0228172 1051.61798,71.0271549 C1057.32885,48.2480338 888.568753,88.0570895 917,94.0267451 C927.462428,100.377978 872.756236,112.772282 860.95128,141.656769 C791.51331,126.416013 763.395618,134.056843 776.598206,164.579258 L738.858734,164.579258 C712.702665,148.387489 687.441261,147.16513 653.43837,147.16513 C619.43548,147.16513 543.587066,159.761469 517.804655,176.232406 L500.493766,171.132367 C507.652608,157.761035 511.318819,133.11839 504.302421,115.915073 C500.918478,107.618073 477.815761,86.0805794 455.19586,67.3188257 C424.301843,41.6942237 380.594753,17.5723648 378.05223,27.2824072 C357.501033,18.9073541 201.071016,12.4017837 177.530553,25.2435317 C165.199835,22.7310157 152.1218,21.3351736 138.670107,21.3351736 C85.6106524,21.3351736 38.9033856,42.2728062 12,73.8188393 C77.0165153,406.029276 462.258051,662.026731 927.462428,662.026731 Z" id="Path" fill="#011030" fill-rule="nonzero" transform="translate(917.000000, 340.013365) rotate(-180.000000) translate(-917.000000, -340.013365) "></path>
            <path d="M884.609827,652.744323 C1298.02952,652.744323 1645.73534,443.622559 1749,158.947124 L1743.94509,158.947124 C1742.86189,94.7265042 1673.31721,27.1983702 1601.10416,27.1983702 C1607.70412,-7.08141174 1465.2078,103.993772 1465.2078,139.377037 C1465.2078,143.76689 1490.5866,153.030344 1480.72853,159.486793 L1470.25764,159.486793 C1445.34414,113.345087 1392.26755,81.504612 1330.88646,81.504612 C1269.50537,81.504612 1216.78984,112.805418 1191.51528,158.947124 L1128.68993,158.947124 C1093.44167,115.701402 1066.57234,89.8872312 1048.08194,81.504612 C1010.58147,64.5037798 929.249983,114.016354 924,114.016354 C867.312758,114.016354 847.059042,109.027735 820.340215,149.772749 C729.833196,127.106648 690.958505,130.524553 703.716144,160.026462 L667.248555,160.026462 C641.973988,144.376059 611.644509,134.93185 578.787572,134.93185 C545.930636,134.93185 515.240091,144.106224 490.32659,160.026462 L404.393064,160.026462 C411.076017,147.523819 414.987816,131.312508 414.987816,107.307462 C444.990905,97.5728197 299.831056,-12.5321319 294.863946,7.76490459 C266.335828,-4.38023236 241.913708,16.7443235 218.805533,16.7443235 C203.279727,16.7443235 182.699009,24.8393595 159.951899,37.2517482 C148.036746,34.8232374 135.399463,33.4740647 122.401115,33.4740647 C71.1298514,33.4740647 25.9966969,53.7116548 -7.27595761e-12,84.2029573 C62.8253509,405.306054 435.083609,652.744323 884.609827,652.744323 Z" id="Path" fill="#01050C" fill-rule="nonzero" transform="translate(874.500000, 328.372162) rotate(-180.000000) translate(-874.500000, -328.372162) "></path>
        </g>
        <g id="concert" transform="translate(78.000000, 164.000000)" fill-rule="nonzero">
            <path d="M1099.77995,395.243899 C1098.76105,353.719291 1070.23209,320.092002 1035.33506,320.092002 C1025.14615,320.092002 1015.46668,322.894276 1006.8061,327.98932 C1013.4289,311.430427 1018.52335,297.673808 1020.05169,294.107278 C1024.12726,283.407686 1027.9481,265.065527 1027.9481,265.065527 L1027.9481,265.065527 C1027.9481,264.810775 1027.9481,264.810775 1028.20282,264.556023 L1036.09923,241.628325 C1036.60868,240.099812 1036.35395,238.571299 1035.84451,237.297538 C1035.84451,235.769025 1035.58979,234.240512 1033.80673,233.731007 C1032.27839,233.221503 1031.00477,234.240512 1029.98588,235.514273 C1028.71227,236.278529 1027.43865,237.55229 1027.18393,239.080804 L1019.54225,260.225236 L1019.0328,259.970484 L1029.98588,219.464884 C1030.49533,217.681619 1030.24061,215.898354 1029.47644,214.369841 C1029.47644,212.331823 1028.96699,210.548558 1026.92921,210.039053 C1025.14615,209.529549 1023.61781,210.548558 1022.59892,212.077071 C1021.07058,212.841327 1019.54225,214.369841 1019.0328,216.407858 L1007.57027,254.620687 L1006.8061,254.111183 L1018.52335,207.236779 C1019.0328,205.453514 1018.77808,203.670248 1017.75919,202.396487 C1017.75919,200.613222 1016.99502,198.829957 1014.95723,198.320452 C1012.91945,197.810948 1011.64584,199.084709 1010.62695,200.867974 C1009.35333,201.632231 1008.58916,202.905992 1008.07972,204.434505 L994.579406,250.544652 L993.560515,250.2899 L1002.47581,211.058062 C1002.98526,209.529549 1002.73054,208.001036 1001.96637,206.727275 C1001.96637,204.689257 1001.45692,202.65124 999.164418,202.141735 C997.126635,201.632231 995.598298,203.160744 994.834129,204.944009 C993.815238,205.708266 992.796346,206.982027 992.541623,208.255788 L981.843263,247.99713 L977.767698,257.932466 C977.258252,253.601679 976.494083,248.251883 974.711023,243.666343 C974.201578,242.647334 970.380735,235.004768 965.795723,237.55229 C965.795723,237.297538 965.541001,237.297538 965.286278,237.042786 C965.286278,237.042786 962.229603,236.788034 964.776832,248.251883 L964.776832,248.251883 C964.776832,249.525644 965.031555,251.054157 965.031555,252.58267 C965.031555,259.715731 964.522109,266.848793 965.031555,270.160571 C966.050446,276.274624 966.305169,286.464712 966.305169,286.464712 C966.305169,286.464712 967.578783,304.042613 967.833506,307.609144 L953.823749,345.312469 C943.889558,337.669903 931.917584,333.084364 918.926718,333.084364 C887.850529,333.084364 861.614075,359.578592 855.755449,394.734395 L665.477476,394.734395 C665.477476,392.95113 665.732198,390.913112 665.732198,389.129847 C665.732198,346.331478 636.693793,311.685179 601.032593,311.685179 C565.371393,311.685179 536.332987,346.331478 536.332987,389.129847 C536.332987,390.913112 536.332987,392.95113 536.58771,394.734395 L429.094665,394.734395 C429.349388,391.677369 429.60411,388.620342 429.60411,385.563316 C429.60411,371.806697 426.547436,358.814335 421.198256,347.605239 C431.38717,321.875267 441.830808,295.381039 443.86859,290.031243 C447.944156,279.33165 451.764999,260.989492 451.764999,260.989492 L451.764999,260.989492 C451.764999,260.73474 451.764999,260.73474 452.019722,260.479988 L459.91613,237.55229 C460.425576,236.023777 460.170853,234.495264 459.661408,233.221503 C459.661408,231.69299 459.406685,230.164477 457.623625,229.654972 C456.095288,229.145468 454.821673,230.164477 453.802782,231.438238 C452.529168,232.202494 451.255553,233.476255 451.00083,235.004768 L443.359145,256.149201 L442.594976,255.894448 L453.548059,215.388849 C454.057505,213.605584 453.802782,211.822319 453.038613,210.293805 C453.038613,208.255788 452.529168,206.472523 450.491385,205.963018 C448.708325,205.453514 447.179988,206.472523 446.161096,208.001036 C444.632759,208.765292 443.104422,210.293805 442.594976,212.331823 L431.132448,250.544652 L430.368279,250.035148 L442.08553,203.160744 C442.594976,201.377479 442.340253,199.594213 441.321362,198.320452 C441.321362,196.537187 440.557193,194.753922 438.51941,194.244417 C436.481628,193.734913 435.208013,195.008674 434.189122,196.791939 C432.915508,197.556196 432.151339,198.829957 431.641893,200.35847 L418.141582,246.468617 L417.12269,246.213865 L426.03799,206.982027 C426.547436,205.453514 426.292713,203.925001 425.528545,202.65124 C425.528545,200.613222 425.019099,198.575204 422.726593,198.0657 C420.68881,197.556196 419.160473,199.084709 418.396305,200.867974 C417.377413,201.632231 416.358522,202.905992 416.103799,204.179753 L405.405439,243.921095 L401.329873,253.856431 C400.820428,249.525644 400.056259,244.175847 398.273199,239.590308 C397.763753,238.571299 393.942911,230.928733 389.357899,233.476255 C389.357899,233.221503 389.103176,233.221503 388.848453,232.966751 C388.848453,232.966751 385.791779,232.711999 388.339008,244.4306 L388.339008,244.4306 C388.339008,245.704361 388.593731,247.232874 388.593731,248.761387 C388.593731,255.894448 388.084285,263.02751 388.593731,266.339288 C389.612622,272.453341 389.867345,282.643429 389.867345,282.643429 C389.867345,282.643429 391.140959,300.22133 391.395682,303.787861 L387.829562,313.213692 C380.697322,309.901914 372.800913,308.118648 364.395059,308.118648 C328.733859,308.118648 299.695454,342.764947 299.695454,385.563316 C299.695454,388.620342 299.950176,391.677369 300.204899,394.734395 L70.1901599,394.734395 L106.360805,281.114916 C109.162757,277.548385 124.191405,260.989492 124.191405,260.989492 C124.191405,260.989492 132.342537,251.054157 138.201163,245.704361 C141.257837,242.902086 146.352294,235.259521 151.956197,228.126459 C153.229811,226.597946 154.248703,225.324185 155.522317,223.795672 L155.522317,223.795672 C166.984845,214.115088 163.673448,211.822319 163.673448,211.822319 C163.418725,211.822319 163.164002,212.077071 162.90928,212.077071 C160.107328,205.963018 150.42786,210.80331 149.154245,211.312814 C143.805065,214.369841 138.710608,219.210132 134.889765,223.286167 L137.436994,214.879345 C137.691717,214.624593 137.691717,214.369841 137.94644,214.115088 L162.145111,163.674154 C162.90928,161.890888 163.164002,160.107623 162.654557,158.324358 C163.418725,155.776836 163.164002,153.229314 160.871497,151.955553 C158.324268,150.681792 156.031763,151.955553 154.248703,153.99357 C152.720365,154.757827 151.192028,156.031588 150.173137,157.814853 L126.738634,203.925001 L125.46502,203.415496 L145.07868,144.567739 C145.842848,142.784474 145.588125,140.746456 144.823957,138.963191 C145.07868,136.670421 144.569234,134.377651 142.276728,133.358642 C139.984223,132.339634 137.94644,133.613395 136.418103,135.651412 C134.635043,136.415669 132.851983,137.944182 132.087814,140.236952 L110.691094,197.046691 C110.691094,197.046691 110.436371,197.046691 110.436371,196.791939 C109.41748,196.282435 109.672203,187.62086 104.832468,187.111356 C99.7380112,186.347099 95.1529998,187.366108 93.8793855,188.894621 C91.3321569,191.951647 89.2943741,190.168382 86.4924227,190.423134 C83.9451941,190.423134 81.1432427,190.168382 78.5960141,193.734913 C77.067677,195.77293 77.067677,200.613222 76.5582313,201.122726 C71.4637741,208.51054 67.3882084,218.700628 64.8409799,227.616955 C61.5295827,238.571299 28.1608885,347.350487 14.9153,395.753404 L6,395.753404 C21.5380942,473.198071 51.3406685,545.547695 92.3510484,610 L1158.3662,610 C1190.71601,559.304313 1216.18829,503.513582 1233,444.411073 L1099.77995,395.243899 Z" id="Path" fill="#0B296B"></path>
            <path d="M908.963636,370.297094 C905.654545,331.36438 878.163636,301.08338 844.818182,301.08338 C819.109091,301.08338 796.963636,318.895733 786.527273,344.850876 L725.945455,274.619313 C724.163636,269.021145 716.272727,241.284767 716.272727,241.284767 C716.272727,241.284767 710.927273,225.508112 709.145455,215.584086 C708.127273,210.24038 703.290909,199.552969 699.218182,188.611095 C698.454545,186.320935 697.690909,184.030776 696.927273,181.995078 L696.927273,181.995078 C693.872727,162.910414 689.545455,164.946112 689.545455,164.946112 C689.545455,165.200574 689.290909,165.709498 689.290909,165.963961 C680.890909,164.69165 679.363636,178.68707 679.109091,180.468305 C678.854545,188.356633 680.636364,197.262809 682.418182,204.133288 L670.709091,191.155717 L631.763636,135.937423 C630.236364,133.901725 628.454545,132.629415 626.163636,131.866028 C623.618182,129.321406 620.563636,128.049095 617.763636,129.83033 C614.709091,131.866028 614.709091,135.174036 616.236364,138.482045 C615.981818,140.772204 616.490909,143.316826 618.018182,145.352524 L654.163636,200.570818 L652.636364,201.588666 L605.545455,138.482045 C604.018182,136.446347 601.981818,134.919574 599.690909,134.665112 C597.4,132.629415 594.6,131.611566 591.8,133.392801 C589,135.174036 588.745455,138.227583 589.763636,141.026667 C589.254545,143.571288 589.763636,146.370372 591.290909,148.914994 L636.090909,214.311775 L635.072727,215.329624 L595.618182,163.164877 C593.581818,160.365793 590.527273,158.839019 587.727273,158.584557 C585.181818,156.803322 582.381818,156.039935 579.836364,157.821171 C577.036364,159.856868 577.290909,162.910414 578.563636,165.963961 C578.054545,168.508582 578.818182,171.562129 580.6,174.10675 L620.309091,230.088431 L619.545455,230.851817 L595.872727,202.606515 C594.090909,200.316355 591.8,199.044044 589.254545,198.789582 C587.218182,197.262809 584.672727,196.499423 582.636364,198.280658 C580.345455,200.061893 580.6,202.606515 581.872727,205.151137 C581.618182,207.441296 582.381818,209.985918 583.909091,212.021616 L609.109091,243.066002 C609.363636,243.320464 609.363636,243.574927 609.618182,243.829389 L609.618182,243.829389 C609.618182,243.829389 626.163636,270.038994 638.381818,284.034414 C645.254545,291.922741 682.672727,334.163464 716.527273,371.060481 L592.818182,421.952917 L494.563636,371.060481 C496.854545,362.917691 498.127273,354.265976 498.127273,345.3598 C498.127273,302.610153 469.109091,268.003296 433.472727,268.003296 C397.836364,268.003296 368.818182,302.610153 368.818182,345.3598 C368.818182,354.265976 370.090909,362.917691 372.381818,371.060481 L15,416.354749 L15,428.568934 C37.9090909,517.121774 79.6545455,598.040748 135.4,667 L1117.18182,667 C1169.36364,602.621068 1209.32727,527.554723 1233,445.872362 L908.963636,370.297094 Z" id="Path" fill="#1E1859"></path>
            <path d="M625.650289,902.458232 C918.046036,902.458232 1163.96491,704.502683 1237,435.027711 L1233.42486,435.027711 C1232.65875,374.236201 1191.28922,325.19431 1140.21573,325.19431 L1140.21573,325.19431 C1145.32308,289.690025 1149.66433,258.783416 1150.43043,251.376047 C1152.9841,232.219059 1151.96263,200.546171 1151.96263,200.546171 L1151.96263,200.546171 C1151.96263,200.290745 1151.96263,200.035318 1151.96263,199.779892 L1155.79315,158.656223 C1156.04851,155.846531 1155.02704,153.292266 1153.49484,151.50428 C1152.9841,148.694589 1151.70727,146.39575 1148.89822,146.140324 C1146.08918,145.884897 1144.30161,147.928309 1143.53551,150.482574 C1141.74794,152.015133 1140.21573,154.569399 1140.21573,157.634517 L1136.12985,195.437641 L1134.85301,195.182214 L1136.89595,124.42907 C1137.15132,121.108525 1135.87448,118.298834 1134.08691,116.255421 C1133.32081,112.934877 1131.7886,110.380612 1128.21346,110.125185 C1124.89368,109.869759 1123.10611,112.168597 1122.08464,115.233715 C1119.53097,117.021701 1117.99876,120.086819 1117.74339,123.66279 L1113.91288,191.09539 L1112.38068,190.839964 L1113.40215,109.103479 C1113.40215,106.038361 1112.38068,103.228669 1110.33774,101.440684 C1109.31627,98.3755655 1107.5287,95.8213003 1104.20892,96.0767268 C1100.88914,96.0767268 1099.10157,98.630992 1098.33547,101.69611 C1096.54789,103.484096 1095.52642,105.782934 1095.52642,108.592626 L1091.44055,189.818258 L1089.65297,189.818258 L1088.88687,121.874805 C1088.88687,119.065113 1088.12077,116.766274 1086.58856,114.978289 C1085.82246,111.402318 1084.03489,108.3372 1080.20438,108.592626 C1076.62923,108.592626 1074.84166,111.657744 1074.07556,115.233715 C1072.54335,117.021701 1071.77725,119.32054 1071.52188,121.874805 L1069.73431,191.606243 L1067.18064,209.486099 C1064.88233,202.589583 1061.30718,193.905082 1056.4552,187.263992 C1055.43373,185.731433 1045.21903,173.470961 1038.57948,181.644609 C1036.28117,184.709727 1041.64389,194.415935 1044.19756,205.910128 C1047.00661,217.915174 1048.79418,229.664794 1051.09249,234.773324 C1055.43373,244.224105 1059.77498,261.082255 1059.77498,261.082255 C1059.77498,261.082255 1068.96821,289.434598 1070.50041,295.309408 L1059.77498,381.898996 C1052.11396,397.73544 1047.77271,416.126149 1047.26197,435.538564 L1039.85632,435.538564 C1022.23596,391.86063 984.696945,361.720302 941.284476,361.720302 C897.872007,361.720302 860.588357,391.349777 842.712634,435.027711 L798.278695,435.027711 L827.135219,342.05246 C832.497936,335.666797 860.843724,304.504762 860.843724,304.504762 C860.843724,304.504762 876.165772,285.6032 887.146573,275.896993 C893.020025,270.533036 902.468621,256.484578 912.68332,242.946972 C922.642651,229.92022 935.155656,220.469439 933.878819,215.105482 C930.048307,200.801598 909.874277,210.763232 907.57597,212.040364 C897.616639,217.659748 887.912675,226.855102 881.017754,234.517897 L885.614368,218.93688 C885.869736,218.426027 886.380471,217.915174 886.635838,217.148895 L932.091247,122.896511 C933.623452,119.575966 933.878819,116.255421 933.368084,113.190303 C934.644922,108.3372 934.389554,103.484096 929.79294,100.929831 C925.196325,98.3755655 920.855078,100.929831 917.535301,105.016655 C914.470892,106.293787 911.66185,108.848053 910.129645,112.168597 L865.184971,197.481053 L862.631296,196.459347 L899.148844,86.1150928 C900.425681,82.5391216 900.170314,78.9631504 898.893476,75.6426057 C899.404211,71.0449284 898.382742,66.9581042 894.041495,65.1701186 C889.700248,63.382133 886.125103,65.6809716 883.316061,69.2569428 C879.740917,70.7895019 876.676507,73.5991936 875.39967,77.6860178 L835.562345,184.198874 C835.306978,184.198874 835.306978,183.943448 835.05161,183.943448 C833.008671,183.177168 833.519405,166.829871 824.581544,165.552739 C815.132948,164.275606 806.450454,165.808165 804.152147,168.873283 C799.300165,174.748093 795.725021,171.427548 790.362304,171.682975 C785.510322,171.938402 780.402973,171.172122 775.806358,177.813211 C772.997316,181.644609 772.741949,190.584537 771.975846,191.606243 C762.52725,205.399275 754.866226,224.81169 750.014244,241.158987 C746.4391,253.164033 729.32948,310.634999 712.475227,370.149376 C700.472956,364.78542 687.704583,361.975728 674.425475,361.975728 C634.332783,361.975728 599.092073,387.773806 580.19488,426.34321 L565.894302,379.089304 C566.660405,372.448215 571.257019,339.242768 571.257019,339.242768 C571.257019,339.242768 572.789224,320.08578 575.853633,308.591587 C577.385838,302.46135 577.385838,288.923745 578.151941,275.38614 C578.918043,262.359388 583.003922,250.354341 579.684145,247.800076 C571.001652,240.137281 562.06379,255.462872 561.04232,257.506284 C556.956441,265.679932 554.658134,276.152419 553.381296,284.070641 L549.295417,271.810169 C549.295417,271.299316 549.295417,270.788462 549.295417,270.277609 L537.293146,187.774845 C536.782411,184.965154 535.505574,182.410889 533.718002,180.87833 C532.441164,177.046932 530.142857,173.981814 526.056978,174.492667 C521.715731,175.00352 520.183526,178.579491 519.928159,182.666315 C518.395954,184.965154 517.885219,187.774845 518.140586,190.584537 L526.567713,266.701638 L526.567713,266.701638 L524.524773,267.212491 C524.524773,267.212491 520.949628,257.506284 510.73493,260.060549 C500.520231,262.614814 503.073906,267.212491 499.243394,267.723344 C495.668249,268.234197 491.58237,261.082255 485.198183,264.4028 C478.303262,267.723344 473.45128,272.576448 473.195912,275.641566 C472.42981,281.771803 468.599298,281.005523 465.279521,283.559788 C462.215111,285.858627 458.3846,287.646612 458.3846,294.032275 C458.3846,297.863673 461.959744,303.738483 461.959744,304.760189 C461.959744,318.042368 465.534889,334.134238 469.3654,347.16099 C471.919075,355.845492 484.176713,394.159469 497.711189,436.049417 L471.919075,436.049417 C454.043353,421.234679 432.592486,412.294751 409.354046,412.294751 C386.115607,412.294751 364.409372,420.979253 346.789017,436.049417 L286.011561,436.049417 C315.123452,363.252861 343.724608,289.434598 349.342692,274.61986 C360.834228,244.224105 371.815029,191.350817 371.815029,191.350817 L371.559661,191.350817 C371.815029,190.839964 371.815029,190.329111 372.070396,190.073684 L394.542733,124.173643 C395.819571,119.575966 395.564203,115.233715 393.776631,111.657744 C394.031998,107.060067 393.010528,102.717816 388.158547,101.185257 C383.8173,99.652698 379.986788,102.46239 377.688481,106.038361 C373.857969,107.826346 370.793559,111.657744 369.261354,116.510848 L347.55512,177.302358 L345.767547,176.536079 L376.922378,60.5724414 C378.454583,55.4639111 377.688481,50.0999543 375.390173,46.0131301 C375.645541,40.3937467 373.857969,35.2852165 368.239884,33.7526574 C363.132535,32.2200983 358.791288,35.02979 355.982246,39.6274672 C351.130264,41.6708793 347.299752,46.0131301 345.767547,51.8879399 L313.080512,161.465914 L310.782205,160.444208 L344.49071,26.089862 C345.767547,20.9813317 345.001445,16.1282279 342.44777,12.0414037 C342.192403,6.67744688 340.149463,2.07976963 334.531379,0.802637057 C328.913295,-0.474495514 325.082783,3.10147568 322.529108,7.95457945 C318.953964,9.99799157 316.400289,13.5739628 315.123452,17.9162135 L276.562964,149.971721 L273.498555,149.205442 L299.035301,37.0732021 C300.056771,32.7309513 299.546036,28.3887006 297.758464,24.8127294 C297.758464,18.682493 295.970892,13.0631097 289.842073,11.5305507 C283.968621,10.2534181 279.627374,14.3402423 277.073699,19.9596256 C274.00929,22.2584642 271.455615,25.5790089 270.434145,29.9212597 L240.045417,144.096911 L228.809249,172.704681 C227.532411,160.444208 225.234104,144.607765 219.871387,131.836439 C218.59455,129.026747 207.869116,107.060067 194.590008,114.212009 C194.334641,113.701156 193.823906,113.190303 193.568538,112.67945 C193.568538,112.67945 185.141412,112.168597 192.036334,145.118618 L192.036334,145.118618 C192.291701,149.205442 192.547069,153.292266 192.547069,157.37909 C192.291701,178.068638 191.014864,198.247332 192.802436,207.698114 C196.122213,225.067116 196.632948,254.185739 196.632948,254.185739 C196.632948,254.185739 199.952725,298.885379 200.718827,312.678411 C186.673617,305.015615 171.096201,300.417938 154.752684,300.417938 C143.771883,300.417938 129.215937,308.080734 113.127787,319.830353 C104.700661,317.531515 95.7627993,316.254382 86.5695706,316.254382 C50.3073906,316.254382 18.3864575,335.411371 0,364.274567 C44.4339389,668.232118 307.717795,902.458232 625.650289,902.458232 Z" id="Path" fill="#011030"></path>
        </g>
    </g>
</svg>