<svg height="873" viewBox="0 0 1455 873" width="1455" xmlns="http://www.w3.org/2000/svg"><g fill="none" fill-rule="evenodd"><path d="m0 0h1455v873h-1455z" fill="#01050c"/><g transform="translate(-110 -345)"><path d="m1565 723.5c0-399.514309-347.22471-723.5-749.5-723.5-402.275292 0-728.5 323.985691-728.5 723.5 0 399.51431 326.224708 723.5 728.5 723.5 402.27529 0 749.5-323.98569 749.5-723.5z" fill="#011030" fill-rule="nonzero"/><path d="m1488 780.5c0-371.352277-301.14772-672.5-672.5-672.5-371.352277 0-672.5 301.147723-672.5 672.5 0 371.35228 301.147723 672.5 672.5 672.5 371.35228 0 672.5-301.14772 672.5-672.5z" fill="#ea4949" fill-rule="nonzero"/><g fill="#f8e71c"><path d="m215.646572 590.756079 64.398294-80.446093 373.360178 346.627803-419.808186 95.651487z" transform="matrix(.99026807 -.1391731 .1391731 .99026807 -97.569338 67.592722)"/><path d="m1103.90605 580.826806 64.3983-80.446093 254.7375 382.307765-266.41289 91.824993-.75968-1.192381c-5.77601-13.818672-9.89319-24.774311-12.35153-32.866917-3.92285-12.913596-7.9794-33.004502-10.61288-46.215728-13.3769-67.107193-23.04317-171.57774-28.99882-313.411639z" transform="matrix(-.9945219 -.10452846 -.10452846 .9945219 2597.110679 136.108803)"/><path d="m649.261393 564.748328 118.091315 13.006042 258.633922 323.299468-172.340302 71.600392z" transform="matrix(-.87461971 .48480962 .48480962 .87461971 1197.552699 -309.708186)"/></g><path d="m927.462428 662.026731c427.838562 0 787.671342-216.355537 894.537572-510.878235h-5.23121c-1.12098-66.4420878-61.6536-120.0424272-136.38522-120.0424272 6.83015-35.4655606-134.66696 95.9087782-134.66696 132.5159922 0 4.541703 14.82636-2.138082 4.62447 4.541703-2.84283-.484118-5.23718-1.678953-7.18306-3.584506-1.7886-1.751543-4.99597-6.042351-9.6221-12.872426-25.78241-47.737802-80.71016-80.6796771-144.23204-80.6796771s-118.07597 32.3835381-144.23204 80.1213411h-25.83031c-36.47761-44.741643-64.28406-71.4487571-83.41935-80.1213411-6.58132-2.9828136-85.20593 3.9956623-84.2042 0 5.71087-22.7791211-163.049227 17.0299346-134.61798 22.9995902 10.462428 6.3512329-44.243764 18.7455369-56.04872 47.6300239-69.43797-15.240756-97.555662-7.599926-84.353074 22.922489h-37.739472c-26.156069-16.191769-51.417473-17.414128-85.420364-17.414128-34.00289 0-109.851304 12.596339-135.633715 29.067276l-17.310889-5.100039c7.158842-13.371332 10.825053-38.013977 3.808655-55.217294-3.383943-8.297-26.48666-29.8344936-49.106561-48.5962473-30.894017-25.624602-74.601107-49.7464609-77.14363-40.0364185-20.551197-8.3750531-176.981214-14.8806235-200.521677-2.0388755-12.330718-2.512516-25.408753-3.9083581-38.860446-3.9083581-53.0594546 0-99.7667214 20.9376326-126.670107 52.4836657 65.0165153 332.2104367 450.258051 588.2078917 915.462428 588.2078917z" fill="#011030" fill-rule="nonzero" transform="matrix(-1 0 0 -1 1834 680.02673)"/><path d="m884.609827 652.744323c413.419693 0 761.125513-209.121764 864.390173-493.797199h-5.05491c-1.0832-64.2206198-70.62788-131.7487538-142.84093-131.7487538 6.59996-34.27978194-135.89636 76.7954018-135.89636 112.1786668 0 4.389853 25.3788 13.653307 15.52073 20.109756h-10.47089c-24.9135-46.141706-77.99009-77.982181-139.37118-77.982181s-114.09662 31.300806-139.37118 77.442512h-62.82535c-35.24826-43.245722-62.11759-69.0598928-80.60799-77.442512-37.50047-17.0008322-118.831957 32.511742-124.08194 32.511742-56.687242 0-76.940958-4.988619-103.659785 35.756395-90.507019-22.666101-129.38171-19.248196-116.624071 10.253713h-36.467589c-25.274567-15.650403-55.604046-25.094612-88.460983-25.094612-32.856936 0-63.547481 9.174374-88.460982 25.094612h-85.933526c6.682953-12.502643 10.594752-28.713954 10.594752-52.719 30.003089-9.7346423-115.15676-119.8395939-120.12387-99.54255741-28.528118-12.14513695-52.950238 8.97941891-76.058413 8.97941891-15.525806 0-36.106524 8.095036-58.853634 20.5074247-11.915153-2.4285108-24.552436-3.7776835-37.550784-3.7776835-51.2712636 0-96.4044181 20.2375901-122.401115 50.7288926 62.8253509 321.1030967 435.083609 568.5413657 884.609827 568.5413657z" fill="#01050c" fill-rule="nonzero" transform="matrix(-1 0 0 -1 1749 656.744324)"/></g><g fill-rule="nonzero" transform="translate(78 164)"><path d="m1099.77995 395.243899c-1.0189-41.524608-29.54786-75.151897-64.44489-75.151897-10.18891 0-19.86838 2.802274-28.52896 7.897318 6.6228-16.558893 11.71725-30.315512 13.24559-33.882042 4.07557-10.699592 7.89641-29.041751 7.89641-29.041751 0-.254752 0-.254752.25472-.509504l7.89641-22.927698c.50945-1.528513.25472-3.057026-.25472-4.330787 0-1.528513-.25472-3.057026-2.03778-3.566531-1.52834-.509504-2.80196.509505-3.82085 1.783266-1.27361.764256-2.54723 2.038017-2.80195 3.566531l-7.64168 21.144432-.50945-.254752 10.95308-40.5056c.50945-1.783265.25473-3.56653-.50944-5.095043 0-2.038018-.50945-3.821283-2.54723-4.330788-1.78306-.509504-3.3114.509505-4.33029 2.038018-1.52834.764256-3.05667 2.29277-3.56612 4.330787l-11.46253 38.212829-.76417-.509504 11.71725-46.874404c.50945-1.783265.25473-3.566531-.76416-4.840292 0-1.783265-.76417-3.56653-2.80196-4.076035-2.03778-.509504-3.31139.764257-4.33028 2.547522-1.27362.764257-2.03779 2.038018-2.54723 3.566531l-13.500314 46.110147-1.018891-.254752 8.915295-39.231838c.50945-1.528513.25473-3.057026-.50944-4.330787 0-2.038018-.50945-4.076035-2.801952-4.58554-2.037783-.509504-3.56612 1.019009-4.330289 2.802274-1.018891.764257-2.037783 2.038018-2.292506 3.311779l-10.69836 39.741342-4.075565 9.935336c-.509446-4.330787-1.273615-9.680583-3.056675-14.266123-.509445-1.019009-4.330288-8.661575-8.9153-6.114053 0-.254752-.254722-.254752-.509445-.509504 0 0-3.056675-.254752-.509446 11.209097 0 1.273761.254723 2.802274.254723 4.330787 0 7.133061-.509446 14.266123 0 17.577901 1.018891 6.114053 1.273614 16.304141 1.273614 16.304141s1.273614 17.577901 1.528337 21.144432l-14.009757 37.703325c-9.934191-7.642566-21.906165-12.228105-34.897031-12.228105-31.076189 0-57.312643 26.494228-63.171269 61.650031h-190.277973c0-1.783265.254722-3.821283.254722-5.604548 0-42.798369-29.038405-77.444668-64.699605-77.444668s-64.699606 34.646299-64.699606 77.444668c0 1.783265 0 3.821283.254723 5.604548h-107.493045c.254723-3.057026.509445-6.114053.509445-9.171079 0-13.756619-3.056674-26.748981-8.405854-37.958077 10.188914-25.729972 20.632552-52.2242 22.670334-57.573996 4.075566-10.699593 7.896409-29.041751 7.896409-29.041751 0-.254752 0-.254752.254723-.509504l7.896408-22.927698c.509446-1.528513.254723-3.057026-.254722-4.330787 0-1.528513-.254723-3.057026-2.037783-3.566531-1.528337-.509504-2.801952.509505-3.820843 1.783266-1.273614.764256-2.547229 2.038017-2.801952 3.56653l-7.641685 21.144433-.764169-.254753 10.953083-40.505599c.509446-1.783265.254723-3.56653-.509446-5.095044 0-2.038017-.509445-3.821282-2.547228-4.330787-1.78306-.509504-3.311397.509505-4.330289 2.038018-1.528337.764256-3.056674 2.292769-3.56612 4.330787l-11.462528 38.212829-.764169-.509504 11.717251-46.874404c.509446-1.783265.254723-3.566531-.764168-4.840292 0-1.783265-.764169-3.56653-2.801952-4.076035-2.037782-.509504-3.311397.764257-4.330288 2.547522-1.273614.764257-2.037783 2.038018-2.547229 3.566531l-13.500311 46.110147-1.018892-.254752 8.9153-39.231838c.509446-1.528513.254723-3.057026-.509445-4.330787 0-2.038018-.509446-4.076036-2.801952-4.58554-2.037783-.509504-3.56612 1.019009-4.330288 2.802274-1.018892.764257-2.037783 2.038018-2.292506 3.311779l-10.69836 39.741342-4.075566 9.935336c-.509445-4.330787-1.273614-9.680584-3.056674-14.266123-.509446-1.019009-4.330288-8.661575-8.9153-6.114053 0-.254752-.254723-.254752-.509446-.509504 0 0-3.056674-.254752-.509445 11.463849 0 1.273761.254723 2.802274.254723 4.330787 0 7.133061-.509446 14.266123 0 17.577901 1.018891 6.114053 1.273614 16.304141 1.273614 16.304141s1.273614 17.577901 1.528337 21.144432l-3.56612 9.425831c-7.13224-3.311778-15.028649-5.095044-23.434503-5.095044-35.6612 0-64.699605 34.646299-64.699605 77.444668 0 3.057026.254722 6.114053.509445 9.171079h-230.0147391l36.1706451-113.619479c2.801952-3.566531 17.8306-20.125424 17.8306-20.125424s8.151132-9.935335 14.009758-15.285131c3.056674-2.802275 8.151131-10.44484 13.755034-17.577902 1.273614-1.528513 2.292506-2.802274 3.56612-4.330787 11.462528-9.680584 8.151131-11.973353 8.151131-11.973353-.254723 0-.509446.254752-.764168.254752-2.801952-6.114053-12.48142-1.273761-13.755035-.764257-5.34918 3.057027-10.443637 7.897318-14.26448 11.973353l2.547229-8.406822c.254723-.254752.254723-.509504.509446-.764257l24.198671-50.440934c.764169-1.783266 1.018891-3.566531.509446-5.349796.764168-2.547522.509445-5.095044-1.78306-6.368805-2.547229-1.273761-4.839734 0-6.622794 2.038017-1.528338.764257-3.056675 2.038018-4.075566 3.821283l-23.434503 46.110148-1.273614-.509505 19.61366-58.847757c.764168-1.783265.509445-3.821283-.254723-5.604548.254723-2.29277-.254723-4.58554-2.547229-5.604549-2.292505-1.019008-4.330288.254753-5.858625 2.29277-1.78306.764257-3.56612 2.29277-4.330289 4.58554l-21.39672 56.809739s-.254723 0-.254723-.254752c-1.018891-.509504-.764168-9.171079-5.603903-9.680583-5.0944568-.764257-9.6794682.254752-10.9530825 1.783265-2.5472286 3.057026-4.5850114 1.273761-7.3869628 1.528513-2.5472286 0-5.34918-.254752-7.8964086 3.311779-1.5283371 2.038017-1.5283371 6.878309-2.0377828 7.387813-5.0944572 7.387814-9.1700229 17.577902-11.7172514 26.494229-3.3113972 10.954344-36.6800914 119.733532-49.9256799 168.136449h-8.9153c15.5380942 77.444667 45.3406685 149.794291 86.3510484 214.246596h1066.0151516c32.34981-50.695687 57.82209-106.486418 74.6338-165.588927z" fill="#0b296b"/><path d="m908.963636 370.297094c-3.309091-38.932714-30.8-69.213714-64.145454-69.213714-25.709091 0-47.854546 17.812353-58.290909 43.767496l-60.581818-70.231563c-1.781819-5.598168-9.672728-33.334546-9.672728-33.334546s-5.345454-15.776655-7.127272-25.700681c-1.018182-5.343706-5.854546-16.031117-9.927273-26.972991-.763637-2.29016-1.527273-4.580319-2.290909-6.616017-3.054546-19.084664-7.381818-17.048966-7.381818-17.048966 0 .254462-.254546.763386-.254546 1.017849-8.4-1.272311-9.927273 12.723109-10.181818 14.504344-.254546 7.888328 1.527273 16.794504 3.309091 23.664983l-11.709091-12.977571-38.945455-55.218294c-1.527272-2.035698-3.309091-3.308008-5.6-4.071395-2.545454-2.544622-5.6-3.816933-8.4-2.035698-3.054545 2.035698-3.054545 5.343706-1.527272 8.651715-.254546 2.290159.254545 4.834781 1.781818 6.870479l36.145454 55.218294-1.527272 1.017848-47.090909-63.106621c-1.527273-2.035698-3.563637-3.562471-5.854546-3.816933-2.290909-2.035697-5.090909-3.053546-7.890909-1.272311s-3.054545 4.834782-2.036364 7.633866c-.509091 2.544621 0 5.343705 1.527273 7.888327l44.8 65.396781-1.018182 1.017849-39.454545-52.164747c-2.036364-2.799084-5.090909-4.325858-7.890909-4.58032-2.545455-1.781235-5.345455-2.544622-7.890909-.763386-2.8 2.035697-2.545455 5.089243-1.272728 8.14279-.509091 2.544621.254546 5.598168 2.036364 8.142789l39.709091 55.981681-.763636.763386-23.672728-28.245302c-1.781818-2.29016-4.072727-3.562471-6.618182-3.816933-2.036363-1.526773-4.581818-2.290159-6.618181-.508924-2.290909 1.781235-2.036364 4.325857-.763637 6.870479-.254545 2.290159.509091 4.834781 2.036364 6.870479l25.2 31.044386c.254545.254462.254545.508925.509091.763387s16.545454 26.209605 28.763636 40.205025c6.872727 7.888327 44.290909 50.12905 78.145455 87.026067l-123.709091 50.892436-98.254546-50.892436c2.290909-8.14279 3.563637-16.794505 3.563637-25.700681 0-42.749647-29.018182-77.356504-64.654546-77.356504-35.636363 0-64.654545 34.606857-64.654545 77.356504 0 8.906176 1.272727 17.557891 3.563636 25.700681l-357.381818 45.294268v12.214185c22.9090909 88.55284 64.6545455 169.471814 120.4 238.431066h981.78182c52.18182-64.378932 92.14545-139.445277 115.81818-221.127638z" fill="#011750"/><path d="m625.650289 902.458232c292.395747 0 538.314621-197.955549 611.349711-467.430521h-3.57514c-.76611-60.79151-42.13564-109.833401-93.20913-109.833401 5.10735-35.504285 9.4486-66.410894 10.2147-73.818263 2.55367-19.156988 1.5322-50.829876 1.5322-50.829876 0-.255426 0-.510853 0-.766279l3.83052-41.123669c.25536-2.809692-.76611-5.363957-2.29831-7.151943-.51074-2.809691-1.78757-5.10853-4.59662-5.363956-2.80904-.255427-4.59661 1.787985-5.36271 4.34225-1.78757 1.532559-3.31978 4.086825-3.31978 7.151943l-4.08588 37.803124-1.27684-.255427 2.04294-70.753144c.25537-3.320545-1.02147-6.130236-2.80904-8.173649-.7661-3.320544-2.29831-5.874809-5.87345-6.130236-3.31978-.255426-5.10735 2.043412-6.12882 5.10853-2.55367 1.787986-4.08588 4.853104-4.34125 8.429075l-3.83051 67.4326-1.5322-.255426 1.02147-81.736485c0-3.065118-1.02147-5.87481-3.06441-7.662795-1.02147-3.0651185-2.80904-5.6193837-6.12882-5.3639572-3.31978 0-5.10735 2.5542652-5.87345 5.6193832-1.78758 1.787986-2.80905 4.086824-2.80905 6.896516l-4.08587 81.225632h-1.78758l-.7661-67.943453c0-2.809692-.7661-5.108531-2.29831-6.896516-.7661-3.575971-2.55367-6.641089-6.38418-6.385663-3.57515 0-5.36272 3.065118-6.12882 6.641089-1.53221 1.787986-2.29831 4.086825-2.55368 6.64109l-1.78757 69.731438-2.55367 17.879856c-2.29831-6.896516-5.87346-15.581017-10.72544-22.222107-1.02147-1.532559-11.23617-13.793031-17.87572-5.619383-2.29831 3.065118 3.06441 12.771326 5.61808 24.265519 2.80905 12.005046 4.59662 23.754666 6.89493 28.863196 4.34124 9.450781 8.68249 26.308931 8.68249 26.308931s9.19323 28.352343 10.72543 34.227153l-10.72543 86.589588c-7.66102 15.836444-12.00227 34.227153-12.51301 53.639568h-7.40565c-17.62036-43.677934-55.159375-73.818262-98.571844-73.818262s-80.696119 29.629475-98.571842 73.307409h-44.433939l28.856524-92.975251c5.362717-6.385663 33.708505-37.547698 33.708505-37.547698s15.322048-18.901562 26.302849-28.607769c5.873452-5.363957 15.322048-19.412415 25.536747-32.950021 9.959331-13.026752 22.472336-22.477533 21.195499-27.84149-3.830512-14.303884-24.004542-4.34225-26.302849-3.065118-9.959331 5.619384-19.663295 14.814738-26.558216 22.477533l4.596614-15.581017c.255368-.510853.766103-1.021706 1.02147-1.787985l45.455409-94.252384c1.532205-3.320545 1.787572-6.64109 1.276837-9.706208 1.276838-4.853103 1.02147-9.706207-3.575144-12.260472-4.596615-2.5542655-8.937862 0-12.257639 4.086824-3.064409 1.277132-5.873451 3.831398-7.405656 7.151942l-44.944674 85.312456-2.553675-1.021706 36.517548-110.3442542c1.276837-3.5759712 1.02147-7.1519424-.255368-10.4724871.510735-4.5976773-.510734-8.6845015-4.851981-10.4724871s-7.916392.510853-10.725434 4.0868242c-3.575144 1.5325591-6.639554 4.3422508-7.916391 8.429075l-39.837325 106.5128562c-.255367 0-.255367-.255426-.510735-.255426-2.042939-.76628-1.532205-17.113577-10.470066-18.390709-9.448596-1.277133-18.13109.255426-20.429397 3.320544-4.851982 5.87481-8.427126 2.554265-13.789843 2.809692-4.851982.255427-9.959331-.510853-14.555946 6.130236-2.809042 3.831398-3.064409 12.771326-3.830512 13.793032-9.448596 13.793032-17.10962 33.205447-21.961602 49.552744-3.575144 12.005046-20.684764 69.476012-37.539017 128.990389-12.002271-5.363956-24.770644-8.173648-38.049752-8.173648-40.092692 0-75.333402 25.798078-94.230595 64.367482l-14.300578-47.253906c.766103-6.641089 5.362717-39.846536 5.362717-39.846536s1.532205-19.156988 4.596614-30.651181c1.532205-6.130237 1.532205-19.667842 2.298308-33.205447.766102-13.026752 4.851981-25.031799 1.532204-27.586064-8.682493-7.662795-17.620355 7.662796-18.641825 9.706208-4.085879 8.173648-6.384186 18.646135-7.661024 26.564357l-4.085879-12.260472c0-.510853 0-1.021707 0-1.53256l-12.002271-82.502764c-.510735-2.809691-1.787572-5.363956-3.575144-6.896515-1.276838-3.831398-3.575145-6.896516-7.661024-6.385663-4.341247.510853-5.873452 4.086824-6.128819 8.173648-1.532205 2.298839-2.04294 5.10853-1.787573 7.918222l8.427127 76.117101-2.04294.510853s-3.575145-9.706207-13.789843-7.151942c-10.214699 2.554265-7.661024 7.151942-11.491536 7.662795-3.575145.510853-7.661024-6.641089-14.045211-3.320544-6.894921 3.320544-11.746903 8.173648-12.002271 11.238766-.766102 6.130237-4.596614 5.363957-7.916391 7.918222-3.06441 2.298839-6.894921 4.086824-6.894921 10.472487 0 3.831398 3.575144 9.706208 3.575144 10.727914 0 13.282179 3.575145 29.374049 7.405656 42.400801 2.553675 8.684502 14.811313 46.998479 28.345789 88.888427h-25.792114c-17.875722-14.814738-39.326589-23.754666-62.565029-23.754666-23.238439 0-44.944674 8.684502-62.565029 23.754666h-60.777456c29.111891-72.796556 57.713047-146.614819 63.331131-161.429557 11.491536-30.395755 22.472337-83.269043 22.472337-83.269043h-.255368c.255368-.510853.255368-1.021706.510735-1.277133l22.472337-65.900041c1.276838-4.597677 1.02147-8.939928-.766102-12.515899.255367-4.597677-.766103-8.939928-5.618084-10.472487-4.341247-1.532559-8.171759 1.277133-10.470066 4.853104-3.830512 1.787985-6.894922 5.619383-8.427127 10.472487l-21.706234 60.79151-1.787573-.766279 31.154831-115.9636376c1.532205-5.1085303.766103-10.4724871-1.532205-14.5593113.255368-5.6193834-1.532204-10.7279136-7.150289-12.2604727-5.107349-1.5325591-9.448596 1.2771326-12.257638 5.8748098-4.851982 2.0434121-8.682494 6.3856629-10.214699 12.2604727l-32.687035 109.5779741-2.298307-1.021706 33.708505-134.354346c1.276837-5.1085303.510735-9.9616341-2.04294-14.0484583-.255367-5.36395682-2.298307-9.96163407-7.916391-11.23876664s-9.448596 2.29883862-12.002271 7.15194239c-3.575144 2.04341212-6.128819 5.61938335-7.405656 9.96163405l-38.560488 132.0555075-3.064409-.766279 25.536746-112.1322399c1.02147-4.3422508.510735-8.6845015-1.276837-12.2604727 0-6.1302364-1.787572-11.7496197-7.916391-13.2821787-5.873452-1.2771326-10.214699 2.8096916-12.768374 8.4290749-3.064409 2.2988386-5.618084 5.6193833-6.639554 9.9616341l-30.388728 114.1756513-11.236168 28.60777c-1.276838-12.260473-3.575145-28.096916-8.937862-40.868242-1.276837-2.809692-12.002271-24.776372-25.281379-17.62443-.255367-.510853-.766102-1.021706-1.02147-1.532559 0 0-8.427126-.510853-1.532204 32.439168.255367 4.086824.510735 8.173648.510735 12.260472-.255368 20.689548-1.532205 40.868242.255367 50.319024 3.319777 17.369002 3.830512 46.487625 3.830512 46.487625s3.319777 44.69964 4.085879 58.492672c-14.04521-7.662796-29.622626-12.260473-45.966143-12.260473-10.980801 0-25.536747 7.662796-41.624897 19.412415-8.427126-2.298838-17.3649877-3.575971-26.5582164-3.575971-36.26218 0-68.1831131 19.156989-86.5695706 48.020185 44.4339389 303.957551 307.717795 538.183665 625.650289 538.183665z" fill="#011030"/></g></g></svg>