<?xml version="1.0" encoding="UTF-8"?>
<svg width="106px" height="123px" viewBox="0 0 106 123" version="1.1" xmlns="http://www.w3.org/2000/svg" xmlns:xlink="http://www.w3.org/1999/xlink">
    <!-- Generator: Sketch 52.6 (67491) - http://www.bohemiancoding.com/sketch -->
    <title>android</title>
    <desc>Created with Sketch.</desc>
    <g id="Page-1" stroke="none" stroke-width="1" fill="none" fill-rule="evenodd">
        <g id="android" fill="#ff7000">
            <path d="M85.4278334,41 L21.5718619,41 C20.1514117,41 19,42.1197361 19,43.5011093 L19,95.5763925 C19,96.9577657 20.1514117,98.0775018 21.5718619,98.0775018 L32.9558778,98.0775018 L32.9558778,115.627046 C32.9558778,119.698868 36.3500896,123 40.5374014,123 C44.7244085,123 48.118925,119.699164 48.118925,115.627046 L48.118925,98.0775018 L58.7229425,98.0775018 L58.7229425,115.627046 C58.7229425,119.698868 62.1171543,123 66.3044661,123 C70.4914732,123 73.8859897,119.699164 73.8859897,115.627046 L73.8859897,98.0775018 L85.4281381,98.0775018 C86.8485883,98.0775018 88,96.9577657 88,95.5763925 L88,43.5011093 C87.9996953,42.1197361 86.8482836,41 85.4278334,41 Z" id="Path"></path>
            <path d="M7.5,41 C3.35801551,41 0,44.3235873 0,48.4237723 L0,78.5762277 C0,82.6761143 3.3577141,86 7.5,86 C11.6419845,86 15,82.6764127 15,78.5762277 L15,48.4237723 C14.9996986,44.3238857 11.6419845,41 7.5,41 Z" id="Path"></path>
            <path d="M98.5,41 C94.3580155,41 91,44.3235873 91,48.4237723 L91,78.5762277 C91,82.6761143 94.3577141,86 98.5,86 C102.641984,86 106,82.6764127 106,78.5762277 L106,48.4237723 C106,44.3238857 102.642286,41 98.5,41 Z" id="Path"></path>
            <path d="M20.5813396,37 L83.418752,37 C85.058026,37 86.280608,35.525896 85.943955,33.9596418 C83.8653824,24.2889469 77.5581793,16.1391765 68.9998002,11.4311692 L74.3715846,1.96952684 C74.7351209,1.32894917 74.4980585,0.521666228 73.8418601,0.166783811 C73.1841343,-0.188993267 72.3583874,0.0433205165 71.994851,0.683898189 L66.5824362,10.2168153 C62.1494311,8.2085983 57.2090025,7.08699093 52.0000458,7.08699093 C46.7907836,7.08699093 41.8503551,8.2085983 37.4173499,10.2168153 L32.0049351,0.683599969 C31.6410932,0.0427240755 30.8141244,-0.188396826 30.1582315,0.16648559 C29.5020331,0.521368007 29.2649707,1.32865095 29.6285071,1.96922862 L35.0002914,11.430871 C26.4419123,16.1391765 20.1347092,24.2886486 18.0561366,33.9596418 C17.7191781,35.525896 18.9417601,37 20.5813396,37 Z M70.7499681,22.8992392 C70.7499681,24.47444 69.4418482,25.7517185 67.8279301,25.7517185 C66.2143174,25.7517185 64.905892,24.4747382 64.905892,22.8992392 C64.905892,21.3240385 66.2140119,20.04676 67.8279301,20.04676 C69.4418482,20.04676 70.7499681,21.3240385 70.7499681,22.8992392 Z M36.1715505,20.04676 C37.7851632,20.04676 39.0935886,21.3237402 39.0935886,22.8992392 C39.0935886,24.47444 37.7854687,25.7517185 36.1715505,25.7517185 C34.5579379,25.7517185 33.2495125,24.4747382 33.2495125,22.8992392 C33.2495125,21.3240385 34.5576324,20.04676 36.1715505,20.04676 Z" id="Shape" fill-rule="nonzero"></path>
        </g>
    </g>
</svg>